G04 #@! TF.GenerationSoftware,KiCad,Pcbnew,(5.1.2)-2*
G04 #@! TF.CreationDate,2020-04-08T13:50:03-07:00*
G04 #@! TF.ProjectId,flatmcu,666c6174-6d63-4752-9e6b-696361645f70,rev?*
G04 #@! TF.SameCoordinates,PX1312d00PY1312d00*
G04 #@! TF.FileFunction,Copper,L2,Inr*
G04 #@! TF.FilePolarity,Positive*
%FSLAX46Y46*%
G04 Gerber Fmt 4.6, Leading zero omitted, Abs format (unit mm)*
G04 Created by KiCad (PCBNEW (5.1.2)-2) date 2020-04-08 13:50:03*
%MOMM*%
%LPD*%
G04 APERTURE LIST*
%ADD10R,0.850000X0.850000*%
%ADD11C,0.575000*%
%ADD12C,1.600000*%
%ADD13O,1.950000X1.700000*%
%ADD14C,0.100000*%
%ADD15C,1.700000*%
%ADD16C,0.800000*%
%ADD17C,0.254000*%
G04 APERTURE END LIST*
D10*
X70900000Y-31400000D03*
X73400000Y-31400000D03*
X73400000Y-33900000D03*
D11*
X32775000Y-33109875D03*
X32775000Y-31866125D03*
X31625000Y-34353625D03*
X31625000Y-33109875D03*
X31625000Y-31866125D03*
X31625000Y-30622375D03*
X30475000Y-34353625D03*
X30475000Y-33109875D03*
X30475000Y-31866125D03*
X30475000Y-30622375D03*
X29325000Y-33109875D03*
X29325000Y-31866125D03*
D12*
X54300000Y-6450000D03*
X47700000Y-6450000D03*
D13*
X79050000Y-38550000D03*
X79050000Y-41050000D03*
X79050000Y-43550000D03*
X79050000Y-46050000D03*
X79050000Y-48550000D03*
D14*
G36*
X79799504Y-50201204D02*
G01*
X79823773Y-50204804D01*
X79847571Y-50210765D01*
X79870671Y-50219030D01*
X79892849Y-50229520D01*
X79913893Y-50242133D01*
X79933598Y-50256747D01*
X79951777Y-50273223D01*
X79968253Y-50291402D01*
X79982867Y-50311107D01*
X79995480Y-50332151D01*
X80005970Y-50354329D01*
X80014235Y-50377429D01*
X80020196Y-50401227D01*
X80023796Y-50425496D01*
X80025000Y-50450000D01*
X80025000Y-51650000D01*
X80023796Y-51674504D01*
X80020196Y-51698773D01*
X80014235Y-51722571D01*
X80005970Y-51745671D01*
X79995480Y-51767849D01*
X79982867Y-51788893D01*
X79968253Y-51808598D01*
X79951777Y-51826777D01*
X79933598Y-51843253D01*
X79913893Y-51857867D01*
X79892849Y-51870480D01*
X79870671Y-51880970D01*
X79847571Y-51889235D01*
X79823773Y-51895196D01*
X79799504Y-51898796D01*
X79775000Y-51900000D01*
X78325000Y-51900000D01*
X78300496Y-51898796D01*
X78276227Y-51895196D01*
X78252429Y-51889235D01*
X78229329Y-51880970D01*
X78207151Y-51870480D01*
X78186107Y-51857867D01*
X78166402Y-51843253D01*
X78148223Y-51826777D01*
X78131747Y-51808598D01*
X78117133Y-51788893D01*
X78104520Y-51767849D01*
X78094030Y-51745671D01*
X78085765Y-51722571D01*
X78079804Y-51698773D01*
X78076204Y-51674504D01*
X78075000Y-51650000D01*
X78075000Y-50450000D01*
X78076204Y-50425496D01*
X78079804Y-50401227D01*
X78085765Y-50377429D01*
X78094030Y-50354329D01*
X78104520Y-50332151D01*
X78117133Y-50311107D01*
X78131747Y-50291402D01*
X78148223Y-50273223D01*
X78166402Y-50256747D01*
X78186107Y-50242133D01*
X78207151Y-50229520D01*
X78229329Y-50219030D01*
X78252429Y-50210765D01*
X78276227Y-50204804D01*
X78300496Y-50201204D01*
X78325000Y-50200000D01*
X79775000Y-50200000D01*
X79799504Y-50201204D01*
X79799504Y-50201204D01*
G37*
D15*
X79050000Y-51050000D03*
D14*
G36*
X70749504Y-63901204D02*
G01*
X70773773Y-63904804D01*
X70797571Y-63910765D01*
X70820671Y-63919030D01*
X70842849Y-63929520D01*
X70863893Y-63942133D01*
X70883598Y-63956747D01*
X70901777Y-63973223D01*
X70918253Y-63991402D01*
X70932867Y-64011107D01*
X70945480Y-64032151D01*
X70955970Y-64054329D01*
X70964235Y-64077429D01*
X70970196Y-64101227D01*
X70973796Y-64125496D01*
X70975000Y-64150000D01*
X70975000Y-65350000D01*
X70973796Y-65374504D01*
X70970196Y-65398773D01*
X70964235Y-65422571D01*
X70955970Y-65445671D01*
X70945480Y-65467849D01*
X70932867Y-65488893D01*
X70918253Y-65508598D01*
X70901777Y-65526777D01*
X70883598Y-65543253D01*
X70863893Y-65557867D01*
X70842849Y-65570480D01*
X70820671Y-65580970D01*
X70797571Y-65589235D01*
X70773773Y-65595196D01*
X70749504Y-65598796D01*
X70725000Y-65600000D01*
X69275000Y-65600000D01*
X69250496Y-65598796D01*
X69226227Y-65595196D01*
X69202429Y-65589235D01*
X69179329Y-65580970D01*
X69157151Y-65570480D01*
X69136107Y-65557867D01*
X69116402Y-65543253D01*
X69098223Y-65526777D01*
X69081747Y-65508598D01*
X69067133Y-65488893D01*
X69054520Y-65467849D01*
X69044030Y-65445671D01*
X69035765Y-65422571D01*
X69029804Y-65398773D01*
X69026204Y-65374504D01*
X69025000Y-65350000D01*
X69025000Y-64150000D01*
X69026204Y-64125496D01*
X69029804Y-64101227D01*
X69035765Y-64077429D01*
X69044030Y-64054329D01*
X69054520Y-64032151D01*
X69067133Y-64011107D01*
X69081747Y-63991402D01*
X69098223Y-63973223D01*
X69116402Y-63956747D01*
X69136107Y-63942133D01*
X69157151Y-63929520D01*
X69179329Y-63919030D01*
X69202429Y-63910765D01*
X69226227Y-63904804D01*
X69250496Y-63901204D01*
X69275000Y-63900000D01*
X70725000Y-63900000D01*
X70749504Y-63901204D01*
X70749504Y-63901204D01*
G37*
D15*
X70000000Y-64750000D03*
D13*
X70000000Y-62250000D03*
X70000000Y-59750000D03*
D14*
G36*
X70749504Y-14451204D02*
G01*
X70773773Y-14454804D01*
X70797571Y-14460765D01*
X70820671Y-14469030D01*
X70842849Y-14479520D01*
X70863893Y-14492133D01*
X70883598Y-14506747D01*
X70901777Y-14523223D01*
X70918253Y-14541402D01*
X70932867Y-14561107D01*
X70945480Y-14582151D01*
X70955970Y-14604329D01*
X70964235Y-14627429D01*
X70970196Y-14651227D01*
X70973796Y-14675496D01*
X70975000Y-14700000D01*
X70975000Y-15900000D01*
X70973796Y-15924504D01*
X70970196Y-15948773D01*
X70964235Y-15972571D01*
X70955970Y-15995671D01*
X70945480Y-16017849D01*
X70932867Y-16038893D01*
X70918253Y-16058598D01*
X70901777Y-16076777D01*
X70883598Y-16093253D01*
X70863893Y-16107867D01*
X70842849Y-16120480D01*
X70820671Y-16130970D01*
X70797571Y-16139235D01*
X70773773Y-16145196D01*
X70749504Y-16148796D01*
X70725000Y-16150000D01*
X69275000Y-16150000D01*
X69250496Y-16148796D01*
X69226227Y-16145196D01*
X69202429Y-16139235D01*
X69179329Y-16130970D01*
X69157151Y-16120480D01*
X69136107Y-16107867D01*
X69116402Y-16093253D01*
X69098223Y-16076777D01*
X69081747Y-16058598D01*
X69067133Y-16038893D01*
X69054520Y-16017849D01*
X69044030Y-15995671D01*
X69035765Y-15972571D01*
X69029804Y-15948773D01*
X69026204Y-15924504D01*
X69025000Y-15900000D01*
X69025000Y-14700000D01*
X69026204Y-14675496D01*
X69029804Y-14651227D01*
X69035765Y-14627429D01*
X69044030Y-14604329D01*
X69054520Y-14582151D01*
X69067133Y-14561107D01*
X69081747Y-14541402D01*
X69098223Y-14523223D01*
X69116402Y-14506747D01*
X69136107Y-14492133D01*
X69157151Y-14479520D01*
X69179329Y-14469030D01*
X69202429Y-14460765D01*
X69226227Y-14454804D01*
X69250496Y-14451204D01*
X69275000Y-14450000D01*
X70725000Y-14450000D01*
X70749504Y-14451204D01*
X70749504Y-14451204D01*
G37*
D15*
X70000000Y-15300000D03*
D13*
X70000000Y-12800000D03*
X70000000Y-10300000D03*
X70000000Y-7800000D03*
X79050000Y-22600000D03*
X79050000Y-25100000D03*
X79050000Y-27600000D03*
D14*
G36*
X79799504Y-29251204D02*
G01*
X79823773Y-29254804D01*
X79847571Y-29260765D01*
X79870671Y-29269030D01*
X79892849Y-29279520D01*
X79913893Y-29292133D01*
X79933598Y-29306747D01*
X79951777Y-29323223D01*
X79968253Y-29341402D01*
X79982867Y-29361107D01*
X79995480Y-29382151D01*
X80005970Y-29404329D01*
X80014235Y-29427429D01*
X80020196Y-29451227D01*
X80023796Y-29475496D01*
X80025000Y-29500000D01*
X80025000Y-30700000D01*
X80023796Y-30724504D01*
X80020196Y-30748773D01*
X80014235Y-30772571D01*
X80005970Y-30795671D01*
X79995480Y-30817849D01*
X79982867Y-30838893D01*
X79968253Y-30858598D01*
X79951777Y-30876777D01*
X79933598Y-30893253D01*
X79913893Y-30907867D01*
X79892849Y-30920480D01*
X79870671Y-30930970D01*
X79847571Y-30939235D01*
X79823773Y-30945196D01*
X79799504Y-30948796D01*
X79775000Y-30950000D01*
X78325000Y-30950000D01*
X78300496Y-30948796D01*
X78276227Y-30945196D01*
X78252429Y-30939235D01*
X78229329Y-30930970D01*
X78207151Y-30920480D01*
X78186107Y-30907867D01*
X78166402Y-30893253D01*
X78148223Y-30876777D01*
X78131747Y-30858598D01*
X78117133Y-30838893D01*
X78104520Y-30817849D01*
X78094030Y-30795671D01*
X78085765Y-30772571D01*
X78079804Y-30748773D01*
X78076204Y-30724504D01*
X78075000Y-30700000D01*
X78075000Y-29500000D01*
X78076204Y-29475496D01*
X78079804Y-29451227D01*
X78085765Y-29427429D01*
X78094030Y-29404329D01*
X78104520Y-29382151D01*
X78117133Y-29361107D01*
X78131747Y-29341402D01*
X78148223Y-29323223D01*
X78166402Y-29306747D01*
X78186107Y-29292133D01*
X78207151Y-29279520D01*
X78229329Y-29269030D01*
X78252429Y-29260765D01*
X78276227Y-29254804D01*
X78300496Y-29251204D01*
X78325000Y-29250000D01*
X79775000Y-29250000D01*
X79799504Y-29251204D01*
X79799504Y-29251204D01*
G37*
D15*
X79050000Y-30100000D03*
D16*
X13800000Y-40050000D03*
X13800000Y-41300000D03*
X13800000Y-42550000D03*
X41800000Y-42300000D03*
X42550000Y-43050000D03*
X41800000Y-43800000D03*
X42550000Y-44550000D03*
X38800000Y-43800000D03*
X38800000Y-42300000D03*
X39550000Y-43050000D03*
X39550000Y-44550000D03*
X41850000Y-34400000D03*
X69500000Y-19700000D03*
X66050000Y-22250000D03*
X48650000Y-40250000D03*
X32350000Y-26700000D03*
X40800000Y-25800000D03*
X58550000Y-45800000D03*
X47750000Y-34400000D03*
X59900000Y-27825000D03*
X64400000Y-26700000D03*
X60900000Y-23900000D03*
X49250000Y-22250000D03*
X66800000Y-38400000D03*
X72500000Y-39275000D03*
X11550000Y-14300000D03*
X11550000Y-15300000D03*
X62500000Y-21400000D03*
X49200000Y-10900000D03*
X30550000Y-13550000D03*
X31800000Y-13550000D03*
X13800000Y-43800000D03*
X15050000Y-43800000D03*
X15050000Y-40050000D03*
X15050000Y-41300000D03*
X15050000Y-42550000D03*
X62012500Y-14287500D03*
X59750000Y-12150000D03*
X21800000Y-28800000D03*
X20550000Y-28800000D03*
X19550000Y-27800000D03*
X49400000Y-16300000D03*
X49400000Y-15200000D03*
X59800000Y-39400000D03*
X60800000Y-39400000D03*
X56250000Y-26450000D03*
X65800000Y-27400000D03*
X73600000Y-27400000D03*
X72900000Y-46900000D03*
X55437346Y-27312654D03*
X65400000Y-28400000D03*
X74500000Y-27900000D03*
X76000000Y-42700000D03*
X56170730Y-28264017D03*
X65700000Y-29400000D03*
X75300000Y-28500000D03*
X72900000Y-40200000D03*
X53199994Y-34300000D03*
X62800000Y-34800000D03*
X68900000Y-32500000D03*
X67350000Y-52750000D03*
X36050000Y-15800000D03*
X37300000Y-15800000D03*
X36050000Y-17050000D03*
X37300000Y-17050000D03*
X10300000Y-18550000D03*
X15550000Y-14300000D03*
X15550000Y-15300000D03*
X10025000Y-23850000D03*
X7775000Y-23850000D03*
X23050000Y-20300000D03*
X46400000Y-32950000D03*
X36300000Y-34500000D03*
X57100000Y-19100000D03*
X65300000Y-38550000D03*
X65400000Y-18525000D03*
X66500000Y-18525000D03*
X64300000Y-38550000D03*
X13800000Y-48550000D03*
X13800000Y-49800000D03*
X13800000Y-51050000D03*
X13800000Y-52300000D03*
X15050000Y-52300000D03*
X15050000Y-51050000D03*
X15050000Y-49800000D03*
X15050000Y-48550000D03*
X35645000Y-48550000D03*
X36915000Y-48550000D03*
X38185000Y-48550000D03*
X39455000Y-48550000D03*
X45455000Y-48550000D03*
X42915000Y-48550000D03*
X41645000Y-48550000D03*
X44185000Y-48550000D03*
X52925001Y-41824999D03*
X15800000Y-36050000D03*
X14700000Y-36050000D03*
X15800000Y-37150000D03*
X27200000Y-15100000D03*
X26000000Y-15100000D03*
X26600000Y-16000000D03*
X30500000Y-26350000D03*
X14700000Y-37150000D03*
X25750000Y-40900000D03*
X22300000Y-41050000D03*
X41550000Y-21200000D03*
X21550000Y-21050000D03*
X28550000Y-41050000D03*
X35800000Y-41100000D03*
X30575000Y-40050000D03*
X29125000Y-39550000D03*
X59500000Y-30600000D03*
X61978339Y-31392934D03*
X40800000Y-37550000D03*
X45999991Y-42799986D03*
X56250000Y-30100000D03*
X60900000Y-31350000D03*
X56900000Y-41600000D03*
X55400000Y-29100000D03*
X57450000Y-36350000D03*
X58500000Y-33800000D03*
X47950000Y-38850000D03*
X53250000Y-30700000D03*
X51650000Y-37600000D03*
X29100011Y-56950000D03*
X48000000Y-32850000D03*
X59962500Y-22312500D03*
X49300000Y-24550000D03*
X29550000Y-60700000D03*
X62950000Y-23450000D03*
X57750000Y-12150000D03*
X53899952Y-29000000D03*
X67050000Y-26950000D03*
X68474131Y-26851182D03*
X27550000Y-58300000D03*
X26300000Y-58300000D03*
X25050000Y-58300000D03*
X23800000Y-58300000D03*
X26300000Y-59550000D03*
X27550000Y-59550000D03*
X25050000Y-59550000D03*
X23800000Y-59550000D03*
X38050000Y-58300000D03*
X39300000Y-58300000D03*
X36800000Y-58300000D03*
X35550000Y-58300000D03*
X38050000Y-59550000D03*
X36800000Y-59550000D03*
X39300000Y-59550000D03*
X35550000Y-59550000D03*
X53850000Y-49850000D03*
X53950000Y-57250000D03*
X51550000Y-58300000D03*
X50300000Y-58300000D03*
X49050000Y-58300000D03*
X47800000Y-58300000D03*
X47800000Y-59550000D03*
X51550000Y-59550000D03*
X49050000Y-59550000D03*
X50300000Y-59550000D03*
X51400000Y-26700000D03*
X51900000Y-25600000D03*
X55250000Y-35950000D03*
X56450000Y-35025000D03*
X68250000Y-18000000D03*
X57350000Y-22100000D03*
X59950000Y-26100000D03*
X68250000Y-19050000D03*
X53144282Y-29654956D03*
X71250000Y-27050000D03*
X51750000Y-30750000D03*
X72600000Y-26800000D03*
X51199997Y-15050000D03*
X51382227Y-21756907D03*
X52437660Y-14812340D03*
X52380818Y-21810188D03*
X46400000Y-28500000D03*
X47083917Y-30840763D03*
X58050000Y-32200000D03*
X63950001Y-33550000D03*
X59150000Y-32200000D03*
X63600000Y-32500000D03*
X40800000Y-34100000D03*
X46800000Y-26100000D03*
X45400000Y-29500000D03*
X46037175Y-30944142D03*
X42550000Y-32275000D03*
X46800000Y-27100000D03*
X43800000Y-31100000D03*
X50800000Y-30350000D03*
X39200000Y-29700000D03*
X49699998Y-19200000D03*
X36600000Y-28700000D03*
X51050000Y-18825010D03*
X28950000Y-19350000D03*
X27812660Y-26737340D03*
X55450000Y-38600000D03*
X54624952Y-25574990D03*
X44550000Y-14300000D03*
X44550000Y-15300000D03*
X18150000Y-22550000D03*
X19150000Y-22550000D03*
X7300000Y-16050000D03*
X16850000Y-16200000D03*
X15100000Y-18350000D03*
X15100000Y-22050000D03*
D17*
G36*
X74423000Y-13050000D02*
G01*
X74425440Y-13074776D01*
X74432667Y-13098601D01*
X74444403Y-13120557D01*
X74460197Y-13139803D01*
X74479443Y-13155597D01*
X74501399Y-13167333D01*
X74525224Y-13174560D01*
X74550000Y-13177000D01*
X81673000Y-13177000D01*
X81673000Y-61173000D01*
X75800000Y-61173000D01*
X75775224Y-61175440D01*
X75751399Y-61182667D01*
X75729443Y-61194403D01*
X75710197Y-61210197D01*
X75694403Y-61229443D01*
X75682667Y-61251399D01*
X75675440Y-61275224D01*
X75673000Y-61300000D01*
X75673000Y-66173000D01*
X53677000Y-66173000D01*
X53677000Y-64150000D01*
X68642157Y-64150000D01*
X68642157Y-65350000D01*
X68654317Y-65473462D01*
X68690329Y-65592179D01*
X68748810Y-65701589D01*
X68827512Y-65797488D01*
X68923411Y-65876190D01*
X69032821Y-65934671D01*
X69151538Y-65970683D01*
X69275000Y-65982843D01*
X70725000Y-65982843D01*
X70848462Y-65970683D01*
X70967179Y-65934671D01*
X71076589Y-65876190D01*
X71172488Y-65797488D01*
X71251190Y-65701589D01*
X71309671Y-65592179D01*
X71345683Y-65473462D01*
X71357843Y-65350000D01*
X71357843Y-64150000D01*
X71345683Y-64026538D01*
X71309671Y-63907821D01*
X71251190Y-63798411D01*
X71172488Y-63702512D01*
X71076589Y-63623810D01*
X70967179Y-63565329D01*
X70848462Y-63529317D01*
X70725000Y-63517157D01*
X69275000Y-63517157D01*
X69151538Y-63529317D01*
X69032821Y-63565329D01*
X68923411Y-63623810D01*
X68827512Y-63702512D01*
X68748810Y-63798411D01*
X68690329Y-63907821D01*
X68654317Y-64026538D01*
X68642157Y-64150000D01*
X53677000Y-64150000D01*
X53677000Y-59750000D01*
X68638044Y-59750000D01*
X68661812Y-59991318D01*
X68732202Y-60223363D01*
X68846509Y-60437216D01*
X69000340Y-60624660D01*
X69187784Y-60778491D01*
X69401637Y-60892798D01*
X69633682Y-60963188D01*
X69814528Y-60981000D01*
X70185472Y-60981000D01*
X70366318Y-60963188D01*
X70598363Y-60892798D01*
X70812216Y-60778491D01*
X70999660Y-60624660D01*
X71153491Y-60437216D01*
X71267798Y-60223363D01*
X71338188Y-59991318D01*
X71361956Y-59750000D01*
X71338188Y-59508682D01*
X71267798Y-59276637D01*
X71153491Y-59062784D01*
X70999660Y-58875340D01*
X70812216Y-58721509D01*
X70598363Y-58607202D01*
X70366318Y-58536812D01*
X70185472Y-58519000D01*
X69814528Y-58519000D01*
X69633682Y-58536812D01*
X69401637Y-58607202D01*
X69187784Y-58721509D01*
X69000340Y-58875340D01*
X68846509Y-59062784D01*
X68732202Y-59276637D01*
X68661812Y-59508682D01*
X68638044Y-59750000D01*
X53677000Y-59750000D01*
X53677000Y-57982268D01*
X53722191Y-58000987D01*
X53873078Y-58031000D01*
X54026922Y-58031000D01*
X54177809Y-58000987D01*
X54319942Y-57942113D01*
X54447859Y-57856642D01*
X54556642Y-57747859D01*
X54642113Y-57619942D01*
X54700987Y-57477809D01*
X54731000Y-57326922D01*
X54731000Y-57173078D01*
X54700987Y-57022191D01*
X54642113Y-56880058D01*
X54556642Y-56752141D01*
X54447859Y-56643358D01*
X54319942Y-56557887D01*
X54177809Y-56499013D01*
X54026922Y-56469000D01*
X53873078Y-56469000D01*
X53722191Y-56499013D01*
X53677000Y-56517732D01*
X53677000Y-56050000D01*
X53674560Y-56025224D01*
X53667333Y-56001399D01*
X53655597Y-55979443D01*
X53639803Y-55960197D01*
X53620557Y-55944403D01*
X53598601Y-55932667D01*
X53574776Y-55925440D01*
X53550000Y-55923000D01*
X48427000Y-55923000D01*
X48427000Y-52673078D01*
X66569000Y-52673078D01*
X66569000Y-52826922D01*
X66599013Y-52977809D01*
X66657887Y-53119942D01*
X66743358Y-53247859D01*
X66852141Y-53356642D01*
X66980058Y-53442113D01*
X67122191Y-53500987D01*
X67273078Y-53531000D01*
X67426922Y-53531000D01*
X67577809Y-53500987D01*
X67719942Y-53442113D01*
X67847859Y-53356642D01*
X67956642Y-53247859D01*
X68042113Y-53119942D01*
X68100987Y-52977809D01*
X68131000Y-52826922D01*
X68131000Y-52673078D01*
X68100987Y-52522191D01*
X68042113Y-52380058D01*
X67956642Y-52252141D01*
X67847859Y-52143358D01*
X67719942Y-52057887D01*
X67577809Y-51999013D01*
X67426922Y-51969000D01*
X67273078Y-51969000D01*
X67122191Y-51999013D01*
X66980058Y-52057887D01*
X66852141Y-52143358D01*
X66743358Y-52252141D01*
X66657887Y-52380058D01*
X66599013Y-52522191D01*
X66569000Y-52673078D01*
X48427000Y-52673078D01*
X48427000Y-49773078D01*
X53069000Y-49773078D01*
X53069000Y-49926922D01*
X53099013Y-50077809D01*
X53157887Y-50219942D01*
X53243358Y-50347859D01*
X53352141Y-50456642D01*
X53480058Y-50542113D01*
X53622191Y-50600987D01*
X53773078Y-50631000D01*
X53926922Y-50631000D01*
X54077809Y-50600987D01*
X54219942Y-50542113D01*
X54347859Y-50456642D01*
X54354501Y-50450000D01*
X77692157Y-50450000D01*
X77692157Y-51650000D01*
X77704317Y-51773462D01*
X77740329Y-51892179D01*
X77798810Y-52001589D01*
X77877512Y-52097488D01*
X77973411Y-52176190D01*
X78082821Y-52234671D01*
X78201538Y-52270683D01*
X78325000Y-52282843D01*
X79775000Y-52282843D01*
X79898462Y-52270683D01*
X80017179Y-52234671D01*
X80126589Y-52176190D01*
X80222488Y-52097488D01*
X80301190Y-52001589D01*
X80359671Y-51892179D01*
X80395683Y-51773462D01*
X80407843Y-51650000D01*
X80407843Y-50450000D01*
X80395683Y-50326538D01*
X80359671Y-50207821D01*
X80301190Y-50098411D01*
X80222488Y-50002512D01*
X80126589Y-49923810D01*
X80017179Y-49865329D01*
X79898462Y-49829317D01*
X79775000Y-49817157D01*
X78325000Y-49817157D01*
X78201538Y-49829317D01*
X78082821Y-49865329D01*
X77973411Y-49923810D01*
X77877512Y-50002512D01*
X77798810Y-50098411D01*
X77740329Y-50207821D01*
X77704317Y-50326538D01*
X77692157Y-50450000D01*
X54354501Y-50450000D01*
X54456642Y-50347859D01*
X54542113Y-50219942D01*
X54600987Y-50077809D01*
X54631000Y-49926922D01*
X54631000Y-49773078D01*
X54600987Y-49622191D01*
X54542113Y-49480058D01*
X54456642Y-49352141D01*
X54347859Y-49243358D01*
X54219942Y-49157887D01*
X54077809Y-49099013D01*
X53926922Y-49069000D01*
X53773078Y-49069000D01*
X53622191Y-49099013D01*
X53480058Y-49157887D01*
X53352141Y-49243358D01*
X53243358Y-49352141D01*
X53157887Y-49480058D01*
X53099013Y-49622191D01*
X53069000Y-49773078D01*
X48427000Y-49773078D01*
X48427000Y-46823078D01*
X72119000Y-46823078D01*
X72119000Y-46976922D01*
X72149013Y-47127809D01*
X72207887Y-47269942D01*
X72293358Y-47397859D01*
X72402141Y-47506642D01*
X72530058Y-47592113D01*
X72672191Y-47650987D01*
X72823078Y-47681000D01*
X72976922Y-47681000D01*
X73127809Y-47650987D01*
X73269942Y-47592113D01*
X73397859Y-47506642D01*
X73506642Y-47397859D01*
X73592113Y-47269942D01*
X73650987Y-47127809D01*
X73681000Y-46976922D01*
X73681000Y-46823078D01*
X73650987Y-46672191D01*
X73592113Y-46530058D01*
X73506642Y-46402141D01*
X73397859Y-46293358D01*
X73269942Y-46207887D01*
X73127809Y-46149013D01*
X72976922Y-46119000D01*
X72823078Y-46119000D01*
X72672191Y-46149013D01*
X72530058Y-46207887D01*
X72402141Y-46293358D01*
X72293358Y-46402141D01*
X72207887Y-46530058D01*
X72149013Y-46672191D01*
X72119000Y-46823078D01*
X48427000Y-46823078D01*
X48427000Y-46050000D01*
X77688044Y-46050000D01*
X77711812Y-46291318D01*
X77782202Y-46523363D01*
X77896509Y-46737216D01*
X78050340Y-46924660D01*
X78237784Y-47078491D01*
X78451637Y-47192798D01*
X78683682Y-47263188D01*
X78864528Y-47281000D01*
X79235472Y-47281000D01*
X79416318Y-47263188D01*
X79648363Y-47192798D01*
X79862216Y-47078491D01*
X80049660Y-46924660D01*
X80203491Y-46737216D01*
X80317798Y-46523363D01*
X80388188Y-46291318D01*
X80411956Y-46050000D01*
X80388188Y-45808682D01*
X80317798Y-45576637D01*
X80203491Y-45362784D01*
X80049660Y-45175340D01*
X79862216Y-45021509D01*
X79648363Y-44907202D01*
X79416318Y-44836812D01*
X79235472Y-44819000D01*
X78864528Y-44819000D01*
X78683682Y-44836812D01*
X78451637Y-44907202D01*
X78237784Y-45021509D01*
X78050340Y-45175340D01*
X77896509Y-45362784D01*
X77782202Y-45576637D01*
X77711812Y-45808682D01*
X77688044Y-46050000D01*
X48427000Y-46050000D01*
X48427000Y-43550000D01*
X77688044Y-43550000D01*
X77711812Y-43791318D01*
X77782202Y-44023363D01*
X77896509Y-44237216D01*
X78050340Y-44424660D01*
X78237784Y-44578491D01*
X78451637Y-44692798D01*
X78683682Y-44763188D01*
X78864528Y-44781000D01*
X79235472Y-44781000D01*
X79416318Y-44763188D01*
X79648363Y-44692798D01*
X79862216Y-44578491D01*
X80049660Y-44424660D01*
X80203491Y-44237216D01*
X80317798Y-44023363D01*
X80388188Y-43791318D01*
X80411956Y-43550000D01*
X80388188Y-43308682D01*
X80317798Y-43076637D01*
X80203491Y-42862784D01*
X80049660Y-42675340D01*
X79862216Y-42521509D01*
X79648363Y-42407202D01*
X79416318Y-42336812D01*
X79235472Y-42319000D01*
X78864528Y-42319000D01*
X78683682Y-42336812D01*
X78451637Y-42407202D01*
X78237784Y-42521509D01*
X78050340Y-42675340D01*
X77896509Y-42862784D01*
X77782202Y-43076637D01*
X77711812Y-43308682D01*
X77688044Y-43550000D01*
X48427000Y-43550000D01*
X48427000Y-42623078D01*
X75219000Y-42623078D01*
X75219000Y-42776922D01*
X75249013Y-42927809D01*
X75307887Y-43069942D01*
X75393358Y-43197859D01*
X75502141Y-43306642D01*
X75630058Y-43392113D01*
X75772191Y-43450987D01*
X75923078Y-43481000D01*
X76076922Y-43481000D01*
X76227809Y-43450987D01*
X76369942Y-43392113D01*
X76497859Y-43306642D01*
X76606642Y-43197859D01*
X76692113Y-43069942D01*
X76750987Y-42927809D01*
X76781000Y-42776922D01*
X76781000Y-42623078D01*
X76750987Y-42472191D01*
X76692113Y-42330058D01*
X76606642Y-42202141D01*
X76497859Y-42093358D01*
X76369942Y-42007887D01*
X76227809Y-41949013D01*
X76076922Y-41919000D01*
X75923078Y-41919000D01*
X75772191Y-41949013D01*
X75630058Y-42007887D01*
X75502141Y-42093358D01*
X75393358Y-42202141D01*
X75307887Y-42330058D01*
X75249013Y-42472191D01*
X75219000Y-42623078D01*
X48427000Y-42623078D01*
X48427000Y-41748077D01*
X52144001Y-41748077D01*
X52144001Y-41901921D01*
X52174014Y-42052808D01*
X52232888Y-42194941D01*
X52318359Y-42322858D01*
X52427142Y-42431641D01*
X52555059Y-42517112D01*
X52697192Y-42575986D01*
X52848079Y-42605999D01*
X53001923Y-42605999D01*
X53152810Y-42575986D01*
X53294943Y-42517112D01*
X53422860Y-42431641D01*
X53531643Y-42322858D01*
X53617114Y-42194941D01*
X53675988Y-42052808D01*
X53706001Y-41901921D01*
X53706001Y-41748077D01*
X53675988Y-41597190D01*
X53645290Y-41523078D01*
X56119000Y-41523078D01*
X56119000Y-41676922D01*
X56149013Y-41827809D01*
X56207887Y-41969942D01*
X56293358Y-42097859D01*
X56402141Y-42206642D01*
X56530058Y-42292113D01*
X56672191Y-42350987D01*
X56823078Y-42381000D01*
X56976922Y-42381000D01*
X57127809Y-42350987D01*
X57269942Y-42292113D01*
X57397859Y-42206642D01*
X57506642Y-42097859D01*
X57592113Y-41969942D01*
X57650987Y-41827809D01*
X57681000Y-41676922D01*
X57681000Y-41523078D01*
X57650987Y-41372191D01*
X57592113Y-41230058D01*
X57506642Y-41102141D01*
X57454501Y-41050000D01*
X77688044Y-41050000D01*
X77711812Y-41291318D01*
X77782202Y-41523363D01*
X77896509Y-41737216D01*
X78050340Y-41924660D01*
X78237784Y-42078491D01*
X78451637Y-42192798D01*
X78683682Y-42263188D01*
X78864528Y-42281000D01*
X79235472Y-42281000D01*
X79416318Y-42263188D01*
X79648363Y-42192798D01*
X79862216Y-42078491D01*
X80049660Y-41924660D01*
X80203491Y-41737216D01*
X80317798Y-41523363D01*
X80388188Y-41291318D01*
X80411956Y-41050000D01*
X80388188Y-40808682D01*
X80317798Y-40576637D01*
X80203491Y-40362784D01*
X80049660Y-40175340D01*
X79862216Y-40021509D01*
X79648363Y-39907202D01*
X79416318Y-39836812D01*
X79235472Y-39819000D01*
X78864528Y-39819000D01*
X78683682Y-39836812D01*
X78451637Y-39907202D01*
X78237784Y-40021509D01*
X78050340Y-40175340D01*
X77896509Y-40362784D01*
X77782202Y-40576637D01*
X77711812Y-40808682D01*
X77688044Y-41050000D01*
X57454501Y-41050000D01*
X57397859Y-40993358D01*
X57269942Y-40907887D01*
X57127809Y-40849013D01*
X56976922Y-40819000D01*
X56823078Y-40819000D01*
X56672191Y-40849013D01*
X56530058Y-40907887D01*
X56402141Y-40993358D01*
X56293358Y-41102141D01*
X56207887Y-41230058D01*
X56149013Y-41372191D01*
X56119000Y-41523078D01*
X53645290Y-41523078D01*
X53617114Y-41455057D01*
X53531643Y-41327140D01*
X53422860Y-41218357D01*
X53294943Y-41132886D01*
X53152810Y-41074012D01*
X53001923Y-41043999D01*
X52848079Y-41043999D01*
X52697192Y-41074012D01*
X52555059Y-41132886D01*
X52427142Y-41218357D01*
X52318359Y-41327140D01*
X52232888Y-41455057D01*
X52174014Y-41597190D01*
X52144001Y-41748077D01*
X48427000Y-41748077D01*
X48427000Y-41300000D01*
X48424560Y-41275224D01*
X48417333Y-41251399D01*
X48405597Y-41229443D01*
X48389803Y-41210197D01*
X48370557Y-41194403D01*
X48348601Y-41182667D01*
X48324776Y-41175440D01*
X48300000Y-41173000D01*
X45927000Y-41173000D01*
X45927000Y-38773078D01*
X47169000Y-38773078D01*
X47169000Y-38926922D01*
X47199013Y-39077809D01*
X47257887Y-39219942D01*
X47343358Y-39347859D01*
X47452141Y-39456642D01*
X47580058Y-39542113D01*
X47722191Y-39600987D01*
X47873078Y-39631000D01*
X48026922Y-39631000D01*
X48177809Y-39600987D01*
X48319942Y-39542113D01*
X48447859Y-39456642D01*
X48556642Y-39347859D01*
X48642113Y-39219942D01*
X48700987Y-39077809D01*
X48731000Y-38926922D01*
X48731000Y-38773078D01*
X48700987Y-38622191D01*
X48659933Y-38523078D01*
X54669000Y-38523078D01*
X54669000Y-38676922D01*
X54699013Y-38827809D01*
X54757887Y-38969942D01*
X54843358Y-39097859D01*
X54952141Y-39206642D01*
X55080058Y-39292113D01*
X55222191Y-39350987D01*
X55373078Y-39381000D01*
X55526922Y-39381000D01*
X55677809Y-39350987D01*
X55745186Y-39323078D01*
X59019000Y-39323078D01*
X59019000Y-39476922D01*
X59049013Y-39627809D01*
X59107887Y-39769942D01*
X59193358Y-39897859D01*
X59302141Y-40006642D01*
X59430058Y-40092113D01*
X59572191Y-40150987D01*
X59723078Y-40181000D01*
X59876922Y-40181000D01*
X60027809Y-40150987D01*
X60169942Y-40092113D01*
X60297859Y-40006642D01*
X60300000Y-40004501D01*
X60302141Y-40006642D01*
X60430058Y-40092113D01*
X60572191Y-40150987D01*
X60723078Y-40181000D01*
X60876922Y-40181000D01*
X61027809Y-40150987D01*
X61095186Y-40123078D01*
X72119000Y-40123078D01*
X72119000Y-40276922D01*
X72149013Y-40427809D01*
X72207887Y-40569942D01*
X72293358Y-40697859D01*
X72402141Y-40806642D01*
X72530058Y-40892113D01*
X72672191Y-40950987D01*
X72823078Y-40981000D01*
X72976922Y-40981000D01*
X73127809Y-40950987D01*
X73269942Y-40892113D01*
X73397859Y-40806642D01*
X73506642Y-40697859D01*
X73592113Y-40569942D01*
X73650987Y-40427809D01*
X73681000Y-40276922D01*
X73681000Y-40123078D01*
X73650987Y-39972191D01*
X73592113Y-39830058D01*
X73506642Y-39702141D01*
X73397859Y-39593358D01*
X73269942Y-39507887D01*
X73127809Y-39449013D01*
X72976922Y-39419000D01*
X72823078Y-39419000D01*
X72672191Y-39449013D01*
X72530058Y-39507887D01*
X72402141Y-39593358D01*
X72293358Y-39702141D01*
X72207887Y-39830058D01*
X72149013Y-39972191D01*
X72119000Y-40123078D01*
X61095186Y-40123078D01*
X61169942Y-40092113D01*
X61297859Y-40006642D01*
X61406642Y-39897859D01*
X61492113Y-39769942D01*
X61550987Y-39627809D01*
X61581000Y-39476922D01*
X61581000Y-39323078D01*
X61550987Y-39172191D01*
X61492113Y-39030058D01*
X61406642Y-38902141D01*
X61297859Y-38793358D01*
X61169942Y-38707887D01*
X61027809Y-38649013D01*
X60876922Y-38619000D01*
X60723078Y-38619000D01*
X60572191Y-38649013D01*
X60430058Y-38707887D01*
X60302141Y-38793358D01*
X60300000Y-38795499D01*
X60297859Y-38793358D01*
X60169942Y-38707887D01*
X60027809Y-38649013D01*
X59876922Y-38619000D01*
X59723078Y-38619000D01*
X59572191Y-38649013D01*
X59430058Y-38707887D01*
X59302141Y-38793358D01*
X59193358Y-38902141D01*
X59107887Y-39030058D01*
X59049013Y-39172191D01*
X59019000Y-39323078D01*
X55745186Y-39323078D01*
X55819942Y-39292113D01*
X55947859Y-39206642D01*
X56056642Y-39097859D01*
X56142113Y-38969942D01*
X56200987Y-38827809D01*
X56231000Y-38676922D01*
X56231000Y-38523078D01*
X56221055Y-38473078D01*
X63519000Y-38473078D01*
X63519000Y-38626922D01*
X63549013Y-38777809D01*
X63607887Y-38919942D01*
X63693358Y-39047859D01*
X63802141Y-39156642D01*
X63930058Y-39242113D01*
X64072191Y-39300987D01*
X64223078Y-39331000D01*
X64376922Y-39331000D01*
X64527809Y-39300987D01*
X64669942Y-39242113D01*
X64797859Y-39156642D01*
X64800000Y-39154501D01*
X64802141Y-39156642D01*
X64930058Y-39242113D01*
X65072191Y-39300987D01*
X65223078Y-39331000D01*
X65376922Y-39331000D01*
X65527809Y-39300987D01*
X65669942Y-39242113D01*
X65797859Y-39156642D01*
X65906642Y-39047859D01*
X65992113Y-38919942D01*
X66050987Y-38777809D01*
X66081000Y-38626922D01*
X66081000Y-38550000D01*
X77688044Y-38550000D01*
X77711812Y-38791318D01*
X77782202Y-39023363D01*
X77896509Y-39237216D01*
X78050340Y-39424660D01*
X78237784Y-39578491D01*
X78451637Y-39692798D01*
X78683682Y-39763188D01*
X78864528Y-39781000D01*
X79235472Y-39781000D01*
X79416318Y-39763188D01*
X79648363Y-39692798D01*
X79862216Y-39578491D01*
X80049660Y-39424660D01*
X80203491Y-39237216D01*
X80317798Y-39023363D01*
X80388188Y-38791318D01*
X80411956Y-38550000D01*
X80388188Y-38308682D01*
X80317798Y-38076637D01*
X80203491Y-37862784D01*
X80049660Y-37675340D01*
X79862216Y-37521509D01*
X79648363Y-37407202D01*
X79416318Y-37336812D01*
X79235472Y-37319000D01*
X78864528Y-37319000D01*
X78683682Y-37336812D01*
X78451637Y-37407202D01*
X78237784Y-37521509D01*
X78050340Y-37675340D01*
X77896509Y-37862784D01*
X77782202Y-38076637D01*
X77711812Y-38308682D01*
X77688044Y-38550000D01*
X66081000Y-38550000D01*
X66081000Y-38473078D01*
X66050987Y-38322191D01*
X65992113Y-38180058D01*
X65906642Y-38052141D01*
X65797859Y-37943358D01*
X65669942Y-37857887D01*
X65527809Y-37799013D01*
X65376922Y-37769000D01*
X65223078Y-37769000D01*
X65072191Y-37799013D01*
X64930058Y-37857887D01*
X64802141Y-37943358D01*
X64800000Y-37945499D01*
X64797859Y-37943358D01*
X64669942Y-37857887D01*
X64527809Y-37799013D01*
X64376922Y-37769000D01*
X64223078Y-37769000D01*
X64072191Y-37799013D01*
X63930058Y-37857887D01*
X63802141Y-37943358D01*
X63693358Y-38052141D01*
X63607887Y-38180058D01*
X63549013Y-38322191D01*
X63519000Y-38473078D01*
X56221055Y-38473078D01*
X56200987Y-38372191D01*
X56142113Y-38230058D01*
X56056642Y-38102141D01*
X55947859Y-37993358D01*
X55819942Y-37907887D01*
X55677809Y-37849013D01*
X55526922Y-37819000D01*
X55373078Y-37819000D01*
X55222191Y-37849013D01*
X55080058Y-37907887D01*
X54952141Y-37993358D01*
X54843358Y-38102141D01*
X54757887Y-38230058D01*
X54699013Y-38372191D01*
X54669000Y-38523078D01*
X48659933Y-38523078D01*
X48642113Y-38480058D01*
X48556642Y-38352141D01*
X48447859Y-38243358D01*
X48319942Y-38157887D01*
X48177809Y-38099013D01*
X48026922Y-38069000D01*
X47873078Y-38069000D01*
X47722191Y-38099013D01*
X47580058Y-38157887D01*
X47452141Y-38243358D01*
X47343358Y-38352141D01*
X47257887Y-38480058D01*
X47199013Y-38622191D01*
X47169000Y-38773078D01*
X45927000Y-38773078D01*
X45927000Y-38300000D01*
X45924560Y-38275224D01*
X45917333Y-38251399D01*
X45905597Y-38229443D01*
X45889803Y-38210197D01*
X45870557Y-38194403D01*
X45848601Y-38182667D01*
X45824776Y-38175440D01*
X45800000Y-38173000D01*
X41273377Y-38173000D01*
X41297859Y-38156642D01*
X41406642Y-38047859D01*
X41492113Y-37919942D01*
X41550987Y-37777809D01*
X41581000Y-37626922D01*
X41581000Y-37523078D01*
X50869000Y-37523078D01*
X50869000Y-37676922D01*
X50899013Y-37827809D01*
X50957887Y-37969942D01*
X51043358Y-38097859D01*
X51152141Y-38206642D01*
X51280058Y-38292113D01*
X51422191Y-38350987D01*
X51573078Y-38381000D01*
X51726922Y-38381000D01*
X51877809Y-38350987D01*
X52019942Y-38292113D01*
X52147859Y-38206642D01*
X52256642Y-38097859D01*
X52342113Y-37969942D01*
X52400987Y-37827809D01*
X52431000Y-37676922D01*
X52431000Y-37523078D01*
X52400987Y-37372191D01*
X52342113Y-37230058D01*
X52256642Y-37102141D01*
X52147859Y-36993358D01*
X52019942Y-36907887D01*
X51877809Y-36849013D01*
X51726922Y-36819000D01*
X51573078Y-36819000D01*
X51422191Y-36849013D01*
X51280058Y-36907887D01*
X51152141Y-36993358D01*
X51043358Y-37102141D01*
X50957887Y-37230058D01*
X50899013Y-37372191D01*
X50869000Y-37523078D01*
X41581000Y-37523078D01*
X41581000Y-37473078D01*
X41550987Y-37322191D01*
X41492113Y-37180058D01*
X41406642Y-37052141D01*
X41297859Y-36943358D01*
X41169942Y-36857887D01*
X41027809Y-36799013D01*
X40876922Y-36769000D01*
X40723078Y-36769000D01*
X40572191Y-36799013D01*
X40430058Y-36857887D01*
X40302141Y-36943358D01*
X40193358Y-37052141D01*
X40107887Y-37180058D01*
X40049013Y-37322191D01*
X40019000Y-37473078D01*
X40019000Y-37626922D01*
X40049013Y-37777809D01*
X40107887Y-37919942D01*
X40193358Y-38047859D01*
X40302141Y-38156642D01*
X40326623Y-38173000D01*
X20800000Y-38173000D01*
X20775224Y-38175440D01*
X20751399Y-38182667D01*
X20729443Y-38194403D01*
X20710197Y-38210197D01*
X20694403Y-38229443D01*
X20682667Y-38251399D01*
X20675440Y-38275224D01*
X20673000Y-38300000D01*
X20673000Y-43997394D01*
X19747394Y-44923000D01*
X12927000Y-44923000D01*
X12927000Y-39427000D01*
X16550000Y-39427000D01*
X16574776Y-39424560D01*
X16598601Y-39417333D01*
X16620557Y-39405597D01*
X16639803Y-39389803D01*
X16655597Y-39370557D01*
X16667333Y-39348601D01*
X16674560Y-39324776D01*
X16677000Y-39300000D01*
X16677000Y-35873078D01*
X54469000Y-35873078D01*
X54469000Y-36026922D01*
X54499013Y-36177809D01*
X54557887Y-36319942D01*
X54643358Y-36447859D01*
X54752141Y-36556642D01*
X54880058Y-36642113D01*
X55022191Y-36700987D01*
X55173078Y-36731000D01*
X55326922Y-36731000D01*
X55477809Y-36700987D01*
X55619942Y-36642113D01*
X55747859Y-36556642D01*
X55856642Y-36447859D01*
X55942113Y-36319942D01*
X55961524Y-36273078D01*
X56669000Y-36273078D01*
X56669000Y-36426922D01*
X56699013Y-36577809D01*
X56757887Y-36719942D01*
X56843358Y-36847859D01*
X56952141Y-36956642D01*
X57080058Y-37042113D01*
X57222191Y-37100987D01*
X57373078Y-37131000D01*
X57526922Y-37131000D01*
X57677809Y-37100987D01*
X57819942Y-37042113D01*
X57947859Y-36956642D01*
X58056642Y-36847859D01*
X58142113Y-36719942D01*
X58200987Y-36577809D01*
X58231000Y-36426922D01*
X58231000Y-36273078D01*
X58200987Y-36122191D01*
X58142113Y-35980058D01*
X58056642Y-35852141D01*
X57947859Y-35743358D01*
X57819942Y-35657887D01*
X57677809Y-35599013D01*
X57526922Y-35569000D01*
X57373078Y-35569000D01*
X57222191Y-35599013D01*
X57080058Y-35657887D01*
X56952141Y-35743358D01*
X56843358Y-35852141D01*
X56757887Y-35980058D01*
X56699013Y-36122191D01*
X56669000Y-36273078D01*
X55961524Y-36273078D01*
X56000987Y-36177809D01*
X56031000Y-36026922D01*
X56031000Y-35873078D01*
X56000987Y-35722191D01*
X55967819Y-35642118D01*
X56080058Y-35717113D01*
X56222191Y-35775987D01*
X56373078Y-35806000D01*
X56526922Y-35806000D01*
X56677809Y-35775987D01*
X56819942Y-35717113D01*
X56947859Y-35631642D01*
X57056642Y-35522859D01*
X57142113Y-35394942D01*
X57200987Y-35252809D01*
X57231000Y-35101922D01*
X57231000Y-34948078D01*
X57200987Y-34797191D01*
X57170289Y-34723078D01*
X62019000Y-34723078D01*
X62019000Y-34876922D01*
X62049013Y-35027809D01*
X62107887Y-35169942D01*
X62193358Y-35297859D01*
X62302141Y-35406642D01*
X62430058Y-35492113D01*
X62572191Y-35550987D01*
X62723078Y-35581000D01*
X62876922Y-35581000D01*
X63027809Y-35550987D01*
X63169942Y-35492113D01*
X63297859Y-35406642D01*
X63406642Y-35297859D01*
X63492113Y-35169942D01*
X63550987Y-35027809D01*
X63581000Y-34876922D01*
X63581000Y-34723078D01*
X63550987Y-34572191D01*
X63492113Y-34430058D01*
X63406642Y-34302141D01*
X63297859Y-34193358D01*
X63169942Y-34107887D01*
X63027809Y-34049013D01*
X62876922Y-34019000D01*
X62723078Y-34019000D01*
X62572191Y-34049013D01*
X62430058Y-34107887D01*
X62302141Y-34193358D01*
X62193358Y-34302141D01*
X62107887Y-34430058D01*
X62049013Y-34572191D01*
X62019000Y-34723078D01*
X57170289Y-34723078D01*
X57142113Y-34655058D01*
X57056642Y-34527141D01*
X56947859Y-34418358D01*
X56819942Y-34332887D01*
X56677809Y-34274013D01*
X56526922Y-34244000D01*
X56373078Y-34244000D01*
X56222191Y-34274013D01*
X56080058Y-34332887D01*
X55952141Y-34418358D01*
X55843358Y-34527141D01*
X55757887Y-34655058D01*
X55699013Y-34797191D01*
X55669000Y-34948078D01*
X55669000Y-35101922D01*
X55699013Y-35252809D01*
X55732181Y-35332882D01*
X55619942Y-35257887D01*
X55477809Y-35199013D01*
X55326922Y-35169000D01*
X55173078Y-35169000D01*
X55022191Y-35199013D01*
X54880058Y-35257887D01*
X54752141Y-35343358D01*
X54643358Y-35452141D01*
X54557887Y-35580058D01*
X54499013Y-35722191D01*
X54469000Y-35873078D01*
X16677000Y-35873078D01*
X16677000Y-34423078D01*
X35519000Y-34423078D01*
X35519000Y-34576922D01*
X35549013Y-34727809D01*
X35607887Y-34869942D01*
X35693358Y-34997859D01*
X35802141Y-35106642D01*
X35930058Y-35192113D01*
X36072191Y-35250987D01*
X36223078Y-35281000D01*
X36376922Y-35281000D01*
X36527809Y-35250987D01*
X36669942Y-35192113D01*
X36797859Y-35106642D01*
X36906642Y-34997859D01*
X36992113Y-34869942D01*
X37050987Y-34727809D01*
X37081000Y-34576922D01*
X37081000Y-34423078D01*
X37050987Y-34272191D01*
X36992113Y-34130058D01*
X36920632Y-34023078D01*
X40019000Y-34023078D01*
X40019000Y-34176922D01*
X40049013Y-34327809D01*
X40107887Y-34469942D01*
X40193358Y-34597859D01*
X40302141Y-34706642D01*
X40430058Y-34792113D01*
X40572191Y-34850987D01*
X40723078Y-34881000D01*
X40876922Y-34881000D01*
X41027809Y-34850987D01*
X41169942Y-34792113D01*
X41297859Y-34706642D01*
X41406642Y-34597859D01*
X41492113Y-34469942D01*
X41550987Y-34327809D01*
X41571819Y-34223078D01*
X52418994Y-34223078D01*
X52418994Y-34376922D01*
X52449007Y-34527809D01*
X52507881Y-34669942D01*
X52593352Y-34797859D01*
X52702135Y-34906642D01*
X52830052Y-34992113D01*
X52972185Y-35050987D01*
X53123072Y-35081000D01*
X53276916Y-35081000D01*
X53427803Y-35050987D01*
X53569936Y-34992113D01*
X53697853Y-34906642D01*
X53806636Y-34797859D01*
X53892107Y-34669942D01*
X53950981Y-34527809D01*
X53980994Y-34376922D01*
X53980994Y-34223078D01*
X53950981Y-34072191D01*
X53892107Y-33930058D01*
X53806636Y-33802141D01*
X53727573Y-33723078D01*
X57719000Y-33723078D01*
X57719000Y-33876922D01*
X57749013Y-34027809D01*
X57807887Y-34169942D01*
X57893358Y-34297859D01*
X58002141Y-34406642D01*
X58130058Y-34492113D01*
X58272191Y-34550987D01*
X58423078Y-34581000D01*
X58576922Y-34581000D01*
X58727809Y-34550987D01*
X58869942Y-34492113D01*
X58997859Y-34406642D01*
X59106642Y-34297859D01*
X59192113Y-34169942D01*
X59250987Y-34027809D01*
X59281000Y-33876922D01*
X59281000Y-33723078D01*
X59250987Y-33572191D01*
X59192113Y-33430058D01*
X59106642Y-33302141D01*
X58997859Y-33193358D01*
X58869942Y-33107887D01*
X58727809Y-33049013D01*
X58576922Y-33019000D01*
X58423078Y-33019000D01*
X58272191Y-33049013D01*
X58130058Y-33107887D01*
X58002141Y-33193358D01*
X57893358Y-33302141D01*
X57807887Y-33430058D01*
X57749013Y-33572191D01*
X57719000Y-33723078D01*
X53727573Y-33723078D01*
X53697853Y-33693358D01*
X53569936Y-33607887D01*
X53427803Y-33549013D01*
X53276916Y-33519000D01*
X53123072Y-33519000D01*
X52972185Y-33549013D01*
X52830052Y-33607887D01*
X52702135Y-33693358D01*
X52593352Y-33802141D01*
X52507881Y-33930058D01*
X52449007Y-34072191D01*
X52418994Y-34223078D01*
X41571819Y-34223078D01*
X41581000Y-34176922D01*
X41581000Y-34023078D01*
X41550987Y-33872191D01*
X41492113Y-33730058D01*
X41406642Y-33602141D01*
X41297859Y-33493358D01*
X41169942Y-33407887D01*
X41027809Y-33349013D01*
X40876922Y-33319000D01*
X40723078Y-33319000D01*
X40572191Y-33349013D01*
X40430058Y-33407887D01*
X40302141Y-33493358D01*
X40193358Y-33602141D01*
X40107887Y-33730058D01*
X40049013Y-33872191D01*
X40019000Y-34023078D01*
X36920632Y-34023078D01*
X36906642Y-34002141D01*
X36797859Y-33893358D01*
X36669942Y-33807887D01*
X36527809Y-33749013D01*
X36376922Y-33719000D01*
X36223078Y-33719000D01*
X36072191Y-33749013D01*
X35930058Y-33807887D01*
X35802141Y-33893358D01*
X35693358Y-34002141D01*
X35607887Y-34130058D01*
X35549013Y-34272191D01*
X35519000Y-34423078D01*
X16677000Y-34423078D01*
X16677000Y-32198078D01*
X41769000Y-32198078D01*
X41769000Y-32351922D01*
X41799013Y-32502809D01*
X41857887Y-32644942D01*
X41943358Y-32772859D01*
X42052141Y-32881642D01*
X42180058Y-32967113D01*
X42322191Y-33025987D01*
X42473078Y-33056000D01*
X42626922Y-33056000D01*
X42777809Y-33025987D01*
X42919942Y-32967113D01*
X43047859Y-32881642D01*
X43056423Y-32873078D01*
X45619000Y-32873078D01*
X45619000Y-33026922D01*
X45649013Y-33177809D01*
X45707887Y-33319942D01*
X45793358Y-33447859D01*
X45902141Y-33556642D01*
X46030058Y-33642113D01*
X46172191Y-33700987D01*
X46323078Y-33731000D01*
X46476922Y-33731000D01*
X46627809Y-33700987D01*
X46769942Y-33642113D01*
X46897859Y-33556642D01*
X47006642Y-33447859D01*
X47092113Y-33319942D01*
X47150987Y-33177809D01*
X47181000Y-33026922D01*
X47181000Y-32873078D01*
X47161109Y-32773078D01*
X47219000Y-32773078D01*
X47219000Y-32926922D01*
X47249013Y-33077809D01*
X47307887Y-33219942D01*
X47393358Y-33347859D01*
X47502141Y-33456642D01*
X47630058Y-33542113D01*
X47772191Y-33600987D01*
X47923078Y-33631000D01*
X48076922Y-33631000D01*
X48227809Y-33600987D01*
X48369942Y-33542113D01*
X48497859Y-33456642D01*
X48606642Y-33347859D01*
X48692113Y-33219942D01*
X48750987Y-33077809D01*
X48781000Y-32926922D01*
X48781000Y-32773078D01*
X48750987Y-32622191D01*
X48692113Y-32480058D01*
X48606642Y-32352141D01*
X48497859Y-32243358D01*
X48369942Y-32157887D01*
X48285907Y-32123078D01*
X57269000Y-32123078D01*
X57269000Y-32276922D01*
X57299013Y-32427809D01*
X57357887Y-32569942D01*
X57443358Y-32697859D01*
X57552141Y-32806642D01*
X57680058Y-32892113D01*
X57822191Y-32950987D01*
X57973078Y-32981000D01*
X58126922Y-32981000D01*
X58277809Y-32950987D01*
X58419942Y-32892113D01*
X58547859Y-32806642D01*
X58600000Y-32754501D01*
X58652141Y-32806642D01*
X58780058Y-32892113D01*
X58922191Y-32950987D01*
X59073078Y-32981000D01*
X59226922Y-32981000D01*
X59377809Y-32950987D01*
X59519942Y-32892113D01*
X59647859Y-32806642D01*
X59756642Y-32697859D01*
X59842113Y-32569942D01*
X59900987Y-32427809D01*
X59901928Y-32423078D01*
X62819000Y-32423078D01*
X62819000Y-32576922D01*
X62849013Y-32727809D01*
X62907887Y-32869942D01*
X62993358Y-32997859D01*
X63102141Y-33106642D01*
X63230058Y-33192113D01*
X63249550Y-33200187D01*
X63199014Y-33322191D01*
X63169001Y-33473078D01*
X63169001Y-33626922D01*
X63199014Y-33777809D01*
X63257888Y-33919942D01*
X63343359Y-34047859D01*
X63452142Y-34156642D01*
X63580059Y-34242113D01*
X63722192Y-34300987D01*
X63873079Y-34331000D01*
X64026923Y-34331000D01*
X64177810Y-34300987D01*
X64319943Y-34242113D01*
X64447860Y-34156642D01*
X64556643Y-34047859D01*
X64642114Y-33919942D01*
X64700988Y-33777809D01*
X64731001Y-33626922D01*
X64731001Y-33473078D01*
X64700988Y-33322191D01*
X64642114Y-33180058D01*
X64556643Y-33052141D01*
X64447860Y-32943358D01*
X64319943Y-32857887D01*
X64300451Y-32849813D01*
X64350987Y-32727809D01*
X64381000Y-32576922D01*
X64381000Y-32423078D01*
X68119000Y-32423078D01*
X68119000Y-32576922D01*
X68149013Y-32727809D01*
X68207887Y-32869942D01*
X68293358Y-32997859D01*
X68402141Y-33106642D01*
X68530058Y-33192113D01*
X68672191Y-33250987D01*
X68823078Y-33281000D01*
X68976922Y-33281000D01*
X69127809Y-33250987D01*
X69269942Y-33192113D01*
X69397859Y-33106642D01*
X69506642Y-32997859D01*
X69592113Y-32869942D01*
X69650987Y-32727809D01*
X69681000Y-32576922D01*
X69681000Y-32423078D01*
X69650987Y-32272191D01*
X69592113Y-32130058D01*
X69506642Y-32002141D01*
X69397859Y-31893358D01*
X69269942Y-31807887D01*
X69127809Y-31749013D01*
X68976922Y-31719000D01*
X68823078Y-31719000D01*
X68672191Y-31749013D01*
X68530058Y-31807887D01*
X68402141Y-31893358D01*
X68293358Y-32002141D01*
X68207887Y-32130058D01*
X68149013Y-32272191D01*
X68119000Y-32423078D01*
X64381000Y-32423078D01*
X64350987Y-32272191D01*
X64292113Y-32130058D01*
X64206642Y-32002141D01*
X64097859Y-31893358D01*
X63969942Y-31807887D01*
X63827809Y-31749013D01*
X63676922Y-31719000D01*
X63523078Y-31719000D01*
X63372191Y-31749013D01*
X63230058Y-31807887D01*
X63102141Y-31893358D01*
X62993358Y-32002141D01*
X62907887Y-32130058D01*
X62849013Y-32272191D01*
X62819000Y-32423078D01*
X59901928Y-32423078D01*
X59931000Y-32276922D01*
X59931000Y-32123078D01*
X59900987Y-31972191D01*
X59842113Y-31830058D01*
X59756642Y-31702141D01*
X59647859Y-31593358D01*
X59519942Y-31507887D01*
X59377809Y-31449013D01*
X59226922Y-31419000D01*
X59073078Y-31419000D01*
X58922191Y-31449013D01*
X58780058Y-31507887D01*
X58652141Y-31593358D01*
X58600000Y-31645499D01*
X58547859Y-31593358D01*
X58419942Y-31507887D01*
X58277809Y-31449013D01*
X58126922Y-31419000D01*
X57973078Y-31419000D01*
X57822191Y-31449013D01*
X57680058Y-31507887D01*
X57552141Y-31593358D01*
X57443358Y-31702141D01*
X57357887Y-31830058D01*
X57299013Y-31972191D01*
X57269000Y-32123078D01*
X48285907Y-32123078D01*
X48227809Y-32099013D01*
X48076922Y-32069000D01*
X47923078Y-32069000D01*
X47772191Y-32099013D01*
X47630058Y-32157887D01*
X47502141Y-32243358D01*
X47393358Y-32352141D01*
X47307887Y-32480058D01*
X47249013Y-32622191D01*
X47219000Y-32773078D01*
X47161109Y-32773078D01*
X47150987Y-32722191D01*
X47092113Y-32580058D01*
X47006642Y-32452141D01*
X46897859Y-32343358D01*
X46769942Y-32257887D01*
X46627809Y-32199013D01*
X46476922Y-32169000D01*
X46323078Y-32169000D01*
X46172191Y-32199013D01*
X46030058Y-32257887D01*
X45902141Y-32343358D01*
X45793358Y-32452141D01*
X45707887Y-32580058D01*
X45649013Y-32722191D01*
X45619000Y-32873078D01*
X43056423Y-32873078D01*
X43156642Y-32772859D01*
X43242113Y-32644942D01*
X43300987Y-32502809D01*
X43331000Y-32351922D01*
X43331000Y-32198078D01*
X43300987Y-32047191D01*
X43242113Y-31905058D01*
X43156642Y-31777141D01*
X43047859Y-31668358D01*
X42919942Y-31582887D01*
X42777809Y-31524013D01*
X42626922Y-31494000D01*
X42473078Y-31494000D01*
X42322191Y-31524013D01*
X42180058Y-31582887D01*
X42052141Y-31668358D01*
X41943358Y-31777141D01*
X41857887Y-31905058D01*
X41799013Y-32047191D01*
X41769000Y-32198078D01*
X16677000Y-32198078D01*
X16677000Y-31800000D01*
X16674560Y-31775224D01*
X16667333Y-31751399D01*
X16655597Y-31729443D01*
X16639803Y-31710197D01*
X16620557Y-31694403D01*
X16598601Y-31682667D01*
X16574776Y-31675440D01*
X16550000Y-31673000D01*
X6927000Y-31673000D01*
X6927000Y-31023078D01*
X43019000Y-31023078D01*
X43019000Y-31176922D01*
X43049013Y-31327809D01*
X43107887Y-31469942D01*
X43193358Y-31597859D01*
X43302141Y-31706642D01*
X43430058Y-31792113D01*
X43572191Y-31850987D01*
X43723078Y-31881000D01*
X43876922Y-31881000D01*
X44027809Y-31850987D01*
X44169942Y-31792113D01*
X44297859Y-31706642D01*
X44406642Y-31597859D01*
X44492113Y-31469942D01*
X44550987Y-31327809D01*
X44581000Y-31176922D01*
X44581000Y-31023078D01*
X44550987Y-30872191D01*
X44548928Y-30867220D01*
X45256175Y-30867220D01*
X45256175Y-31021064D01*
X45286188Y-31171951D01*
X45345062Y-31314084D01*
X45430533Y-31442001D01*
X45539316Y-31550784D01*
X45667233Y-31636255D01*
X45809366Y-31695129D01*
X45960253Y-31725142D01*
X46114097Y-31725142D01*
X46264984Y-31695129D01*
X46407117Y-31636255D01*
X46535034Y-31550784D01*
X46617443Y-31468375D01*
X46713975Y-31532876D01*
X46856108Y-31591750D01*
X47006995Y-31621763D01*
X47160839Y-31621763D01*
X47311726Y-31591750D01*
X47453859Y-31532876D01*
X47581776Y-31447405D01*
X47690559Y-31338622D01*
X47776030Y-31210705D01*
X47834904Y-31068572D01*
X47864917Y-30917685D01*
X47864917Y-30763841D01*
X47834904Y-30612954D01*
X47776030Y-30470821D01*
X47690559Y-30342904D01*
X47620733Y-30273078D01*
X50019000Y-30273078D01*
X50019000Y-30426922D01*
X50049013Y-30577809D01*
X50107887Y-30719942D01*
X50193358Y-30847859D01*
X50302141Y-30956642D01*
X50430058Y-31042113D01*
X50572191Y-31100987D01*
X50723078Y-31131000D01*
X50876922Y-31131000D01*
X51027809Y-31100987D01*
X51046780Y-31093129D01*
X51057887Y-31119942D01*
X51143358Y-31247859D01*
X51252141Y-31356642D01*
X51380058Y-31442113D01*
X51522191Y-31500987D01*
X51673078Y-31531000D01*
X51826922Y-31531000D01*
X51977809Y-31500987D01*
X52119942Y-31442113D01*
X52247859Y-31356642D01*
X52356642Y-31247859D01*
X52442113Y-31119942D01*
X52500987Y-30977809D01*
X52507066Y-30947250D01*
X52557887Y-31069942D01*
X52643358Y-31197859D01*
X52752141Y-31306642D01*
X52880058Y-31392113D01*
X53022191Y-31450987D01*
X53173078Y-31481000D01*
X53326922Y-31481000D01*
X53477809Y-31450987D01*
X53619942Y-31392113D01*
X53747859Y-31306642D01*
X53856642Y-31197859D01*
X53942113Y-31069942D01*
X54000987Y-30927809D01*
X54031000Y-30776922D01*
X54031000Y-30623078D01*
X54000987Y-30472191D01*
X53942113Y-30330058D01*
X53856642Y-30202141D01*
X53773511Y-30119010D01*
X53836395Y-30024898D01*
X53895269Y-29882765D01*
X53915511Y-29781000D01*
X53976874Y-29781000D01*
X54127761Y-29750987D01*
X54269894Y-29692113D01*
X54397811Y-29606642D01*
X54506594Y-29497859D01*
X54592065Y-29369942D01*
X54636200Y-29263392D01*
X54649013Y-29327809D01*
X54707887Y-29469942D01*
X54793358Y-29597859D01*
X54902141Y-29706642D01*
X55030058Y-29792113D01*
X55172191Y-29850987D01*
X55323078Y-29881000D01*
X55476922Y-29881000D01*
X55498099Y-29876788D01*
X55469000Y-30023078D01*
X55469000Y-30176922D01*
X55499013Y-30327809D01*
X55557887Y-30469942D01*
X55643358Y-30597859D01*
X55752141Y-30706642D01*
X55880058Y-30792113D01*
X56022191Y-30850987D01*
X56173078Y-30881000D01*
X56326922Y-30881000D01*
X56477809Y-30850987D01*
X56619942Y-30792113D01*
X56747859Y-30706642D01*
X56856642Y-30597859D01*
X56906608Y-30523078D01*
X58719000Y-30523078D01*
X58719000Y-30676922D01*
X58749013Y-30827809D01*
X58807887Y-30969942D01*
X58893358Y-31097859D01*
X59002141Y-31206642D01*
X59130058Y-31292113D01*
X59272191Y-31350987D01*
X59423078Y-31381000D01*
X59576922Y-31381000D01*
X59727809Y-31350987D01*
X59869942Y-31292113D01*
X59898430Y-31273078D01*
X60119000Y-31273078D01*
X60119000Y-31426922D01*
X60149013Y-31577809D01*
X60207887Y-31719942D01*
X60293358Y-31847859D01*
X60402141Y-31956642D01*
X60530058Y-32042113D01*
X60672191Y-32100987D01*
X60823078Y-32131000D01*
X60976922Y-32131000D01*
X61127809Y-32100987D01*
X61269942Y-32042113D01*
X61397859Y-31956642D01*
X61417703Y-31936799D01*
X61480480Y-31999576D01*
X61608397Y-32085047D01*
X61750530Y-32143921D01*
X61901417Y-32173934D01*
X62055261Y-32173934D01*
X62206148Y-32143921D01*
X62348281Y-32085047D01*
X62476198Y-31999576D01*
X62584981Y-31890793D01*
X62670452Y-31762876D01*
X62729326Y-31620743D01*
X62759339Y-31469856D01*
X62759339Y-31316012D01*
X62729326Y-31165125D01*
X62670452Y-31022992D01*
X62638385Y-30975000D01*
X70092157Y-30975000D01*
X70092157Y-31825000D01*
X70099513Y-31899689D01*
X70121299Y-31971508D01*
X70156678Y-32037696D01*
X70204289Y-32095711D01*
X70262304Y-32143322D01*
X70328492Y-32178701D01*
X70400311Y-32200487D01*
X70475000Y-32207843D01*
X71325000Y-32207843D01*
X71399689Y-32200487D01*
X71471508Y-32178701D01*
X71537696Y-32143322D01*
X71595711Y-32095711D01*
X71643322Y-32037696D01*
X71678701Y-31971508D01*
X71700487Y-31899689D01*
X71707843Y-31825000D01*
X71707843Y-30975000D01*
X72592157Y-30975000D01*
X72592157Y-31825000D01*
X72599513Y-31899689D01*
X72621299Y-31971508D01*
X72656678Y-32037696D01*
X72704289Y-32095711D01*
X72762304Y-32143322D01*
X72828492Y-32178701D01*
X72900311Y-32200487D01*
X72975000Y-32207843D01*
X73825000Y-32207843D01*
X73899689Y-32200487D01*
X73971508Y-32178701D01*
X74037696Y-32143322D01*
X74095711Y-32095711D01*
X74143322Y-32037696D01*
X74178701Y-31971508D01*
X74200487Y-31899689D01*
X74207843Y-31825000D01*
X74207843Y-30975000D01*
X74200487Y-30900311D01*
X74178701Y-30828492D01*
X74143322Y-30762304D01*
X74095711Y-30704289D01*
X74037696Y-30656678D01*
X73971508Y-30621299D01*
X73899689Y-30599513D01*
X73825000Y-30592157D01*
X72975000Y-30592157D01*
X72900311Y-30599513D01*
X72828492Y-30621299D01*
X72762304Y-30656678D01*
X72704289Y-30704289D01*
X72656678Y-30762304D01*
X72621299Y-30828492D01*
X72599513Y-30900311D01*
X72592157Y-30975000D01*
X71707843Y-30975000D01*
X71700487Y-30900311D01*
X71678701Y-30828492D01*
X71643322Y-30762304D01*
X71595711Y-30704289D01*
X71537696Y-30656678D01*
X71471508Y-30621299D01*
X71399689Y-30599513D01*
X71325000Y-30592157D01*
X70475000Y-30592157D01*
X70400311Y-30599513D01*
X70328492Y-30621299D01*
X70262304Y-30656678D01*
X70204289Y-30704289D01*
X70156678Y-30762304D01*
X70121299Y-30828492D01*
X70099513Y-30900311D01*
X70092157Y-30975000D01*
X62638385Y-30975000D01*
X62584981Y-30895075D01*
X62476198Y-30786292D01*
X62348281Y-30700821D01*
X62206148Y-30641947D01*
X62055261Y-30611934D01*
X61901417Y-30611934D01*
X61750530Y-30641947D01*
X61608397Y-30700821D01*
X61480480Y-30786292D01*
X61460637Y-30806136D01*
X61397859Y-30743358D01*
X61269942Y-30657887D01*
X61127809Y-30599013D01*
X60976922Y-30569000D01*
X60823078Y-30569000D01*
X60672191Y-30599013D01*
X60530058Y-30657887D01*
X60402141Y-30743358D01*
X60293358Y-30852141D01*
X60207887Y-30980058D01*
X60149013Y-31122191D01*
X60119000Y-31273078D01*
X59898430Y-31273078D01*
X59997859Y-31206642D01*
X60106642Y-31097859D01*
X60192113Y-30969942D01*
X60250987Y-30827809D01*
X60281000Y-30676922D01*
X60281000Y-30523078D01*
X60250987Y-30372191D01*
X60192113Y-30230058D01*
X60106642Y-30102141D01*
X59997859Y-29993358D01*
X59869942Y-29907887D01*
X59727809Y-29849013D01*
X59576922Y-29819000D01*
X59423078Y-29819000D01*
X59272191Y-29849013D01*
X59130058Y-29907887D01*
X59002141Y-29993358D01*
X58893358Y-30102141D01*
X58807887Y-30230058D01*
X58749013Y-30372191D01*
X58719000Y-30523078D01*
X56906608Y-30523078D01*
X56942113Y-30469942D01*
X57000987Y-30327809D01*
X57031000Y-30176922D01*
X57031000Y-30023078D01*
X57000987Y-29872191D01*
X56942113Y-29730058D01*
X56856642Y-29602141D01*
X56747859Y-29493358D01*
X56619942Y-29407887D01*
X56477809Y-29349013D01*
X56326922Y-29319000D01*
X56173078Y-29319000D01*
X56151901Y-29323212D01*
X56181000Y-29176922D01*
X56181000Y-29045017D01*
X56247652Y-29045017D01*
X56398539Y-29015004D01*
X56540672Y-28956130D01*
X56668589Y-28870659D01*
X56777372Y-28761876D01*
X56862843Y-28633959D01*
X56921717Y-28491826D01*
X56951730Y-28340939D01*
X56951730Y-28323078D01*
X64619000Y-28323078D01*
X64619000Y-28476922D01*
X64649013Y-28627809D01*
X64707887Y-28769942D01*
X64793358Y-28897859D01*
X64902141Y-29006642D01*
X64992561Y-29067058D01*
X64949013Y-29172191D01*
X64919000Y-29323078D01*
X64919000Y-29476922D01*
X64949013Y-29627809D01*
X65007887Y-29769942D01*
X65093358Y-29897859D01*
X65202141Y-30006642D01*
X65330058Y-30092113D01*
X65472191Y-30150987D01*
X65623078Y-30181000D01*
X65776922Y-30181000D01*
X65927809Y-30150987D01*
X66069942Y-30092113D01*
X66197859Y-30006642D01*
X66306642Y-29897859D01*
X66392113Y-29769942D01*
X66450987Y-29627809D01*
X66476409Y-29500000D01*
X77692157Y-29500000D01*
X77692157Y-30700000D01*
X77704317Y-30823462D01*
X77740329Y-30942179D01*
X77798810Y-31051589D01*
X77877512Y-31147488D01*
X77973411Y-31226190D01*
X78082821Y-31284671D01*
X78201538Y-31320683D01*
X78325000Y-31332843D01*
X79775000Y-31332843D01*
X79898462Y-31320683D01*
X80017179Y-31284671D01*
X80126589Y-31226190D01*
X80222488Y-31147488D01*
X80301190Y-31051589D01*
X80359671Y-30942179D01*
X80395683Y-30823462D01*
X80407843Y-30700000D01*
X80407843Y-29500000D01*
X80395683Y-29376538D01*
X80359671Y-29257821D01*
X80301190Y-29148411D01*
X80222488Y-29052512D01*
X80126589Y-28973810D01*
X80017179Y-28915329D01*
X79898462Y-28879317D01*
X79775000Y-28867157D01*
X78325000Y-28867157D01*
X78201538Y-28879317D01*
X78082821Y-28915329D01*
X77973411Y-28973810D01*
X77877512Y-29052512D01*
X77798810Y-29148411D01*
X77740329Y-29257821D01*
X77704317Y-29376538D01*
X77692157Y-29500000D01*
X66476409Y-29500000D01*
X66481000Y-29476922D01*
X66481000Y-29323078D01*
X66450987Y-29172191D01*
X66392113Y-29030058D01*
X66306642Y-28902141D01*
X66197859Y-28793358D01*
X66107439Y-28732942D01*
X66150987Y-28627809D01*
X66181000Y-28476922D01*
X66181000Y-28323078D01*
X66150987Y-28172191D01*
X66125451Y-28110542D01*
X66169942Y-28092113D01*
X66297859Y-28006642D01*
X66406642Y-27897859D01*
X66492113Y-27769942D01*
X66550987Y-27627809D01*
X66563618Y-27564310D01*
X66680058Y-27642113D01*
X66822191Y-27700987D01*
X66973078Y-27731000D01*
X67126922Y-27731000D01*
X67277809Y-27700987D01*
X67419942Y-27642113D01*
X67547859Y-27556642D01*
X67656642Y-27447859D01*
X67742113Y-27319942D01*
X67782652Y-27222073D01*
X67867489Y-27349041D01*
X67976272Y-27457824D01*
X68104189Y-27543295D01*
X68246322Y-27602169D01*
X68397209Y-27632182D01*
X68551053Y-27632182D01*
X68701940Y-27602169D01*
X68844073Y-27543295D01*
X68971990Y-27457824D01*
X69080773Y-27349041D01*
X69166244Y-27221124D01*
X69225118Y-27078991D01*
X69246185Y-26973078D01*
X70469000Y-26973078D01*
X70469000Y-27126922D01*
X70499013Y-27277809D01*
X70557887Y-27419942D01*
X70643358Y-27547859D01*
X70752141Y-27656642D01*
X70880058Y-27742113D01*
X71022191Y-27800987D01*
X71173078Y-27831000D01*
X71326922Y-27831000D01*
X71477809Y-27800987D01*
X71619942Y-27742113D01*
X71747859Y-27656642D01*
X71856642Y-27547859D01*
X71942113Y-27419942D01*
X71992941Y-27297234D01*
X71993358Y-27297859D01*
X72102141Y-27406642D01*
X72230058Y-27492113D01*
X72372191Y-27550987D01*
X72523078Y-27581000D01*
X72676922Y-27581000D01*
X72827809Y-27550987D01*
X72833281Y-27548720D01*
X72849013Y-27627809D01*
X72907887Y-27769942D01*
X72993358Y-27897859D01*
X73102141Y-28006642D01*
X73230058Y-28092113D01*
X73372191Y-28150987D01*
X73523078Y-28181000D01*
X73676922Y-28181000D01*
X73763881Y-28163703D01*
X73807887Y-28269942D01*
X73893358Y-28397859D01*
X74002141Y-28506642D01*
X74130058Y-28592113D01*
X74272191Y-28650987D01*
X74423078Y-28681000D01*
X74539702Y-28681000D01*
X74549013Y-28727809D01*
X74607887Y-28869942D01*
X74693358Y-28997859D01*
X74802141Y-29106642D01*
X74930058Y-29192113D01*
X75072191Y-29250987D01*
X75223078Y-29281000D01*
X75376922Y-29281000D01*
X75527809Y-29250987D01*
X75669942Y-29192113D01*
X75797859Y-29106642D01*
X75906642Y-28997859D01*
X75992113Y-28869942D01*
X76050987Y-28727809D01*
X76081000Y-28576922D01*
X76081000Y-28423078D01*
X76050987Y-28272191D01*
X75992113Y-28130058D01*
X75906642Y-28002141D01*
X75797859Y-27893358D01*
X75669942Y-27807887D01*
X75527809Y-27749013D01*
X75376922Y-27719000D01*
X75260298Y-27719000D01*
X75250987Y-27672191D01*
X75192113Y-27530058D01*
X75106642Y-27402141D01*
X74997859Y-27293358D01*
X74869942Y-27207887D01*
X74727809Y-27149013D01*
X74576922Y-27119000D01*
X74423078Y-27119000D01*
X74336119Y-27136297D01*
X74292113Y-27030058D01*
X74206642Y-26902141D01*
X74097859Y-26793358D01*
X73969942Y-26707887D01*
X73827809Y-26649013D01*
X73676922Y-26619000D01*
X73523078Y-26619000D01*
X73372191Y-26649013D01*
X73366719Y-26651280D01*
X73350987Y-26572191D01*
X73292113Y-26430058D01*
X73206642Y-26302141D01*
X73097859Y-26193358D01*
X72969942Y-26107887D01*
X72827809Y-26049013D01*
X72676922Y-26019000D01*
X72523078Y-26019000D01*
X72372191Y-26049013D01*
X72230058Y-26107887D01*
X72102141Y-26193358D01*
X71993358Y-26302141D01*
X71907887Y-26430058D01*
X71857059Y-26552766D01*
X71856642Y-26552141D01*
X71747859Y-26443358D01*
X71619942Y-26357887D01*
X71477809Y-26299013D01*
X71326922Y-26269000D01*
X71173078Y-26269000D01*
X71022191Y-26299013D01*
X70880058Y-26357887D01*
X70752141Y-26443358D01*
X70643358Y-26552141D01*
X70557887Y-26680058D01*
X70499013Y-26822191D01*
X70469000Y-26973078D01*
X69246185Y-26973078D01*
X69255131Y-26928104D01*
X69255131Y-26774260D01*
X69225118Y-26623373D01*
X69166244Y-26481240D01*
X69080773Y-26353323D01*
X68971990Y-26244540D01*
X68844073Y-26159069D01*
X68701940Y-26100195D01*
X68551053Y-26070182D01*
X68397209Y-26070182D01*
X68246322Y-26100195D01*
X68104189Y-26159069D01*
X67976272Y-26244540D01*
X67867489Y-26353323D01*
X67782018Y-26481240D01*
X67741479Y-26579109D01*
X67656642Y-26452141D01*
X67547859Y-26343358D01*
X67419942Y-26257887D01*
X67277809Y-26199013D01*
X67126922Y-26169000D01*
X66973078Y-26169000D01*
X66822191Y-26199013D01*
X66680058Y-26257887D01*
X66552141Y-26343358D01*
X66443358Y-26452141D01*
X66357887Y-26580058D01*
X66299013Y-26722191D01*
X66286382Y-26785690D01*
X66169942Y-26707887D01*
X66027809Y-26649013D01*
X65876922Y-26619000D01*
X65723078Y-26619000D01*
X65572191Y-26649013D01*
X65430058Y-26707887D01*
X65302141Y-26793358D01*
X65193358Y-26902141D01*
X65107887Y-27030058D01*
X65049013Y-27172191D01*
X65019000Y-27323078D01*
X65019000Y-27476922D01*
X65049013Y-27627809D01*
X65074549Y-27689458D01*
X65030058Y-27707887D01*
X64902141Y-27793358D01*
X64793358Y-27902141D01*
X64707887Y-28030058D01*
X64649013Y-28172191D01*
X64619000Y-28323078D01*
X56951730Y-28323078D01*
X56951730Y-28187095D01*
X56921717Y-28036208D01*
X56862843Y-27894075D01*
X56777372Y-27766158D01*
X56668589Y-27657375D01*
X56540672Y-27571904D01*
X56398539Y-27513030D01*
X56247652Y-27483017D01*
X56199760Y-27483017D01*
X56218346Y-27389576D01*
X56218346Y-27235732D01*
X56217405Y-27231000D01*
X56326922Y-27231000D01*
X56477809Y-27200987D01*
X56619942Y-27142113D01*
X56747859Y-27056642D01*
X56856642Y-26947859D01*
X56942113Y-26819942D01*
X57000987Y-26677809D01*
X57031000Y-26526922D01*
X57031000Y-26373078D01*
X57000987Y-26222191D01*
X56942113Y-26080058D01*
X56904041Y-26023078D01*
X59169000Y-26023078D01*
X59169000Y-26176922D01*
X59199013Y-26327809D01*
X59257887Y-26469942D01*
X59343358Y-26597859D01*
X59452141Y-26706642D01*
X59580058Y-26792113D01*
X59722191Y-26850987D01*
X59873078Y-26881000D01*
X60026922Y-26881000D01*
X60177809Y-26850987D01*
X60319942Y-26792113D01*
X60447859Y-26706642D01*
X60556642Y-26597859D01*
X60642113Y-26469942D01*
X60700987Y-26327809D01*
X60731000Y-26176922D01*
X60731000Y-26023078D01*
X60700987Y-25872191D01*
X60642113Y-25730058D01*
X60556642Y-25602141D01*
X60447859Y-25493358D01*
X60319942Y-25407887D01*
X60177809Y-25349013D01*
X60026922Y-25319000D01*
X59873078Y-25319000D01*
X59722191Y-25349013D01*
X59580058Y-25407887D01*
X59452141Y-25493358D01*
X59343358Y-25602141D01*
X59257887Y-25730058D01*
X59199013Y-25872191D01*
X59169000Y-26023078D01*
X56904041Y-26023078D01*
X56856642Y-25952141D01*
X56747859Y-25843358D01*
X56619942Y-25757887D01*
X56477809Y-25699013D01*
X56326922Y-25669000D01*
X56173078Y-25669000D01*
X56022191Y-25699013D01*
X55880058Y-25757887D01*
X55752141Y-25843358D01*
X55643358Y-25952141D01*
X55557887Y-26080058D01*
X55499013Y-26222191D01*
X55469000Y-26373078D01*
X55469000Y-26526922D01*
X55469941Y-26531654D01*
X55360424Y-26531654D01*
X55209537Y-26561667D01*
X55067404Y-26620541D01*
X54939487Y-26706012D01*
X54830704Y-26814795D01*
X54745233Y-26942712D01*
X54686359Y-27084845D01*
X54656346Y-27235732D01*
X54656346Y-27389576D01*
X54686359Y-27540463D01*
X54745233Y-27682596D01*
X54830704Y-27810513D01*
X54939487Y-27919296D01*
X55067404Y-28004767D01*
X55209537Y-28063641D01*
X55360424Y-28093654D01*
X55408316Y-28093654D01*
X55389730Y-28187095D01*
X55389730Y-28319000D01*
X55323078Y-28319000D01*
X55172191Y-28349013D01*
X55030058Y-28407887D01*
X54902141Y-28493358D01*
X54793358Y-28602141D01*
X54707887Y-28730058D01*
X54663752Y-28836608D01*
X54650939Y-28772191D01*
X54592065Y-28630058D01*
X54506594Y-28502141D01*
X54397811Y-28393358D01*
X54269894Y-28307887D01*
X54127761Y-28249013D01*
X53976874Y-28219000D01*
X53823030Y-28219000D01*
X53672143Y-28249013D01*
X53530010Y-28307887D01*
X53402093Y-28393358D01*
X53293310Y-28502141D01*
X53207839Y-28630058D01*
X53148965Y-28772191D01*
X53128723Y-28873956D01*
X53067360Y-28873956D01*
X52916473Y-28903969D01*
X52774340Y-28962843D01*
X52646423Y-29048314D01*
X52537640Y-29157097D01*
X52452169Y-29285014D01*
X52393295Y-29427147D01*
X52363282Y-29578034D01*
X52363282Y-29731878D01*
X52393295Y-29882765D01*
X52452169Y-30024898D01*
X52537640Y-30152815D01*
X52620771Y-30235946D01*
X52557887Y-30330058D01*
X52499013Y-30472191D01*
X52492934Y-30502750D01*
X52442113Y-30380058D01*
X52356642Y-30252141D01*
X52247859Y-30143358D01*
X52119942Y-30057887D01*
X51977809Y-29999013D01*
X51826922Y-29969000D01*
X51673078Y-29969000D01*
X51522191Y-29999013D01*
X51503220Y-30006871D01*
X51492113Y-29980058D01*
X51406642Y-29852141D01*
X51297859Y-29743358D01*
X51169942Y-29657887D01*
X51027809Y-29599013D01*
X50876922Y-29569000D01*
X50723078Y-29569000D01*
X50572191Y-29599013D01*
X50430058Y-29657887D01*
X50302141Y-29743358D01*
X50193358Y-29852141D01*
X50107887Y-29980058D01*
X50049013Y-30122191D01*
X50019000Y-30273078D01*
X47620733Y-30273078D01*
X47581776Y-30234121D01*
X47453859Y-30148650D01*
X47311726Y-30089776D01*
X47160839Y-30059763D01*
X47006995Y-30059763D01*
X46856108Y-30089776D01*
X46713975Y-30148650D01*
X46586058Y-30234121D01*
X46503649Y-30316530D01*
X46407117Y-30252029D01*
X46264984Y-30193155D01*
X46114097Y-30163142D01*
X45960253Y-30163142D01*
X45809366Y-30193155D01*
X45667233Y-30252029D01*
X45539316Y-30337500D01*
X45430533Y-30446283D01*
X45345062Y-30574200D01*
X45286188Y-30716333D01*
X45256175Y-30867220D01*
X44548928Y-30867220D01*
X44492113Y-30730058D01*
X44406642Y-30602141D01*
X44297859Y-30493358D01*
X44169942Y-30407887D01*
X44027809Y-30349013D01*
X43876922Y-30319000D01*
X43723078Y-30319000D01*
X43572191Y-30349013D01*
X43430058Y-30407887D01*
X43302141Y-30493358D01*
X43193358Y-30602141D01*
X43107887Y-30730058D01*
X43049013Y-30872191D01*
X43019000Y-31023078D01*
X6927000Y-31023078D01*
X6927000Y-29623078D01*
X38419000Y-29623078D01*
X38419000Y-29776922D01*
X38449013Y-29927809D01*
X38507887Y-30069942D01*
X38593358Y-30197859D01*
X38702141Y-30306642D01*
X38830058Y-30392113D01*
X38972191Y-30450987D01*
X39123078Y-30481000D01*
X39276922Y-30481000D01*
X39427809Y-30450987D01*
X39569942Y-30392113D01*
X39697859Y-30306642D01*
X39806642Y-30197859D01*
X39892113Y-30069942D01*
X39950987Y-29927809D01*
X39981000Y-29776922D01*
X39981000Y-29623078D01*
X39950987Y-29472191D01*
X39930644Y-29423078D01*
X44619000Y-29423078D01*
X44619000Y-29576922D01*
X44649013Y-29727809D01*
X44707887Y-29869942D01*
X44793358Y-29997859D01*
X44902141Y-30106642D01*
X45030058Y-30192113D01*
X45172191Y-30250987D01*
X45323078Y-30281000D01*
X45476922Y-30281000D01*
X45627809Y-30250987D01*
X45769942Y-30192113D01*
X45897859Y-30106642D01*
X46006642Y-29997859D01*
X46092113Y-29869942D01*
X46150987Y-29727809D01*
X46181000Y-29576922D01*
X46181000Y-29423078D01*
X46150987Y-29272191D01*
X46135993Y-29235993D01*
X46172191Y-29250987D01*
X46323078Y-29281000D01*
X46476922Y-29281000D01*
X46627809Y-29250987D01*
X46769942Y-29192113D01*
X46897859Y-29106642D01*
X47006642Y-28997859D01*
X47092113Y-28869942D01*
X47150987Y-28727809D01*
X47181000Y-28576922D01*
X47181000Y-28423078D01*
X47150987Y-28272191D01*
X47092113Y-28130058D01*
X47006642Y-28002141D01*
X46897859Y-27893358D01*
X46878804Y-27880626D01*
X47027809Y-27850987D01*
X47169942Y-27792113D01*
X47297859Y-27706642D01*
X47406642Y-27597859D01*
X47492113Y-27469942D01*
X47550987Y-27327809D01*
X47581000Y-27176922D01*
X47581000Y-27023078D01*
X47550987Y-26872191D01*
X47492113Y-26730058D01*
X47420632Y-26623078D01*
X50619000Y-26623078D01*
X50619000Y-26776922D01*
X50649013Y-26927809D01*
X50707887Y-27069942D01*
X50793358Y-27197859D01*
X50902141Y-27306642D01*
X51030058Y-27392113D01*
X51172191Y-27450987D01*
X51323078Y-27481000D01*
X51476922Y-27481000D01*
X51627809Y-27450987D01*
X51769942Y-27392113D01*
X51897859Y-27306642D01*
X52006642Y-27197859D01*
X52092113Y-27069942D01*
X52150987Y-26927809D01*
X52181000Y-26776922D01*
X52181000Y-26623078D01*
X52150987Y-26472191D01*
X52102839Y-26355954D01*
X52127809Y-26350987D01*
X52269942Y-26292113D01*
X52397859Y-26206642D01*
X52506642Y-26097859D01*
X52592113Y-25969942D01*
X52650987Y-25827809D01*
X52681000Y-25676922D01*
X52681000Y-25523078D01*
X52676026Y-25498068D01*
X53843952Y-25498068D01*
X53843952Y-25651912D01*
X53873965Y-25802799D01*
X53932839Y-25944932D01*
X54018310Y-26072849D01*
X54127093Y-26181632D01*
X54255010Y-26267103D01*
X54397143Y-26325977D01*
X54548030Y-26355990D01*
X54701874Y-26355990D01*
X54852761Y-26325977D01*
X54994894Y-26267103D01*
X55122811Y-26181632D01*
X55231594Y-26072849D01*
X55317065Y-25944932D01*
X55375939Y-25802799D01*
X55405952Y-25651912D01*
X55405952Y-25498068D01*
X55375939Y-25347181D01*
X55317065Y-25205048D01*
X55246875Y-25100000D01*
X77688044Y-25100000D01*
X77711812Y-25341318D01*
X77782202Y-25573363D01*
X77896509Y-25787216D01*
X78050340Y-25974660D01*
X78237784Y-26128491D01*
X78451637Y-26242798D01*
X78683682Y-26313188D01*
X78864528Y-26331000D01*
X79235472Y-26331000D01*
X79416318Y-26313188D01*
X79648363Y-26242798D01*
X79862216Y-26128491D01*
X80049660Y-25974660D01*
X80203491Y-25787216D01*
X80317798Y-25573363D01*
X80388188Y-25341318D01*
X80411956Y-25100000D01*
X80388188Y-24858682D01*
X80317798Y-24626637D01*
X80203491Y-24412784D01*
X80049660Y-24225340D01*
X79862216Y-24071509D01*
X79648363Y-23957202D01*
X79416318Y-23886812D01*
X79235472Y-23869000D01*
X78864528Y-23869000D01*
X78683682Y-23886812D01*
X78451637Y-23957202D01*
X78237784Y-24071509D01*
X78050340Y-24225340D01*
X77896509Y-24412784D01*
X77782202Y-24626637D01*
X77711812Y-24858682D01*
X77688044Y-25100000D01*
X55246875Y-25100000D01*
X55231594Y-25077131D01*
X55122811Y-24968348D01*
X54994894Y-24882877D01*
X54852761Y-24824003D01*
X54701874Y-24793990D01*
X54548030Y-24793990D01*
X54397143Y-24824003D01*
X54255010Y-24882877D01*
X54127093Y-24968348D01*
X54018310Y-25077131D01*
X53932839Y-25205048D01*
X53873965Y-25347181D01*
X53843952Y-25498068D01*
X52676026Y-25498068D01*
X52650987Y-25372191D01*
X52592113Y-25230058D01*
X52506642Y-25102141D01*
X52397859Y-24993358D01*
X52269942Y-24907887D01*
X52127809Y-24849013D01*
X51976922Y-24819000D01*
X51823078Y-24819000D01*
X51672191Y-24849013D01*
X51530058Y-24907887D01*
X51402141Y-24993358D01*
X51293358Y-25102141D01*
X51207887Y-25230058D01*
X51149013Y-25372191D01*
X51119000Y-25523078D01*
X51119000Y-25676922D01*
X51149013Y-25827809D01*
X51197161Y-25944046D01*
X51172191Y-25949013D01*
X51030058Y-26007887D01*
X50902141Y-26093358D01*
X50793358Y-26202141D01*
X50707887Y-26330058D01*
X50649013Y-26472191D01*
X50619000Y-26623078D01*
X47420632Y-26623078D01*
X47406642Y-26602141D01*
X47404501Y-26600000D01*
X47406642Y-26597859D01*
X47492113Y-26469942D01*
X47550987Y-26327809D01*
X47581000Y-26176922D01*
X47581000Y-26023078D01*
X47550987Y-25872191D01*
X47492113Y-25730058D01*
X47406642Y-25602141D01*
X47297859Y-25493358D01*
X47169942Y-25407887D01*
X47027809Y-25349013D01*
X46876922Y-25319000D01*
X46723078Y-25319000D01*
X46572191Y-25349013D01*
X46430058Y-25407887D01*
X46302141Y-25493358D01*
X46193358Y-25602141D01*
X46107887Y-25730058D01*
X46049013Y-25872191D01*
X46019000Y-26023078D01*
X46019000Y-26176922D01*
X46049013Y-26327809D01*
X46107887Y-26469942D01*
X46193358Y-26597859D01*
X46195499Y-26600000D01*
X46193358Y-26602141D01*
X46107887Y-26730058D01*
X46049013Y-26872191D01*
X46019000Y-27023078D01*
X46019000Y-27176922D01*
X46049013Y-27327809D01*
X46107887Y-27469942D01*
X46193358Y-27597859D01*
X46302141Y-27706642D01*
X46321196Y-27719374D01*
X46172191Y-27749013D01*
X46030058Y-27807887D01*
X45902141Y-27893358D01*
X45793358Y-28002141D01*
X45707887Y-28130058D01*
X45649013Y-28272191D01*
X45619000Y-28423078D01*
X45619000Y-28576922D01*
X45649013Y-28727809D01*
X45664007Y-28764007D01*
X45627809Y-28749013D01*
X45476922Y-28719000D01*
X45323078Y-28719000D01*
X45172191Y-28749013D01*
X45030058Y-28807887D01*
X44902141Y-28893358D01*
X44793358Y-29002141D01*
X44707887Y-29130058D01*
X44649013Y-29272191D01*
X44619000Y-29423078D01*
X39930644Y-29423078D01*
X39892113Y-29330058D01*
X39806642Y-29202141D01*
X39697859Y-29093358D01*
X39569942Y-29007887D01*
X39427809Y-28949013D01*
X39276922Y-28919000D01*
X39123078Y-28919000D01*
X38972191Y-28949013D01*
X38830058Y-29007887D01*
X38702141Y-29093358D01*
X38593358Y-29202141D01*
X38507887Y-29330058D01*
X38449013Y-29472191D01*
X38419000Y-29623078D01*
X6927000Y-29623078D01*
X6927000Y-28623078D01*
X35819000Y-28623078D01*
X35819000Y-28776922D01*
X35849013Y-28927809D01*
X35907887Y-29069942D01*
X35993358Y-29197859D01*
X36102141Y-29306642D01*
X36230058Y-29392113D01*
X36372191Y-29450987D01*
X36523078Y-29481000D01*
X36676922Y-29481000D01*
X36827809Y-29450987D01*
X36969942Y-29392113D01*
X37097859Y-29306642D01*
X37206642Y-29197859D01*
X37292113Y-29069942D01*
X37350987Y-28927809D01*
X37381000Y-28776922D01*
X37381000Y-28623078D01*
X37350987Y-28472191D01*
X37292113Y-28330058D01*
X37206642Y-28202141D01*
X37097859Y-28093358D01*
X36969942Y-28007887D01*
X36827809Y-27949013D01*
X36676922Y-27919000D01*
X36523078Y-27919000D01*
X36372191Y-27949013D01*
X36230058Y-28007887D01*
X36102141Y-28093358D01*
X35993358Y-28202141D01*
X35907887Y-28330058D01*
X35849013Y-28472191D01*
X35819000Y-28623078D01*
X6927000Y-28623078D01*
X6927000Y-26660418D01*
X27031660Y-26660418D01*
X27031660Y-26814262D01*
X27061673Y-26965149D01*
X27120547Y-27107282D01*
X27206018Y-27235199D01*
X27314801Y-27343982D01*
X27442718Y-27429453D01*
X27584851Y-27488327D01*
X27735738Y-27518340D01*
X27889582Y-27518340D01*
X28040469Y-27488327D01*
X28182602Y-27429453D01*
X28310519Y-27343982D01*
X28419302Y-27235199D01*
X28504773Y-27107282D01*
X28563647Y-26965149D01*
X28593660Y-26814262D01*
X28593660Y-26660418D01*
X28563647Y-26509531D01*
X28504773Y-26367398D01*
X28441751Y-26273078D01*
X29719000Y-26273078D01*
X29719000Y-26426922D01*
X29749013Y-26577809D01*
X29807887Y-26719942D01*
X29893358Y-26847859D01*
X30002141Y-26956642D01*
X30130058Y-27042113D01*
X30272191Y-27100987D01*
X30423078Y-27131000D01*
X30576922Y-27131000D01*
X30727809Y-27100987D01*
X30869942Y-27042113D01*
X30997859Y-26956642D01*
X31106642Y-26847859D01*
X31192113Y-26719942D01*
X31250987Y-26577809D01*
X31281000Y-26426922D01*
X31281000Y-26273078D01*
X31250987Y-26122191D01*
X31192113Y-25980058D01*
X31106642Y-25852141D01*
X30997859Y-25743358D01*
X30869942Y-25657887D01*
X30727809Y-25599013D01*
X30576922Y-25569000D01*
X30423078Y-25569000D01*
X30272191Y-25599013D01*
X30130058Y-25657887D01*
X30002141Y-25743358D01*
X29893358Y-25852141D01*
X29807887Y-25980058D01*
X29749013Y-26122191D01*
X29719000Y-26273078D01*
X28441751Y-26273078D01*
X28419302Y-26239481D01*
X28310519Y-26130698D01*
X28182602Y-26045227D01*
X28040469Y-25986353D01*
X27889582Y-25956340D01*
X27735738Y-25956340D01*
X27584851Y-25986353D01*
X27442718Y-26045227D01*
X27314801Y-26130698D01*
X27206018Y-26239481D01*
X27120547Y-26367398D01*
X27061673Y-26509531D01*
X27031660Y-26660418D01*
X6927000Y-26660418D01*
X6927000Y-23773078D01*
X6994000Y-23773078D01*
X6994000Y-23926922D01*
X7024013Y-24077809D01*
X7082887Y-24219942D01*
X7168358Y-24347859D01*
X7277141Y-24456642D01*
X7405058Y-24542113D01*
X7547191Y-24600987D01*
X7698078Y-24631000D01*
X7851922Y-24631000D01*
X8002809Y-24600987D01*
X8144942Y-24542113D01*
X8272859Y-24456642D01*
X8381642Y-24347859D01*
X8467113Y-24219942D01*
X8525987Y-24077809D01*
X8556000Y-23926922D01*
X8556000Y-23773078D01*
X9244000Y-23773078D01*
X9244000Y-23926922D01*
X9274013Y-24077809D01*
X9332887Y-24219942D01*
X9418358Y-24347859D01*
X9527141Y-24456642D01*
X9655058Y-24542113D01*
X9797191Y-24600987D01*
X9948078Y-24631000D01*
X10101922Y-24631000D01*
X10252809Y-24600987D01*
X10394942Y-24542113D01*
X10498260Y-24473078D01*
X48519000Y-24473078D01*
X48519000Y-24626922D01*
X48549013Y-24777809D01*
X48607887Y-24919942D01*
X48693358Y-25047859D01*
X48802141Y-25156642D01*
X48930058Y-25242113D01*
X49072191Y-25300987D01*
X49223078Y-25331000D01*
X49376922Y-25331000D01*
X49527809Y-25300987D01*
X49669942Y-25242113D01*
X49797859Y-25156642D01*
X49906642Y-25047859D01*
X49992113Y-24919942D01*
X50050987Y-24777809D01*
X50081000Y-24626922D01*
X50081000Y-24473078D01*
X50050987Y-24322191D01*
X49992113Y-24180058D01*
X49906642Y-24052141D01*
X49797859Y-23943358D01*
X49669942Y-23857887D01*
X49527809Y-23799013D01*
X49376922Y-23769000D01*
X49223078Y-23769000D01*
X49072191Y-23799013D01*
X48930058Y-23857887D01*
X48802141Y-23943358D01*
X48693358Y-24052141D01*
X48607887Y-24180058D01*
X48549013Y-24322191D01*
X48519000Y-24473078D01*
X10498260Y-24473078D01*
X10522859Y-24456642D01*
X10631642Y-24347859D01*
X10717113Y-24219942D01*
X10775987Y-24077809D01*
X10806000Y-23926922D01*
X10806000Y-23773078D01*
X10775987Y-23622191D01*
X10717113Y-23480058D01*
X10645632Y-23373078D01*
X62169000Y-23373078D01*
X62169000Y-23526922D01*
X62199013Y-23677809D01*
X62257887Y-23819942D01*
X62343358Y-23947859D01*
X62452141Y-24056642D01*
X62580058Y-24142113D01*
X62722191Y-24200987D01*
X62873078Y-24231000D01*
X63026922Y-24231000D01*
X63177809Y-24200987D01*
X63319942Y-24142113D01*
X63447859Y-24056642D01*
X63556642Y-23947859D01*
X63642113Y-23819942D01*
X63700987Y-23677809D01*
X63731000Y-23526922D01*
X63731000Y-23373078D01*
X63700987Y-23222191D01*
X63642113Y-23080058D01*
X63556642Y-22952141D01*
X63447859Y-22843358D01*
X63319942Y-22757887D01*
X63177809Y-22699013D01*
X63026922Y-22669000D01*
X62873078Y-22669000D01*
X62722191Y-22699013D01*
X62580058Y-22757887D01*
X62452141Y-22843358D01*
X62343358Y-22952141D01*
X62257887Y-23080058D01*
X62199013Y-23222191D01*
X62169000Y-23373078D01*
X10645632Y-23373078D01*
X10631642Y-23352141D01*
X10522859Y-23243358D01*
X10394942Y-23157887D01*
X10252809Y-23099013D01*
X10101922Y-23069000D01*
X9948078Y-23069000D01*
X9797191Y-23099013D01*
X9655058Y-23157887D01*
X9527141Y-23243358D01*
X9418358Y-23352141D01*
X9332887Y-23480058D01*
X9274013Y-23622191D01*
X9244000Y-23773078D01*
X8556000Y-23773078D01*
X8525987Y-23622191D01*
X8467113Y-23480058D01*
X8381642Y-23352141D01*
X8272859Y-23243358D01*
X8144942Y-23157887D01*
X8002809Y-23099013D01*
X7851922Y-23069000D01*
X7698078Y-23069000D01*
X7547191Y-23099013D01*
X7405058Y-23157887D01*
X7277141Y-23243358D01*
X7168358Y-23352141D01*
X7082887Y-23480058D01*
X7024013Y-23622191D01*
X6994000Y-23773078D01*
X6927000Y-23773078D01*
X6927000Y-21973078D01*
X14319000Y-21973078D01*
X14319000Y-22126922D01*
X14349013Y-22277809D01*
X14407887Y-22419942D01*
X14493358Y-22547859D01*
X14602141Y-22656642D01*
X14730058Y-22742113D01*
X14872191Y-22800987D01*
X15023078Y-22831000D01*
X15176922Y-22831000D01*
X15327809Y-22800987D01*
X15469942Y-22742113D01*
X15597859Y-22656642D01*
X15706642Y-22547859D01*
X15756608Y-22473078D01*
X17369000Y-22473078D01*
X17369000Y-22626922D01*
X17399013Y-22777809D01*
X17457887Y-22919942D01*
X17543358Y-23047859D01*
X17652141Y-23156642D01*
X17780058Y-23242113D01*
X17922191Y-23300987D01*
X18073078Y-23331000D01*
X18226922Y-23331000D01*
X18377809Y-23300987D01*
X18519942Y-23242113D01*
X18647859Y-23156642D01*
X18650000Y-23154501D01*
X18652141Y-23156642D01*
X18780058Y-23242113D01*
X18922191Y-23300987D01*
X19073078Y-23331000D01*
X19226922Y-23331000D01*
X19377809Y-23300987D01*
X19519942Y-23242113D01*
X19647859Y-23156642D01*
X19756642Y-23047859D01*
X19842113Y-22919942D01*
X19900987Y-22777809D01*
X19931000Y-22626922D01*
X19931000Y-22473078D01*
X19900987Y-22322191D01*
X19842113Y-22180058D01*
X19756642Y-22052141D01*
X19647859Y-21943358D01*
X19519942Y-21857887D01*
X19377809Y-21799013D01*
X19226922Y-21769000D01*
X19073078Y-21769000D01*
X18922191Y-21799013D01*
X18780058Y-21857887D01*
X18652141Y-21943358D01*
X18650000Y-21945499D01*
X18647859Y-21943358D01*
X18519942Y-21857887D01*
X18377809Y-21799013D01*
X18226922Y-21769000D01*
X18073078Y-21769000D01*
X17922191Y-21799013D01*
X17780058Y-21857887D01*
X17652141Y-21943358D01*
X17543358Y-22052141D01*
X17457887Y-22180058D01*
X17399013Y-22322191D01*
X17369000Y-22473078D01*
X15756608Y-22473078D01*
X15792113Y-22419942D01*
X15850987Y-22277809D01*
X15881000Y-22126922D01*
X15881000Y-21973078D01*
X15850987Y-21822191D01*
X15792113Y-21680058D01*
X15706642Y-21552141D01*
X15597859Y-21443358D01*
X15469942Y-21357887D01*
X15327809Y-21299013D01*
X15176922Y-21269000D01*
X15023078Y-21269000D01*
X14872191Y-21299013D01*
X14730058Y-21357887D01*
X14602141Y-21443358D01*
X14493358Y-21552141D01*
X14407887Y-21680058D01*
X14349013Y-21822191D01*
X14319000Y-21973078D01*
X6927000Y-21973078D01*
X6927000Y-20973078D01*
X20769000Y-20973078D01*
X20769000Y-21126922D01*
X20799013Y-21277809D01*
X20857887Y-21419942D01*
X20943358Y-21547859D01*
X21052141Y-21656642D01*
X21180058Y-21742113D01*
X21322191Y-21800987D01*
X21473078Y-21831000D01*
X21626922Y-21831000D01*
X21777809Y-21800987D01*
X21919942Y-21742113D01*
X22047859Y-21656642D01*
X22156642Y-21547859D01*
X22242113Y-21419942D01*
X22300987Y-21277809D01*
X22331000Y-21126922D01*
X22331000Y-21123078D01*
X40769000Y-21123078D01*
X40769000Y-21276922D01*
X40799013Y-21427809D01*
X40857887Y-21569942D01*
X40943358Y-21697859D01*
X41052141Y-21806642D01*
X41180058Y-21892113D01*
X41322191Y-21950987D01*
X41473078Y-21981000D01*
X41626922Y-21981000D01*
X41777809Y-21950987D01*
X41919942Y-21892113D01*
X42047859Y-21806642D01*
X42156642Y-21697859D01*
X42168584Y-21679985D01*
X50601227Y-21679985D01*
X50601227Y-21833829D01*
X50631240Y-21984716D01*
X50690114Y-22126849D01*
X50775585Y-22254766D01*
X50884368Y-22363549D01*
X51012285Y-22449020D01*
X51154418Y-22507894D01*
X51305305Y-22537907D01*
X51459149Y-22537907D01*
X51610036Y-22507894D01*
X51752169Y-22449020D01*
X51849869Y-22383740D01*
X51882959Y-22416830D01*
X52010876Y-22502301D01*
X52153009Y-22561175D01*
X52303896Y-22591188D01*
X52457740Y-22591188D01*
X52608627Y-22561175D01*
X52750760Y-22502301D01*
X52878677Y-22416830D01*
X52987460Y-22308047D01*
X53072931Y-22180130D01*
X53131805Y-22037997D01*
X53134772Y-22023078D01*
X56569000Y-22023078D01*
X56569000Y-22176922D01*
X56599013Y-22327809D01*
X56657887Y-22469942D01*
X56743358Y-22597859D01*
X56852141Y-22706642D01*
X56980058Y-22792113D01*
X57122191Y-22850987D01*
X57273078Y-22881000D01*
X57426922Y-22881000D01*
X57577809Y-22850987D01*
X57719942Y-22792113D01*
X57847859Y-22706642D01*
X57956642Y-22597859D01*
X58042113Y-22469942D01*
X58100987Y-22327809D01*
X58119332Y-22235578D01*
X59181500Y-22235578D01*
X59181500Y-22389422D01*
X59211513Y-22540309D01*
X59270387Y-22682442D01*
X59355858Y-22810359D01*
X59464641Y-22919142D01*
X59592558Y-23004613D01*
X59734691Y-23063487D01*
X59885578Y-23093500D01*
X60039422Y-23093500D01*
X60190309Y-23063487D01*
X60332442Y-23004613D01*
X60460359Y-22919142D01*
X60569142Y-22810359D01*
X60654613Y-22682442D01*
X60688761Y-22600000D01*
X77688044Y-22600000D01*
X77711812Y-22841318D01*
X77782202Y-23073363D01*
X77896509Y-23287216D01*
X78050340Y-23474660D01*
X78237784Y-23628491D01*
X78451637Y-23742798D01*
X78683682Y-23813188D01*
X78864528Y-23831000D01*
X79235472Y-23831000D01*
X79416318Y-23813188D01*
X79648363Y-23742798D01*
X79862216Y-23628491D01*
X80049660Y-23474660D01*
X80203491Y-23287216D01*
X80317798Y-23073363D01*
X80388188Y-22841318D01*
X80411956Y-22600000D01*
X80388188Y-22358682D01*
X80317798Y-22126637D01*
X80203491Y-21912784D01*
X80049660Y-21725340D01*
X79862216Y-21571509D01*
X79648363Y-21457202D01*
X79416318Y-21386812D01*
X79235472Y-21369000D01*
X78864528Y-21369000D01*
X78683682Y-21386812D01*
X78451637Y-21457202D01*
X78237784Y-21571509D01*
X78050340Y-21725340D01*
X77896509Y-21912784D01*
X77782202Y-22126637D01*
X77711812Y-22358682D01*
X77688044Y-22600000D01*
X60688761Y-22600000D01*
X60713487Y-22540309D01*
X60743500Y-22389422D01*
X60743500Y-22235578D01*
X60713487Y-22084691D01*
X60654613Y-21942558D01*
X60569142Y-21814641D01*
X60460359Y-21705858D01*
X60332442Y-21620387D01*
X60190309Y-21561513D01*
X60039422Y-21531500D01*
X59885578Y-21531500D01*
X59734691Y-21561513D01*
X59592558Y-21620387D01*
X59464641Y-21705858D01*
X59355858Y-21814641D01*
X59270387Y-21942558D01*
X59211513Y-22084691D01*
X59181500Y-22235578D01*
X58119332Y-22235578D01*
X58131000Y-22176922D01*
X58131000Y-22023078D01*
X58100987Y-21872191D01*
X58042113Y-21730058D01*
X57956642Y-21602141D01*
X57847859Y-21493358D01*
X57719942Y-21407887D01*
X57577809Y-21349013D01*
X57426922Y-21319000D01*
X57273078Y-21319000D01*
X57122191Y-21349013D01*
X56980058Y-21407887D01*
X56852141Y-21493358D01*
X56743358Y-21602141D01*
X56657887Y-21730058D01*
X56599013Y-21872191D01*
X56569000Y-22023078D01*
X53134772Y-22023078D01*
X53161818Y-21887110D01*
X53161818Y-21733266D01*
X53131805Y-21582379D01*
X53072931Y-21440246D01*
X52987460Y-21312329D01*
X52878677Y-21203546D01*
X52750760Y-21118075D01*
X52608627Y-21059201D01*
X52457740Y-21029188D01*
X52303896Y-21029188D01*
X52153009Y-21059201D01*
X52010876Y-21118075D01*
X51913176Y-21183355D01*
X51880086Y-21150265D01*
X51752169Y-21064794D01*
X51610036Y-21005920D01*
X51459149Y-20975907D01*
X51305305Y-20975907D01*
X51154418Y-21005920D01*
X51012285Y-21064794D01*
X50884368Y-21150265D01*
X50775585Y-21259048D01*
X50690114Y-21386965D01*
X50631240Y-21529098D01*
X50601227Y-21679985D01*
X42168584Y-21679985D01*
X42242113Y-21569942D01*
X42300987Y-21427809D01*
X42331000Y-21276922D01*
X42331000Y-21123078D01*
X42300987Y-20972191D01*
X42242113Y-20830058D01*
X42156642Y-20702141D01*
X42047859Y-20593358D01*
X41919942Y-20507887D01*
X41777809Y-20449013D01*
X41626922Y-20419000D01*
X41473078Y-20419000D01*
X41322191Y-20449013D01*
X41180058Y-20507887D01*
X41052141Y-20593358D01*
X40943358Y-20702141D01*
X40857887Y-20830058D01*
X40799013Y-20972191D01*
X40769000Y-21123078D01*
X22331000Y-21123078D01*
X22331000Y-20973078D01*
X22300987Y-20822191D01*
X22242113Y-20680058D01*
X22156642Y-20552141D01*
X22047859Y-20443358D01*
X21919942Y-20357887D01*
X21777809Y-20299013D01*
X21626922Y-20269000D01*
X21473078Y-20269000D01*
X21322191Y-20299013D01*
X21180058Y-20357887D01*
X21052141Y-20443358D01*
X20943358Y-20552141D01*
X20857887Y-20680058D01*
X20799013Y-20822191D01*
X20769000Y-20973078D01*
X6927000Y-20973078D01*
X6927000Y-20223078D01*
X22269000Y-20223078D01*
X22269000Y-20376922D01*
X22299013Y-20527809D01*
X22357887Y-20669942D01*
X22443358Y-20797859D01*
X22552141Y-20906642D01*
X22680058Y-20992113D01*
X22822191Y-21050987D01*
X22973078Y-21081000D01*
X23126922Y-21081000D01*
X23277809Y-21050987D01*
X23419942Y-20992113D01*
X23547859Y-20906642D01*
X23656642Y-20797859D01*
X23742113Y-20669942D01*
X23800987Y-20527809D01*
X23831000Y-20376922D01*
X23831000Y-20223078D01*
X23800987Y-20072191D01*
X23742113Y-19930058D01*
X23656642Y-19802141D01*
X23547859Y-19693358D01*
X23419942Y-19607887D01*
X23277809Y-19549013D01*
X23126922Y-19519000D01*
X22973078Y-19519000D01*
X22822191Y-19549013D01*
X22680058Y-19607887D01*
X22552141Y-19693358D01*
X22443358Y-19802141D01*
X22357887Y-19930058D01*
X22299013Y-20072191D01*
X22269000Y-20223078D01*
X6927000Y-20223078D01*
X6927000Y-18473078D01*
X9519000Y-18473078D01*
X9519000Y-18626922D01*
X9549013Y-18777809D01*
X9607887Y-18919942D01*
X9693358Y-19047859D01*
X9802141Y-19156642D01*
X9930058Y-19242113D01*
X10072191Y-19300987D01*
X10223078Y-19331000D01*
X10376922Y-19331000D01*
X10527809Y-19300987D01*
X10595186Y-19273078D01*
X28169000Y-19273078D01*
X28169000Y-19426922D01*
X28199013Y-19577809D01*
X28257887Y-19719942D01*
X28343358Y-19847859D01*
X28452141Y-19956642D01*
X28580058Y-20042113D01*
X28722191Y-20100987D01*
X28873078Y-20131000D01*
X29026922Y-20131000D01*
X29177809Y-20100987D01*
X29319942Y-20042113D01*
X29447859Y-19956642D01*
X29556642Y-19847859D01*
X29642113Y-19719942D01*
X29700987Y-19577809D01*
X29731000Y-19426922D01*
X29731000Y-19273078D01*
X29701164Y-19123078D01*
X48918998Y-19123078D01*
X48918998Y-19276922D01*
X48949011Y-19427809D01*
X49007885Y-19569942D01*
X49093356Y-19697859D01*
X49202139Y-19806642D01*
X49330056Y-19892113D01*
X49472189Y-19950987D01*
X49623076Y-19981000D01*
X49776920Y-19981000D01*
X49927807Y-19950987D01*
X50069940Y-19892113D01*
X50197857Y-19806642D01*
X50306640Y-19697859D01*
X50392111Y-19569942D01*
X50450985Y-19427809D01*
X50467130Y-19346641D01*
X50552141Y-19431652D01*
X50680058Y-19517123D01*
X50822191Y-19575997D01*
X50973078Y-19606010D01*
X51126922Y-19606010D01*
X51277809Y-19575997D01*
X51419942Y-19517123D01*
X51547859Y-19431652D01*
X51656642Y-19322869D01*
X51742113Y-19194952D01*
X51800987Y-19052819D01*
X51806902Y-19023078D01*
X56319000Y-19023078D01*
X56319000Y-19176922D01*
X56349013Y-19327809D01*
X56407887Y-19469942D01*
X56493358Y-19597859D01*
X56602141Y-19706642D01*
X56730058Y-19792113D01*
X56872191Y-19850987D01*
X57023078Y-19881000D01*
X57176922Y-19881000D01*
X57327809Y-19850987D01*
X57469942Y-19792113D01*
X57597859Y-19706642D01*
X57706642Y-19597859D01*
X57792113Y-19469942D01*
X57850987Y-19327809D01*
X57881000Y-19176922D01*
X57881000Y-19023078D01*
X57850987Y-18872191D01*
X57792113Y-18730058D01*
X57706642Y-18602141D01*
X57597859Y-18493358D01*
X57530093Y-18448078D01*
X64619000Y-18448078D01*
X64619000Y-18601922D01*
X64649013Y-18752809D01*
X64707887Y-18894942D01*
X64793358Y-19022859D01*
X64902141Y-19131642D01*
X65030058Y-19217113D01*
X65172191Y-19275987D01*
X65323078Y-19306000D01*
X65476922Y-19306000D01*
X65627809Y-19275987D01*
X65769942Y-19217113D01*
X65897859Y-19131642D01*
X65950000Y-19079501D01*
X66002141Y-19131642D01*
X66130058Y-19217113D01*
X66272191Y-19275987D01*
X66423078Y-19306000D01*
X66576922Y-19306000D01*
X66727809Y-19275987D01*
X66869942Y-19217113D01*
X66997859Y-19131642D01*
X67106642Y-19022859D01*
X67192113Y-18894942D01*
X67250987Y-18752809D01*
X67281000Y-18601922D01*
X67281000Y-18448078D01*
X67250987Y-18297191D01*
X67192113Y-18155058D01*
X67106642Y-18027141D01*
X67002579Y-17923078D01*
X67469000Y-17923078D01*
X67469000Y-18076922D01*
X67499013Y-18227809D01*
X67557887Y-18369942D01*
X67643358Y-18497859D01*
X67670499Y-18525000D01*
X67643358Y-18552141D01*
X67557887Y-18680058D01*
X67499013Y-18822191D01*
X67469000Y-18973078D01*
X67469000Y-19126922D01*
X67499013Y-19277809D01*
X67557887Y-19419942D01*
X67643358Y-19547859D01*
X67752141Y-19656642D01*
X67880058Y-19742113D01*
X68022191Y-19800987D01*
X68173078Y-19831000D01*
X68326922Y-19831000D01*
X68477809Y-19800987D01*
X68619942Y-19742113D01*
X68747859Y-19656642D01*
X68856642Y-19547859D01*
X68942113Y-19419942D01*
X69000987Y-19277809D01*
X69031000Y-19126922D01*
X69031000Y-18973078D01*
X69000987Y-18822191D01*
X68942113Y-18680058D01*
X68856642Y-18552141D01*
X68829501Y-18525000D01*
X68856642Y-18497859D01*
X68942113Y-18369942D01*
X69000987Y-18227809D01*
X69031000Y-18076922D01*
X69031000Y-17923078D01*
X69000987Y-17772191D01*
X68942113Y-17630058D01*
X68856642Y-17502141D01*
X68747859Y-17393358D01*
X68619942Y-17307887D01*
X68477809Y-17249013D01*
X68326922Y-17219000D01*
X68173078Y-17219000D01*
X68022191Y-17249013D01*
X67880058Y-17307887D01*
X67752141Y-17393358D01*
X67643358Y-17502141D01*
X67557887Y-17630058D01*
X67499013Y-17772191D01*
X67469000Y-17923078D01*
X67002579Y-17923078D01*
X66997859Y-17918358D01*
X66869942Y-17832887D01*
X66727809Y-17774013D01*
X66576922Y-17744000D01*
X66423078Y-17744000D01*
X66272191Y-17774013D01*
X66130058Y-17832887D01*
X66002141Y-17918358D01*
X65950000Y-17970499D01*
X65897859Y-17918358D01*
X65769942Y-17832887D01*
X65627809Y-17774013D01*
X65476922Y-17744000D01*
X65323078Y-17744000D01*
X65172191Y-17774013D01*
X65030058Y-17832887D01*
X64902141Y-17918358D01*
X64793358Y-18027141D01*
X64707887Y-18155058D01*
X64649013Y-18297191D01*
X64619000Y-18448078D01*
X57530093Y-18448078D01*
X57469942Y-18407887D01*
X57327809Y-18349013D01*
X57176922Y-18319000D01*
X57023078Y-18319000D01*
X56872191Y-18349013D01*
X56730058Y-18407887D01*
X56602141Y-18493358D01*
X56493358Y-18602141D01*
X56407887Y-18730058D01*
X56349013Y-18872191D01*
X56319000Y-19023078D01*
X51806902Y-19023078D01*
X51831000Y-18901932D01*
X51831000Y-18748088D01*
X51800987Y-18597201D01*
X51742113Y-18455068D01*
X51656642Y-18327151D01*
X51547859Y-18218368D01*
X51419942Y-18132897D01*
X51277809Y-18074023D01*
X51126922Y-18044010D01*
X50973078Y-18044010D01*
X50822191Y-18074023D01*
X50680058Y-18132897D01*
X50552141Y-18218368D01*
X50443358Y-18327151D01*
X50357887Y-18455068D01*
X50299013Y-18597201D01*
X50282868Y-18678369D01*
X50197857Y-18593358D01*
X50069940Y-18507887D01*
X49927807Y-18449013D01*
X49776920Y-18419000D01*
X49623076Y-18419000D01*
X49472189Y-18449013D01*
X49330056Y-18507887D01*
X49202139Y-18593358D01*
X49093356Y-18702141D01*
X49007885Y-18830058D01*
X48949011Y-18972191D01*
X48918998Y-19123078D01*
X29701164Y-19123078D01*
X29700987Y-19122191D01*
X29642113Y-18980058D01*
X29556642Y-18852141D01*
X29447859Y-18743358D01*
X29319942Y-18657887D01*
X29177809Y-18599013D01*
X29026922Y-18569000D01*
X28873078Y-18569000D01*
X28722191Y-18599013D01*
X28580058Y-18657887D01*
X28452141Y-18743358D01*
X28343358Y-18852141D01*
X28257887Y-18980058D01*
X28199013Y-19122191D01*
X28169000Y-19273078D01*
X10595186Y-19273078D01*
X10669942Y-19242113D01*
X10797859Y-19156642D01*
X10906642Y-19047859D01*
X10992113Y-18919942D01*
X11050987Y-18777809D01*
X11081000Y-18626922D01*
X11081000Y-18473078D01*
X11050987Y-18322191D01*
X11030644Y-18273078D01*
X14319000Y-18273078D01*
X14319000Y-18426922D01*
X14349013Y-18577809D01*
X14407887Y-18719942D01*
X14493358Y-18847859D01*
X14602141Y-18956642D01*
X14730058Y-19042113D01*
X14872191Y-19100987D01*
X15023078Y-19131000D01*
X15176922Y-19131000D01*
X15327809Y-19100987D01*
X15469942Y-19042113D01*
X15597859Y-18956642D01*
X15706642Y-18847859D01*
X15792113Y-18719942D01*
X15850987Y-18577809D01*
X15881000Y-18426922D01*
X15881000Y-18273078D01*
X15850987Y-18122191D01*
X15792113Y-17980058D01*
X15706642Y-17852141D01*
X15597859Y-17743358D01*
X15469942Y-17657887D01*
X15327809Y-17599013D01*
X15176922Y-17569000D01*
X15023078Y-17569000D01*
X14872191Y-17599013D01*
X14730058Y-17657887D01*
X14602141Y-17743358D01*
X14493358Y-17852141D01*
X14407887Y-17980058D01*
X14349013Y-18122191D01*
X14319000Y-18273078D01*
X11030644Y-18273078D01*
X10992113Y-18180058D01*
X10906642Y-18052141D01*
X10797859Y-17943358D01*
X10669942Y-17857887D01*
X10527809Y-17799013D01*
X10376922Y-17769000D01*
X10223078Y-17769000D01*
X10072191Y-17799013D01*
X9930058Y-17857887D01*
X9802141Y-17943358D01*
X9693358Y-18052141D01*
X9607887Y-18180058D01*
X9549013Y-18322191D01*
X9519000Y-18473078D01*
X6927000Y-18473078D01*
X6927000Y-16740070D01*
X6930058Y-16742113D01*
X7072191Y-16800987D01*
X7223078Y-16831000D01*
X7376922Y-16831000D01*
X7527809Y-16800987D01*
X7669942Y-16742113D01*
X7797859Y-16656642D01*
X7906642Y-16547859D01*
X7992113Y-16419942D01*
X8050987Y-16277809D01*
X8081000Y-16126922D01*
X8081000Y-16123078D01*
X16069000Y-16123078D01*
X16069000Y-16276922D01*
X16099013Y-16427809D01*
X16157887Y-16569942D01*
X16243358Y-16697859D01*
X16352141Y-16806642D01*
X16480058Y-16892113D01*
X16622191Y-16950987D01*
X16773078Y-16981000D01*
X16926922Y-16981000D01*
X17077809Y-16950987D01*
X17219942Y-16892113D01*
X17347859Y-16806642D01*
X17456642Y-16697859D01*
X17542113Y-16569942D01*
X17600987Y-16427809D01*
X17631000Y-16276922D01*
X17631000Y-16123078D01*
X17600987Y-15972191D01*
X17542113Y-15830058D01*
X17456642Y-15702141D01*
X17347859Y-15593358D01*
X17219942Y-15507887D01*
X17077809Y-15449013D01*
X16926922Y-15419000D01*
X16773078Y-15419000D01*
X16622191Y-15449013D01*
X16480058Y-15507887D01*
X16352141Y-15593358D01*
X16243358Y-15702141D01*
X16157887Y-15830058D01*
X16099013Y-15972191D01*
X16069000Y-16123078D01*
X8081000Y-16123078D01*
X8081000Y-15973078D01*
X8050987Y-15822191D01*
X7992113Y-15680058D01*
X7906642Y-15552141D01*
X7797859Y-15443358D01*
X7669942Y-15357887D01*
X7527809Y-15299013D01*
X7376922Y-15269000D01*
X7223078Y-15269000D01*
X7072191Y-15299013D01*
X6930058Y-15357887D01*
X6927000Y-15359930D01*
X6927000Y-14223078D01*
X14769000Y-14223078D01*
X14769000Y-14376922D01*
X14799013Y-14527809D01*
X14857887Y-14669942D01*
X14943358Y-14797859D01*
X14945499Y-14800000D01*
X14943358Y-14802141D01*
X14857887Y-14930058D01*
X14799013Y-15072191D01*
X14769000Y-15223078D01*
X14769000Y-15376922D01*
X14799013Y-15527809D01*
X14857887Y-15669942D01*
X14943358Y-15797859D01*
X15052141Y-15906642D01*
X15180058Y-15992113D01*
X15322191Y-16050987D01*
X15473078Y-16081000D01*
X15626922Y-16081000D01*
X15777809Y-16050987D01*
X15919942Y-15992113D01*
X16047859Y-15906642D01*
X16156642Y-15797859D01*
X16242113Y-15669942D01*
X16300987Y-15527809D01*
X16331000Y-15376922D01*
X16331000Y-15223078D01*
X16300987Y-15072191D01*
X16280644Y-15023078D01*
X25219000Y-15023078D01*
X25219000Y-15176922D01*
X25249013Y-15327809D01*
X25307887Y-15469942D01*
X25393358Y-15597859D01*
X25502141Y-15706642D01*
X25630058Y-15792113D01*
X25772191Y-15850987D01*
X25831012Y-15862687D01*
X25819000Y-15923078D01*
X25819000Y-16076922D01*
X25849013Y-16227809D01*
X25907887Y-16369942D01*
X25993358Y-16497859D01*
X26102141Y-16606642D01*
X26230058Y-16692113D01*
X26372191Y-16750987D01*
X26523078Y-16781000D01*
X26676922Y-16781000D01*
X26827809Y-16750987D01*
X26969942Y-16692113D01*
X27097859Y-16606642D01*
X27206642Y-16497859D01*
X27292113Y-16369942D01*
X27350987Y-16227809D01*
X27381000Y-16076922D01*
X27381000Y-15923078D01*
X27368988Y-15862687D01*
X27427809Y-15850987D01*
X27569942Y-15792113D01*
X27673260Y-15723078D01*
X35269000Y-15723078D01*
X35269000Y-15876922D01*
X35299013Y-16027809D01*
X35357887Y-16169942D01*
X35443358Y-16297859D01*
X35552141Y-16406642D01*
X35579616Y-16425000D01*
X35552141Y-16443358D01*
X35443358Y-16552141D01*
X35357887Y-16680058D01*
X35299013Y-16822191D01*
X35269000Y-16973078D01*
X35269000Y-17126922D01*
X35299013Y-17277809D01*
X35357887Y-17419942D01*
X35443358Y-17547859D01*
X35552141Y-17656642D01*
X35680058Y-17742113D01*
X35822191Y-17800987D01*
X35973078Y-17831000D01*
X36126922Y-17831000D01*
X36277809Y-17800987D01*
X36419942Y-17742113D01*
X36547859Y-17656642D01*
X36656642Y-17547859D01*
X36675000Y-17520384D01*
X36693358Y-17547859D01*
X36802141Y-17656642D01*
X36930058Y-17742113D01*
X37072191Y-17800987D01*
X37223078Y-17831000D01*
X37376922Y-17831000D01*
X37527809Y-17800987D01*
X37669942Y-17742113D01*
X37797859Y-17656642D01*
X37906642Y-17547859D01*
X37992113Y-17419942D01*
X38050987Y-17277809D01*
X38081000Y-17126922D01*
X38081000Y-16973078D01*
X38050987Y-16822191D01*
X37992113Y-16680058D01*
X37906642Y-16552141D01*
X37797859Y-16443358D01*
X37770384Y-16425000D01*
X37797859Y-16406642D01*
X37906642Y-16297859D01*
X37992113Y-16169942D01*
X38050987Y-16027809D01*
X38081000Y-15876922D01*
X38081000Y-15723078D01*
X38050987Y-15572191D01*
X37992113Y-15430058D01*
X37906642Y-15302141D01*
X37797859Y-15193358D01*
X37669942Y-15107887D01*
X37527809Y-15049013D01*
X37376922Y-15019000D01*
X37223078Y-15019000D01*
X37072191Y-15049013D01*
X36930058Y-15107887D01*
X36802141Y-15193358D01*
X36693358Y-15302141D01*
X36675000Y-15329616D01*
X36656642Y-15302141D01*
X36547859Y-15193358D01*
X36419942Y-15107887D01*
X36277809Y-15049013D01*
X36126922Y-15019000D01*
X35973078Y-15019000D01*
X35822191Y-15049013D01*
X35680058Y-15107887D01*
X35552141Y-15193358D01*
X35443358Y-15302141D01*
X35357887Y-15430058D01*
X35299013Y-15572191D01*
X35269000Y-15723078D01*
X27673260Y-15723078D01*
X27697859Y-15706642D01*
X27806642Y-15597859D01*
X27892113Y-15469942D01*
X27950987Y-15327809D01*
X27981000Y-15176922D01*
X27981000Y-15023078D01*
X27950987Y-14872191D01*
X27892113Y-14730058D01*
X27806642Y-14602141D01*
X27697859Y-14493358D01*
X27569942Y-14407887D01*
X27427809Y-14349013D01*
X27276922Y-14319000D01*
X27123078Y-14319000D01*
X26972191Y-14349013D01*
X26830058Y-14407887D01*
X26702141Y-14493358D01*
X26600000Y-14595499D01*
X26497859Y-14493358D01*
X26369942Y-14407887D01*
X26227809Y-14349013D01*
X26076922Y-14319000D01*
X25923078Y-14319000D01*
X25772191Y-14349013D01*
X25630058Y-14407887D01*
X25502141Y-14493358D01*
X25393358Y-14602141D01*
X25307887Y-14730058D01*
X25249013Y-14872191D01*
X25219000Y-15023078D01*
X16280644Y-15023078D01*
X16242113Y-14930058D01*
X16156642Y-14802141D01*
X16154501Y-14800000D01*
X16156642Y-14797859D01*
X16242113Y-14669942D01*
X16300987Y-14527809D01*
X16331000Y-14376922D01*
X16331000Y-14223078D01*
X43769000Y-14223078D01*
X43769000Y-14376922D01*
X43799013Y-14527809D01*
X43857887Y-14669942D01*
X43943358Y-14797859D01*
X43945499Y-14800000D01*
X43943358Y-14802141D01*
X43857887Y-14930058D01*
X43799013Y-15072191D01*
X43769000Y-15223078D01*
X43769000Y-15376922D01*
X43799013Y-15527809D01*
X43857887Y-15669942D01*
X43943358Y-15797859D01*
X44052141Y-15906642D01*
X44180058Y-15992113D01*
X44322191Y-16050987D01*
X44473078Y-16081000D01*
X44626922Y-16081000D01*
X44777809Y-16050987D01*
X44919942Y-15992113D01*
X45047859Y-15906642D01*
X45156642Y-15797859D01*
X45242113Y-15669942D01*
X45300987Y-15527809D01*
X45331000Y-15376922D01*
X45331000Y-15223078D01*
X45311109Y-15123078D01*
X48619000Y-15123078D01*
X48619000Y-15276922D01*
X48649013Y-15427809D01*
X48707887Y-15569942D01*
X48793358Y-15697859D01*
X48845499Y-15750000D01*
X48793358Y-15802141D01*
X48707887Y-15930058D01*
X48649013Y-16072191D01*
X48619000Y-16223078D01*
X48619000Y-16376922D01*
X48649013Y-16527809D01*
X48707887Y-16669942D01*
X48793358Y-16797859D01*
X48902141Y-16906642D01*
X49030058Y-16992113D01*
X49172191Y-17050987D01*
X49323078Y-17081000D01*
X49476922Y-17081000D01*
X49627809Y-17050987D01*
X49769942Y-16992113D01*
X49897859Y-16906642D01*
X50006642Y-16797859D01*
X50092113Y-16669942D01*
X50150987Y-16527809D01*
X50181000Y-16376922D01*
X50181000Y-16223078D01*
X50150987Y-16072191D01*
X50092113Y-15930058D01*
X50006642Y-15802141D01*
X49954501Y-15750000D01*
X50006642Y-15697859D01*
X50092113Y-15569942D01*
X50150987Y-15427809D01*
X50181000Y-15276922D01*
X50181000Y-15123078D01*
X50151164Y-14973078D01*
X50418997Y-14973078D01*
X50418997Y-15126922D01*
X50449010Y-15277809D01*
X50507884Y-15419942D01*
X50593355Y-15547859D01*
X50702138Y-15656642D01*
X50830055Y-15742113D01*
X50972188Y-15800987D01*
X51123075Y-15831000D01*
X51276919Y-15831000D01*
X51427806Y-15800987D01*
X51569939Y-15742113D01*
X51697856Y-15656642D01*
X51806639Y-15547859D01*
X51892110Y-15419942D01*
X51906360Y-15385541D01*
X51939801Y-15418982D01*
X52067718Y-15504453D01*
X52209851Y-15563327D01*
X52360738Y-15593340D01*
X52514582Y-15593340D01*
X52665469Y-15563327D01*
X52807602Y-15504453D01*
X52935519Y-15418982D01*
X53044302Y-15310199D01*
X53129773Y-15182282D01*
X53188647Y-15040149D01*
X53218660Y-14889262D01*
X53218660Y-14735418D01*
X53211615Y-14700000D01*
X68642157Y-14700000D01*
X68642157Y-15900000D01*
X68654317Y-16023462D01*
X68690329Y-16142179D01*
X68748810Y-16251589D01*
X68827512Y-16347488D01*
X68923411Y-16426190D01*
X69032821Y-16484671D01*
X69151538Y-16520683D01*
X69275000Y-16532843D01*
X70725000Y-16532843D01*
X70848462Y-16520683D01*
X70967179Y-16484671D01*
X71076589Y-16426190D01*
X71172488Y-16347488D01*
X71251190Y-16251589D01*
X71309671Y-16142179D01*
X71345683Y-16023462D01*
X71357843Y-15900000D01*
X71357843Y-14700000D01*
X71345683Y-14576538D01*
X71309671Y-14457821D01*
X71251190Y-14348411D01*
X71172488Y-14252512D01*
X71076589Y-14173810D01*
X70967179Y-14115329D01*
X70848462Y-14079317D01*
X70725000Y-14067157D01*
X69275000Y-14067157D01*
X69151538Y-14079317D01*
X69032821Y-14115329D01*
X68923411Y-14173810D01*
X68827512Y-14252512D01*
X68748810Y-14348411D01*
X68690329Y-14457821D01*
X68654317Y-14576538D01*
X68642157Y-14700000D01*
X53211615Y-14700000D01*
X53188647Y-14584531D01*
X53129773Y-14442398D01*
X53044302Y-14314481D01*
X52935519Y-14205698D01*
X52807602Y-14120227D01*
X52665469Y-14061353D01*
X52514582Y-14031340D01*
X52360738Y-14031340D01*
X52209851Y-14061353D01*
X52067718Y-14120227D01*
X51939801Y-14205698D01*
X51831018Y-14314481D01*
X51745547Y-14442398D01*
X51731297Y-14476799D01*
X51697856Y-14443358D01*
X51569939Y-14357887D01*
X51427806Y-14299013D01*
X51276919Y-14269000D01*
X51123075Y-14269000D01*
X50972188Y-14299013D01*
X50830055Y-14357887D01*
X50702138Y-14443358D01*
X50593355Y-14552141D01*
X50507884Y-14680058D01*
X50449010Y-14822191D01*
X50418997Y-14973078D01*
X50151164Y-14973078D01*
X50150987Y-14972191D01*
X50092113Y-14830058D01*
X50006642Y-14702141D01*
X49897859Y-14593358D01*
X49769942Y-14507887D01*
X49627809Y-14449013D01*
X49476922Y-14419000D01*
X49323078Y-14419000D01*
X49172191Y-14449013D01*
X49030058Y-14507887D01*
X48902141Y-14593358D01*
X48793358Y-14702141D01*
X48707887Y-14830058D01*
X48649013Y-14972191D01*
X48619000Y-15123078D01*
X45311109Y-15123078D01*
X45300987Y-15072191D01*
X45242113Y-14930058D01*
X45156642Y-14802141D01*
X45154501Y-14800000D01*
X45156642Y-14797859D01*
X45242113Y-14669942D01*
X45300987Y-14527809D01*
X45331000Y-14376922D01*
X45331000Y-14223078D01*
X45300987Y-14072191D01*
X45242113Y-13930058D01*
X45156642Y-13802141D01*
X45047859Y-13693358D01*
X44919942Y-13607887D01*
X44777809Y-13549013D01*
X44626922Y-13519000D01*
X44473078Y-13519000D01*
X44322191Y-13549013D01*
X44180058Y-13607887D01*
X44052141Y-13693358D01*
X43943358Y-13802141D01*
X43857887Y-13930058D01*
X43799013Y-14072191D01*
X43769000Y-14223078D01*
X16331000Y-14223078D01*
X16300987Y-14072191D01*
X16242113Y-13930058D01*
X16156642Y-13802141D01*
X16047859Y-13693358D01*
X15919942Y-13607887D01*
X15777809Y-13549013D01*
X15626922Y-13519000D01*
X15473078Y-13519000D01*
X15322191Y-13549013D01*
X15180058Y-13607887D01*
X15052141Y-13693358D01*
X14943358Y-13802141D01*
X14857887Y-13930058D01*
X14799013Y-14072191D01*
X14769000Y-14223078D01*
X6927000Y-14223078D01*
X6927000Y-12073078D01*
X56969000Y-12073078D01*
X56969000Y-12226922D01*
X56999013Y-12377809D01*
X57057887Y-12519942D01*
X57143358Y-12647859D01*
X57252141Y-12756642D01*
X57380058Y-12842113D01*
X57522191Y-12900987D01*
X57673078Y-12931000D01*
X57826922Y-12931000D01*
X57977809Y-12900987D01*
X58119942Y-12842113D01*
X58247859Y-12756642D01*
X58356642Y-12647859D01*
X58442113Y-12519942D01*
X58500987Y-12377809D01*
X58531000Y-12226922D01*
X58531000Y-12073078D01*
X58500987Y-11922191D01*
X58442113Y-11780058D01*
X58356642Y-11652141D01*
X58247859Y-11543358D01*
X58119942Y-11457887D01*
X57977809Y-11399013D01*
X57826922Y-11369000D01*
X57673078Y-11369000D01*
X57522191Y-11399013D01*
X57380058Y-11457887D01*
X57252141Y-11543358D01*
X57143358Y-11652141D01*
X57057887Y-11780058D01*
X56999013Y-11922191D01*
X56969000Y-12073078D01*
X6927000Y-12073078D01*
X6927000Y-11927000D01*
X11800000Y-11927000D01*
X11824776Y-11924560D01*
X11848601Y-11917333D01*
X11870557Y-11905597D01*
X11889803Y-11889803D01*
X11905597Y-11870557D01*
X11917333Y-11848601D01*
X11924560Y-11824776D01*
X11927000Y-11800000D01*
X11927000Y-10300000D01*
X68638044Y-10300000D01*
X68661812Y-10541318D01*
X68732202Y-10773363D01*
X68846509Y-10987216D01*
X69000340Y-11174660D01*
X69187784Y-11328491D01*
X69401637Y-11442798D01*
X69633682Y-11513188D01*
X69814528Y-11531000D01*
X70185472Y-11531000D01*
X70366318Y-11513188D01*
X70598363Y-11442798D01*
X70812216Y-11328491D01*
X70999660Y-11174660D01*
X71153491Y-10987216D01*
X71267798Y-10773363D01*
X71338188Y-10541318D01*
X71361956Y-10300000D01*
X71338188Y-10058682D01*
X71267798Y-9826637D01*
X71153491Y-9612784D01*
X70999660Y-9425340D01*
X70812216Y-9271509D01*
X70598363Y-9157202D01*
X70366318Y-9086812D01*
X70185472Y-9069000D01*
X69814528Y-9069000D01*
X69633682Y-9086812D01*
X69401637Y-9157202D01*
X69187784Y-9271509D01*
X69000340Y-9425340D01*
X68846509Y-9612784D01*
X68732202Y-9826637D01*
X68661812Y-10058682D01*
X68638044Y-10300000D01*
X11927000Y-10300000D01*
X11927000Y-7800000D01*
X68638044Y-7800000D01*
X68661812Y-8041318D01*
X68732202Y-8273363D01*
X68846509Y-8487216D01*
X69000340Y-8674660D01*
X69187784Y-8828491D01*
X69401637Y-8942798D01*
X69633682Y-9013188D01*
X69814528Y-9031000D01*
X70185472Y-9031000D01*
X70366318Y-9013188D01*
X70598363Y-8942798D01*
X70812216Y-8828491D01*
X70999660Y-8674660D01*
X71153491Y-8487216D01*
X71267798Y-8273363D01*
X71338188Y-8041318D01*
X71361956Y-7800000D01*
X71338188Y-7558682D01*
X71267798Y-7326637D01*
X71153491Y-7112784D01*
X70999660Y-6925340D01*
X70812216Y-6771509D01*
X70598363Y-6657202D01*
X70366318Y-6586812D01*
X70185472Y-6569000D01*
X69814528Y-6569000D01*
X69633682Y-6586812D01*
X69401637Y-6657202D01*
X69187784Y-6771509D01*
X69000340Y-6925340D01*
X68846509Y-7112784D01*
X68732202Y-7326637D01*
X68661812Y-7558682D01*
X68638044Y-7800000D01*
X11927000Y-7800000D01*
X11927000Y-6427000D01*
X74423000Y-6427000D01*
X74423000Y-13050000D01*
X74423000Y-13050000D01*
G37*
X74423000Y-13050000D02*
X74425440Y-13074776D01*
X74432667Y-13098601D01*
X74444403Y-13120557D01*
X74460197Y-13139803D01*
X74479443Y-13155597D01*
X74501399Y-13167333D01*
X74525224Y-13174560D01*
X74550000Y-13177000D01*
X81673000Y-13177000D01*
X81673000Y-61173000D01*
X75800000Y-61173000D01*
X75775224Y-61175440D01*
X75751399Y-61182667D01*
X75729443Y-61194403D01*
X75710197Y-61210197D01*
X75694403Y-61229443D01*
X75682667Y-61251399D01*
X75675440Y-61275224D01*
X75673000Y-61300000D01*
X75673000Y-66173000D01*
X53677000Y-66173000D01*
X53677000Y-64150000D01*
X68642157Y-64150000D01*
X68642157Y-65350000D01*
X68654317Y-65473462D01*
X68690329Y-65592179D01*
X68748810Y-65701589D01*
X68827512Y-65797488D01*
X68923411Y-65876190D01*
X69032821Y-65934671D01*
X69151538Y-65970683D01*
X69275000Y-65982843D01*
X70725000Y-65982843D01*
X70848462Y-65970683D01*
X70967179Y-65934671D01*
X71076589Y-65876190D01*
X71172488Y-65797488D01*
X71251190Y-65701589D01*
X71309671Y-65592179D01*
X71345683Y-65473462D01*
X71357843Y-65350000D01*
X71357843Y-64150000D01*
X71345683Y-64026538D01*
X71309671Y-63907821D01*
X71251190Y-63798411D01*
X71172488Y-63702512D01*
X71076589Y-63623810D01*
X70967179Y-63565329D01*
X70848462Y-63529317D01*
X70725000Y-63517157D01*
X69275000Y-63517157D01*
X69151538Y-63529317D01*
X69032821Y-63565329D01*
X68923411Y-63623810D01*
X68827512Y-63702512D01*
X68748810Y-63798411D01*
X68690329Y-63907821D01*
X68654317Y-64026538D01*
X68642157Y-64150000D01*
X53677000Y-64150000D01*
X53677000Y-59750000D01*
X68638044Y-59750000D01*
X68661812Y-59991318D01*
X68732202Y-60223363D01*
X68846509Y-60437216D01*
X69000340Y-60624660D01*
X69187784Y-60778491D01*
X69401637Y-60892798D01*
X69633682Y-60963188D01*
X69814528Y-60981000D01*
X70185472Y-60981000D01*
X70366318Y-60963188D01*
X70598363Y-60892798D01*
X70812216Y-60778491D01*
X70999660Y-60624660D01*
X71153491Y-60437216D01*
X71267798Y-60223363D01*
X71338188Y-59991318D01*
X71361956Y-59750000D01*
X71338188Y-59508682D01*
X71267798Y-59276637D01*
X71153491Y-59062784D01*
X70999660Y-58875340D01*
X70812216Y-58721509D01*
X70598363Y-58607202D01*
X70366318Y-58536812D01*
X70185472Y-58519000D01*
X69814528Y-58519000D01*
X69633682Y-58536812D01*
X69401637Y-58607202D01*
X69187784Y-58721509D01*
X69000340Y-58875340D01*
X68846509Y-59062784D01*
X68732202Y-59276637D01*
X68661812Y-59508682D01*
X68638044Y-59750000D01*
X53677000Y-59750000D01*
X53677000Y-57982268D01*
X53722191Y-58000987D01*
X53873078Y-58031000D01*
X54026922Y-58031000D01*
X54177809Y-58000987D01*
X54319942Y-57942113D01*
X54447859Y-57856642D01*
X54556642Y-57747859D01*
X54642113Y-57619942D01*
X54700987Y-57477809D01*
X54731000Y-57326922D01*
X54731000Y-57173078D01*
X54700987Y-57022191D01*
X54642113Y-56880058D01*
X54556642Y-56752141D01*
X54447859Y-56643358D01*
X54319942Y-56557887D01*
X54177809Y-56499013D01*
X54026922Y-56469000D01*
X53873078Y-56469000D01*
X53722191Y-56499013D01*
X53677000Y-56517732D01*
X53677000Y-56050000D01*
X53674560Y-56025224D01*
X53667333Y-56001399D01*
X53655597Y-55979443D01*
X53639803Y-55960197D01*
X53620557Y-55944403D01*
X53598601Y-55932667D01*
X53574776Y-55925440D01*
X53550000Y-55923000D01*
X48427000Y-55923000D01*
X48427000Y-52673078D01*
X66569000Y-52673078D01*
X66569000Y-52826922D01*
X66599013Y-52977809D01*
X66657887Y-53119942D01*
X66743358Y-53247859D01*
X66852141Y-53356642D01*
X66980058Y-53442113D01*
X67122191Y-53500987D01*
X67273078Y-53531000D01*
X67426922Y-53531000D01*
X67577809Y-53500987D01*
X67719942Y-53442113D01*
X67847859Y-53356642D01*
X67956642Y-53247859D01*
X68042113Y-53119942D01*
X68100987Y-52977809D01*
X68131000Y-52826922D01*
X68131000Y-52673078D01*
X68100987Y-52522191D01*
X68042113Y-52380058D01*
X67956642Y-52252141D01*
X67847859Y-52143358D01*
X67719942Y-52057887D01*
X67577809Y-51999013D01*
X67426922Y-51969000D01*
X67273078Y-51969000D01*
X67122191Y-51999013D01*
X66980058Y-52057887D01*
X66852141Y-52143358D01*
X66743358Y-52252141D01*
X66657887Y-52380058D01*
X66599013Y-52522191D01*
X66569000Y-52673078D01*
X48427000Y-52673078D01*
X48427000Y-49773078D01*
X53069000Y-49773078D01*
X53069000Y-49926922D01*
X53099013Y-50077809D01*
X53157887Y-50219942D01*
X53243358Y-50347859D01*
X53352141Y-50456642D01*
X53480058Y-50542113D01*
X53622191Y-50600987D01*
X53773078Y-50631000D01*
X53926922Y-50631000D01*
X54077809Y-50600987D01*
X54219942Y-50542113D01*
X54347859Y-50456642D01*
X54354501Y-50450000D01*
X77692157Y-50450000D01*
X77692157Y-51650000D01*
X77704317Y-51773462D01*
X77740329Y-51892179D01*
X77798810Y-52001589D01*
X77877512Y-52097488D01*
X77973411Y-52176190D01*
X78082821Y-52234671D01*
X78201538Y-52270683D01*
X78325000Y-52282843D01*
X79775000Y-52282843D01*
X79898462Y-52270683D01*
X80017179Y-52234671D01*
X80126589Y-52176190D01*
X80222488Y-52097488D01*
X80301190Y-52001589D01*
X80359671Y-51892179D01*
X80395683Y-51773462D01*
X80407843Y-51650000D01*
X80407843Y-50450000D01*
X80395683Y-50326538D01*
X80359671Y-50207821D01*
X80301190Y-50098411D01*
X80222488Y-50002512D01*
X80126589Y-49923810D01*
X80017179Y-49865329D01*
X79898462Y-49829317D01*
X79775000Y-49817157D01*
X78325000Y-49817157D01*
X78201538Y-49829317D01*
X78082821Y-49865329D01*
X77973411Y-49923810D01*
X77877512Y-50002512D01*
X77798810Y-50098411D01*
X77740329Y-50207821D01*
X77704317Y-50326538D01*
X77692157Y-50450000D01*
X54354501Y-50450000D01*
X54456642Y-50347859D01*
X54542113Y-50219942D01*
X54600987Y-50077809D01*
X54631000Y-49926922D01*
X54631000Y-49773078D01*
X54600987Y-49622191D01*
X54542113Y-49480058D01*
X54456642Y-49352141D01*
X54347859Y-49243358D01*
X54219942Y-49157887D01*
X54077809Y-49099013D01*
X53926922Y-49069000D01*
X53773078Y-49069000D01*
X53622191Y-49099013D01*
X53480058Y-49157887D01*
X53352141Y-49243358D01*
X53243358Y-49352141D01*
X53157887Y-49480058D01*
X53099013Y-49622191D01*
X53069000Y-49773078D01*
X48427000Y-49773078D01*
X48427000Y-46823078D01*
X72119000Y-46823078D01*
X72119000Y-46976922D01*
X72149013Y-47127809D01*
X72207887Y-47269942D01*
X72293358Y-47397859D01*
X72402141Y-47506642D01*
X72530058Y-47592113D01*
X72672191Y-47650987D01*
X72823078Y-47681000D01*
X72976922Y-47681000D01*
X73127809Y-47650987D01*
X73269942Y-47592113D01*
X73397859Y-47506642D01*
X73506642Y-47397859D01*
X73592113Y-47269942D01*
X73650987Y-47127809D01*
X73681000Y-46976922D01*
X73681000Y-46823078D01*
X73650987Y-46672191D01*
X73592113Y-46530058D01*
X73506642Y-46402141D01*
X73397859Y-46293358D01*
X73269942Y-46207887D01*
X73127809Y-46149013D01*
X72976922Y-46119000D01*
X72823078Y-46119000D01*
X72672191Y-46149013D01*
X72530058Y-46207887D01*
X72402141Y-46293358D01*
X72293358Y-46402141D01*
X72207887Y-46530058D01*
X72149013Y-46672191D01*
X72119000Y-46823078D01*
X48427000Y-46823078D01*
X48427000Y-46050000D01*
X77688044Y-46050000D01*
X77711812Y-46291318D01*
X77782202Y-46523363D01*
X77896509Y-46737216D01*
X78050340Y-46924660D01*
X78237784Y-47078491D01*
X78451637Y-47192798D01*
X78683682Y-47263188D01*
X78864528Y-47281000D01*
X79235472Y-47281000D01*
X79416318Y-47263188D01*
X79648363Y-47192798D01*
X79862216Y-47078491D01*
X80049660Y-46924660D01*
X80203491Y-46737216D01*
X80317798Y-46523363D01*
X80388188Y-46291318D01*
X80411956Y-46050000D01*
X80388188Y-45808682D01*
X80317798Y-45576637D01*
X80203491Y-45362784D01*
X80049660Y-45175340D01*
X79862216Y-45021509D01*
X79648363Y-44907202D01*
X79416318Y-44836812D01*
X79235472Y-44819000D01*
X78864528Y-44819000D01*
X78683682Y-44836812D01*
X78451637Y-44907202D01*
X78237784Y-45021509D01*
X78050340Y-45175340D01*
X77896509Y-45362784D01*
X77782202Y-45576637D01*
X77711812Y-45808682D01*
X77688044Y-46050000D01*
X48427000Y-46050000D01*
X48427000Y-43550000D01*
X77688044Y-43550000D01*
X77711812Y-43791318D01*
X77782202Y-44023363D01*
X77896509Y-44237216D01*
X78050340Y-44424660D01*
X78237784Y-44578491D01*
X78451637Y-44692798D01*
X78683682Y-44763188D01*
X78864528Y-44781000D01*
X79235472Y-44781000D01*
X79416318Y-44763188D01*
X79648363Y-44692798D01*
X79862216Y-44578491D01*
X80049660Y-44424660D01*
X80203491Y-44237216D01*
X80317798Y-44023363D01*
X80388188Y-43791318D01*
X80411956Y-43550000D01*
X80388188Y-43308682D01*
X80317798Y-43076637D01*
X80203491Y-42862784D01*
X80049660Y-42675340D01*
X79862216Y-42521509D01*
X79648363Y-42407202D01*
X79416318Y-42336812D01*
X79235472Y-42319000D01*
X78864528Y-42319000D01*
X78683682Y-42336812D01*
X78451637Y-42407202D01*
X78237784Y-42521509D01*
X78050340Y-42675340D01*
X77896509Y-42862784D01*
X77782202Y-43076637D01*
X77711812Y-43308682D01*
X77688044Y-43550000D01*
X48427000Y-43550000D01*
X48427000Y-42623078D01*
X75219000Y-42623078D01*
X75219000Y-42776922D01*
X75249013Y-42927809D01*
X75307887Y-43069942D01*
X75393358Y-43197859D01*
X75502141Y-43306642D01*
X75630058Y-43392113D01*
X75772191Y-43450987D01*
X75923078Y-43481000D01*
X76076922Y-43481000D01*
X76227809Y-43450987D01*
X76369942Y-43392113D01*
X76497859Y-43306642D01*
X76606642Y-43197859D01*
X76692113Y-43069942D01*
X76750987Y-42927809D01*
X76781000Y-42776922D01*
X76781000Y-42623078D01*
X76750987Y-42472191D01*
X76692113Y-42330058D01*
X76606642Y-42202141D01*
X76497859Y-42093358D01*
X76369942Y-42007887D01*
X76227809Y-41949013D01*
X76076922Y-41919000D01*
X75923078Y-41919000D01*
X75772191Y-41949013D01*
X75630058Y-42007887D01*
X75502141Y-42093358D01*
X75393358Y-42202141D01*
X75307887Y-42330058D01*
X75249013Y-42472191D01*
X75219000Y-42623078D01*
X48427000Y-42623078D01*
X48427000Y-41748077D01*
X52144001Y-41748077D01*
X52144001Y-41901921D01*
X52174014Y-42052808D01*
X52232888Y-42194941D01*
X52318359Y-42322858D01*
X52427142Y-42431641D01*
X52555059Y-42517112D01*
X52697192Y-42575986D01*
X52848079Y-42605999D01*
X53001923Y-42605999D01*
X53152810Y-42575986D01*
X53294943Y-42517112D01*
X53422860Y-42431641D01*
X53531643Y-42322858D01*
X53617114Y-42194941D01*
X53675988Y-42052808D01*
X53706001Y-41901921D01*
X53706001Y-41748077D01*
X53675988Y-41597190D01*
X53645290Y-41523078D01*
X56119000Y-41523078D01*
X56119000Y-41676922D01*
X56149013Y-41827809D01*
X56207887Y-41969942D01*
X56293358Y-42097859D01*
X56402141Y-42206642D01*
X56530058Y-42292113D01*
X56672191Y-42350987D01*
X56823078Y-42381000D01*
X56976922Y-42381000D01*
X57127809Y-42350987D01*
X57269942Y-42292113D01*
X57397859Y-42206642D01*
X57506642Y-42097859D01*
X57592113Y-41969942D01*
X57650987Y-41827809D01*
X57681000Y-41676922D01*
X57681000Y-41523078D01*
X57650987Y-41372191D01*
X57592113Y-41230058D01*
X57506642Y-41102141D01*
X57454501Y-41050000D01*
X77688044Y-41050000D01*
X77711812Y-41291318D01*
X77782202Y-41523363D01*
X77896509Y-41737216D01*
X78050340Y-41924660D01*
X78237784Y-42078491D01*
X78451637Y-42192798D01*
X78683682Y-42263188D01*
X78864528Y-42281000D01*
X79235472Y-42281000D01*
X79416318Y-42263188D01*
X79648363Y-42192798D01*
X79862216Y-42078491D01*
X80049660Y-41924660D01*
X80203491Y-41737216D01*
X80317798Y-41523363D01*
X80388188Y-41291318D01*
X80411956Y-41050000D01*
X80388188Y-40808682D01*
X80317798Y-40576637D01*
X80203491Y-40362784D01*
X80049660Y-40175340D01*
X79862216Y-40021509D01*
X79648363Y-39907202D01*
X79416318Y-39836812D01*
X79235472Y-39819000D01*
X78864528Y-39819000D01*
X78683682Y-39836812D01*
X78451637Y-39907202D01*
X78237784Y-40021509D01*
X78050340Y-40175340D01*
X77896509Y-40362784D01*
X77782202Y-40576637D01*
X77711812Y-40808682D01*
X77688044Y-41050000D01*
X57454501Y-41050000D01*
X57397859Y-40993358D01*
X57269942Y-40907887D01*
X57127809Y-40849013D01*
X56976922Y-40819000D01*
X56823078Y-40819000D01*
X56672191Y-40849013D01*
X56530058Y-40907887D01*
X56402141Y-40993358D01*
X56293358Y-41102141D01*
X56207887Y-41230058D01*
X56149013Y-41372191D01*
X56119000Y-41523078D01*
X53645290Y-41523078D01*
X53617114Y-41455057D01*
X53531643Y-41327140D01*
X53422860Y-41218357D01*
X53294943Y-41132886D01*
X53152810Y-41074012D01*
X53001923Y-41043999D01*
X52848079Y-41043999D01*
X52697192Y-41074012D01*
X52555059Y-41132886D01*
X52427142Y-41218357D01*
X52318359Y-41327140D01*
X52232888Y-41455057D01*
X52174014Y-41597190D01*
X52144001Y-41748077D01*
X48427000Y-41748077D01*
X48427000Y-41300000D01*
X48424560Y-41275224D01*
X48417333Y-41251399D01*
X48405597Y-41229443D01*
X48389803Y-41210197D01*
X48370557Y-41194403D01*
X48348601Y-41182667D01*
X48324776Y-41175440D01*
X48300000Y-41173000D01*
X45927000Y-41173000D01*
X45927000Y-38773078D01*
X47169000Y-38773078D01*
X47169000Y-38926922D01*
X47199013Y-39077809D01*
X47257887Y-39219942D01*
X47343358Y-39347859D01*
X47452141Y-39456642D01*
X47580058Y-39542113D01*
X47722191Y-39600987D01*
X47873078Y-39631000D01*
X48026922Y-39631000D01*
X48177809Y-39600987D01*
X48319942Y-39542113D01*
X48447859Y-39456642D01*
X48556642Y-39347859D01*
X48642113Y-39219942D01*
X48700987Y-39077809D01*
X48731000Y-38926922D01*
X48731000Y-38773078D01*
X48700987Y-38622191D01*
X48659933Y-38523078D01*
X54669000Y-38523078D01*
X54669000Y-38676922D01*
X54699013Y-38827809D01*
X54757887Y-38969942D01*
X54843358Y-39097859D01*
X54952141Y-39206642D01*
X55080058Y-39292113D01*
X55222191Y-39350987D01*
X55373078Y-39381000D01*
X55526922Y-39381000D01*
X55677809Y-39350987D01*
X55745186Y-39323078D01*
X59019000Y-39323078D01*
X59019000Y-39476922D01*
X59049013Y-39627809D01*
X59107887Y-39769942D01*
X59193358Y-39897859D01*
X59302141Y-40006642D01*
X59430058Y-40092113D01*
X59572191Y-40150987D01*
X59723078Y-40181000D01*
X59876922Y-40181000D01*
X60027809Y-40150987D01*
X60169942Y-40092113D01*
X60297859Y-40006642D01*
X60300000Y-40004501D01*
X60302141Y-40006642D01*
X60430058Y-40092113D01*
X60572191Y-40150987D01*
X60723078Y-40181000D01*
X60876922Y-40181000D01*
X61027809Y-40150987D01*
X61095186Y-40123078D01*
X72119000Y-40123078D01*
X72119000Y-40276922D01*
X72149013Y-40427809D01*
X72207887Y-40569942D01*
X72293358Y-40697859D01*
X72402141Y-40806642D01*
X72530058Y-40892113D01*
X72672191Y-40950987D01*
X72823078Y-40981000D01*
X72976922Y-40981000D01*
X73127809Y-40950987D01*
X73269942Y-40892113D01*
X73397859Y-40806642D01*
X73506642Y-40697859D01*
X73592113Y-40569942D01*
X73650987Y-40427809D01*
X73681000Y-40276922D01*
X73681000Y-40123078D01*
X73650987Y-39972191D01*
X73592113Y-39830058D01*
X73506642Y-39702141D01*
X73397859Y-39593358D01*
X73269942Y-39507887D01*
X73127809Y-39449013D01*
X72976922Y-39419000D01*
X72823078Y-39419000D01*
X72672191Y-39449013D01*
X72530058Y-39507887D01*
X72402141Y-39593358D01*
X72293358Y-39702141D01*
X72207887Y-39830058D01*
X72149013Y-39972191D01*
X72119000Y-40123078D01*
X61095186Y-40123078D01*
X61169942Y-40092113D01*
X61297859Y-40006642D01*
X61406642Y-39897859D01*
X61492113Y-39769942D01*
X61550987Y-39627809D01*
X61581000Y-39476922D01*
X61581000Y-39323078D01*
X61550987Y-39172191D01*
X61492113Y-39030058D01*
X61406642Y-38902141D01*
X61297859Y-38793358D01*
X61169942Y-38707887D01*
X61027809Y-38649013D01*
X60876922Y-38619000D01*
X60723078Y-38619000D01*
X60572191Y-38649013D01*
X60430058Y-38707887D01*
X60302141Y-38793358D01*
X60300000Y-38795499D01*
X60297859Y-38793358D01*
X60169942Y-38707887D01*
X60027809Y-38649013D01*
X59876922Y-38619000D01*
X59723078Y-38619000D01*
X59572191Y-38649013D01*
X59430058Y-38707887D01*
X59302141Y-38793358D01*
X59193358Y-38902141D01*
X59107887Y-39030058D01*
X59049013Y-39172191D01*
X59019000Y-39323078D01*
X55745186Y-39323078D01*
X55819942Y-39292113D01*
X55947859Y-39206642D01*
X56056642Y-39097859D01*
X56142113Y-38969942D01*
X56200987Y-38827809D01*
X56231000Y-38676922D01*
X56231000Y-38523078D01*
X56221055Y-38473078D01*
X63519000Y-38473078D01*
X63519000Y-38626922D01*
X63549013Y-38777809D01*
X63607887Y-38919942D01*
X63693358Y-39047859D01*
X63802141Y-39156642D01*
X63930058Y-39242113D01*
X64072191Y-39300987D01*
X64223078Y-39331000D01*
X64376922Y-39331000D01*
X64527809Y-39300987D01*
X64669942Y-39242113D01*
X64797859Y-39156642D01*
X64800000Y-39154501D01*
X64802141Y-39156642D01*
X64930058Y-39242113D01*
X65072191Y-39300987D01*
X65223078Y-39331000D01*
X65376922Y-39331000D01*
X65527809Y-39300987D01*
X65669942Y-39242113D01*
X65797859Y-39156642D01*
X65906642Y-39047859D01*
X65992113Y-38919942D01*
X66050987Y-38777809D01*
X66081000Y-38626922D01*
X66081000Y-38550000D01*
X77688044Y-38550000D01*
X77711812Y-38791318D01*
X77782202Y-39023363D01*
X77896509Y-39237216D01*
X78050340Y-39424660D01*
X78237784Y-39578491D01*
X78451637Y-39692798D01*
X78683682Y-39763188D01*
X78864528Y-39781000D01*
X79235472Y-39781000D01*
X79416318Y-39763188D01*
X79648363Y-39692798D01*
X79862216Y-39578491D01*
X80049660Y-39424660D01*
X80203491Y-39237216D01*
X80317798Y-39023363D01*
X80388188Y-38791318D01*
X80411956Y-38550000D01*
X80388188Y-38308682D01*
X80317798Y-38076637D01*
X80203491Y-37862784D01*
X80049660Y-37675340D01*
X79862216Y-37521509D01*
X79648363Y-37407202D01*
X79416318Y-37336812D01*
X79235472Y-37319000D01*
X78864528Y-37319000D01*
X78683682Y-37336812D01*
X78451637Y-37407202D01*
X78237784Y-37521509D01*
X78050340Y-37675340D01*
X77896509Y-37862784D01*
X77782202Y-38076637D01*
X77711812Y-38308682D01*
X77688044Y-38550000D01*
X66081000Y-38550000D01*
X66081000Y-38473078D01*
X66050987Y-38322191D01*
X65992113Y-38180058D01*
X65906642Y-38052141D01*
X65797859Y-37943358D01*
X65669942Y-37857887D01*
X65527809Y-37799013D01*
X65376922Y-37769000D01*
X65223078Y-37769000D01*
X65072191Y-37799013D01*
X64930058Y-37857887D01*
X64802141Y-37943358D01*
X64800000Y-37945499D01*
X64797859Y-37943358D01*
X64669942Y-37857887D01*
X64527809Y-37799013D01*
X64376922Y-37769000D01*
X64223078Y-37769000D01*
X64072191Y-37799013D01*
X63930058Y-37857887D01*
X63802141Y-37943358D01*
X63693358Y-38052141D01*
X63607887Y-38180058D01*
X63549013Y-38322191D01*
X63519000Y-38473078D01*
X56221055Y-38473078D01*
X56200987Y-38372191D01*
X56142113Y-38230058D01*
X56056642Y-38102141D01*
X55947859Y-37993358D01*
X55819942Y-37907887D01*
X55677809Y-37849013D01*
X55526922Y-37819000D01*
X55373078Y-37819000D01*
X55222191Y-37849013D01*
X55080058Y-37907887D01*
X54952141Y-37993358D01*
X54843358Y-38102141D01*
X54757887Y-38230058D01*
X54699013Y-38372191D01*
X54669000Y-38523078D01*
X48659933Y-38523078D01*
X48642113Y-38480058D01*
X48556642Y-38352141D01*
X48447859Y-38243358D01*
X48319942Y-38157887D01*
X48177809Y-38099013D01*
X48026922Y-38069000D01*
X47873078Y-38069000D01*
X47722191Y-38099013D01*
X47580058Y-38157887D01*
X47452141Y-38243358D01*
X47343358Y-38352141D01*
X47257887Y-38480058D01*
X47199013Y-38622191D01*
X47169000Y-38773078D01*
X45927000Y-38773078D01*
X45927000Y-38300000D01*
X45924560Y-38275224D01*
X45917333Y-38251399D01*
X45905597Y-38229443D01*
X45889803Y-38210197D01*
X45870557Y-38194403D01*
X45848601Y-38182667D01*
X45824776Y-38175440D01*
X45800000Y-38173000D01*
X41273377Y-38173000D01*
X41297859Y-38156642D01*
X41406642Y-38047859D01*
X41492113Y-37919942D01*
X41550987Y-37777809D01*
X41581000Y-37626922D01*
X41581000Y-37523078D01*
X50869000Y-37523078D01*
X50869000Y-37676922D01*
X50899013Y-37827809D01*
X50957887Y-37969942D01*
X51043358Y-38097859D01*
X51152141Y-38206642D01*
X51280058Y-38292113D01*
X51422191Y-38350987D01*
X51573078Y-38381000D01*
X51726922Y-38381000D01*
X51877809Y-38350987D01*
X52019942Y-38292113D01*
X52147859Y-38206642D01*
X52256642Y-38097859D01*
X52342113Y-37969942D01*
X52400987Y-37827809D01*
X52431000Y-37676922D01*
X52431000Y-37523078D01*
X52400987Y-37372191D01*
X52342113Y-37230058D01*
X52256642Y-37102141D01*
X52147859Y-36993358D01*
X52019942Y-36907887D01*
X51877809Y-36849013D01*
X51726922Y-36819000D01*
X51573078Y-36819000D01*
X51422191Y-36849013D01*
X51280058Y-36907887D01*
X51152141Y-36993358D01*
X51043358Y-37102141D01*
X50957887Y-37230058D01*
X50899013Y-37372191D01*
X50869000Y-37523078D01*
X41581000Y-37523078D01*
X41581000Y-37473078D01*
X41550987Y-37322191D01*
X41492113Y-37180058D01*
X41406642Y-37052141D01*
X41297859Y-36943358D01*
X41169942Y-36857887D01*
X41027809Y-36799013D01*
X40876922Y-36769000D01*
X40723078Y-36769000D01*
X40572191Y-36799013D01*
X40430058Y-36857887D01*
X40302141Y-36943358D01*
X40193358Y-37052141D01*
X40107887Y-37180058D01*
X40049013Y-37322191D01*
X40019000Y-37473078D01*
X40019000Y-37626922D01*
X40049013Y-37777809D01*
X40107887Y-37919942D01*
X40193358Y-38047859D01*
X40302141Y-38156642D01*
X40326623Y-38173000D01*
X20800000Y-38173000D01*
X20775224Y-38175440D01*
X20751399Y-38182667D01*
X20729443Y-38194403D01*
X20710197Y-38210197D01*
X20694403Y-38229443D01*
X20682667Y-38251399D01*
X20675440Y-38275224D01*
X20673000Y-38300000D01*
X20673000Y-43997394D01*
X19747394Y-44923000D01*
X12927000Y-44923000D01*
X12927000Y-39427000D01*
X16550000Y-39427000D01*
X16574776Y-39424560D01*
X16598601Y-39417333D01*
X16620557Y-39405597D01*
X16639803Y-39389803D01*
X16655597Y-39370557D01*
X16667333Y-39348601D01*
X16674560Y-39324776D01*
X16677000Y-39300000D01*
X16677000Y-35873078D01*
X54469000Y-35873078D01*
X54469000Y-36026922D01*
X54499013Y-36177809D01*
X54557887Y-36319942D01*
X54643358Y-36447859D01*
X54752141Y-36556642D01*
X54880058Y-36642113D01*
X55022191Y-36700987D01*
X55173078Y-36731000D01*
X55326922Y-36731000D01*
X55477809Y-36700987D01*
X55619942Y-36642113D01*
X55747859Y-36556642D01*
X55856642Y-36447859D01*
X55942113Y-36319942D01*
X55961524Y-36273078D01*
X56669000Y-36273078D01*
X56669000Y-36426922D01*
X56699013Y-36577809D01*
X56757887Y-36719942D01*
X56843358Y-36847859D01*
X56952141Y-36956642D01*
X57080058Y-37042113D01*
X57222191Y-37100987D01*
X57373078Y-37131000D01*
X57526922Y-37131000D01*
X57677809Y-37100987D01*
X57819942Y-37042113D01*
X57947859Y-36956642D01*
X58056642Y-36847859D01*
X58142113Y-36719942D01*
X58200987Y-36577809D01*
X58231000Y-36426922D01*
X58231000Y-36273078D01*
X58200987Y-36122191D01*
X58142113Y-35980058D01*
X58056642Y-35852141D01*
X57947859Y-35743358D01*
X57819942Y-35657887D01*
X57677809Y-35599013D01*
X57526922Y-35569000D01*
X57373078Y-35569000D01*
X57222191Y-35599013D01*
X57080058Y-35657887D01*
X56952141Y-35743358D01*
X56843358Y-35852141D01*
X56757887Y-35980058D01*
X56699013Y-36122191D01*
X56669000Y-36273078D01*
X55961524Y-36273078D01*
X56000987Y-36177809D01*
X56031000Y-36026922D01*
X56031000Y-35873078D01*
X56000987Y-35722191D01*
X55967819Y-35642118D01*
X56080058Y-35717113D01*
X56222191Y-35775987D01*
X56373078Y-35806000D01*
X56526922Y-35806000D01*
X56677809Y-35775987D01*
X56819942Y-35717113D01*
X56947859Y-35631642D01*
X57056642Y-35522859D01*
X57142113Y-35394942D01*
X57200987Y-35252809D01*
X57231000Y-35101922D01*
X57231000Y-34948078D01*
X57200987Y-34797191D01*
X57170289Y-34723078D01*
X62019000Y-34723078D01*
X62019000Y-34876922D01*
X62049013Y-35027809D01*
X62107887Y-35169942D01*
X62193358Y-35297859D01*
X62302141Y-35406642D01*
X62430058Y-35492113D01*
X62572191Y-35550987D01*
X62723078Y-35581000D01*
X62876922Y-35581000D01*
X63027809Y-35550987D01*
X63169942Y-35492113D01*
X63297859Y-35406642D01*
X63406642Y-35297859D01*
X63492113Y-35169942D01*
X63550987Y-35027809D01*
X63581000Y-34876922D01*
X63581000Y-34723078D01*
X63550987Y-34572191D01*
X63492113Y-34430058D01*
X63406642Y-34302141D01*
X63297859Y-34193358D01*
X63169942Y-34107887D01*
X63027809Y-34049013D01*
X62876922Y-34019000D01*
X62723078Y-34019000D01*
X62572191Y-34049013D01*
X62430058Y-34107887D01*
X62302141Y-34193358D01*
X62193358Y-34302141D01*
X62107887Y-34430058D01*
X62049013Y-34572191D01*
X62019000Y-34723078D01*
X57170289Y-34723078D01*
X57142113Y-34655058D01*
X57056642Y-34527141D01*
X56947859Y-34418358D01*
X56819942Y-34332887D01*
X56677809Y-34274013D01*
X56526922Y-34244000D01*
X56373078Y-34244000D01*
X56222191Y-34274013D01*
X56080058Y-34332887D01*
X55952141Y-34418358D01*
X55843358Y-34527141D01*
X55757887Y-34655058D01*
X55699013Y-34797191D01*
X55669000Y-34948078D01*
X55669000Y-35101922D01*
X55699013Y-35252809D01*
X55732181Y-35332882D01*
X55619942Y-35257887D01*
X55477809Y-35199013D01*
X55326922Y-35169000D01*
X55173078Y-35169000D01*
X55022191Y-35199013D01*
X54880058Y-35257887D01*
X54752141Y-35343358D01*
X54643358Y-35452141D01*
X54557887Y-35580058D01*
X54499013Y-35722191D01*
X54469000Y-35873078D01*
X16677000Y-35873078D01*
X16677000Y-34423078D01*
X35519000Y-34423078D01*
X35519000Y-34576922D01*
X35549013Y-34727809D01*
X35607887Y-34869942D01*
X35693358Y-34997859D01*
X35802141Y-35106642D01*
X35930058Y-35192113D01*
X36072191Y-35250987D01*
X36223078Y-35281000D01*
X36376922Y-35281000D01*
X36527809Y-35250987D01*
X36669942Y-35192113D01*
X36797859Y-35106642D01*
X36906642Y-34997859D01*
X36992113Y-34869942D01*
X37050987Y-34727809D01*
X37081000Y-34576922D01*
X37081000Y-34423078D01*
X37050987Y-34272191D01*
X36992113Y-34130058D01*
X36920632Y-34023078D01*
X40019000Y-34023078D01*
X40019000Y-34176922D01*
X40049013Y-34327809D01*
X40107887Y-34469942D01*
X40193358Y-34597859D01*
X40302141Y-34706642D01*
X40430058Y-34792113D01*
X40572191Y-34850987D01*
X40723078Y-34881000D01*
X40876922Y-34881000D01*
X41027809Y-34850987D01*
X41169942Y-34792113D01*
X41297859Y-34706642D01*
X41406642Y-34597859D01*
X41492113Y-34469942D01*
X41550987Y-34327809D01*
X41571819Y-34223078D01*
X52418994Y-34223078D01*
X52418994Y-34376922D01*
X52449007Y-34527809D01*
X52507881Y-34669942D01*
X52593352Y-34797859D01*
X52702135Y-34906642D01*
X52830052Y-34992113D01*
X52972185Y-35050987D01*
X53123072Y-35081000D01*
X53276916Y-35081000D01*
X53427803Y-35050987D01*
X53569936Y-34992113D01*
X53697853Y-34906642D01*
X53806636Y-34797859D01*
X53892107Y-34669942D01*
X53950981Y-34527809D01*
X53980994Y-34376922D01*
X53980994Y-34223078D01*
X53950981Y-34072191D01*
X53892107Y-33930058D01*
X53806636Y-33802141D01*
X53727573Y-33723078D01*
X57719000Y-33723078D01*
X57719000Y-33876922D01*
X57749013Y-34027809D01*
X57807887Y-34169942D01*
X57893358Y-34297859D01*
X58002141Y-34406642D01*
X58130058Y-34492113D01*
X58272191Y-34550987D01*
X58423078Y-34581000D01*
X58576922Y-34581000D01*
X58727809Y-34550987D01*
X58869942Y-34492113D01*
X58997859Y-34406642D01*
X59106642Y-34297859D01*
X59192113Y-34169942D01*
X59250987Y-34027809D01*
X59281000Y-33876922D01*
X59281000Y-33723078D01*
X59250987Y-33572191D01*
X59192113Y-33430058D01*
X59106642Y-33302141D01*
X58997859Y-33193358D01*
X58869942Y-33107887D01*
X58727809Y-33049013D01*
X58576922Y-33019000D01*
X58423078Y-33019000D01*
X58272191Y-33049013D01*
X58130058Y-33107887D01*
X58002141Y-33193358D01*
X57893358Y-33302141D01*
X57807887Y-33430058D01*
X57749013Y-33572191D01*
X57719000Y-33723078D01*
X53727573Y-33723078D01*
X53697853Y-33693358D01*
X53569936Y-33607887D01*
X53427803Y-33549013D01*
X53276916Y-33519000D01*
X53123072Y-33519000D01*
X52972185Y-33549013D01*
X52830052Y-33607887D01*
X52702135Y-33693358D01*
X52593352Y-33802141D01*
X52507881Y-33930058D01*
X52449007Y-34072191D01*
X52418994Y-34223078D01*
X41571819Y-34223078D01*
X41581000Y-34176922D01*
X41581000Y-34023078D01*
X41550987Y-33872191D01*
X41492113Y-33730058D01*
X41406642Y-33602141D01*
X41297859Y-33493358D01*
X41169942Y-33407887D01*
X41027809Y-33349013D01*
X40876922Y-33319000D01*
X40723078Y-33319000D01*
X40572191Y-33349013D01*
X40430058Y-33407887D01*
X40302141Y-33493358D01*
X40193358Y-33602141D01*
X40107887Y-33730058D01*
X40049013Y-33872191D01*
X40019000Y-34023078D01*
X36920632Y-34023078D01*
X36906642Y-34002141D01*
X36797859Y-33893358D01*
X36669942Y-33807887D01*
X36527809Y-33749013D01*
X36376922Y-33719000D01*
X36223078Y-33719000D01*
X36072191Y-33749013D01*
X35930058Y-33807887D01*
X35802141Y-33893358D01*
X35693358Y-34002141D01*
X35607887Y-34130058D01*
X35549013Y-34272191D01*
X35519000Y-34423078D01*
X16677000Y-34423078D01*
X16677000Y-32198078D01*
X41769000Y-32198078D01*
X41769000Y-32351922D01*
X41799013Y-32502809D01*
X41857887Y-32644942D01*
X41943358Y-32772859D01*
X42052141Y-32881642D01*
X42180058Y-32967113D01*
X42322191Y-33025987D01*
X42473078Y-33056000D01*
X42626922Y-33056000D01*
X42777809Y-33025987D01*
X42919942Y-32967113D01*
X43047859Y-32881642D01*
X43056423Y-32873078D01*
X45619000Y-32873078D01*
X45619000Y-33026922D01*
X45649013Y-33177809D01*
X45707887Y-33319942D01*
X45793358Y-33447859D01*
X45902141Y-33556642D01*
X46030058Y-33642113D01*
X46172191Y-33700987D01*
X46323078Y-33731000D01*
X46476922Y-33731000D01*
X46627809Y-33700987D01*
X46769942Y-33642113D01*
X46897859Y-33556642D01*
X47006642Y-33447859D01*
X47092113Y-33319942D01*
X47150987Y-33177809D01*
X47181000Y-33026922D01*
X47181000Y-32873078D01*
X47161109Y-32773078D01*
X47219000Y-32773078D01*
X47219000Y-32926922D01*
X47249013Y-33077809D01*
X47307887Y-33219942D01*
X47393358Y-33347859D01*
X47502141Y-33456642D01*
X47630058Y-33542113D01*
X47772191Y-33600987D01*
X47923078Y-33631000D01*
X48076922Y-33631000D01*
X48227809Y-33600987D01*
X48369942Y-33542113D01*
X48497859Y-33456642D01*
X48606642Y-33347859D01*
X48692113Y-33219942D01*
X48750987Y-33077809D01*
X48781000Y-32926922D01*
X48781000Y-32773078D01*
X48750987Y-32622191D01*
X48692113Y-32480058D01*
X48606642Y-32352141D01*
X48497859Y-32243358D01*
X48369942Y-32157887D01*
X48285907Y-32123078D01*
X57269000Y-32123078D01*
X57269000Y-32276922D01*
X57299013Y-32427809D01*
X57357887Y-32569942D01*
X57443358Y-32697859D01*
X57552141Y-32806642D01*
X57680058Y-32892113D01*
X57822191Y-32950987D01*
X57973078Y-32981000D01*
X58126922Y-32981000D01*
X58277809Y-32950987D01*
X58419942Y-32892113D01*
X58547859Y-32806642D01*
X58600000Y-32754501D01*
X58652141Y-32806642D01*
X58780058Y-32892113D01*
X58922191Y-32950987D01*
X59073078Y-32981000D01*
X59226922Y-32981000D01*
X59377809Y-32950987D01*
X59519942Y-32892113D01*
X59647859Y-32806642D01*
X59756642Y-32697859D01*
X59842113Y-32569942D01*
X59900987Y-32427809D01*
X59901928Y-32423078D01*
X62819000Y-32423078D01*
X62819000Y-32576922D01*
X62849013Y-32727809D01*
X62907887Y-32869942D01*
X62993358Y-32997859D01*
X63102141Y-33106642D01*
X63230058Y-33192113D01*
X63249550Y-33200187D01*
X63199014Y-33322191D01*
X63169001Y-33473078D01*
X63169001Y-33626922D01*
X63199014Y-33777809D01*
X63257888Y-33919942D01*
X63343359Y-34047859D01*
X63452142Y-34156642D01*
X63580059Y-34242113D01*
X63722192Y-34300987D01*
X63873079Y-34331000D01*
X64026923Y-34331000D01*
X64177810Y-34300987D01*
X64319943Y-34242113D01*
X64447860Y-34156642D01*
X64556643Y-34047859D01*
X64642114Y-33919942D01*
X64700988Y-33777809D01*
X64731001Y-33626922D01*
X64731001Y-33473078D01*
X64700988Y-33322191D01*
X64642114Y-33180058D01*
X64556643Y-33052141D01*
X64447860Y-32943358D01*
X64319943Y-32857887D01*
X64300451Y-32849813D01*
X64350987Y-32727809D01*
X64381000Y-32576922D01*
X64381000Y-32423078D01*
X68119000Y-32423078D01*
X68119000Y-32576922D01*
X68149013Y-32727809D01*
X68207887Y-32869942D01*
X68293358Y-32997859D01*
X68402141Y-33106642D01*
X68530058Y-33192113D01*
X68672191Y-33250987D01*
X68823078Y-33281000D01*
X68976922Y-33281000D01*
X69127809Y-33250987D01*
X69269942Y-33192113D01*
X69397859Y-33106642D01*
X69506642Y-32997859D01*
X69592113Y-32869942D01*
X69650987Y-32727809D01*
X69681000Y-32576922D01*
X69681000Y-32423078D01*
X69650987Y-32272191D01*
X69592113Y-32130058D01*
X69506642Y-32002141D01*
X69397859Y-31893358D01*
X69269942Y-31807887D01*
X69127809Y-31749013D01*
X68976922Y-31719000D01*
X68823078Y-31719000D01*
X68672191Y-31749013D01*
X68530058Y-31807887D01*
X68402141Y-31893358D01*
X68293358Y-32002141D01*
X68207887Y-32130058D01*
X68149013Y-32272191D01*
X68119000Y-32423078D01*
X64381000Y-32423078D01*
X64350987Y-32272191D01*
X64292113Y-32130058D01*
X64206642Y-32002141D01*
X64097859Y-31893358D01*
X63969942Y-31807887D01*
X63827809Y-31749013D01*
X63676922Y-31719000D01*
X63523078Y-31719000D01*
X63372191Y-31749013D01*
X63230058Y-31807887D01*
X63102141Y-31893358D01*
X62993358Y-32002141D01*
X62907887Y-32130058D01*
X62849013Y-32272191D01*
X62819000Y-32423078D01*
X59901928Y-32423078D01*
X59931000Y-32276922D01*
X59931000Y-32123078D01*
X59900987Y-31972191D01*
X59842113Y-31830058D01*
X59756642Y-31702141D01*
X59647859Y-31593358D01*
X59519942Y-31507887D01*
X59377809Y-31449013D01*
X59226922Y-31419000D01*
X59073078Y-31419000D01*
X58922191Y-31449013D01*
X58780058Y-31507887D01*
X58652141Y-31593358D01*
X58600000Y-31645499D01*
X58547859Y-31593358D01*
X58419942Y-31507887D01*
X58277809Y-31449013D01*
X58126922Y-31419000D01*
X57973078Y-31419000D01*
X57822191Y-31449013D01*
X57680058Y-31507887D01*
X57552141Y-31593358D01*
X57443358Y-31702141D01*
X57357887Y-31830058D01*
X57299013Y-31972191D01*
X57269000Y-32123078D01*
X48285907Y-32123078D01*
X48227809Y-32099013D01*
X48076922Y-32069000D01*
X47923078Y-32069000D01*
X47772191Y-32099013D01*
X47630058Y-32157887D01*
X47502141Y-32243358D01*
X47393358Y-32352141D01*
X47307887Y-32480058D01*
X47249013Y-32622191D01*
X47219000Y-32773078D01*
X47161109Y-32773078D01*
X47150987Y-32722191D01*
X47092113Y-32580058D01*
X47006642Y-32452141D01*
X46897859Y-32343358D01*
X46769942Y-32257887D01*
X46627809Y-32199013D01*
X46476922Y-32169000D01*
X46323078Y-32169000D01*
X46172191Y-32199013D01*
X46030058Y-32257887D01*
X45902141Y-32343358D01*
X45793358Y-32452141D01*
X45707887Y-32580058D01*
X45649013Y-32722191D01*
X45619000Y-32873078D01*
X43056423Y-32873078D01*
X43156642Y-32772859D01*
X43242113Y-32644942D01*
X43300987Y-32502809D01*
X43331000Y-32351922D01*
X43331000Y-32198078D01*
X43300987Y-32047191D01*
X43242113Y-31905058D01*
X43156642Y-31777141D01*
X43047859Y-31668358D01*
X42919942Y-31582887D01*
X42777809Y-31524013D01*
X42626922Y-31494000D01*
X42473078Y-31494000D01*
X42322191Y-31524013D01*
X42180058Y-31582887D01*
X42052141Y-31668358D01*
X41943358Y-31777141D01*
X41857887Y-31905058D01*
X41799013Y-32047191D01*
X41769000Y-32198078D01*
X16677000Y-32198078D01*
X16677000Y-31800000D01*
X16674560Y-31775224D01*
X16667333Y-31751399D01*
X16655597Y-31729443D01*
X16639803Y-31710197D01*
X16620557Y-31694403D01*
X16598601Y-31682667D01*
X16574776Y-31675440D01*
X16550000Y-31673000D01*
X6927000Y-31673000D01*
X6927000Y-31023078D01*
X43019000Y-31023078D01*
X43019000Y-31176922D01*
X43049013Y-31327809D01*
X43107887Y-31469942D01*
X43193358Y-31597859D01*
X43302141Y-31706642D01*
X43430058Y-31792113D01*
X43572191Y-31850987D01*
X43723078Y-31881000D01*
X43876922Y-31881000D01*
X44027809Y-31850987D01*
X44169942Y-31792113D01*
X44297859Y-31706642D01*
X44406642Y-31597859D01*
X44492113Y-31469942D01*
X44550987Y-31327809D01*
X44581000Y-31176922D01*
X44581000Y-31023078D01*
X44550987Y-30872191D01*
X44548928Y-30867220D01*
X45256175Y-30867220D01*
X45256175Y-31021064D01*
X45286188Y-31171951D01*
X45345062Y-31314084D01*
X45430533Y-31442001D01*
X45539316Y-31550784D01*
X45667233Y-31636255D01*
X45809366Y-31695129D01*
X45960253Y-31725142D01*
X46114097Y-31725142D01*
X46264984Y-31695129D01*
X46407117Y-31636255D01*
X46535034Y-31550784D01*
X46617443Y-31468375D01*
X46713975Y-31532876D01*
X46856108Y-31591750D01*
X47006995Y-31621763D01*
X47160839Y-31621763D01*
X47311726Y-31591750D01*
X47453859Y-31532876D01*
X47581776Y-31447405D01*
X47690559Y-31338622D01*
X47776030Y-31210705D01*
X47834904Y-31068572D01*
X47864917Y-30917685D01*
X47864917Y-30763841D01*
X47834904Y-30612954D01*
X47776030Y-30470821D01*
X47690559Y-30342904D01*
X47620733Y-30273078D01*
X50019000Y-30273078D01*
X50019000Y-30426922D01*
X50049013Y-30577809D01*
X50107887Y-30719942D01*
X50193358Y-30847859D01*
X50302141Y-30956642D01*
X50430058Y-31042113D01*
X50572191Y-31100987D01*
X50723078Y-31131000D01*
X50876922Y-31131000D01*
X51027809Y-31100987D01*
X51046780Y-31093129D01*
X51057887Y-31119942D01*
X51143358Y-31247859D01*
X51252141Y-31356642D01*
X51380058Y-31442113D01*
X51522191Y-31500987D01*
X51673078Y-31531000D01*
X51826922Y-31531000D01*
X51977809Y-31500987D01*
X52119942Y-31442113D01*
X52247859Y-31356642D01*
X52356642Y-31247859D01*
X52442113Y-31119942D01*
X52500987Y-30977809D01*
X52507066Y-30947250D01*
X52557887Y-31069942D01*
X52643358Y-31197859D01*
X52752141Y-31306642D01*
X52880058Y-31392113D01*
X53022191Y-31450987D01*
X53173078Y-31481000D01*
X53326922Y-31481000D01*
X53477809Y-31450987D01*
X53619942Y-31392113D01*
X53747859Y-31306642D01*
X53856642Y-31197859D01*
X53942113Y-31069942D01*
X54000987Y-30927809D01*
X54031000Y-30776922D01*
X54031000Y-30623078D01*
X54000987Y-30472191D01*
X53942113Y-30330058D01*
X53856642Y-30202141D01*
X53773511Y-30119010D01*
X53836395Y-30024898D01*
X53895269Y-29882765D01*
X53915511Y-29781000D01*
X53976874Y-29781000D01*
X54127761Y-29750987D01*
X54269894Y-29692113D01*
X54397811Y-29606642D01*
X54506594Y-29497859D01*
X54592065Y-29369942D01*
X54636200Y-29263392D01*
X54649013Y-29327809D01*
X54707887Y-29469942D01*
X54793358Y-29597859D01*
X54902141Y-29706642D01*
X55030058Y-29792113D01*
X55172191Y-29850987D01*
X55323078Y-29881000D01*
X55476922Y-29881000D01*
X55498099Y-29876788D01*
X55469000Y-30023078D01*
X55469000Y-30176922D01*
X55499013Y-30327809D01*
X55557887Y-30469942D01*
X55643358Y-30597859D01*
X55752141Y-30706642D01*
X55880058Y-30792113D01*
X56022191Y-30850987D01*
X56173078Y-30881000D01*
X56326922Y-30881000D01*
X56477809Y-30850987D01*
X56619942Y-30792113D01*
X56747859Y-30706642D01*
X56856642Y-30597859D01*
X56906608Y-30523078D01*
X58719000Y-30523078D01*
X58719000Y-30676922D01*
X58749013Y-30827809D01*
X58807887Y-30969942D01*
X58893358Y-31097859D01*
X59002141Y-31206642D01*
X59130058Y-31292113D01*
X59272191Y-31350987D01*
X59423078Y-31381000D01*
X59576922Y-31381000D01*
X59727809Y-31350987D01*
X59869942Y-31292113D01*
X59898430Y-31273078D01*
X60119000Y-31273078D01*
X60119000Y-31426922D01*
X60149013Y-31577809D01*
X60207887Y-31719942D01*
X60293358Y-31847859D01*
X60402141Y-31956642D01*
X60530058Y-32042113D01*
X60672191Y-32100987D01*
X60823078Y-32131000D01*
X60976922Y-32131000D01*
X61127809Y-32100987D01*
X61269942Y-32042113D01*
X61397859Y-31956642D01*
X61417703Y-31936799D01*
X61480480Y-31999576D01*
X61608397Y-32085047D01*
X61750530Y-32143921D01*
X61901417Y-32173934D01*
X62055261Y-32173934D01*
X62206148Y-32143921D01*
X62348281Y-32085047D01*
X62476198Y-31999576D01*
X62584981Y-31890793D01*
X62670452Y-31762876D01*
X62729326Y-31620743D01*
X62759339Y-31469856D01*
X62759339Y-31316012D01*
X62729326Y-31165125D01*
X62670452Y-31022992D01*
X62638385Y-30975000D01*
X70092157Y-30975000D01*
X70092157Y-31825000D01*
X70099513Y-31899689D01*
X70121299Y-31971508D01*
X70156678Y-32037696D01*
X70204289Y-32095711D01*
X70262304Y-32143322D01*
X70328492Y-32178701D01*
X70400311Y-32200487D01*
X70475000Y-32207843D01*
X71325000Y-32207843D01*
X71399689Y-32200487D01*
X71471508Y-32178701D01*
X71537696Y-32143322D01*
X71595711Y-32095711D01*
X71643322Y-32037696D01*
X71678701Y-31971508D01*
X71700487Y-31899689D01*
X71707843Y-31825000D01*
X71707843Y-30975000D01*
X72592157Y-30975000D01*
X72592157Y-31825000D01*
X72599513Y-31899689D01*
X72621299Y-31971508D01*
X72656678Y-32037696D01*
X72704289Y-32095711D01*
X72762304Y-32143322D01*
X72828492Y-32178701D01*
X72900311Y-32200487D01*
X72975000Y-32207843D01*
X73825000Y-32207843D01*
X73899689Y-32200487D01*
X73971508Y-32178701D01*
X74037696Y-32143322D01*
X74095711Y-32095711D01*
X74143322Y-32037696D01*
X74178701Y-31971508D01*
X74200487Y-31899689D01*
X74207843Y-31825000D01*
X74207843Y-30975000D01*
X74200487Y-30900311D01*
X74178701Y-30828492D01*
X74143322Y-30762304D01*
X74095711Y-30704289D01*
X74037696Y-30656678D01*
X73971508Y-30621299D01*
X73899689Y-30599513D01*
X73825000Y-30592157D01*
X72975000Y-30592157D01*
X72900311Y-30599513D01*
X72828492Y-30621299D01*
X72762304Y-30656678D01*
X72704289Y-30704289D01*
X72656678Y-30762304D01*
X72621299Y-30828492D01*
X72599513Y-30900311D01*
X72592157Y-30975000D01*
X71707843Y-30975000D01*
X71700487Y-30900311D01*
X71678701Y-30828492D01*
X71643322Y-30762304D01*
X71595711Y-30704289D01*
X71537696Y-30656678D01*
X71471508Y-30621299D01*
X71399689Y-30599513D01*
X71325000Y-30592157D01*
X70475000Y-30592157D01*
X70400311Y-30599513D01*
X70328492Y-30621299D01*
X70262304Y-30656678D01*
X70204289Y-30704289D01*
X70156678Y-30762304D01*
X70121299Y-30828492D01*
X70099513Y-30900311D01*
X70092157Y-30975000D01*
X62638385Y-30975000D01*
X62584981Y-30895075D01*
X62476198Y-30786292D01*
X62348281Y-30700821D01*
X62206148Y-30641947D01*
X62055261Y-30611934D01*
X61901417Y-30611934D01*
X61750530Y-30641947D01*
X61608397Y-30700821D01*
X61480480Y-30786292D01*
X61460637Y-30806136D01*
X61397859Y-30743358D01*
X61269942Y-30657887D01*
X61127809Y-30599013D01*
X60976922Y-30569000D01*
X60823078Y-30569000D01*
X60672191Y-30599013D01*
X60530058Y-30657887D01*
X60402141Y-30743358D01*
X60293358Y-30852141D01*
X60207887Y-30980058D01*
X60149013Y-31122191D01*
X60119000Y-31273078D01*
X59898430Y-31273078D01*
X59997859Y-31206642D01*
X60106642Y-31097859D01*
X60192113Y-30969942D01*
X60250987Y-30827809D01*
X60281000Y-30676922D01*
X60281000Y-30523078D01*
X60250987Y-30372191D01*
X60192113Y-30230058D01*
X60106642Y-30102141D01*
X59997859Y-29993358D01*
X59869942Y-29907887D01*
X59727809Y-29849013D01*
X59576922Y-29819000D01*
X59423078Y-29819000D01*
X59272191Y-29849013D01*
X59130058Y-29907887D01*
X59002141Y-29993358D01*
X58893358Y-30102141D01*
X58807887Y-30230058D01*
X58749013Y-30372191D01*
X58719000Y-30523078D01*
X56906608Y-30523078D01*
X56942113Y-30469942D01*
X57000987Y-30327809D01*
X57031000Y-30176922D01*
X57031000Y-30023078D01*
X57000987Y-29872191D01*
X56942113Y-29730058D01*
X56856642Y-29602141D01*
X56747859Y-29493358D01*
X56619942Y-29407887D01*
X56477809Y-29349013D01*
X56326922Y-29319000D01*
X56173078Y-29319000D01*
X56151901Y-29323212D01*
X56181000Y-29176922D01*
X56181000Y-29045017D01*
X56247652Y-29045017D01*
X56398539Y-29015004D01*
X56540672Y-28956130D01*
X56668589Y-28870659D01*
X56777372Y-28761876D01*
X56862843Y-28633959D01*
X56921717Y-28491826D01*
X56951730Y-28340939D01*
X56951730Y-28323078D01*
X64619000Y-28323078D01*
X64619000Y-28476922D01*
X64649013Y-28627809D01*
X64707887Y-28769942D01*
X64793358Y-28897859D01*
X64902141Y-29006642D01*
X64992561Y-29067058D01*
X64949013Y-29172191D01*
X64919000Y-29323078D01*
X64919000Y-29476922D01*
X64949013Y-29627809D01*
X65007887Y-29769942D01*
X65093358Y-29897859D01*
X65202141Y-30006642D01*
X65330058Y-30092113D01*
X65472191Y-30150987D01*
X65623078Y-30181000D01*
X65776922Y-30181000D01*
X65927809Y-30150987D01*
X66069942Y-30092113D01*
X66197859Y-30006642D01*
X66306642Y-29897859D01*
X66392113Y-29769942D01*
X66450987Y-29627809D01*
X66476409Y-29500000D01*
X77692157Y-29500000D01*
X77692157Y-30700000D01*
X77704317Y-30823462D01*
X77740329Y-30942179D01*
X77798810Y-31051589D01*
X77877512Y-31147488D01*
X77973411Y-31226190D01*
X78082821Y-31284671D01*
X78201538Y-31320683D01*
X78325000Y-31332843D01*
X79775000Y-31332843D01*
X79898462Y-31320683D01*
X80017179Y-31284671D01*
X80126589Y-31226190D01*
X80222488Y-31147488D01*
X80301190Y-31051589D01*
X80359671Y-30942179D01*
X80395683Y-30823462D01*
X80407843Y-30700000D01*
X80407843Y-29500000D01*
X80395683Y-29376538D01*
X80359671Y-29257821D01*
X80301190Y-29148411D01*
X80222488Y-29052512D01*
X80126589Y-28973810D01*
X80017179Y-28915329D01*
X79898462Y-28879317D01*
X79775000Y-28867157D01*
X78325000Y-28867157D01*
X78201538Y-28879317D01*
X78082821Y-28915329D01*
X77973411Y-28973810D01*
X77877512Y-29052512D01*
X77798810Y-29148411D01*
X77740329Y-29257821D01*
X77704317Y-29376538D01*
X77692157Y-29500000D01*
X66476409Y-29500000D01*
X66481000Y-29476922D01*
X66481000Y-29323078D01*
X66450987Y-29172191D01*
X66392113Y-29030058D01*
X66306642Y-28902141D01*
X66197859Y-28793358D01*
X66107439Y-28732942D01*
X66150987Y-28627809D01*
X66181000Y-28476922D01*
X66181000Y-28323078D01*
X66150987Y-28172191D01*
X66125451Y-28110542D01*
X66169942Y-28092113D01*
X66297859Y-28006642D01*
X66406642Y-27897859D01*
X66492113Y-27769942D01*
X66550987Y-27627809D01*
X66563618Y-27564310D01*
X66680058Y-27642113D01*
X66822191Y-27700987D01*
X66973078Y-27731000D01*
X67126922Y-27731000D01*
X67277809Y-27700987D01*
X67419942Y-27642113D01*
X67547859Y-27556642D01*
X67656642Y-27447859D01*
X67742113Y-27319942D01*
X67782652Y-27222073D01*
X67867489Y-27349041D01*
X67976272Y-27457824D01*
X68104189Y-27543295D01*
X68246322Y-27602169D01*
X68397209Y-27632182D01*
X68551053Y-27632182D01*
X68701940Y-27602169D01*
X68844073Y-27543295D01*
X68971990Y-27457824D01*
X69080773Y-27349041D01*
X69166244Y-27221124D01*
X69225118Y-27078991D01*
X69246185Y-26973078D01*
X70469000Y-26973078D01*
X70469000Y-27126922D01*
X70499013Y-27277809D01*
X70557887Y-27419942D01*
X70643358Y-27547859D01*
X70752141Y-27656642D01*
X70880058Y-27742113D01*
X71022191Y-27800987D01*
X71173078Y-27831000D01*
X71326922Y-27831000D01*
X71477809Y-27800987D01*
X71619942Y-27742113D01*
X71747859Y-27656642D01*
X71856642Y-27547859D01*
X71942113Y-27419942D01*
X71992941Y-27297234D01*
X71993358Y-27297859D01*
X72102141Y-27406642D01*
X72230058Y-27492113D01*
X72372191Y-27550987D01*
X72523078Y-27581000D01*
X72676922Y-27581000D01*
X72827809Y-27550987D01*
X72833281Y-27548720D01*
X72849013Y-27627809D01*
X72907887Y-27769942D01*
X72993358Y-27897859D01*
X73102141Y-28006642D01*
X73230058Y-28092113D01*
X73372191Y-28150987D01*
X73523078Y-28181000D01*
X73676922Y-28181000D01*
X73763881Y-28163703D01*
X73807887Y-28269942D01*
X73893358Y-28397859D01*
X74002141Y-28506642D01*
X74130058Y-28592113D01*
X74272191Y-28650987D01*
X74423078Y-28681000D01*
X74539702Y-28681000D01*
X74549013Y-28727809D01*
X74607887Y-28869942D01*
X74693358Y-28997859D01*
X74802141Y-29106642D01*
X74930058Y-29192113D01*
X75072191Y-29250987D01*
X75223078Y-29281000D01*
X75376922Y-29281000D01*
X75527809Y-29250987D01*
X75669942Y-29192113D01*
X75797859Y-29106642D01*
X75906642Y-28997859D01*
X75992113Y-28869942D01*
X76050987Y-28727809D01*
X76081000Y-28576922D01*
X76081000Y-28423078D01*
X76050987Y-28272191D01*
X75992113Y-28130058D01*
X75906642Y-28002141D01*
X75797859Y-27893358D01*
X75669942Y-27807887D01*
X75527809Y-27749013D01*
X75376922Y-27719000D01*
X75260298Y-27719000D01*
X75250987Y-27672191D01*
X75192113Y-27530058D01*
X75106642Y-27402141D01*
X74997859Y-27293358D01*
X74869942Y-27207887D01*
X74727809Y-27149013D01*
X74576922Y-27119000D01*
X74423078Y-27119000D01*
X74336119Y-27136297D01*
X74292113Y-27030058D01*
X74206642Y-26902141D01*
X74097859Y-26793358D01*
X73969942Y-26707887D01*
X73827809Y-26649013D01*
X73676922Y-26619000D01*
X73523078Y-26619000D01*
X73372191Y-26649013D01*
X73366719Y-26651280D01*
X73350987Y-26572191D01*
X73292113Y-26430058D01*
X73206642Y-26302141D01*
X73097859Y-26193358D01*
X72969942Y-26107887D01*
X72827809Y-26049013D01*
X72676922Y-26019000D01*
X72523078Y-26019000D01*
X72372191Y-26049013D01*
X72230058Y-26107887D01*
X72102141Y-26193358D01*
X71993358Y-26302141D01*
X71907887Y-26430058D01*
X71857059Y-26552766D01*
X71856642Y-26552141D01*
X71747859Y-26443358D01*
X71619942Y-26357887D01*
X71477809Y-26299013D01*
X71326922Y-26269000D01*
X71173078Y-26269000D01*
X71022191Y-26299013D01*
X70880058Y-26357887D01*
X70752141Y-26443358D01*
X70643358Y-26552141D01*
X70557887Y-26680058D01*
X70499013Y-26822191D01*
X70469000Y-26973078D01*
X69246185Y-26973078D01*
X69255131Y-26928104D01*
X69255131Y-26774260D01*
X69225118Y-26623373D01*
X69166244Y-26481240D01*
X69080773Y-26353323D01*
X68971990Y-26244540D01*
X68844073Y-26159069D01*
X68701940Y-26100195D01*
X68551053Y-26070182D01*
X68397209Y-26070182D01*
X68246322Y-26100195D01*
X68104189Y-26159069D01*
X67976272Y-26244540D01*
X67867489Y-26353323D01*
X67782018Y-26481240D01*
X67741479Y-26579109D01*
X67656642Y-26452141D01*
X67547859Y-26343358D01*
X67419942Y-26257887D01*
X67277809Y-26199013D01*
X67126922Y-26169000D01*
X66973078Y-26169000D01*
X66822191Y-26199013D01*
X66680058Y-26257887D01*
X66552141Y-26343358D01*
X66443358Y-26452141D01*
X66357887Y-26580058D01*
X66299013Y-26722191D01*
X66286382Y-26785690D01*
X66169942Y-26707887D01*
X66027809Y-26649013D01*
X65876922Y-26619000D01*
X65723078Y-26619000D01*
X65572191Y-26649013D01*
X65430058Y-26707887D01*
X65302141Y-26793358D01*
X65193358Y-26902141D01*
X65107887Y-27030058D01*
X65049013Y-27172191D01*
X65019000Y-27323078D01*
X65019000Y-27476922D01*
X65049013Y-27627809D01*
X65074549Y-27689458D01*
X65030058Y-27707887D01*
X64902141Y-27793358D01*
X64793358Y-27902141D01*
X64707887Y-28030058D01*
X64649013Y-28172191D01*
X64619000Y-28323078D01*
X56951730Y-28323078D01*
X56951730Y-28187095D01*
X56921717Y-28036208D01*
X56862843Y-27894075D01*
X56777372Y-27766158D01*
X56668589Y-27657375D01*
X56540672Y-27571904D01*
X56398539Y-27513030D01*
X56247652Y-27483017D01*
X56199760Y-27483017D01*
X56218346Y-27389576D01*
X56218346Y-27235732D01*
X56217405Y-27231000D01*
X56326922Y-27231000D01*
X56477809Y-27200987D01*
X56619942Y-27142113D01*
X56747859Y-27056642D01*
X56856642Y-26947859D01*
X56942113Y-26819942D01*
X57000987Y-26677809D01*
X57031000Y-26526922D01*
X57031000Y-26373078D01*
X57000987Y-26222191D01*
X56942113Y-26080058D01*
X56904041Y-26023078D01*
X59169000Y-26023078D01*
X59169000Y-26176922D01*
X59199013Y-26327809D01*
X59257887Y-26469942D01*
X59343358Y-26597859D01*
X59452141Y-26706642D01*
X59580058Y-26792113D01*
X59722191Y-26850987D01*
X59873078Y-26881000D01*
X60026922Y-26881000D01*
X60177809Y-26850987D01*
X60319942Y-26792113D01*
X60447859Y-26706642D01*
X60556642Y-26597859D01*
X60642113Y-26469942D01*
X60700987Y-26327809D01*
X60731000Y-26176922D01*
X60731000Y-26023078D01*
X60700987Y-25872191D01*
X60642113Y-25730058D01*
X60556642Y-25602141D01*
X60447859Y-25493358D01*
X60319942Y-25407887D01*
X60177809Y-25349013D01*
X60026922Y-25319000D01*
X59873078Y-25319000D01*
X59722191Y-25349013D01*
X59580058Y-25407887D01*
X59452141Y-25493358D01*
X59343358Y-25602141D01*
X59257887Y-25730058D01*
X59199013Y-25872191D01*
X59169000Y-26023078D01*
X56904041Y-26023078D01*
X56856642Y-25952141D01*
X56747859Y-25843358D01*
X56619942Y-25757887D01*
X56477809Y-25699013D01*
X56326922Y-25669000D01*
X56173078Y-25669000D01*
X56022191Y-25699013D01*
X55880058Y-25757887D01*
X55752141Y-25843358D01*
X55643358Y-25952141D01*
X55557887Y-26080058D01*
X55499013Y-26222191D01*
X55469000Y-26373078D01*
X55469000Y-26526922D01*
X55469941Y-26531654D01*
X55360424Y-26531654D01*
X55209537Y-26561667D01*
X55067404Y-26620541D01*
X54939487Y-26706012D01*
X54830704Y-26814795D01*
X54745233Y-26942712D01*
X54686359Y-27084845D01*
X54656346Y-27235732D01*
X54656346Y-27389576D01*
X54686359Y-27540463D01*
X54745233Y-27682596D01*
X54830704Y-27810513D01*
X54939487Y-27919296D01*
X55067404Y-28004767D01*
X55209537Y-28063641D01*
X55360424Y-28093654D01*
X55408316Y-28093654D01*
X55389730Y-28187095D01*
X55389730Y-28319000D01*
X55323078Y-28319000D01*
X55172191Y-28349013D01*
X55030058Y-28407887D01*
X54902141Y-28493358D01*
X54793358Y-28602141D01*
X54707887Y-28730058D01*
X54663752Y-28836608D01*
X54650939Y-28772191D01*
X54592065Y-28630058D01*
X54506594Y-28502141D01*
X54397811Y-28393358D01*
X54269894Y-28307887D01*
X54127761Y-28249013D01*
X53976874Y-28219000D01*
X53823030Y-28219000D01*
X53672143Y-28249013D01*
X53530010Y-28307887D01*
X53402093Y-28393358D01*
X53293310Y-28502141D01*
X53207839Y-28630058D01*
X53148965Y-28772191D01*
X53128723Y-28873956D01*
X53067360Y-28873956D01*
X52916473Y-28903969D01*
X52774340Y-28962843D01*
X52646423Y-29048314D01*
X52537640Y-29157097D01*
X52452169Y-29285014D01*
X52393295Y-29427147D01*
X52363282Y-29578034D01*
X52363282Y-29731878D01*
X52393295Y-29882765D01*
X52452169Y-30024898D01*
X52537640Y-30152815D01*
X52620771Y-30235946D01*
X52557887Y-30330058D01*
X52499013Y-30472191D01*
X52492934Y-30502750D01*
X52442113Y-30380058D01*
X52356642Y-30252141D01*
X52247859Y-30143358D01*
X52119942Y-30057887D01*
X51977809Y-29999013D01*
X51826922Y-29969000D01*
X51673078Y-29969000D01*
X51522191Y-29999013D01*
X51503220Y-30006871D01*
X51492113Y-29980058D01*
X51406642Y-29852141D01*
X51297859Y-29743358D01*
X51169942Y-29657887D01*
X51027809Y-29599013D01*
X50876922Y-29569000D01*
X50723078Y-29569000D01*
X50572191Y-29599013D01*
X50430058Y-29657887D01*
X50302141Y-29743358D01*
X50193358Y-29852141D01*
X50107887Y-29980058D01*
X50049013Y-30122191D01*
X50019000Y-30273078D01*
X47620733Y-30273078D01*
X47581776Y-30234121D01*
X47453859Y-30148650D01*
X47311726Y-30089776D01*
X47160839Y-30059763D01*
X47006995Y-30059763D01*
X46856108Y-30089776D01*
X46713975Y-30148650D01*
X46586058Y-30234121D01*
X46503649Y-30316530D01*
X46407117Y-30252029D01*
X46264984Y-30193155D01*
X46114097Y-30163142D01*
X45960253Y-30163142D01*
X45809366Y-30193155D01*
X45667233Y-30252029D01*
X45539316Y-30337500D01*
X45430533Y-30446283D01*
X45345062Y-30574200D01*
X45286188Y-30716333D01*
X45256175Y-30867220D01*
X44548928Y-30867220D01*
X44492113Y-30730058D01*
X44406642Y-30602141D01*
X44297859Y-30493358D01*
X44169942Y-30407887D01*
X44027809Y-30349013D01*
X43876922Y-30319000D01*
X43723078Y-30319000D01*
X43572191Y-30349013D01*
X43430058Y-30407887D01*
X43302141Y-30493358D01*
X43193358Y-30602141D01*
X43107887Y-30730058D01*
X43049013Y-30872191D01*
X43019000Y-31023078D01*
X6927000Y-31023078D01*
X6927000Y-29623078D01*
X38419000Y-29623078D01*
X38419000Y-29776922D01*
X38449013Y-29927809D01*
X38507887Y-30069942D01*
X38593358Y-30197859D01*
X38702141Y-30306642D01*
X38830058Y-30392113D01*
X38972191Y-30450987D01*
X39123078Y-30481000D01*
X39276922Y-30481000D01*
X39427809Y-30450987D01*
X39569942Y-30392113D01*
X39697859Y-30306642D01*
X39806642Y-30197859D01*
X39892113Y-30069942D01*
X39950987Y-29927809D01*
X39981000Y-29776922D01*
X39981000Y-29623078D01*
X39950987Y-29472191D01*
X39930644Y-29423078D01*
X44619000Y-29423078D01*
X44619000Y-29576922D01*
X44649013Y-29727809D01*
X44707887Y-29869942D01*
X44793358Y-29997859D01*
X44902141Y-30106642D01*
X45030058Y-30192113D01*
X45172191Y-30250987D01*
X45323078Y-30281000D01*
X45476922Y-30281000D01*
X45627809Y-30250987D01*
X45769942Y-30192113D01*
X45897859Y-30106642D01*
X46006642Y-29997859D01*
X46092113Y-29869942D01*
X46150987Y-29727809D01*
X46181000Y-29576922D01*
X46181000Y-29423078D01*
X46150987Y-29272191D01*
X46135993Y-29235993D01*
X46172191Y-29250987D01*
X46323078Y-29281000D01*
X46476922Y-29281000D01*
X46627809Y-29250987D01*
X46769942Y-29192113D01*
X46897859Y-29106642D01*
X47006642Y-28997859D01*
X47092113Y-28869942D01*
X47150987Y-28727809D01*
X47181000Y-28576922D01*
X47181000Y-28423078D01*
X47150987Y-28272191D01*
X47092113Y-28130058D01*
X47006642Y-28002141D01*
X46897859Y-27893358D01*
X46878804Y-27880626D01*
X47027809Y-27850987D01*
X47169942Y-27792113D01*
X47297859Y-27706642D01*
X47406642Y-27597859D01*
X47492113Y-27469942D01*
X47550987Y-27327809D01*
X47581000Y-27176922D01*
X47581000Y-27023078D01*
X47550987Y-26872191D01*
X47492113Y-26730058D01*
X47420632Y-26623078D01*
X50619000Y-26623078D01*
X50619000Y-26776922D01*
X50649013Y-26927809D01*
X50707887Y-27069942D01*
X50793358Y-27197859D01*
X50902141Y-27306642D01*
X51030058Y-27392113D01*
X51172191Y-27450987D01*
X51323078Y-27481000D01*
X51476922Y-27481000D01*
X51627809Y-27450987D01*
X51769942Y-27392113D01*
X51897859Y-27306642D01*
X52006642Y-27197859D01*
X52092113Y-27069942D01*
X52150987Y-26927809D01*
X52181000Y-26776922D01*
X52181000Y-26623078D01*
X52150987Y-26472191D01*
X52102839Y-26355954D01*
X52127809Y-26350987D01*
X52269942Y-26292113D01*
X52397859Y-26206642D01*
X52506642Y-26097859D01*
X52592113Y-25969942D01*
X52650987Y-25827809D01*
X52681000Y-25676922D01*
X52681000Y-25523078D01*
X52676026Y-25498068D01*
X53843952Y-25498068D01*
X53843952Y-25651912D01*
X53873965Y-25802799D01*
X53932839Y-25944932D01*
X54018310Y-26072849D01*
X54127093Y-26181632D01*
X54255010Y-26267103D01*
X54397143Y-26325977D01*
X54548030Y-26355990D01*
X54701874Y-26355990D01*
X54852761Y-26325977D01*
X54994894Y-26267103D01*
X55122811Y-26181632D01*
X55231594Y-26072849D01*
X55317065Y-25944932D01*
X55375939Y-25802799D01*
X55405952Y-25651912D01*
X55405952Y-25498068D01*
X55375939Y-25347181D01*
X55317065Y-25205048D01*
X55246875Y-25100000D01*
X77688044Y-25100000D01*
X77711812Y-25341318D01*
X77782202Y-25573363D01*
X77896509Y-25787216D01*
X78050340Y-25974660D01*
X78237784Y-26128491D01*
X78451637Y-26242798D01*
X78683682Y-26313188D01*
X78864528Y-26331000D01*
X79235472Y-26331000D01*
X79416318Y-26313188D01*
X79648363Y-26242798D01*
X79862216Y-26128491D01*
X80049660Y-25974660D01*
X80203491Y-25787216D01*
X80317798Y-25573363D01*
X80388188Y-25341318D01*
X80411956Y-25100000D01*
X80388188Y-24858682D01*
X80317798Y-24626637D01*
X80203491Y-24412784D01*
X80049660Y-24225340D01*
X79862216Y-24071509D01*
X79648363Y-23957202D01*
X79416318Y-23886812D01*
X79235472Y-23869000D01*
X78864528Y-23869000D01*
X78683682Y-23886812D01*
X78451637Y-23957202D01*
X78237784Y-24071509D01*
X78050340Y-24225340D01*
X77896509Y-24412784D01*
X77782202Y-24626637D01*
X77711812Y-24858682D01*
X77688044Y-25100000D01*
X55246875Y-25100000D01*
X55231594Y-25077131D01*
X55122811Y-24968348D01*
X54994894Y-24882877D01*
X54852761Y-24824003D01*
X54701874Y-24793990D01*
X54548030Y-24793990D01*
X54397143Y-24824003D01*
X54255010Y-24882877D01*
X54127093Y-24968348D01*
X54018310Y-25077131D01*
X53932839Y-25205048D01*
X53873965Y-25347181D01*
X53843952Y-25498068D01*
X52676026Y-25498068D01*
X52650987Y-25372191D01*
X52592113Y-25230058D01*
X52506642Y-25102141D01*
X52397859Y-24993358D01*
X52269942Y-24907887D01*
X52127809Y-24849013D01*
X51976922Y-24819000D01*
X51823078Y-24819000D01*
X51672191Y-24849013D01*
X51530058Y-24907887D01*
X51402141Y-24993358D01*
X51293358Y-25102141D01*
X51207887Y-25230058D01*
X51149013Y-25372191D01*
X51119000Y-25523078D01*
X51119000Y-25676922D01*
X51149013Y-25827809D01*
X51197161Y-25944046D01*
X51172191Y-25949013D01*
X51030058Y-26007887D01*
X50902141Y-26093358D01*
X50793358Y-26202141D01*
X50707887Y-26330058D01*
X50649013Y-26472191D01*
X50619000Y-26623078D01*
X47420632Y-26623078D01*
X47406642Y-26602141D01*
X47404501Y-26600000D01*
X47406642Y-26597859D01*
X47492113Y-26469942D01*
X47550987Y-26327809D01*
X47581000Y-26176922D01*
X47581000Y-26023078D01*
X47550987Y-25872191D01*
X47492113Y-25730058D01*
X47406642Y-25602141D01*
X47297859Y-25493358D01*
X47169942Y-25407887D01*
X47027809Y-25349013D01*
X46876922Y-25319000D01*
X46723078Y-25319000D01*
X46572191Y-25349013D01*
X46430058Y-25407887D01*
X46302141Y-25493358D01*
X46193358Y-25602141D01*
X46107887Y-25730058D01*
X46049013Y-25872191D01*
X46019000Y-26023078D01*
X46019000Y-26176922D01*
X46049013Y-26327809D01*
X46107887Y-26469942D01*
X46193358Y-26597859D01*
X46195499Y-26600000D01*
X46193358Y-26602141D01*
X46107887Y-26730058D01*
X46049013Y-26872191D01*
X46019000Y-27023078D01*
X46019000Y-27176922D01*
X46049013Y-27327809D01*
X46107887Y-27469942D01*
X46193358Y-27597859D01*
X46302141Y-27706642D01*
X46321196Y-27719374D01*
X46172191Y-27749013D01*
X46030058Y-27807887D01*
X45902141Y-27893358D01*
X45793358Y-28002141D01*
X45707887Y-28130058D01*
X45649013Y-28272191D01*
X45619000Y-28423078D01*
X45619000Y-28576922D01*
X45649013Y-28727809D01*
X45664007Y-28764007D01*
X45627809Y-28749013D01*
X45476922Y-28719000D01*
X45323078Y-28719000D01*
X45172191Y-28749013D01*
X45030058Y-28807887D01*
X44902141Y-28893358D01*
X44793358Y-29002141D01*
X44707887Y-29130058D01*
X44649013Y-29272191D01*
X44619000Y-29423078D01*
X39930644Y-29423078D01*
X39892113Y-29330058D01*
X39806642Y-29202141D01*
X39697859Y-29093358D01*
X39569942Y-29007887D01*
X39427809Y-28949013D01*
X39276922Y-28919000D01*
X39123078Y-28919000D01*
X38972191Y-28949013D01*
X38830058Y-29007887D01*
X38702141Y-29093358D01*
X38593358Y-29202141D01*
X38507887Y-29330058D01*
X38449013Y-29472191D01*
X38419000Y-29623078D01*
X6927000Y-29623078D01*
X6927000Y-28623078D01*
X35819000Y-28623078D01*
X35819000Y-28776922D01*
X35849013Y-28927809D01*
X35907887Y-29069942D01*
X35993358Y-29197859D01*
X36102141Y-29306642D01*
X36230058Y-29392113D01*
X36372191Y-29450987D01*
X36523078Y-29481000D01*
X36676922Y-29481000D01*
X36827809Y-29450987D01*
X36969942Y-29392113D01*
X37097859Y-29306642D01*
X37206642Y-29197859D01*
X37292113Y-29069942D01*
X37350987Y-28927809D01*
X37381000Y-28776922D01*
X37381000Y-28623078D01*
X37350987Y-28472191D01*
X37292113Y-28330058D01*
X37206642Y-28202141D01*
X37097859Y-28093358D01*
X36969942Y-28007887D01*
X36827809Y-27949013D01*
X36676922Y-27919000D01*
X36523078Y-27919000D01*
X36372191Y-27949013D01*
X36230058Y-28007887D01*
X36102141Y-28093358D01*
X35993358Y-28202141D01*
X35907887Y-28330058D01*
X35849013Y-28472191D01*
X35819000Y-28623078D01*
X6927000Y-28623078D01*
X6927000Y-26660418D01*
X27031660Y-26660418D01*
X27031660Y-26814262D01*
X27061673Y-26965149D01*
X27120547Y-27107282D01*
X27206018Y-27235199D01*
X27314801Y-27343982D01*
X27442718Y-27429453D01*
X27584851Y-27488327D01*
X27735738Y-27518340D01*
X27889582Y-27518340D01*
X28040469Y-27488327D01*
X28182602Y-27429453D01*
X28310519Y-27343982D01*
X28419302Y-27235199D01*
X28504773Y-27107282D01*
X28563647Y-26965149D01*
X28593660Y-26814262D01*
X28593660Y-26660418D01*
X28563647Y-26509531D01*
X28504773Y-26367398D01*
X28441751Y-26273078D01*
X29719000Y-26273078D01*
X29719000Y-26426922D01*
X29749013Y-26577809D01*
X29807887Y-26719942D01*
X29893358Y-26847859D01*
X30002141Y-26956642D01*
X30130058Y-27042113D01*
X30272191Y-27100987D01*
X30423078Y-27131000D01*
X30576922Y-27131000D01*
X30727809Y-27100987D01*
X30869942Y-27042113D01*
X30997859Y-26956642D01*
X31106642Y-26847859D01*
X31192113Y-26719942D01*
X31250987Y-26577809D01*
X31281000Y-26426922D01*
X31281000Y-26273078D01*
X31250987Y-26122191D01*
X31192113Y-25980058D01*
X31106642Y-25852141D01*
X30997859Y-25743358D01*
X30869942Y-25657887D01*
X30727809Y-25599013D01*
X30576922Y-25569000D01*
X30423078Y-25569000D01*
X30272191Y-25599013D01*
X30130058Y-25657887D01*
X30002141Y-25743358D01*
X29893358Y-25852141D01*
X29807887Y-25980058D01*
X29749013Y-26122191D01*
X29719000Y-26273078D01*
X28441751Y-26273078D01*
X28419302Y-26239481D01*
X28310519Y-26130698D01*
X28182602Y-26045227D01*
X28040469Y-25986353D01*
X27889582Y-25956340D01*
X27735738Y-25956340D01*
X27584851Y-25986353D01*
X27442718Y-26045227D01*
X27314801Y-26130698D01*
X27206018Y-26239481D01*
X27120547Y-26367398D01*
X27061673Y-26509531D01*
X27031660Y-26660418D01*
X6927000Y-26660418D01*
X6927000Y-23773078D01*
X6994000Y-23773078D01*
X6994000Y-23926922D01*
X7024013Y-24077809D01*
X7082887Y-24219942D01*
X7168358Y-24347859D01*
X7277141Y-24456642D01*
X7405058Y-24542113D01*
X7547191Y-24600987D01*
X7698078Y-24631000D01*
X7851922Y-24631000D01*
X8002809Y-24600987D01*
X8144942Y-24542113D01*
X8272859Y-24456642D01*
X8381642Y-24347859D01*
X8467113Y-24219942D01*
X8525987Y-24077809D01*
X8556000Y-23926922D01*
X8556000Y-23773078D01*
X9244000Y-23773078D01*
X9244000Y-23926922D01*
X9274013Y-24077809D01*
X9332887Y-24219942D01*
X9418358Y-24347859D01*
X9527141Y-24456642D01*
X9655058Y-24542113D01*
X9797191Y-24600987D01*
X9948078Y-24631000D01*
X10101922Y-24631000D01*
X10252809Y-24600987D01*
X10394942Y-24542113D01*
X10498260Y-24473078D01*
X48519000Y-24473078D01*
X48519000Y-24626922D01*
X48549013Y-24777809D01*
X48607887Y-24919942D01*
X48693358Y-25047859D01*
X48802141Y-25156642D01*
X48930058Y-25242113D01*
X49072191Y-25300987D01*
X49223078Y-25331000D01*
X49376922Y-25331000D01*
X49527809Y-25300987D01*
X49669942Y-25242113D01*
X49797859Y-25156642D01*
X49906642Y-25047859D01*
X49992113Y-24919942D01*
X50050987Y-24777809D01*
X50081000Y-24626922D01*
X50081000Y-24473078D01*
X50050987Y-24322191D01*
X49992113Y-24180058D01*
X49906642Y-24052141D01*
X49797859Y-23943358D01*
X49669942Y-23857887D01*
X49527809Y-23799013D01*
X49376922Y-23769000D01*
X49223078Y-23769000D01*
X49072191Y-23799013D01*
X48930058Y-23857887D01*
X48802141Y-23943358D01*
X48693358Y-24052141D01*
X48607887Y-24180058D01*
X48549013Y-24322191D01*
X48519000Y-24473078D01*
X10498260Y-24473078D01*
X10522859Y-24456642D01*
X10631642Y-24347859D01*
X10717113Y-24219942D01*
X10775987Y-24077809D01*
X10806000Y-23926922D01*
X10806000Y-23773078D01*
X10775987Y-23622191D01*
X10717113Y-23480058D01*
X10645632Y-23373078D01*
X62169000Y-23373078D01*
X62169000Y-23526922D01*
X62199013Y-23677809D01*
X62257887Y-23819942D01*
X62343358Y-23947859D01*
X62452141Y-24056642D01*
X62580058Y-24142113D01*
X62722191Y-24200987D01*
X62873078Y-24231000D01*
X63026922Y-24231000D01*
X63177809Y-24200987D01*
X63319942Y-24142113D01*
X63447859Y-24056642D01*
X63556642Y-23947859D01*
X63642113Y-23819942D01*
X63700987Y-23677809D01*
X63731000Y-23526922D01*
X63731000Y-23373078D01*
X63700987Y-23222191D01*
X63642113Y-23080058D01*
X63556642Y-22952141D01*
X63447859Y-22843358D01*
X63319942Y-22757887D01*
X63177809Y-22699013D01*
X63026922Y-22669000D01*
X62873078Y-22669000D01*
X62722191Y-22699013D01*
X62580058Y-22757887D01*
X62452141Y-22843358D01*
X62343358Y-22952141D01*
X62257887Y-23080058D01*
X62199013Y-23222191D01*
X62169000Y-23373078D01*
X10645632Y-23373078D01*
X10631642Y-23352141D01*
X10522859Y-23243358D01*
X10394942Y-23157887D01*
X10252809Y-23099013D01*
X10101922Y-23069000D01*
X9948078Y-23069000D01*
X9797191Y-23099013D01*
X9655058Y-23157887D01*
X9527141Y-23243358D01*
X9418358Y-23352141D01*
X9332887Y-23480058D01*
X9274013Y-23622191D01*
X9244000Y-23773078D01*
X8556000Y-23773078D01*
X8525987Y-23622191D01*
X8467113Y-23480058D01*
X8381642Y-23352141D01*
X8272859Y-23243358D01*
X8144942Y-23157887D01*
X8002809Y-23099013D01*
X7851922Y-23069000D01*
X7698078Y-23069000D01*
X7547191Y-23099013D01*
X7405058Y-23157887D01*
X7277141Y-23243358D01*
X7168358Y-23352141D01*
X7082887Y-23480058D01*
X7024013Y-23622191D01*
X6994000Y-23773078D01*
X6927000Y-23773078D01*
X6927000Y-21973078D01*
X14319000Y-21973078D01*
X14319000Y-22126922D01*
X14349013Y-22277809D01*
X14407887Y-22419942D01*
X14493358Y-22547859D01*
X14602141Y-22656642D01*
X14730058Y-22742113D01*
X14872191Y-22800987D01*
X15023078Y-22831000D01*
X15176922Y-22831000D01*
X15327809Y-22800987D01*
X15469942Y-22742113D01*
X15597859Y-22656642D01*
X15706642Y-22547859D01*
X15756608Y-22473078D01*
X17369000Y-22473078D01*
X17369000Y-22626922D01*
X17399013Y-22777809D01*
X17457887Y-22919942D01*
X17543358Y-23047859D01*
X17652141Y-23156642D01*
X17780058Y-23242113D01*
X17922191Y-23300987D01*
X18073078Y-23331000D01*
X18226922Y-23331000D01*
X18377809Y-23300987D01*
X18519942Y-23242113D01*
X18647859Y-23156642D01*
X18650000Y-23154501D01*
X18652141Y-23156642D01*
X18780058Y-23242113D01*
X18922191Y-23300987D01*
X19073078Y-23331000D01*
X19226922Y-23331000D01*
X19377809Y-23300987D01*
X19519942Y-23242113D01*
X19647859Y-23156642D01*
X19756642Y-23047859D01*
X19842113Y-22919942D01*
X19900987Y-22777809D01*
X19931000Y-22626922D01*
X19931000Y-22473078D01*
X19900987Y-22322191D01*
X19842113Y-22180058D01*
X19756642Y-22052141D01*
X19647859Y-21943358D01*
X19519942Y-21857887D01*
X19377809Y-21799013D01*
X19226922Y-21769000D01*
X19073078Y-21769000D01*
X18922191Y-21799013D01*
X18780058Y-21857887D01*
X18652141Y-21943358D01*
X18650000Y-21945499D01*
X18647859Y-21943358D01*
X18519942Y-21857887D01*
X18377809Y-21799013D01*
X18226922Y-21769000D01*
X18073078Y-21769000D01*
X17922191Y-21799013D01*
X17780058Y-21857887D01*
X17652141Y-21943358D01*
X17543358Y-22052141D01*
X17457887Y-22180058D01*
X17399013Y-22322191D01*
X17369000Y-22473078D01*
X15756608Y-22473078D01*
X15792113Y-22419942D01*
X15850987Y-22277809D01*
X15881000Y-22126922D01*
X15881000Y-21973078D01*
X15850987Y-21822191D01*
X15792113Y-21680058D01*
X15706642Y-21552141D01*
X15597859Y-21443358D01*
X15469942Y-21357887D01*
X15327809Y-21299013D01*
X15176922Y-21269000D01*
X15023078Y-21269000D01*
X14872191Y-21299013D01*
X14730058Y-21357887D01*
X14602141Y-21443358D01*
X14493358Y-21552141D01*
X14407887Y-21680058D01*
X14349013Y-21822191D01*
X14319000Y-21973078D01*
X6927000Y-21973078D01*
X6927000Y-20973078D01*
X20769000Y-20973078D01*
X20769000Y-21126922D01*
X20799013Y-21277809D01*
X20857887Y-21419942D01*
X20943358Y-21547859D01*
X21052141Y-21656642D01*
X21180058Y-21742113D01*
X21322191Y-21800987D01*
X21473078Y-21831000D01*
X21626922Y-21831000D01*
X21777809Y-21800987D01*
X21919942Y-21742113D01*
X22047859Y-21656642D01*
X22156642Y-21547859D01*
X22242113Y-21419942D01*
X22300987Y-21277809D01*
X22331000Y-21126922D01*
X22331000Y-21123078D01*
X40769000Y-21123078D01*
X40769000Y-21276922D01*
X40799013Y-21427809D01*
X40857887Y-21569942D01*
X40943358Y-21697859D01*
X41052141Y-21806642D01*
X41180058Y-21892113D01*
X41322191Y-21950987D01*
X41473078Y-21981000D01*
X41626922Y-21981000D01*
X41777809Y-21950987D01*
X41919942Y-21892113D01*
X42047859Y-21806642D01*
X42156642Y-21697859D01*
X42168584Y-21679985D01*
X50601227Y-21679985D01*
X50601227Y-21833829D01*
X50631240Y-21984716D01*
X50690114Y-22126849D01*
X50775585Y-22254766D01*
X50884368Y-22363549D01*
X51012285Y-22449020D01*
X51154418Y-22507894D01*
X51305305Y-22537907D01*
X51459149Y-22537907D01*
X51610036Y-22507894D01*
X51752169Y-22449020D01*
X51849869Y-22383740D01*
X51882959Y-22416830D01*
X52010876Y-22502301D01*
X52153009Y-22561175D01*
X52303896Y-22591188D01*
X52457740Y-22591188D01*
X52608627Y-22561175D01*
X52750760Y-22502301D01*
X52878677Y-22416830D01*
X52987460Y-22308047D01*
X53072931Y-22180130D01*
X53131805Y-22037997D01*
X53134772Y-22023078D01*
X56569000Y-22023078D01*
X56569000Y-22176922D01*
X56599013Y-22327809D01*
X56657887Y-22469942D01*
X56743358Y-22597859D01*
X56852141Y-22706642D01*
X56980058Y-22792113D01*
X57122191Y-22850987D01*
X57273078Y-22881000D01*
X57426922Y-22881000D01*
X57577809Y-22850987D01*
X57719942Y-22792113D01*
X57847859Y-22706642D01*
X57956642Y-22597859D01*
X58042113Y-22469942D01*
X58100987Y-22327809D01*
X58119332Y-22235578D01*
X59181500Y-22235578D01*
X59181500Y-22389422D01*
X59211513Y-22540309D01*
X59270387Y-22682442D01*
X59355858Y-22810359D01*
X59464641Y-22919142D01*
X59592558Y-23004613D01*
X59734691Y-23063487D01*
X59885578Y-23093500D01*
X60039422Y-23093500D01*
X60190309Y-23063487D01*
X60332442Y-23004613D01*
X60460359Y-22919142D01*
X60569142Y-22810359D01*
X60654613Y-22682442D01*
X60688761Y-22600000D01*
X77688044Y-22600000D01*
X77711812Y-22841318D01*
X77782202Y-23073363D01*
X77896509Y-23287216D01*
X78050340Y-23474660D01*
X78237784Y-23628491D01*
X78451637Y-23742798D01*
X78683682Y-23813188D01*
X78864528Y-23831000D01*
X79235472Y-23831000D01*
X79416318Y-23813188D01*
X79648363Y-23742798D01*
X79862216Y-23628491D01*
X80049660Y-23474660D01*
X80203491Y-23287216D01*
X80317798Y-23073363D01*
X80388188Y-22841318D01*
X80411956Y-22600000D01*
X80388188Y-22358682D01*
X80317798Y-22126637D01*
X80203491Y-21912784D01*
X80049660Y-21725340D01*
X79862216Y-21571509D01*
X79648363Y-21457202D01*
X79416318Y-21386812D01*
X79235472Y-21369000D01*
X78864528Y-21369000D01*
X78683682Y-21386812D01*
X78451637Y-21457202D01*
X78237784Y-21571509D01*
X78050340Y-21725340D01*
X77896509Y-21912784D01*
X77782202Y-22126637D01*
X77711812Y-22358682D01*
X77688044Y-22600000D01*
X60688761Y-22600000D01*
X60713487Y-22540309D01*
X60743500Y-22389422D01*
X60743500Y-22235578D01*
X60713487Y-22084691D01*
X60654613Y-21942558D01*
X60569142Y-21814641D01*
X60460359Y-21705858D01*
X60332442Y-21620387D01*
X60190309Y-21561513D01*
X60039422Y-21531500D01*
X59885578Y-21531500D01*
X59734691Y-21561513D01*
X59592558Y-21620387D01*
X59464641Y-21705858D01*
X59355858Y-21814641D01*
X59270387Y-21942558D01*
X59211513Y-22084691D01*
X59181500Y-22235578D01*
X58119332Y-22235578D01*
X58131000Y-22176922D01*
X58131000Y-22023078D01*
X58100987Y-21872191D01*
X58042113Y-21730058D01*
X57956642Y-21602141D01*
X57847859Y-21493358D01*
X57719942Y-21407887D01*
X57577809Y-21349013D01*
X57426922Y-21319000D01*
X57273078Y-21319000D01*
X57122191Y-21349013D01*
X56980058Y-21407887D01*
X56852141Y-21493358D01*
X56743358Y-21602141D01*
X56657887Y-21730058D01*
X56599013Y-21872191D01*
X56569000Y-22023078D01*
X53134772Y-22023078D01*
X53161818Y-21887110D01*
X53161818Y-21733266D01*
X53131805Y-21582379D01*
X53072931Y-21440246D01*
X52987460Y-21312329D01*
X52878677Y-21203546D01*
X52750760Y-21118075D01*
X52608627Y-21059201D01*
X52457740Y-21029188D01*
X52303896Y-21029188D01*
X52153009Y-21059201D01*
X52010876Y-21118075D01*
X51913176Y-21183355D01*
X51880086Y-21150265D01*
X51752169Y-21064794D01*
X51610036Y-21005920D01*
X51459149Y-20975907D01*
X51305305Y-20975907D01*
X51154418Y-21005920D01*
X51012285Y-21064794D01*
X50884368Y-21150265D01*
X50775585Y-21259048D01*
X50690114Y-21386965D01*
X50631240Y-21529098D01*
X50601227Y-21679985D01*
X42168584Y-21679985D01*
X42242113Y-21569942D01*
X42300987Y-21427809D01*
X42331000Y-21276922D01*
X42331000Y-21123078D01*
X42300987Y-20972191D01*
X42242113Y-20830058D01*
X42156642Y-20702141D01*
X42047859Y-20593358D01*
X41919942Y-20507887D01*
X41777809Y-20449013D01*
X41626922Y-20419000D01*
X41473078Y-20419000D01*
X41322191Y-20449013D01*
X41180058Y-20507887D01*
X41052141Y-20593358D01*
X40943358Y-20702141D01*
X40857887Y-20830058D01*
X40799013Y-20972191D01*
X40769000Y-21123078D01*
X22331000Y-21123078D01*
X22331000Y-20973078D01*
X22300987Y-20822191D01*
X22242113Y-20680058D01*
X22156642Y-20552141D01*
X22047859Y-20443358D01*
X21919942Y-20357887D01*
X21777809Y-20299013D01*
X21626922Y-20269000D01*
X21473078Y-20269000D01*
X21322191Y-20299013D01*
X21180058Y-20357887D01*
X21052141Y-20443358D01*
X20943358Y-20552141D01*
X20857887Y-20680058D01*
X20799013Y-20822191D01*
X20769000Y-20973078D01*
X6927000Y-20973078D01*
X6927000Y-20223078D01*
X22269000Y-20223078D01*
X22269000Y-20376922D01*
X22299013Y-20527809D01*
X22357887Y-20669942D01*
X22443358Y-20797859D01*
X22552141Y-20906642D01*
X22680058Y-20992113D01*
X22822191Y-21050987D01*
X22973078Y-21081000D01*
X23126922Y-21081000D01*
X23277809Y-21050987D01*
X23419942Y-20992113D01*
X23547859Y-20906642D01*
X23656642Y-20797859D01*
X23742113Y-20669942D01*
X23800987Y-20527809D01*
X23831000Y-20376922D01*
X23831000Y-20223078D01*
X23800987Y-20072191D01*
X23742113Y-19930058D01*
X23656642Y-19802141D01*
X23547859Y-19693358D01*
X23419942Y-19607887D01*
X23277809Y-19549013D01*
X23126922Y-19519000D01*
X22973078Y-19519000D01*
X22822191Y-19549013D01*
X22680058Y-19607887D01*
X22552141Y-19693358D01*
X22443358Y-19802141D01*
X22357887Y-19930058D01*
X22299013Y-20072191D01*
X22269000Y-20223078D01*
X6927000Y-20223078D01*
X6927000Y-18473078D01*
X9519000Y-18473078D01*
X9519000Y-18626922D01*
X9549013Y-18777809D01*
X9607887Y-18919942D01*
X9693358Y-19047859D01*
X9802141Y-19156642D01*
X9930058Y-19242113D01*
X10072191Y-19300987D01*
X10223078Y-19331000D01*
X10376922Y-19331000D01*
X10527809Y-19300987D01*
X10595186Y-19273078D01*
X28169000Y-19273078D01*
X28169000Y-19426922D01*
X28199013Y-19577809D01*
X28257887Y-19719942D01*
X28343358Y-19847859D01*
X28452141Y-19956642D01*
X28580058Y-20042113D01*
X28722191Y-20100987D01*
X28873078Y-20131000D01*
X29026922Y-20131000D01*
X29177809Y-20100987D01*
X29319942Y-20042113D01*
X29447859Y-19956642D01*
X29556642Y-19847859D01*
X29642113Y-19719942D01*
X29700987Y-19577809D01*
X29731000Y-19426922D01*
X29731000Y-19273078D01*
X29701164Y-19123078D01*
X48918998Y-19123078D01*
X48918998Y-19276922D01*
X48949011Y-19427809D01*
X49007885Y-19569942D01*
X49093356Y-19697859D01*
X49202139Y-19806642D01*
X49330056Y-19892113D01*
X49472189Y-19950987D01*
X49623076Y-19981000D01*
X49776920Y-19981000D01*
X49927807Y-19950987D01*
X50069940Y-19892113D01*
X50197857Y-19806642D01*
X50306640Y-19697859D01*
X50392111Y-19569942D01*
X50450985Y-19427809D01*
X50467130Y-19346641D01*
X50552141Y-19431652D01*
X50680058Y-19517123D01*
X50822191Y-19575997D01*
X50973078Y-19606010D01*
X51126922Y-19606010D01*
X51277809Y-19575997D01*
X51419942Y-19517123D01*
X51547859Y-19431652D01*
X51656642Y-19322869D01*
X51742113Y-19194952D01*
X51800987Y-19052819D01*
X51806902Y-19023078D01*
X56319000Y-19023078D01*
X56319000Y-19176922D01*
X56349013Y-19327809D01*
X56407887Y-19469942D01*
X56493358Y-19597859D01*
X56602141Y-19706642D01*
X56730058Y-19792113D01*
X56872191Y-19850987D01*
X57023078Y-19881000D01*
X57176922Y-19881000D01*
X57327809Y-19850987D01*
X57469942Y-19792113D01*
X57597859Y-19706642D01*
X57706642Y-19597859D01*
X57792113Y-19469942D01*
X57850987Y-19327809D01*
X57881000Y-19176922D01*
X57881000Y-19023078D01*
X57850987Y-18872191D01*
X57792113Y-18730058D01*
X57706642Y-18602141D01*
X57597859Y-18493358D01*
X57530093Y-18448078D01*
X64619000Y-18448078D01*
X64619000Y-18601922D01*
X64649013Y-18752809D01*
X64707887Y-18894942D01*
X64793358Y-19022859D01*
X64902141Y-19131642D01*
X65030058Y-19217113D01*
X65172191Y-19275987D01*
X65323078Y-19306000D01*
X65476922Y-19306000D01*
X65627809Y-19275987D01*
X65769942Y-19217113D01*
X65897859Y-19131642D01*
X65950000Y-19079501D01*
X66002141Y-19131642D01*
X66130058Y-19217113D01*
X66272191Y-19275987D01*
X66423078Y-19306000D01*
X66576922Y-19306000D01*
X66727809Y-19275987D01*
X66869942Y-19217113D01*
X66997859Y-19131642D01*
X67106642Y-19022859D01*
X67192113Y-18894942D01*
X67250987Y-18752809D01*
X67281000Y-18601922D01*
X67281000Y-18448078D01*
X67250987Y-18297191D01*
X67192113Y-18155058D01*
X67106642Y-18027141D01*
X67002579Y-17923078D01*
X67469000Y-17923078D01*
X67469000Y-18076922D01*
X67499013Y-18227809D01*
X67557887Y-18369942D01*
X67643358Y-18497859D01*
X67670499Y-18525000D01*
X67643358Y-18552141D01*
X67557887Y-18680058D01*
X67499013Y-18822191D01*
X67469000Y-18973078D01*
X67469000Y-19126922D01*
X67499013Y-19277809D01*
X67557887Y-19419942D01*
X67643358Y-19547859D01*
X67752141Y-19656642D01*
X67880058Y-19742113D01*
X68022191Y-19800987D01*
X68173078Y-19831000D01*
X68326922Y-19831000D01*
X68477809Y-19800987D01*
X68619942Y-19742113D01*
X68747859Y-19656642D01*
X68856642Y-19547859D01*
X68942113Y-19419942D01*
X69000987Y-19277809D01*
X69031000Y-19126922D01*
X69031000Y-18973078D01*
X69000987Y-18822191D01*
X68942113Y-18680058D01*
X68856642Y-18552141D01*
X68829501Y-18525000D01*
X68856642Y-18497859D01*
X68942113Y-18369942D01*
X69000987Y-18227809D01*
X69031000Y-18076922D01*
X69031000Y-17923078D01*
X69000987Y-17772191D01*
X68942113Y-17630058D01*
X68856642Y-17502141D01*
X68747859Y-17393358D01*
X68619942Y-17307887D01*
X68477809Y-17249013D01*
X68326922Y-17219000D01*
X68173078Y-17219000D01*
X68022191Y-17249013D01*
X67880058Y-17307887D01*
X67752141Y-17393358D01*
X67643358Y-17502141D01*
X67557887Y-17630058D01*
X67499013Y-17772191D01*
X67469000Y-17923078D01*
X67002579Y-17923078D01*
X66997859Y-17918358D01*
X66869942Y-17832887D01*
X66727809Y-17774013D01*
X66576922Y-17744000D01*
X66423078Y-17744000D01*
X66272191Y-17774013D01*
X66130058Y-17832887D01*
X66002141Y-17918358D01*
X65950000Y-17970499D01*
X65897859Y-17918358D01*
X65769942Y-17832887D01*
X65627809Y-17774013D01*
X65476922Y-17744000D01*
X65323078Y-17744000D01*
X65172191Y-17774013D01*
X65030058Y-17832887D01*
X64902141Y-17918358D01*
X64793358Y-18027141D01*
X64707887Y-18155058D01*
X64649013Y-18297191D01*
X64619000Y-18448078D01*
X57530093Y-18448078D01*
X57469942Y-18407887D01*
X57327809Y-18349013D01*
X57176922Y-18319000D01*
X57023078Y-18319000D01*
X56872191Y-18349013D01*
X56730058Y-18407887D01*
X56602141Y-18493358D01*
X56493358Y-18602141D01*
X56407887Y-18730058D01*
X56349013Y-18872191D01*
X56319000Y-19023078D01*
X51806902Y-19023078D01*
X51831000Y-18901932D01*
X51831000Y-18748088D01*
X51800987Y-18597201D01*
X51742113Y-18455068D01*
X51656642Y-18327151D01*
X51547859Y-18218368D01*
X51419942Y-18132897D01*
X51277809Y-18074023D01*
X51126922Y-18044010D01*
X50973078Y-18044010D01*
X50822191Y-18074023D01*
X50680058Y-18132897D01*
X50552141Y-18218368D01*
X50443358Y-18327151D01*
X50357887Y-18455068D01*
X50299013Y-18597201D01*
X50282868Y-18678369D01*
X50197857Y-18593358D01*
X50069940Y-18507887D01*
X49927807Y-18449013D01*
X49776920Y-18419000D01*
X49623076Y-18419000D01*
X49472189Y-18449013D01*
X49330056Y-18507887D01*
X49202139Y-18593358D01*
X49093356Y-18702141D01*
X49007885Y-18830058D01*
X48949011Y-18972191D01*
X48918998Y-19123078D01*
X29701164Y-19123078D01*
X29700987Y-19122191D01*
X29642113Y-18980058D01*
X29556642Y-18852141D01*
X29447859Y-18743358D01*
X29319942Y-18657887D01*
X29177809Y-18599013D01*
X29026922Y-18569000D01*
X28873078Y-18569000D01*
X28722191Y-18599013D01*
X28580058Y-18657887D01*
X28452141Y-18743358D01*
X28343358Y-18852141D01*
X28257887Y-18980058D01*
X28199013Y-19122191D01*
X28169000Y-19273078D01*
X10595186Y-19273078D01*
X10669942Y-19242113D01*
X10797859Y-19156642D01*
X10906642Y-19047859D01*
X10992113Y-18919942D01*
X11050987Y-18777809D01*
X11081000Y-18626922D01*
X11081000Y-18473078D01*
X11050987Y-18322191D01*
X11030644Y-18273078D01*
X14319000Y-18273078D01*
X14319000Y-18426922D01*
X14349013Y-18577809D01*
X14407887Y-18719942D01*
X14493358Y-18847859D01*
X14602141Y-18956642D01*
X14730058Y-19042113D01*
X14872191Y-19100987D01*
X15023078Y-19131000D01*
X15176922Y-19131000D01*
X15327809Y-19100987D01*
X15469942Y-19042113D01*
X15597859Y-18956642D01*
X15706642Y-18847859D01*
X15792113Y-18719942D01*
X15850987Y-18577809D01*
X15881000Y-18426922D01*
X15881000Y-18273078D01*
X15850987Y-18122191D01*
X15792113Y-17980058D01*
X15706642Y-17852141D01*
X15597859Y-17743358D01*
X15469942Y-17657887D01*
X15327809Y-17599013D01*
X15176922Y-17569000D01*
X15023078Y-17569000D01*
X14872191Y-17599013D01*
X14730058Y-17657887D01*
X14602141Y-17743358D01*
X14493358Y-17852141D01*
X14407887Y-17980058D01*
X14349013Y-18122191D01*
X14319000Y-18273078D01*
X11030644Y-18273078D01*
X10992113Y-18180058D01*
X10906642Y-18052141D01*
X10797859Y-17943358D01*
X10669942Y-17857887D01*
X10527809Y-17799013D01*
X10376922Y-17769000D01*
X10223078Y-17769000D01*
X10072191Y-17799013D01*
X9930058Y-17857887D01*
X9802141Y-17943358D01*
X9693358Y-18052141D01*
X9607887Y-18180058D01*
X9549013Y-18322191D01*
X9519000Y-18473078D01*
X6927000Y-18473078D01*
X6927000Y-16740070D01*
X6930058Y-16742113D01*
X7072191Y-16800987D01*
X7223078Y-16831000D01*
X7376922Y-16831000D01*
X7527809Y-16800987D01*
X7669942Y-16742113D01*
X7797859Y-16656642D01*
X7906642Y-16547859D01*
X7992113Y-16419942D01*
X8050987Y-16277809D01*
X8081000Y-16126922D01*
X8081000Y-16123078D01*
X16069000Y-16123078D01*
X16069000Y-16276922D01*
X16099013Y-16427809D01*
X16157887Y-16569942D01*
X16243358Y-16697859D01*
X16352141Y-16806642D01*
X16480058Y-16892113D01*
X16622191Y-16950987D01*
X16773078Y-16981000D01*
X16926922Y-16981000D01*
X17077809Y-16950987D01*
X17219942Y-16892113D01*
X17347859Y-16806642D01*
X17456642Y-16697859D01*
X17542113Y-16569942D01*
X17600987Y-16427809D01*
X17631000Y-16276922D01*
X17631000Y-16123078D01*
X17600987Y-15972191D01*
X17542113Y-15830058D01*
X17456642Y-15702141D01*
X17347859Y-15593358D01*
X17219942Y-15507887D01*
X17077809Y-15449013D01*
X16926922Y-15419000D01*
X16773078Y-15419000D01*
X16622191Y-15449013D01*
X16480058Y-15507887D01*
X16352141Y-15593358D01*
X16243358Y-15702141D01*
X16157887Y-15830058D01*
X16099013Y-15972191D01*
X16069000Y-16123078D01*
X8081000Y-16123078D01*
X8081000Y-15973078D01*
X8050987Y-15822191D01*
X7992113Y-15680058D01*
X7906642Y-15552141D01*
X7797859Y-15443358D01*
X7669942Y-15357887D01*
X7527809Y-15299013D01*
X7376922Y-15269000D01*
X7223078Y-15269000D01*
X7072191Y-15299013D01*
X6930058Y-15357887D01*
X6927000Y-15359930D01*
X6927000Y-14223078D01*
X14769000Y-14223078D01*
X14769000Y-14376922D01*
X14799013Y-14527809D01*
X14857887Y-14669942D01*
X14943358Y-14797859D01*
X14945499Y-14800000D01*
X14943358Y-14802141D01*
X14857887Y-14930058D01*
X14799013Y-15072191D01*
X14769000Y-15223078D01*
X14769000Y-15376922D01*
X14799013Y-15527809D01*
X14857887Y-15669942D01*
X14943358Y-15797859D01*
X15052141Y-15906642D01*
X15180058Y-15992113D01*
X15322191Y-16050987D01*
X15473078Y-16081000D01*
X15626922Y-16081000D01*
X15777809Y-16050987D01*
X15919942Y-15992113D01*
X16047859Y-15906642D01*
X16156642Y-15797859D01*
X16242113Y-15669942D01*
X16300987Y-15527809D01*
X16331000Y-15376922D01*
X16331000Y-15223078D01*
X16300987Y-15072191D01*
X16280644Y-15023078D01*
X25219000Y-15023078D01*
X25219000Y-15176922D01*
X25249013Y-15327809D01*
X25307887Y-15469942D01*
X25393358Y-15597859D01*
X25502141Y-15706642D01*
X25630058Y-15792113D01*
X25772191Y-15850987D01*
X25831012Y-15862687D01*
X25819000Y-15923078D01*
X25819000Y-16076922D01*
X25849013Y-16227809D01*
X25907887Y-16369942D01*
X25993358Y-16497859D01*
X26102141Y-16606642D01*
X26230058Y-16692113D01*
X26372191Y-16750987D01*
X26523078Y-16781000D01*
X26676922Y-16781000D01*
X26827809Y-16750987D01*
X26969942Y-16692113D01*
X27097859Y-16606642D01*
X27206642Y-16497859D01*
X27292113Y-16369942D01*
X27350987Y-16227809D01*
X27381000Y-16076922D01*
X27381000Y-15923078D01*
X27368988Y-15862687D01*
X27427809Y-15850987D01*
X27569942Y-15792113D01*
X27673260Y-15723078D01*
X35269000Y-15723078D01*
X35269000Y-15876922D01*
X35299013Y-16027809D01*
X35357887Y-16169942D01*
X35443358Y-16297859D01*
X35552141Y-16406642D01*
X35579616Y-16425000D01*
X35552141Y-16443358D01*
X35443358Y-16552141D01*
X35357887Y-16680058D01*
X35299013Y-16822191D01*
X35269000Y-16973078D01*
X35269000Y-17126922D01*
X35299013Y-17277809D01*
X35357887Y-17419942D01*
X35443358Y-17547859D01*
X35552141Y-17656642D01*
X35680058Y-17742113D01*
X35822191Y-17800987D01*
X35973078Y-17831000D01*
X36126922Y-17831000D01*
X36277809Y-17800987D01*
X36419942Y-17742113D01*
X36547859Y-17656642D01*
X36656642Y-17547859D01*
X36675000Y-17520384D01*
X36693358Y-17547859D01*
X36802141Y-17656642D01*
X36930058Y-17742113D01*
X37072191Y-17800987D01*
X37223078Y-17831000D01*
X37376922Y-17831000D01*
X37527809Y-17800987D01*
X37669942Y-17742113D01*
X37797859Y-17656642D01*
X37906642Y-17547859D01*
X37992113Y-17419942D01*
X38050987Y-17277809D01*
X38081000Y-17126922D01*
X38081000Y-16973078D01*
X38050987Y-16822191D01*
X37992113Y-16680058D01*
X37906642Y-16552141D01*
X37797859Y-16443358D01*
X37770384Y-16425000D01*
X37797859Y-16406642D01*
X37906642Y-16297859D01*
X37992113Y-16169942D01*
X38050987Y-16027809D01*
X38081000Y-15876922D01*
X38081000Y-15723078D01*
X38050987Y-15572191D01*
X37992113Y-15430058D01*
X37906642Y-15302141D01*
X37797859Y-15193358D01*
X37669942Y-15107887D01*
X37527809Y-15049013D01*
X37376922Y-15019000D01*
X37223078Y-15019000D01*
X37072191Y-15049013D01*
X36930058Y-15107887D01*
X36802141Y-15193358D01*
X36693358Y-15302141D01*
X36675000Y-15329616D01*
X36656642Y-15302141D01*
X36547859Y-15193358D01*
X36419942Y-15107887D01*
X36277809Y-15049013D01*
X36126922Y-15019000D01*
X35973078Y-15019000D01*
X35822191Y-15049013D01*
X35680058Y-15107887D01*
X35552141Y-15193358D01*
X35443358Y-15302141D01*
X35357887Y-15430058D01*
X35299013Y-15572191D01*
X35269000Y-15723078D01*
X27673260Y-15723078D01*
X27697859Y-15706642D01*
X27806642Y-15597859D01*
X27892113Y-15469942D01*
X27950987Y-15327809D01*
X27981000Y-15176922D01*
X27981000Y-15023078D01*
X27950987Y-14872191D01*
X27892113Y-14730058D01*
X27806642Y-14602141D01*
X27697859Y-14493358D01*
X27569942Y-14407887D01*
X27427809Y-14349013D01*
X27276922Y-14319000D01*
X27123078Y-14319000D01*
X26972191Y-14349013D01*
X26830058Y-14407887D01*
X26702141Y-14493358D01*
X26600000Y-14595499D01*
X26497859Y-14493358D01*
X26369942Y-14407887D01*
X26227809Y-14349013D01*
X26076922Y-14319000D01*
X25923078Y-14319000D01*
X25772191Y-14349013D01*
X25630058Y-14407887D01*
X25502141Y-14493358D01*
X25393358Y-14602141D01*
X25307887Y-14730058D01*
X25249013Y-14872191D01*
X25219000Y-15023078D01*
X16280644Y-15023078D01*
X16242113Y-14930058D01*
X16156642Y-14802141D01*
X16154501Y-14800000D01*
X16156642Y-14797859D01*
X16242113Y-14669942D01*
X16300987Y-14527809D01*
X16331000Y-14376922D01*
X16331000Y-14223078D01*
X43769000Y-14223078D01*
X43769000Y-14376922D01*
X43799013Y-14527809D01*
X43857887Y-14669942D01*
X43943358Y-14797859D01*
X43945499Y-14800000D01*
X43943358Y-14802141D01*
X43857887Y-14930058D01*
X43799013Y-15072191D01*
X43769000Y-15223078D01*
X43769000Y-15376922D01*
X43799013Y-15527809D01*
X43857887Y-15669942D01*
X43943358Y-15797859D01*
X44052141Y-15906642D01*
X44180058Y-15992113D01*
X44322191Y-16050987D01*
X44473078Y-16081000D01*
X44626922Y-16081000D01*
X44777809Y-16050987D01*
X44919942Y-15992113D01*
X45047859Y-15906642D01*
X45156642Y-15797859D01*
X45242113Y-15669942D01*
X45300987Y-15527809D01*
X45331000Y-15376922D01*
X45331000Y-15223078D01*
X45311109Y-15123078D01*
X48619000Y-15123078D01*
X48619000Y-15276922D01*
X48649013Y-15427809D01*
X48707887Y-15569942D01*
X48793358Y-15697859D01*
X48845499Y-15750000D01*
X48793358Y-15802141D01*
X48707887Y-15930058D01*
X48649013Y-16072191D01*
X48619000Y-16223078D01*
X48619000Y-16376922D01*
X48649013Y-16527809D01*
X48707887Y-16669942D01*
X48793358Y-16797859D01*
X48902141Y-16906642D01*
X49030058Y-16992113D01*
X49172191Y-17050987D01*
X49323078Y-17081000D01*
X49476922Y-17081000D01*
X49627809Y-17050987D01*
X49769942Y-16992113D01*
X49897859Y-16906642D01*
X50006642Y-16797859D01*
X50092113Y-16669942D01*
X50150987Y-16527809D01*
X50181000Y-16376922D01*
X50181000Y-16223078D01*
X50150987Y-16072191D01*
X50092113Y-15930058D01*
X50006642Y-15802141D01*
X49954501Y-15750000D01*
X50006642Y-15697859D01*
X50092113Y-15569942D01*
X50150987Y-15427809D01*
X50181000Y-15276922D01*
X50181000Y-15123078D01*
X50151164Y-14973078D01*
X50418997Y-14973078D01*
X50418997Y-15126922D01*
X50449010Y-15277809D01*
X50507884Y-15419942D01*
X50593355Y-15547859D01*
X50702138Y-15656642D01*
X50830055Y-15742113D01*
X50972188Y-15800987D01*
X51123075Y-15831000D01*
X51276919Y-15831000D01*
X51427806Y-15800987D01*
X51569939Y-15742113D01*
X51697856Y-15656642D01*
X51806639Y-15547859D01*
X51892110Y-15419942D01*
X51906360Y-15385541D01*
X51939801Y-15418982D01*
X52067718Y-15504453D01*
X52209851Y-15563327D01*
X52360738Y-15593340D01*
X52514582Y-15593340D01*
X52665469Y-15563327D01*
X52807602Y-15504453D01*
X52935519Y-15418982D01*
X53044302Y-15310199D01*
X53129773Y-15182282D01*
X53188647Y-15040149D01*
X53218660Y-14889262D01*
X53218660Y-14735418D01*
X53211615Y-14700000D01*
X68642157Y-14700000D01*
X68642157Y-15900000D01*
X68654317Y-16023462D01*
X68690329Y-16142179D01*
X68748810Y-16251589D01*
X68827512Y-16347488D01*
X68923411Y-16426190D01*
X69032821Y-16484671D01*
X69151538Y-16520683D01*
X69275000Y-16532843D01*
X70725000Y-16532843D01*
X70848462Y-16520683D01*
X70967179Y-16484671D01*
X71076589Y-16426190D01*
X71172488Y-16347488D01*
X71251190Y-16251589D01*
X71309671Y-16142179D01*
X71345683Y-16023462D01*
X71357843Y-15900000D01*
X71357843Y-14700000D01*
X71345683Y-14576538D01*
X71309671Y-14457821D01*
X71251190Y-14348411D01*
X71172488Y-14252512D01*
X71076589Y-14173810D01*
X70967179Y-14115329D01*
X70848462Y-14079317D01*
X70725000Y-14067157D01*
X69275000Y-14067157D01*
X69151538Y-14079317D01*
X69032821Y-14115329D01*
X68923411Y-14173810D01*
X68827512Y-14252512D01*
X68748810Y-14348411D01*
X68690329Y-14457821D01*
X68654317Y-14576538D01*
X68642157Y-14700000D01*
X53211615Y-14700000D01*
X53188647Y-14584531D01*
X53129773Y-14442398D01*
X53044302Y-14314481D01*
X52935519Y-14205698D01*
X52807602Y-14120227D01*
X52665469Y-14061353D01*
X52514582Y-14031340D01*
X52360738Y-14031340D01*
X52209851Y-14061353D01*
X52067718Y-14120227D01*
X51939801Y-14205698D01*
X51831018Y-14314481D01*
X51745547Y-14442398D01*
X51731297Y-14476799D01*
X51697856Y-14443358D01*
X51569939Y-14357887D01*
X51427806Y-14299013D01*
X51276919Y-14269000D01*
X51123075Y-14269000D01*
X50972188Y-14299013D01*
X50830055Y-14357887D01*
X50702138Y-14443358D01*
X50593355Y-14552141D01*
X50507884Y-14680058D01*
X50449010Y-14822191D01*
X50418997Y-14973078D01*
X50151164Y-14973078D01*
X50150987Y-14972191D01*
X50092113Y-14830058D01*
X50006642Y-14702141D01*
X49897859Y-14593358D01*
X49769942Y-14507887D01*
X49627809Y-14449013D01*
X49476922Y-14419000D01*
X49323078Y-14419000D01*
X49172191Y-14449013D01*
X49030058Y-14507887D01*
X48902141Y-14593358D01*
X48793358Y-14702141D01*
X48707887Y-14830058D01*
X48649013Y-14972191D01*
X48619000Y-15123078D01*
X45311109Y-15123078D01*
X45300987Y-15072191D01*
X45242113Y-14930058D01*
X45156642Y-14802141D01*
X45154501Y-14800000D01*
X45156642Y-14797859D01*
X45242113Y-14669942D01*
X45300987Y-14527809D01*
X45331000Y-14376922D01*
X45331000Y-14223078D01*
X45300987Y-14072191D01*
X45242113Y-13930058D01*
X45156642Y-13802141D01*
X45047859Y-13693358D01*
X44919942Y-13607887D01*
X44777809Y-13549013D01*
X44626922Y-13519000D01*
X44473078Y-13519000D01*
X44322191Y-13549013D01*
X44180058Y-13607887D01*
X44052141Y-13693358D01*
X43943358Y-13802141D01*
X43857887Y-13930058D01*
X43799013Y-14072191D01*
X43769000Y-14223078D01*
X16331000Y-14223078D01*
X16300987Y-14072191D01*
X16242113Y-13930058D01*
X16156642Y-13802141D01*
X16047859Y-13693358D01*
X15919942Y-13607887D01*
X15777809Y-13549013D01*
X15626922Y-13519000D01*
X15473078Y-13519000D01*
X15322191Y-13549013D01*
X15180058Y-13607887D01*
X15052141Y-13693358D01*
X14943358Y-13802141D01*
X14857887Y-13930058D01*
X14799013Y-14072191D01*
X14769000Y-14223078D01*
X6927000Y-14223078D01*
X6927000Y-12073078D01*
X56969000Y-12073078D01*
X56969000Y-12226922D01*
X56999013Y-12377809D01*
X57057887Y-12519942D01*
X57143358Y-12647859D01*
X57252141Y-12756642D01*
X57380058Y-12842113D01*
X57522191Y-12900987D01*
X57673078Y-12931000D01*
X57826922Y-12931000D01*
X57977809Y-12900987D01*
X58119942Y-12842113D01*
X58247859Y-12756642D01*
X58356642Y-12647859D01*
X58442113Y-12519942D01*
X58500987Y-12377809D01*
X58531000Y-12226922D01*
X58531000Y-12073078D01*
X58500987Y-11922191D01*
X58442113Y-11780058D01*
X58356642Y-11652141D01*
X58247859Y-11543358D01*
X58119942Y-11457887D01*
X57977809Y-11399013D01*
X57826922Y-11369000D01*
X57673078Y-11369000D01*
X57522191Y-11399013D01*
X57380058Y-11457887D01*
X57252141Y-11543358D01*
X57143358Y-11652141D01*
X57057887Y-11780058D01*
X56999013Y-11922191D01*
X56969000Y-12073078D01*
X6927000Y-12073078D01*
X6927000Y-11927000D01*
X11800000Y-11927000D01*
X11824776Y-11924560D01*
X11848601Y-11917333D01*
X11870557Y-11905597D01*
X11889803Y-11889803D01*
X11905597Y-11870557D01*
X11917333Y-11848601D01*
X11924560Y-11824776D01*
X11927000Y-11800000D01*
X11927000Y-10300000D01*
X68638044Y-10300000D01*
X68661812Y-10541318D01*
X68732202Y-10773363D01*
X68846509Y-10987216D01*
X69000340Y-11174660D01*
X69187784Y-11328491D01*
X69401637Y-11442798D01*
X69633682Y-11513188D01*
X69814528Y-11531000D01*
X70185472Y-11531000D01*
X70366318Y-11513188D01*
X70598363Y-11442798D01*
X70812216Y-11328491D01*
X70999660Y-11174660D01*
X71153491Y-10987216D01*
X71267798Y-10773363D01*
X71338188Y-10541318D01*
X71361956Y-10300000D01*
X71338188Y-10058682D01*
X71267798Y-9826637D01*
X71153491Y-9612784D01*
X70999660Y-9425340D01*
X70812216Y-9271509D01*
X70598363Y-9157202D01*
X70366318Y-9086812D01*
X70185472Y-9069000D01*
X69814528Y-9069000D01*
X69633682Y-9086812D01*
X69401637Y-9157202D01*
X69187784Y-9271509D01*
X69000340Y-9425340D01*
X68846509Y-9612784D01*
X68732202Y-9826637D01*
X68661812Y-10058682D01*
X68638044Y-10300000D01*
X11927000Y-10300000D01*
X11927000Y-7800000D01*
X68638044Y-7800000D01*
X68661812Y-8041318D01*
X68732202Y-8273363D01*
X68846509Y-8487216D01*
X69000340Y-8674660D01*
X69187784Y-8828491D01*
X69401637Y-8942798D01*
X69633682Y-9013188D01*
X69814528Y-9031000D01*
X70185472Y-9031000D01*
X70366318Y-9013188D01*
X70598363Y-8942798D01*
X70812216Y-8828491D01*
X70999660Y-8674660D01*
X71153491Y-8487216D01*
X71267798Y-8273363D01*
X71338188Y-8041318D01*
X71361956Y-7800000D01*
X71338188Y-7558682D01*
X71267798Y-7326637D01*
X71153491Y-7112784D01*
X70999660Y-6925340D01*
X70812216Y-6771509D01*
X70598363Y-6657202D01*
X70366318Y-6586812D01*
X70185472Y-6569000D01*
X69814528Y-6569000D01*
X69633682Y-6586812D01*
X69401637Y-6657202D01*
X69187784Y-6771509D01*
X69000340Y-6925340D01*
X68846509Y-7112784D01*
X68732202Y-7326637D01*
X68661812Y-7558682D01*
X68638044Y-7800000D01*
X11927000Y-7800000D01*
X11927000Y-6427000D01*
X74423000Y-6427000D01*
X74423000Y-13050000D01*
M02*
