G04 #@! TF.GenerationSoftware,KiCad,Pcbnew,(5.1.2)-2*
G04 #@! TF.CreationDate,2020-04-08T13:50:03-07:00*
G04 #@! TF.ProjectId,flatmcu,666c6174-6d63-4752-9e6b-696361645f70,rev?*
G04 #@! TF.SameCoordinates,PX1312d00PY1312d00*
G04 #@! TF.FileFunction,Copper,L4,Bot*
G04 #@! TF.FilePolarity,Positive*
%FSLAX46Y46*%
G04 Gerber Fmt 4.6, Leading zero omitted, Abs format (unit mm)*
G04 Created by KiCad (PCBNEW (5.1.2)-2) date 2020-04-08 13:50:03*
%MOMM*%
%LPD*%
G04 APERTURE LIST*
%ADD10R,0.850000X0.850000*%
%ADD11C,0.575000*%
%ADD12C,0.100000*%
%ADD13C,1.200000*%
%ADD14C,0.600000*%
%ADD15C,1.600000*%
%ADD16O,1.950000X1.700000*%
%ADD17C,1.700000*%
%ADD18C,0.875000*%
%ADD19R,1.000000X1.500000*%
%ADD20R,5.000000X10.000000*%
%ADD21R,10.000000X5.000000*%
%ADD22C,0.800000*%
%ADD23C,0.250000*%
%ADD24C,0.350000*%
%ADD25C,0.500000*%
%ADD26C,0.254000*%
G04 APERTURE END LIST*
D10*
X70900000Y-31400000D03*
X73400000Y-31400000D03*
X73400000Y-33900000D03*
D11*
X32775000Y-33109875D03*
X32775000Y-31866125D03*
X31625000Y-34353625D03*
X31625000Y-33109875D03*
X31625000Y-31866125D03*
X31625000Y-30622375D03*
X30475000Y-34353625D03*
X30475000Y-33109875D03*
X30475000Y-31866125D03*
X30475000Y-30622375D03*
X29325000Y-33109875D03*
X29325000Y-31866125D03*
D12*
G36*
X63424505Y-5876204D02*
G01*
X63448773Y-5879804D01*
X63472572Y-5885765D01*
X63495671Y-5894030D01*
X63517850Y-5904520D01*
X63538893Y-5917132D01*
X63558599Y-5931747D01*
X63576777Y-5948223D01*
X63593253Y-5966401D01*
X63607868Y-5986107D01*
X63620480Y-6007150D01*
X63630970Y-6029329D01*
X63639235Y-6052428D01*
X63645196Y-6076227D01*
X63648796Y-6100495D01*
X63650000Y-6124999D01*
X63650000Y-7425001D01*
X63648796Y-7449505D01*
X63645196Y-7473773D01*
X63639235Y-7497572D01*
X63630970Y-7520671D01*
X63620480Y-7542850D01*
X63607868Y-7563893D01*
X63593253Y-7583599D01*
X63576777Y-7601777D01*
X63558599Y-7618253D01*
X63538893Y-7632868D01*
X63517850Y-7645480D01*
X63495671Y-7655970D01*
X63472572Y-7664235D01*
X63448773Y-7670196D01*
X63424505Y-7673796D01*
X63400001Y-7675000D01*
X62699999Y-7675000D01*
X62675495Y-7673796D01*
X62651227Y-7670196D01*
X62627428Y-7664235D01*
X62604329Y-7655970D01*
X62582150Y-7645480D01*
X62561107Y-7632868D01*
X62541401Y-7618253D01*
X62523223Y-7601777D01*
X62506747Y-7583599D01*
X62492132Y-7563893D01*
X62479520Y-7542850D01*
X62469030Y-7520671D01*
X62460765Y-7497572D01*
X62454804Y-7473773D01*
X62451204Y-7449505D01*
X62450000Y-7425001D01*
X62450000Y-6124999D01*
X62451204Y-6100495D01*
X62454804Y-6076227D01*
X62460765Y-6052428D01*
X62469030Y-6029329D01*
X62479520Y-6007150D01*
X62492132Y-5986107D01*
X62506747Y-5966401D01*
X62523223Y-5948223D01*
X62541401Y-5931747D01*
X62561107Y-5917132D01*
X62582150Y-5904520D01*
X62604329Y-5894030D01*
X62627428Y-5885765D01*
X62651227Y-5879804D01*
X62675495Y-5876204D01*
X62699999Y-5875000D01*
X63400001Y-5875000D01*
X63424505Y-5876204D01*
X63424505Y-5876204D01*
G37*
D13*
X63050000Y-6775000D03*
D12*
G36*
X56824505Y-5876204D02*
G01*
X56848773Y-5879804D01*
X56872572Y-5885765D01*
X56895671Y-5894030D01*
X56917850Y-5904520D01*
X56938893Y-5917132D01*
X56958599Y-5931747D01*
X56976777Y-5948223D01*
X56993253Y-5966401D01*
X57007868Y-5986107D01*
X57020480Y-6007150D01*
X57030970Y-6029329D01*
X57039235Y-6052428D01*
X57045196Y-6076227D01*
X57048796Y-6100495D01*
X57050000Y-6124999D01*
X57050000Y-7425001D01*
X57048796Y-7449505D01*
X57045196Y-7473773D01*
X57039235Y-7497572D01*
X57030970Y-7520671D01*
X57020480Y-7542850D01*
X57007868Y-7563893D01*
X56993253Y-7583599D01*
X56976777Y-7601777D01*
X56958599Y-7618253D01*
X56938893Y-7632868D01*
X56917850Y-7645480D01*
X56895671Y-7655970D01*
X56872572Y-7664235D01*
X56848773Y-7670196D01*
X56824505Y-7673796D01*
X56800001Y-7675000D01*
X56099999Y-7675000D01*
X56075495Y-7673796D01*
X56051227Y-7670196D01*
X56027428Y-7664235D01*
X56004329Y-7655970D01*
X55982150Y-7645480D01*
X55961107Y-7632868D01*
X55941401Y-7618253D01*
X55923223Y-7601777D01*
X55906747Y-7583599D01*
X55892132Y-7563893D01*
X55879520Y-7542850D01*
X55869030Y-7520671D01*
X55860765Y-7497572D01*
X55854804Y-7473773D01*
X55851204Y-7449505D01*
X55850000Y-7425001D01*
X55850000Y-6124999D01*
X55851204Y-6100495D01*
X55854804Y-6076227D01*
X55860765Y-6052428D01*
X55869030Y-6029329D01*
X55879520Y-6007150D01*
X55892132Y-5986107D01*
X55906747Y-5966401D01*
X55923223Y-5948223D01*
X55941401Y-5931747D01*
X55961107Y-5917132D01*
X55982150Y-5904520D01*
X56004329Y-5894030D01*
X56027428Y-5885765D01*
X56051227Y-5879804D01*
X56075495Y-5876204D01*
X56099999Y-5875000D01*
X56800001Y-5875000D01*
X56824505Y-5876204D01*
X56824505Y-5876204D01*
G37*
D13*
X56450000Y-6775000D03*
D12*
G36*
X61914703Y-9875722D02*
G01*
X61929264Y-9877882D01*
X61943543Y-9881459D01*
X61957403Y-9886418D01*
X61970710Y-9892712D01*
X61983336Y-9900280D01*
X61995159Y-9909048D01*
X62006066Y-9918934D01*
X62015952Y-9929841D01*
X62024720Y-9941664D01*
X62032288Y-9954290D01*
X62038582Y-9967597D01*
X62043541Y-9981457D01*
X62047118Y-9995736D01*
X62049278Y-10010297D01*
X62050000Y-10025000D01*
X62050000Y-11275000D01*
X62049278Y-11289703D01*
X62047118Y-11304264D01*
X62043541Y-11318543D01*
X62038582Y-11332403D01*
X62032288Y-11345710D01*
X62024720Y-11358336D01*
X62015952Y-11370159D01*
X62006066Y-11381066D01*
X61995159Y-11390952D01*
X61983336Y-11399720D01*
X61970710Y-11407288D01*
X61957403Y-11413582D01*
X61943543Y-11418541D01*
X61929264Y-11422118D01*
X61914703Y-11424278D01*
X61900000Y-11425000D01*
X61600000Y-11425000D01*
X61585297Y-11424278D01*
X61570736Y-11422118D01*
X61556457Y-11418541D01*
X61542597Y-11413582D01*
X61529290Y-11407288D01*
X61516664Y-11399720D01*
X61504841Y-11390952D01*
X61493934Y-11381066D01*
X61484048Y-11370159D01*
X61475280Y-11358336D01*
X61467712Y-11345710D01*
X61461418Y-11332403D01*
X61456459Y-11318543D01*
X61452882Y-11304264D01*
X61450722Y-11289703D01*
X61450000Y-11275000D01*
X61450000Y-10025000D01*
X61450722Y-10010297D01*
X61452882Y-9995736D01*
X61456459Y-9981457D01*
X61461418Y-9967597D01*
X61467712Y-9954290D01*
X61475280Y-9941664D01*
X61484048Y-9929841D01*
X61493934Y-9918934D01*
X61504841Y-9909048D01*
X61516664Y-9900280D01*
X61529290Y-9892712D01*
X61542597Y-9886418D01*
X61556457Y-9881459D01*
X61570736Y-9877882D01*
X61585297Y-9875722D01*
X61600000Y-9875000D01*
X61900000Y-9875000D01*
X61914703Y-9875722D01*
X61914703Y-9875722D01*
G37*
D14*
X61750000Y-10650000D03*
D12*
G36*
X60914703Y-9875722D02*
G01*
X60929264Y-9877882D01*
X60943543Y-9881459D01*
X60957403Y-9886418D01*
X60970710Y-9892712D01*
X60983336Y-9900280D01*
X60995159Y-9909048D01*
X61006066Y-9918934D01*
X61015952Y-9929841D01*
X61024720Y-9941664D01*
X61032288Y-9954290D01*
X61038582Y-9967597D01*
X61043541Y-9981457D01*
X61047118Y-9995736D01*
X61049278Y-10010297D01*
X61050000Y-10025000D01*
X61050000Y-11275000D01*
X61049278Y-11289703D01*
X61047118Y-11304264D01*
X61043541Y-11318543D01*
X61038582Y-11332403D01*
X61032288Y-11345710D01*
X61024720Y-11358336D01*
X61015952Y-11370159D01*
X61006066Y-11381066D01*
X60995159Y-11390952D01*
X60983336Y-11399720D01*
X60970710Y-11407288D01*
X60957403Y-11413582D01*
X60943543Y-11418541D01*
X60929264Y-11422118D01*
X60914703Y-11424278D01*
X60900000Y-11425000D01*
X60600000Y-11425000D01*
X60585297Y-11424278D01*
X60570736Y-11422118D01*
X60556457Y-11418541D01*
X60542597Y-11413582D01*
X60529290Y-11407288D01*
X60516664Y-11399720D01*
X60504841Y-11390952D01*
X60493934Y-11381066D01*
X60484048Y-11370159D01*
X60475280Y-11358336D01*
X60467712Y-11345710D01*
X60461418Y-11332403D01*
X60456459Y-11318543D01*
X60452882Y-11304264D01*
X60450722Y-11289703D01*
X60450000Y-11275000D01*
X60450000Y-10025000D01*
X60450722Y-10010297D01*
X60452882Y-9995736D01*
X60456459Y-9981457D01*
X60461418Y-9967597D01*
X60467712Y-9954290D01*
X60475280Y-9941664D01*
X60484048Y-9929841D01*
X60493934Y-9918934D01*
X60504841Y-9909048D01*
X60516664Y-9900280D01*
X60529290Y-9892712D01*
X60542597Y-9886418D01*
X60556457Y-9881459D01*
X60570736Y-9877882D01*
X60585297Y-9875722D01*
X60600000Y-9875000D01*
X60900000Y-9875000D01*
X60914703Y-9875722D01*
X60914703Y-9875722D01*
G37*
D14*
X60750000Y-10650000D03*
D12*
G36*
X59914703Y-9875722D02*
G01*
X59929264Y-9877882D01*
X59943543Y-9881459D01*
X59957403Y-9886418D01*
X59970710Y-9892712D01*
X59983336Y-9900280D01*
X59995159Y-9909048D01*
X60006066Y-9918934D01*
X60015952Y-9929841D01*
X60024720Y-9941664D01*
X60032288Y-9954290D01*
X60038582Y-9967597D01*
X60043541Y-9981457D01*
X60047118Y-9995736D01*
X60049278Y-10010297D01*
X60050000Y-10025000D01*
X60050000Y-11275000D01*
X60049278Y-11289703D01*
X60047118Y-11304264D01*
X60043541Y-11318543D01*
X60038582Y-11332403D01*
X60032288Y-11345710D01*
X60024720Y-11358336D01*
X60015952Y-11370159D01*
X60006066Y-11381066D01*
X59995159Y-11390952D01*
X59983336Y-11399720D01*
X59970710Y-11407288D01*
X59957403Y-11413582D01*
X59943543Y-11418541D01*
X59929264Y-11422118D01*
X59914703Y-11424278D01*
X59900000Y-11425000D01*
X59600000Y-11425000D01*
X59585297Y-11424278D01*
X59570736Y-11422118D01*
X59556457Y-11418541D01*
X59542597Y-11413582D01*
X59529290Y-11407288D01*
X59516664Y-11399720D01*
X59504841Y-11390952D01*
X59493934Y-11381066D01*
X59484048Y-11370159D01*
X59475280Y-11358336D01*
X59467712Y-11345710D01*
X59461418Y-11332403D01*
X59456459Y-11318543D01*
X59452882Y-11304264D01*
X59450722Y-11289703D01*
X59450000Y-11275000D01*
X59450000Y-10025000D01*
X59450722Y-10010297D01*
X59452882Y-9995736D01*
X59456459Y-9981457D01*
X59461418Y-9967597D01*
X59467712Y-9954290D01*
X59475280Y-9941664D01*
X59484048Y-9929841D01*
X59493934Y-9918934D01*
X59504841Y-9909048D01*
X59516664Y-9900280D01*
X59529290Y-9892712D01*
X59542597Y-9886418D01*
X59556457Y-9881459D01*
X59570736Y-9877882D01*
X59585297Y-9875722D01*
X59600000Y-9875000D01*
X59900000Y-9875000D01*
X59914703Y-9875722D01*
X59914703Y-9875722D01*
G37*
D14*
X59750000Y-10650000D03*
D12*
G36*
X58914703Y-9875722D02*
G01*
X58929264Y-9877882D01*
X58943543Y-9881459D01*
X58957403Y-9886418D01*
X58970710Y-9892712D01*
X58983336Y-9900280D01*
X58995159Y-9909048D01*
X59006066Y-9918934D01*
X59015952Y-9929841D01*
X59024720Y-9941664D01*
X59032288Y-9954290D01*
X59038582Y-9967597D01*
X59043541Y-9981457D01*
X59047118Y-9995736D01*
X59049278Y-10010297D01*
X59050000Y-10025000D01*
X59050000Y-11275000D01*
X59049278Y-11289703D01*
X59047118Y-11304264D01*
X59043541Y-11318543D01*
X59038582Y-11332403D01*
X59032288Y-11345710D01*
X59024720Y-11358336D01*
X59015952Y-11370159D01*
X59006066Y-11381066D01*
X58995159Y-11390952D01*
X58983336Y-11399720D01*
X58970710Y-11407288D01*
X58957403Y-11413582D01*
X58943543Y-11418541D01*
X58929264Y-11422118D01*
X58914703Y-11424278D01*
X58900000Y-11425000D01*
X58600000Y-11425000D01*
X58585297Y-11424278D01*
X58570736Y-11422118D01*
X58556457Y-11418541D01*
X58542597Y-11413582D01*
X58529290Y-11407288D01*
X58516664Y-11399720D01*
X58504841Y-11390952D01*
X58493934Y-11381066D01*
X58484048Y-11370159D01*
X58475280Y-11358336D01*
X58467712Y-11345710D01*
X58461418Y-11332403D01*
X58456459Y-11318543D01*
X58452882Y-11304264D01*
X58450722Y-11289703D01*
X58450000Y-11275000D01*
X58450000Y-10025000D01*
X58450722Y-10010297D01*
X58452882Y-9995736D01*
X58456459Y-9981457D01*
X58461418Y-9967597D01*
X58467712Y-9954290D01*
X58475280Y-9941664D01*
X58484048Y-9929841D01*
X58493934Y-9918934D01*
X58504841Y-9909048D01*
X58516664Y-9900280D01*
X58529290Y-9892712D01*
X58542597Y-9886418D01*
X58556457Y-9881459D01*
X58570736Y-9877882D01*
X58585297Y-9875722D01*
X58600000Y-9875000D01*
X58900000Y-9875000D01*
X58914703Y-9875722D01*
X58914703Y-9875722D01*
G37*
D14*
X58750000Y-10650000D03*
D12*
G36*
X57914703Y-9875722D02*
G01*
X57929264Y-9877882D01*
X57943543Y-9881459D01*
X57957403Y-9886418D01*
X57970710Y-9892712D01*
X57983336Y-9900280D01*
X57995159Y-9909048D01*
X58006066Y-9918934D01*
X58015952Y-9929841D01*
X58024720Y-9941664D01*
X58032288Y-9954290D01*
X58038582Y-9967597D01*
X58043541Y-9981457D01*
X58047118Y-9995736D01*
X58049278Y-10010297D01*
X58050000Y-10025000D01*
X58050000Y-11275000D01*
X58049278Y-11289703D01*
X58047118Y-11304264D01*
X58043541Y-11318543D01*
X58038582Y-11332403D01*
X58032288Y-11345710D01*
X58024720Y-11358336D01*
X58015952Y-11370159D01*
X58006066Y-11381066D01*
X57995159Y-11390952D01*
X57983336Y-11399720D01*
X57970710Y-11407288D01*
X57957403Y-11413582D01*
X57943543Y-11418541D01*
X57929264Y-11422118D01*
X57914703Y-11424278D01*
X57900000Y-11425000D01*
X57600000Y-11425000D01*
X57585297Y-11424278D01*
X57570736Y-11422118D01*
X57556457Y-11418541D01*
X57542597Y-11413582D01*
X57529290Y-11407288D01*
X57516664Y-11399720D01*
X57504841Y-11390952D01*
X57493934Y-11381066D01*
X57484048Y-11370159D01*
X57475280Y-11358336D01*
X57467712Y-11345710D01*
X57461418Y-11332403D01*
X57456459Y-11318543D01*
X57452882Y-11304264D01*
X57450722Y-11289703D01*
X57450000Y-11275000D01*
X57450000Y-10025000D01*
X57450722Y-10010297D01*
X57452882Y-9995736D01*
X57456459Y-9981457D01*
X57461418Y-9967597D01*
X57467712Y-9954290D01*
X57475280Y-9941664D01*
X57484048Y-9929841D01*
X57493934Y-9918934D01*
X57504841Y-9909048D01*
X57516664Y-9900280D01*
X57529290Y-9892712D01*
X57542597Y-9886418D01*
X57556457Y-9881459D01*
X57570736Y-9877882D01*
X57585297Y-9875722D01*
X57600000Y-9875000D01*
X57900000Y-9875000D01*
X57914703Y-9875722D01*
X57914703Y-9875722D01*
G37*
D14*
X57750000Y-10650000D03*
D15*
X54300000Y-6450000D03*
X47700000Y-6450000D03*
D16*
X79050000Y-38550000D03*
X79050000Y-41050000D03*
X79050000Y-43550000D03*
X79050000Y-46050000D03*
X79050000Y-48550000D03*
D12*
G36*
X79799504Y-50201204D02*
G01*
X79823773Y-50204804D01*
X79847571Y-50210765D01*
X79870671Y-50219030D01*
X79892849Y-50229520D01*
X79913893Y-50242133D01*
X79933598Y-50256747D01*
X79951777Y-50273223D01*
X79968253Y-50291402D01*
X79982867Y-50311107D01*
X79995480Y-50332151D01*
X80005970Y-50354329D01*
X80014235Y-50377429D01*
X80020196Y-50401227D01*
X80023796Y-50425496D01*
X80025000Y-50450000D01*
X80025000Y-51650000D01*
X80023796Y-51674504D01*
X80020196Y-51698773D01*
X80014235Y-51722571D01*
X80005970Y-51745671D01*
X79995480Y-51767849D01*
X79982867Y-51788893D01*
X79968253Y-51808598D01*
X79951777Y-51826777D01*
X79933598Y-51843253D01*
X79913893Y-51857867D01*
X79892849Y-51870480D01*
X79870671Y-51880970D01*
X79847571Y-51889235D01*
X79823773Y-51895196D01*
X79799504Y-51898796D01*
X79775000Y-51900000D01*
X78325000Y-51900000D01*
X78300496Y-51898796D01*
X78276227Y-51895196D01*
X78252429Y-51889235D01*
X78229329Y-51880970D01*
X78207151Y-51870480D01*
X78186107Y-51857867D01*
X78166402Y-51843253D01*
X78148223Y-51826777D01*
X78131747Y-51808598D01*
X78117133Y-51788893D01*
X78104520Y-51767849D01*
X78094030Y-51745671D01*
X78085765Y-51722571D01*
X78079804Y-51698773D01*
X78076204Y-51674504D01*
X78075000Y-51650000D01*
X78075000Y-50450000D01*
X78076204Y-50425496D01*
X78079804Y-50401227D01*
X78085765Y-50377429D01*
X78094030Y-50354329D01*
X78104520Y-50332151D01*
X78117133Y-50311107D01*
X78131747Y-50291402D01*
X78148223Y-50273223D01*
X78166402Y-50256747D01*
X78186107Y-50242133D01*
X78207151Y-50229520D01*
X78229329Y-50219030D01*
X78252429Y-50210765D01*
X78276227Y-50204804D01*
X78300496Y-50201204D01*
X78325000Y-50200000D01*
X79775000Y-50200000D01*
X79799504Y-50201204D01*
X79799504Y-50201204D01*
G37*
D17*
X79050000Y-51050000D03*
D12*
G36*
X65527691Y-8926053D02*
G01*
X65548926Y-8929203D01*
X65569750Y-8934419D01*
X65589962Y-8941651D01*
X65609368Y-8950830D01*
X65627781Y-8961866D01*
X65645024Y-8974654D01*
X65660930Y-8989070D01*
X65675346Y-9004976D01*
X65688134Y-9022219D01*
X65699170Y-9040632D01*
X65708349Y-9060038D01*
X65715581Y-9080250D01*
X65720797Y-9101074D01*
X65723947Y-9122309D01*
X65725000Y-9143750D01*
X65725000Y-9581250D01*
X65723947Y-9602691D01*
X65720797Y-9623926D01*
X65715581Y-9644750D01*
X65708349Y-9664962D01*
X65699170Y-9684368D01*
X65688134Y-9702781D01*
X65675346Y-9720024D01*
X65660930Y-9735930D01*
X65645024Y-9750346D01*
X65627781Y-9763134D01*
X65609368Y-9774170D01*
X65589962Y-9783349D01*
X65569750Y-9790581D01*
X65548926Y-9795797D01*
X65527691Y-9798947D01*
X65506250Y-9800000D01*
X64993750Y-9800000D01*
X64972309Y-9798947D01*
X64951074Y-9795797D01*
X64930250Y-9790581D01*
X64910038Y-9783349D01*
X64890632Y-9774170D01*
X64872219Y-9763134D01*
X64854976Y-9750346D01*
X64839070Y-9735930D01*
X64824654Y-9720024D01*
X64811866Y-9702781D01*
X64800830Y-9684368D01*
X64791651Y-9664962D01*
X64784419Y-9644750D01*
X64779203Y-9623926D01*
X64776053Y-9602691D01*
X64775000Y-9581250D01*
X64775000Y-9143750D01*
X64776053Y-9122309D01*
X64779203Y-9101074D01*
X64784419Y-9080250D01*
X64791651Y-9060038D01*
X64800830Y-9040632D01*
X64811866Y-9022219D01*
X64824654Y-9004976D01*
X64839070Y-8989070D01*
X64854976Y-8974654D01*
X64872219Y-8961866D01*
X64890632Y-8950830D01*
X64910038Y-8941651D01*
X64930250Y-8934419D01*
X64951074Y-8929203D01*
X64972309Y-8926053D01*
X64993750Y-8925000D01*
X65506250Y-8925000D01*
X65527691Y-8926053D01*
X65527691Y-8926053D01*
G37*
D18*
X65250000Y-9362500D03*
D12*
G36*
X65527691Y-10501053D02*
G01*
X65548926Y-10504203D01*
X65569750Y-10509419D01*
X65589962Y-10516651D01*
X65609368Y-10525830D01*
X65627781Y-10536866D01*
X65645024Y-10549654D01*
X65660930Y-10564070D01*
X65675346Y-10579976D01*
X65688134Y-10597219D01*
X65699170Y-10615632D01*
X65708349Y-10635038D01*
X65715581Y-10655250D01*
X65720797Y-10676074D01*
X65723947Y-10697309D01*
X65725000Y-10718750D01*
X65725000Y-11156250D01*
X65723947Y-11177691D01*
X65720797Y-11198926D01*
X65715581Y-11219750D01*
X65708349Y-11239962D01*
X65699170Y-11259368D01*
X65688134Y-11277781D01*
X65675346Y-11295024D01*
X65660930Y-11310930D01*
X65645024Y-11325346D01*
X65627781Y-11338134D01*
X65609368Y-11349170D01*
X65589962Y-11358349D01*
X65569750Y-11365581D01*
X65548926Y-11370797D01*
X65527691Y-11373947D01*
X65506250Y-11375000D01*
X64993750Y-11375000D01*
X64972309Y-11373947D01*
X64951074Y-11370797D01*
X64930250Y-11365581D01*
X64910038Y-11358349D01*
X64890632Y-11349170D01*
X64872219Y-11338134D01*
X64854976Y-11325346D01*
X64839070Y-11310930D01*
X64824654Y-11295024D01*
X64811866Y-11277781D01*
X64800830Y-11259368D01*
X64791651Y-11239962D01*
X64784419Y-11219750D01*
X64779203Y-11198926D01*
X64776053Y-11177691D01*
X64775000Y-11156250D01*
X64775000Y-10718750D01*
X64776053Y-10697309D01*
X64779203Y-10676074D01*
X64784419Y-10655250D01*
X64791651Y-10635038D01*
X64800830Y-10615632D01*
X64811866Y-10597219D01*
X64824654Y-10579976D01*
X64839070Y-10564070D01*
X64854976Y-10549654D01*
X64872219Y-10536866D01*
X64890632Y-10525830D01*
X64910038Y-10516651D01*
X64930250Y-10509419D01*
X64951074Y-10504203D01*
X64972309Y-10501053D01*
X64993750Y-10500000D01*
X65506250Y-10500000D01*
X65527691Y-10501053D01*
X65527691Y-10501053D01*
G37*
D18*
X65250000Y-10937500D03*
D19*
X67750000Y-21950000D03*
X69150000Y-21950000D03*
X67750000Y-25450000D03*
X69150000Y-25450000D03*
D12*
G36*
X70749504Y-63901204D02*
G01*
X70773773Y-63904804D01*
X70797571Y-63910765D01*
X70820671Y-63919030D01*
X70842849Y-63929520D01*
X70863893Y-63942133D01*
X70883598Y-63956747D01*
X70901777Y-63973223D01*
X70918253Y-63991402D01*
X70932867Y-64011107D01*
X70945480Y-64032151D01*
X70955970Y-64054329D01*
X70964235Y-64077429D01*
X70970196Y-64101227D01*
X70973796Y-64125496D01*
X70975000Y-64150000D01*
X70975000Y-65350000D01*
X70973796Y-65374504D01*
X70970196Y-65398773D01*
X70964235Y-65422571D01*
X70955970Y-65445671D01*
X70945480Y-65467849D01*
X70932867Y-65488893D01*
X70918253Y-65508598D01*
X70901777Y-65526777D01*
X70883598Y-65543253D01*
X70863893Y-65557867D01*
X70842849Y-65570480D01*
X70820671Y-65580970D01*
X70797571Y-65589235D01*
X70773773Y-65595196D01*
X70749504Y-65598796D01*
X70725000Y-65600000D01*
X69275000Y-65600000D01*
X69250496Y-65598796D01*
X69226227Y-65595196D01*
X69202429Y-65589235D01*
X69179329Y-65580970D01*
X69157151Y-65570480D01*
X69136107Y-65557867D01*
X69116402Y-65543253D01*
X69098223Y-65526777D01*
X69081747Y-65508598D01*
X69067133Y-65488893D01*
X69054520Y-65467849D01*
X69044030Y-65445671D01*
X69035765Y-65422571D01*
X69029804Y-65398773D01*
X69026204Y-65374504D01*
X69025000Y-65350000D01*
X69025000Y-64150000D01*
X69026204Y-64125496D01*
X69029804Y-64101227D01*
X69035765Y-64077429D01*
X69044030Y-64054329D01*
X69054520Y-64032151D01*
X69067133Y-64011107D01*
X69081747Y-63991402D01*
X69098223Y-63973223D01*
X69116402Y-63956747D01*
X69136107Y-63942133D01*
X69157151Y-63929520D01*
X69179329Y-63919030D01*
X69202429Y-63910765D01*
X69226227Y-63904804D01*
X69250496Y-63901204D01*
X69275000Y-63900000D01*
X70725000Y-63900000D01*
X70749504Y-63901204D01*
X70749504Y-63901204D01*
G37*
D17*
X70000000Y-64750000D03*
D16*
X70000000Y-62250000D03*
X70000000Y-59750000D03*
D20*
X25550000Y-62550000D03*
X37550000Y-62550000D03*
X49800000Y-62550000D03*
D12*
G36*
X70749504Y-14451204D02*
G01*
X70773773Y-14454804D01*
X70797571Y-14460765D01*
X70820671Y-14469030D01*
X70842849Y-14479520D01*
X70863893Y-14492133D01*
X70883598Y-14506747D01*
X70901777Y-14523223D01*
X70918253Y-14541402D01*
X70932867Y-14561107D01*
X70945480Y-14582151D01*
X70955970Y-14604329D01*
X70964235Y-14627429D01*
X70970196Y-14651227D01*
X70973796Y-14675496D01*
X70975000Y-14700000D01*
X70975000Y-15900000D01*
X70973796Y-15924504D01*
X70970196Y-15948773D01*
X70964235Y-15972571D01*
X70955970Y-15995671D01*
X70945480Y-16017849D01*
X70932867Y-16038893D01*
X70918253Y-16058598D01*
X70901777Y-16076777D01*
X70883598Y-16093253D01*
X70863893Y-16107867D01*
X70842849Y-16120480D01*
X70820671Y-16130970D01*
X70797571Y-16139235D01*
X70773773Y-16145196D01*
X70749504Y-16148796D01*
X70725000Y-16150000D01*
X69275000Y-16150000D01*
X69250496Y-16148796D01*
X69226227Y-16145196D01*
X69202429Y-16139235D01*
X69179329Y-16130970D01*
X69157151Y-16120480D01*
X69136107Y-16107867D01*
X69116402Y-16093253D01*
X69098223Y-16076777D01*
X69081747Y-16058598D01*
X69067133Y-16038893D01*
X69054520Y-16017849D01*
X69044030Y-15995671D01*
X69035765Y-15972571D01*
X69029804Y-15948773D01*
X69026204Y-15924504D01*
X69025000Y-15900000D01*
X69025000Y-14700000D01*
X69026204Y-14675496D01*
X69029804Y-14651227D01*
X69035765Y-14627429D01*
X69044030Y-14604329D01*
X69054520Y-14582151D01*
X69067133Y-14561107D01*
X69081747Y-14541402D01*
X69098223Y-14523223D01*
X69116402Y-14506747D01*
X69136107Y-14492133D01*
X69157151Y-14479520D01*
X69179329Y-14469030D01*
X69202429Y-14460765D01*
X69226227Y-14454804D01*
X69250496Y-14451204D01*
X69275000Y-14450000D01*
X70725000Y-14450000D01*
X70749504Y-14451204D01*
X70749504Y-14451204D01*
G37*
D17*
X70000000Y-15300000D03*
D16*
X70000000Y-12800000D03*
X70000000Y-10300000D03*
X70000000Y-7800000D03*
X79050000Y-22600000D03*
X79050000Y-25100000D03*
X79050000Y-27600000D03*
D12*
G36*
X79799504Y-29251204D02*
G01*
X79823773Y-29254804D01*
X79847571Y-29260765D01*
X79870671Y-29269030D01*
X79892849Y-29279520D01*
X79913893Y-29292133D01*
X79933598Y-29306747D01*
X79951777Y-29323223D01*
X79968253Y-29341402D01*
X79982867Y-29361107D01*
X79995480Y-29382151D01*
X80005970Y-29404329D01*
X80014235Y-29427429D01*
X80020196Y-29451227D01*
X80023796Y-29475496D01*
X80025000Y-29500000D01*
X80025000Y-30700000D01*
X80023796Y-30724504D01*
X80020196Y-30748773D01*
X80014235Y-30772571D01*
X80005970Y-30795671D01*
X79995480Y-30817849D01*
X79982867Y-30838893D01*
X79968253Y-30858598D01*
X79951777Y-30876777D01*
X79933598Y-30893253D01*
X79913893Y-30907867D01*
X79892849Y-30920480D01*
X79870671Y-30930970D01*
X79847571Y-30939235D01*
X79823773Y-30945196D01*
X79799504Y-30948796D01*
X79775000Y-30950000D01*
X78325000Y-30950000D01*
X78300496Y-30948796D01*
X78276227Y-30945196D01*
X78252429Y-30939235D01*
X78229329Y-30930970D01*
X78207151Y-30920480D01*
X78186107Y-30907867D01*
X78166402Y-30893253D01*
X78148223Y-30876777D01*
X78131747Y-30858598D01*
X78117133Y-30838893D01*
X78104520Y-30817849D01*
X78094030Y-30795671D01*
X78085765Y-30772571D01*
X78079804Y-30748773D01*
X78076204Y-30724504D01*
X78075000Y-30700000D01*
X78075000Y-29500000D01*
X78076204Y-29475496D01*
X78079804Y-29451227D01*
X78085765Y-29427429D01*
X78094030Y-29404329D01*
X78104520Y-29382151D01*
X78117133Y-29361107D01*
X78131747Y-29341402D01*
X78148223Y-29323223D01*
X78166402Y-29306747D01*
X78186107Y-29292133D01*
X78207151Y-29279520D01*
X78229329Y-29269030D01*
X78252429Y-29260765D01*
X78276227Y-29254804D01*
X78300496Y-29251204D01*
X78325000Y-29250000D01*
X79775000Y-29250000D01*
X79799504Y-29251204D01*
X79799504Y-29251204D01*
G37*
D17*
X79050000Y-30100000D03*
D21*
X10800000Y-50300000D03*
X10800000Y-42050000D03*
D22*
X13800000Y-40050000D03*
X13800000Y-41300000D03*
X13800000Y-42550000D03*
X41800000Y-42300000D03*
X42550000Y-43050000D03*
X41800000Y-43800000D03*
X42550000Y-44550000D03*
X38800000Y-43800000D03*
X38800000Y-42300000D03*
X39550000Y-43050000D03*
X39550000Y-44550000D03*
X41850000Y-34400000D03*
X69500000Y-19700000D03*
X66050000Y-22250000D03*
X48650000Y-40250000D03*
X32350000Y-26700000D03*
X40800000Y-25800000D03*
X58550000Y-45800000D03*
X47750000Y-34400000D03*
X59900000Y-27825000D03*
X64400000Y-26700000D03*
X60900000Y-23900000D03*
X49250000Y-22250000D03*
X66800000Y-38400000D03*
X72500000Y-39275000D03*
X11550000Y-14300000D03*
X11550000Y-15300000D03*
X62500000Y-21400000D03*
X49200000Y-10900000D03*
X30550000Y-13550000D03*
X31800000Y-13550000D03*
X13800000Y-43800000D03*
X15050000Y-43800000D03*
X15050000Y-40050000D03*
X15050000Y-41300000D03*
X15050000Y-42550000D03*
X62012500Y-14287500D03*
X59750000Y-12150000D03*
X21800000Y-28800000D03*
X20550000Y-28800000D03*
X19550000Y-27800000D03*
X49400000Y-16300000D03*
X49400000Y-15200000D03*
X59800000Y-39400000D03*
X60800000Y-39400000D03*
X56250000Y-26450000D03*
X65800000Y-27400000D03*
X73600000Y-27400000D03*
X72900000Y-46900000D03*
X55437346Y-27312654D03*
X65400000Y-28400000D03*
X74500000Y-27900000D03*
X76000000Y-42700000D03*
X56170730Y-28264017D03*
X65700000Y-29400000D03*
X75300000Y-28500000D03*
X72900000Y-40200000D03*
X53199994Y-34300000D03*
X62800000Y-34800000D03*
X68900000Y-32500000D03*
X67350000Y-52750000D03*
X36050000Y-15800000D03*
X37300000Y-15800000D03*
X36050000Y-17050000D03*
X37300000Y-17050000D03*
X10300000Y-18550000D03*
X15550000Y-14300000D03*
X15550000Y-15300000D03*
X10025000Y-23850000D03*
X7775000Y-23850000D03*
X23050000Y-20300000D03*
X46400000Y-32950000D03*
X36300000Y-34500000D03*
X57100000Y-19100000D03*
X65300000Y-38550000D03*
X65400000Y-18525000D03*
X66500000Y-18525000D03*
X64300000Y-38550000D03*
X13800000Y-48550000D03*
X13800000Y-49800000D03*
X13800000Y-51050000D03*
X13800000Y-52300000D03*
X15050000Y-52300000D03*
X15050000Y-51050000D03*
X15050000Y-49800000D03*
X15050000Y-48550000D03*
X35645000Y-48550000D03*
X36915000Y-48550000D03*
X38185000Y-48550000D03*
X39455000Y-48550000D03*
X45455000Y-48550000D03*
X42915000Y-48550000D03*
X41645000Y-48550000D03*
X44185000Y-48550000D03*
X52925001Y-41824999D03*
X15800000Y-36050000D03*
X14700000Y-36050000D03*
X15800000Y-37150000D03*
X27200000Y-15100000D03*
X26000000Y-15100000D03*
X26600000Y-16000000D03*
X30500000Y-26350000D03*
X14700000Y-37150000D03*
X25750000Y-40900000D03*
X22300000Y-41050000D03*
X41550000Y-21200000D03*
X21550000Y-21050000D03*
X28550000Y-41050000D03*
X35800000Y-41100000D03*
X30575000Y-40050000D03*
X29125000Y-39550000D03*
X59500000Y-30600000D03*
X61978339Y-31392934D03*
X40800000Y-37550000D03*
X45999991Y-42799986D03*
X56250000Y-30100000D03*
X60900000Y-31350000D03*
X56900000Y-41600000D03*
X55400000Y-29100000D03*
X57450000Y-36350000D03*
X58500000Y-33800000D03*
X47950000Y-38850000D03*
X53250000Y-30700000D03*
X51650000Y-37600000D03*
X29100011Y-56950000D03*
X48000000Y-32850000D03*
X59962500Y-22312500D03*
X49300000Y-24550000D03*
X29550000Y-60700000D03*
X62950000Y-23450000D03*
X57750000Y-12150000D03*
X53899952Y-29000000D03*
X67050000Y-26950000D03*
X68474131Y-26851182D03*
X27550000Y-58300000D03*
X26300000Y-58300000D03*
X25050000Y-58300000D03*
X23800000Y-58300000D03*
X26300000Y-59550000D03*
X27550000Y-59550000D03*
X25050000Y-59550000D03*
X23800000Y-59550000D03*
X38050000Y-58300000D03*
X39300000Y-58300000D03*
X36800000Y-58300000D03*
X35550000Y-58300000D03*
X38050000Y-59550000D03*
X36800000Y-59550000D03*
X39300000Y-59550000D03*
X35550000Y-59550000D03*
X53850000Y-49850000D03*
X53950000Y-57250000D03*
X51550000Y-58300000D03*
X50300000Y-58300000D03*
X49050000Y-58300000D03*
X47800000Y-58300000D03*
X47800000Y-59550000D03*
X51550000Y-59550000D03*
X49050000Y-59550000D03*
X50300000Y-59550000D03*
X51400000Y-26700000D03*
X51900000Y-25600000D03*
X55250000Y-35950000D03*
X56450000Y-35025000D03*
X68250000Y-18000000D03*
X57350000Y-22100000D03*
X59950000Y-26100000D03*
X68250000Y-19050000D03*
X53144282Y-29654956D03*
X71250000Y-27050000D03*
X51750000Y-30750000D03*
X72600000Y-26800000D03*
X51199997Y-15050000D03*
X51382227Y-21756907D03*
X52437660Y-14812340D03*
X52380818Y-21810188D03*
X46400000Y-28500000D03*
X47083917Y-30840763D03*
X58050000Y-32200000D03*
X63950001Y-33550000D03*
X59150000Y-32200000D03*
X63600000Y-32500000D03*
X40800000Y-34100000D03*
X46800000Y-26100000D03*
X45400000Y-29500000D03*
X46037175Y-30944142D03*
X42550000Y-32275000D03*
X46800000Y-27100000D03*
X43800000Y-31100000D03*
X50800000Y-30350000D03*
X39200000Y-29700000D03*
X49699998Y-19200000D03*
X36600000Y-28700000D03*
X51050000Y-18825010D03*
X28950000Y-19350000D03*
X27812660Y-26737340D03*
X55450000Y-38600000D03*
X54624952Y-25574990D03*
X44550000Y-14300000D03*
X44550000Y-15300000D03*
X18150000Y-22550000D03*
X19150000Y-22550000D03*
X7300000Y-16050000D03*
X16850000Y-16200000D03*
X15100000Y-18350000D03*
X15100000Y-22050000D03*
D23*
X59750000Y-10650000D02*
X59750000Y-12150000D01*
X59750000Y-10650000D02*
X59750000Y-9450000D01*
X59750000Y-9450000D02*
X60150000Y-9050000D01*
X60150000Y-9050000D02*
X63250000Y-9050000D01*
X63562500Y-9362500D02*
X65250000Y-9362500D01*
X63250000Y-9050000D02*
X63562500Y-9362500D01*
X63700000Y-28700000D02*
X64400000Y-28000000D01*
X59700000Y-28700000D02*
X63700000Y-28700000D01*
X56250000Y-26450000D02*
X57450000Y-26450000D01*
X57450000Y-26450000D02*
X59700000Y-28700000D01*
X64400000Y-28000000D02*
X65000000Y-27400000D01*
X65000000Y-27400000D02*
X65800000Y-27400000D01*
X75300000Y-46900000D02*
X72900000Y-46900000D01*
X77000000Y-45200000D02*
X75300000Y-46900000D01*
X77000000Y-28125000D02*
X77000000Y-45200000D01*
X75875001Y-27000001D02*
X77000000Y-28125000D01*
X73600000Y-27400000D02*
X73999999Y-27000001D01*
X73999999Y-27000001D02*
X75875001Y-27000001D01*
X63900000Y-29200000D02*
X64700000Y-28400000D01*
X59563590Y-29200000D02*
X63900000Y-29200000D01*
X57663590Y-27300000D02*
X59563590Y-29200000D01*
X57500000Y-27300000D02*
X57663590Y-27300000D01*
X55437346Y-27312654D02*
X57487346Y-27312654D01*
X57487346Y-27312654D02*
X57500000Y-27300000D01*
X64700000Y-28400000D02*
X65400000Y-28400000D01*
X74951999Y-27774999D02*
X75774999Y-27774999D01*
X74500000Y-27900000D02*
X74826998Y-27900000D01*
X74826998Y-27900000D02*
X74951999Y-27774999D01*
X76325010Y-42374990D02*
X76000000Y-42700000D01*
X75774999Y-27774999D02*
X76325010Y-28325010D01*
X76325010Y-28325010D02*
X76325010Y-42374990D01*
X65049990Y-29650010D02*
X65300000Y-29400000D01*
X59250010Y-29650010D02*
X65049990Y-29650010D01*
X56170730Y-28264017D02*
X57864017Y-28264017D01*
X57864017Y-28264017D02*
X59250010Y-29650010D01*
X65300000Y-29400000D02*
X65700000Y-29400000D01*
X75675000Y-37425000D02*
X72900000Y-40200000D01*
X75300000Y-28500000D02*
X75675000Y-28875000D01*
X75675000Y-28875000D02*
X75675000Y-37425000D01*
X58051998Y-34525002D02*
X61959317Y-34525002D01*
X62234315Y-34800000D02*
X62800000Y-34800000D01*
X57826996Y-34300000D02*
X58051998Y-34525002D01*
X53199994Y-34300000D02*
X57826996Y-34300000D01*
X61959317Y-34525002D02*
X62234315Y-34800000D01*
X68900000Y-32500000D02*
X68900000Y-51450000D01*
X68900000Y-51450000D02*
X68900000Y-52000000D01*
X68900000Y-52000000D02*
X68150000Y-52750000D01*
X68150000Y-52750000D02*
X67350000Y-52750000D01*
X52525002Y-42224998D02*
X52925001Y-41824999D01*
X52525002Y-45724998D02*
X52525002Y-42224998D01*
X45455000Y-48500000D02*
X49750000Y-48500000D01*
X49750000Y-48500000D02*
X52525002Y-45724998D01*
X22450000Y-40900000D02*
X22300000Y-41050000D01*
X25750000Y-40900000D02*
X22450000Y-40900000D01*
D24*
X21550000Y-20484315D02*
X21550000Y-21050000D01*
X37050000Y-12550000D02*
X26800000Y-12550000D01*
X21550000Y-17800000D02*
X21550000Y-20484315D01*
X41550000Y-17050000D02*
X37050000Y-12550000D01*
X41550000Y-21200000D02*
X41550000Y-17050000D01*
X26800000Y-12550000D02*
X21550000Y-17800000D01*
D23*
X35750000Y-41050000D02*
X35800000Y-41100000D01*
X28550000Y-41050000D02*
X35750000Y-41050000D01*
X30575000Y-40050000D02*
X29625000Y-40050000D01*
X29625000Y-40050000D02*
X29125000Y-39550000D01*
X61578340Y-30992935D02*
X61978339Y-31392934D01*
X61185405Y-30600000D02*
X61578340Y-30992935D01*
X59500000Y-30600000D02*
X61185405Y-30600000D01*
X40800000Y-37550000D02*
X45999991Y-42749991D01*
X45999991Y-42749991D02*
X45999991Y-42799986D01*
X60334315Y-31350000D02*
X60900000Y-31350000D01*
X56250000Y-30100000D02*
X57500000Y-31350000D01*
X57500000Y-31350000D02*
X60334315Y-31350000D01*
X56900000Y-41600000D02*
X57450000Y-41050000D01*
X55400000Y-29100000D02*
X55400000Y-30700000D01*
X55400000Y-30700000D02*
X58100001Y-33400001D01*
X58100001Y-33400001D02*
X58500000Y-33800000D01*
X57450000Y-41050000D02*
X57450000Y-36350000D01*
X51650000Y-34376998D02*
X51650000Y-37600000D01*
X51650000Y-33500000D02*
X51650000Y-34376998D01*
X53250000Y-30700000D02*
X53250000Y-31900000D01*
X53250000Y-31900000D02*
X51650000Y-33500000D01*
X29100011Y-56950000D02*
X31300011Y-54750000D01*
X49013589Y-38850000D02*
X48515685Y-38850000D01*
X31300011Y-54750000D02*
X45050000Y-54750000D01*
X53750000Y-46050000D02*
X53750000Y-41350000D01*
X52200011Y-39800011D02*
X49963600Y-39800011D01*
X48515685Y-38850000D02*
X47950000Y-38850000D01*
X49963600Y-39800011D02*
X49013589Y-38850000D01*
X53750000Y-41350000D02*
X52200011Y-39800011D01*
X45050000Y-54750000D02*
X53750000Y-46050000D01*
X69150000Y-21950000D02*
X67750000Y-21950000D01*
X67750000Y-22950000D02*
X66950000Y-23750000D01*
X67750000Y-21950000D02*
X67750000Y-22950000D01*
X66950000Y-23750000D02*
X63250000Y-23750000D01*
X63250000Y-23750000D02*
X62950000Y-23450000D01*
X57750000Y-10650000D02*
X57750000Y-12150000D01*
X30700000Y-60700000D02*
X29550000Y-60700000D01*
X31750000Y-59650000D02*
X30700000Y-60700000D01*
X31750000Y-58250000D02*
X31750000Y-59650000D01*
X34550000Y-55450000D02*
X31750000Y-58250000D01*
X45750000Y-55450000D02*
X34550000Y-55450000D01*
X49100000Y-33950000D02*
X49100000Y-38300000D01*
X48000000Y-32850000D02*
X49100000Y-33950000D01*
X49100000Y-38300000D02*
X50150000Y-39350000D01*
X50150000Y-39350000D02*
X52550000Y-39350000D01*
X54250000Y-41050000D02*
X54250000Y-46950000D01*
X52550000Y-39350000D02*
X54250000Y-41050000D01*
X54250000Y-46950000D02*
X45750000Y-55450000D01*
X53499953Y-28600001D02*
X53899952Y-29000000D01*
X53499953Y-24900047D02*
X53499953Y-28600001D01*
X65250000Y-10937500D02*
X65250000Y-13150000D01*
X65250000Y-13150000D02*
X53499953Y-24900047D01*
X65250000Y-10937500D02*
X64262500Y-10937500D01*
X64262500Y-10937500D02*
X63050000Y-12150000D01*
X63050000Y-12150000D02*
X62050000Y-12150000D01*
X61750000Y-11850000D02*
X61750000Y-10650000D01*
X62050000Y-12150000D02*
X61750000Y-11850000D01*
X67615685Y-26950000D02*
X67750000Y-26815685D01*
X67050000Y-26950000D02*
X67615685Y-26950000D01*
X67750000Y-26815685D02*
X67750000Y-25450000D01*
X69150000Y-25450000D02*
X69150000Y-26175313D01*
X69150000Y-26175313D02*
X68474131Y-26851182D01*
X53850000Y-49850000D02*
X53850000Y-57150000D01*
X53850000Y-57150000D02*
X53950000Y-57250000D01*
X51400000Y-26700000D02*
X50950000Y-26250000D01*
X50950000Y-24413590D02*
X52863599Y-22499991D01*
X50950000Y-26250000D02*
X50950000Y-24413590D01*
X52863599Y-22499991D02*
X53963599Y-22499991D01*
X53963599Y-22499991D02*
X55699990Y-20763600D01*
X55699990Y-20763600D02*
X55699991Y-16463599D01*
X56699990Y-15463600D02*
X56699990Y-14200010D01*
X55699991Y-16463599D02*
X56699990Y-15463600D01*
X56699990Y-14200010D02*
X57650000Y-13250000D01*
X57650000Y-13250000D02*
X58250000Y-13250000D01*
X58750000Y-12750000D02*
X58750000Y-10650000D01*
X58250000Y-13250000D02*
X58750000Y-12750000D01*
X57150000Y-15650000D02*
X57150000Y-14650000D01*
X57150000Y-14650000D02*
X57950000Y-13850000D01*
X51900000Y-24100000D02*
X53050000Y-22950000D01*
X51900000Y-25600000D02*
X51900000Y-24100000D01*
X53050000Y-22950000D02*
X54150000Y-22950000D01*
X54150000Y-22950000D02*
X56150000Y-20950000D01*
X56150000Y-20950000D02*
X56150000Y-16650000D01*
X56150000Y-16650000D02*
X57150000Y-15650000D01*
X57950000Y-13850000D02*
X59850000Y-13850000D01*
X60750000Y-12950000D02*
X60750000Y-10650000D01*
X59850000Y-13850000D02*
X60750000Y-12950000D01*
X57198976Y-35425024D02*
X56674000Y-35950000D01*
X61375023Y-35425024D02*
X57198976Y-35425024D01*
X61925011Y-35975012D02*
X61375023Y-35425024D01*
X63511388Y-35975012D02*
X61925011Y-35975012D01*
X73050000Y-19386410D02*
X73050000Y-24200000D01*
X73050000Y-24200000D02*
X66099990Y-31150010D01*
X56674000Y-35950000D02*
X55250000Y-35950000D01*
X66099990Y-31150010D02*
X66099990Y-33936420D01*
X66099990Y-33936420D02*
X64061400Y-35975010D01*
X64061400Y-35975010D02*
X63511388Y-35975012D01*
D25*
X74200000Y-18150000D02*
X73050000Y-19300000D01*
X74200000Y-12800000D02*
X74200000Y-18150000D01*
X70000000Y-10300000D02*
X71700000Y-10300000D01*
X71700000Y-10300000D02*
X74200000Y-12800000D01*
D23*
X65400000Y-31000000D02*
X65400000Y-34000000D01*
X70000000Y-7800000D02*
X69875000Y-7800000D01*
X72200000Y-20300000D02*
X72200000Y-24200000D01*
D25*
X69875000Y-7800000D02*
X68000000Y-9675000D01*
X68000000Y-9675000D02*
X68000000Y-16100000D01*
X68000000Y-16100000D02*
X72200000Y-20300000D01*
D23*
X62111411Y-35525001D02*
X61561423Y-34975013D01*
X63874999Y-35525001D02*
X62111411Y-35525001D01*
X65400000Y-34000000D02*
X63874999Y-35525001D01*
X72200000Y-24200000D02*
X65400000Y-31000000D01*
X61561423Y-34975013D02*
X56499987Y-34975013D01*
X56499987Y-34975013D02*
X56450000Y-35025000D01*
X57749999Y-21700001D02*
X57350000Y-22100000D01*
X68250000Y-18000000D02*
X66850000Y-16600000D01*
X66850000Y-16600000D02*
X62850000Y-16600000D01*
X62850000Y-16600000D02*
X57749999Y-21700001D01*
X61700000Y-24350000D02*
X61700000Y-19100000D01*
X63000000Y-17800000D02*
X67000000Y-17800000D01*
X61700000Y-19100000D02*
X63000000Y-17800000D01*
X59950000Y-26100000D02*
X61700000Y-24350000D01*
X67000000Y-17800000D02*
X68250000Y-19050000D01*
X50500000Y-37800000D02*
X50500000Y-34013590D01*
X53625001Y-38325001D02*
X51025001Y-38325001D01*
X55850000Y-40550000D02*
X53625001Y-38325001D01*
X55850000Y-41950000D02*
X55850000Y-40550000D01*
X56450000Y-42550000D02*
X55850000Y-41950000D01*
X51025001Y-38325001D02*
X50500000Y-37800000D01*
X66800000Y-31500000D02*
X66800000Y-34000000D01*
X52524999Y-31988591D02*
X52524999Y-30274239D01*
X71250000Y-27050000D02*
X66800000Y-31500000D01*
X50500000Y-34013590D02*
X52524999Y-31988591D01*
X66800000Y-34000000D02*
X62449989Y-38350011D01*
X62449989Y-38350011D02*
X62449989Y-39350011D01*
X52524999Y-30274239D02*
X53144282Y-29654956D01*
X62449989Y-39350011D02*
X59250000Y-42550000D01*
X59250000Y-42550000D02*
X56450000Y-42550000D01*
X50799990Y-38899990D02*
X50000000Y-38100000D01*
X55350000Y-41050000D02*
X53199990Y-38899990D01*
X62900000Y-39536410D02*
X59386410Y-43050000D01*
X50000000Y-38100000D02*
X50000000Y-32500000D01*
X56050000Y-43050000D02*
X55350000Y-42350000D01*
X59386410Y-43050000D02*
X56050000Y-43050000D01*
X62900000Y-38650000D02*
X62900000Y-39536410D01*
X72600000Y-27473002D02*
X71423002Y-28650000D01*
X72600000Y-26800000D02*
X72600000Y-27473002D01*
X50000000Y-32500000D02*
X51750000Y-30750000D01*
X71423002Y-28650000D02*
X70650000Y-28650000D01*
X55350000Y-42350000D02*
X55350000Y-41050000D01*
X70650000Y-28650000D02*
X67300000Y-32000000D01*
X53199990Y-38899990D02*
X50799990Y-38899990D01*
X67300000Y-32000000D02*
X67300000Y-34250000D01*
X67300000Y-34250000D02*
X62900000Y-38650000D01*
X53600000Y-19539134D02*
X51782226Y-21356908D01*
X53600000Y-17000000D02*
X53600000Y-19539134D01*
X51599996Y-15449999D02*
X52049999Y-15449999D01*
X52049999Y-15449999D02*
X53600000Y-17000000D01*
X51199997Y-15050000D02*
X51599996Y-15449999D01*
X51782226Y-21356908D02*
X51382227Y-21756907D01*
X54150000Y-20041006D02*
X52780817Y-21410189D01*
X54150000Y-16524680D02*
X54150000Y-20041006D01*
X52780817Y-21410189D02*
X52380818Y-21810188D01*
X52437660Y-14812340D02*
X54150000Y-16524680D01*
X47083917Y-30275078D02*
X47083917Y-30840763D01*
X47083917Y-29183917D02*
X47083917Y-30275078D01*
X46400000Y-28500000D02*
X47083917Y-29183917D01*
X58050000Y-32200000D02*
X59400000Y-33550000D01*
X59400000Y-33550000D02*
X63384316Y-33550000D01*
X63384316Y-33550000D02*
X63950001Y-33550000D01*
X59150000Y-32200000D02*
X63300000Y-32200000D01*
X63300000Y-32200000D02*
X63600000Y-32500000D01*
X40800000Y-31534315D02*
X40800000Y-33534315D01*
X46234315Y-26100000D02*
X40800000Y-31534315D01*
X40800000Y-33534315D02*
X40800000Y-34100000D01*
X46800000Y-26100000D02*
X46234315Y-26100000D01*
X46037175Y-30378457D02*
X46037175Y-30944142D01*
X46037175Y-30137175D02*
X46037175Y-30378457D01*
X45400000Y-29500000D02*
X46037175Y-30137175D01*
X46726998Y-27100000D02*
X46800000Y-27100000D01*
X42550000Y-32275000D02*
X42550000Y-31276998D01*
X42550000Y-31276998D02*
X46726998Y-27100000D01*
X49450000Y-31700000D02*
X50400001Y-30749999D01*
X44400000Y-31700000D02*
X49450000Y-31700000D01*
X43800000Y-31100000D02*
X44400000Y-31700000D01*
X50400001Y-30749999D02*
X50800000Y-30350000D01*
X39200000Y-29700000D02*
X39599999Y-29299999D01*
X49299999Y-19599999D02*
X49699998Y-19200000D01*
X39599999Y-29299999D02*
X49299999Y-19599999D01*
X39100000Y-28700000D02*
X49374989Y-18425011D01*
X36600000Y-28700000D02*
X39100000Y-28700000D01*
X49374989Y-18425011D02*
X50650001Y-18425011D01*
X50650001Y-18425011D02*
X51050000Y-18825010D01*
X27812660Y-26712660D02*
X27812660Y-26737340D01*
X27000000Y-25900000D02*
X27812660Y-26712660D01*
X27000000Y-20287500D02*
X27000000Y-25900000D01*
X28950000Y-19350000D02*
X27937500Y-19350000D01*
X27937500Y-19350000D02*
X27000000Y-20287500D01*
X54224953Y-25974989D02*
X54624952Y-25574990D01*
X55450000Y-38600000D02*
X52300000Y-35450000D01*
X52300000Y-35450000D02*
X52300000Y-33550000D01*
X54624952Y-27847955D02*
X54224953Y-27447956D01*
X52300000Y-33550000D02*
X54624952Y-31225048D01*
X54224953Y-27447956D02*
X54224953Y-25974989D01*
X54624952Y-31225048D02*
X54624952Y-27847955D01*
D24*
X7865685Y-16050000D02*
X8015685Y-16200000D01*
X8015685Y-16200000D02*
X16850000Y-16200000D01*
X7300000Y-16050000D02*
X7865685Y-16050000D01*
X15100000Y-22050000D02*
X15100000Y-18350000D01*
D26*
G36*
X21173000Y-41550000D02*
G01*
X21175440Y-41574776D01*
X21182667Y-41598601D01*
X21194403Y-41620557D01*
X21210197Y-41639803D01*
X21229443Y-41655597D01*
X21251399Y-41667333D01*
X21275224Y-41674560D01*
X21300000Y-41677000D01*
X21832609Y-41677000D01*
X21930058Y-41742113D01*
X22072191Y-41800987D01*
X22223078Y-41831000D01*
X22376922Y-41831000D01*
X22527809Y-41800987D01*
X22669942Y-41742113D01*
X22767391Y-41677000D01*
X25652968Y-41677000D01*
X25673078Y-41681000D01*
X25826922Y-41681000D01*
X25847032Y-41677000D01*
X28082609Y-41677000D01*
X28180058Y-41742113D01*
X28322191Y-41800987D01*
X28473078Y-41831000D01*
X28626922Y-41831000D01*
X28777809Y-41800987D01*
X28919942Y-41742113D01*
X29017391Y-41677000D01*
X35272499Y-41677000D01*
X35302141Y-41706642D01*
X35430058Y-41792113D01*
X35572191Y-41850987D01*
X35723078Y-41881000D01*
X35876922Y-41881000D01*
X36027809Y-41850987D01*
X36169942Y-41792113D01*
X36297859Y-41706642D01*
X36327501Y-41677000D01*
X43923000Y-41677000D01*
X43923000Y-45423000D01*
X15927000Y-45423000D01*
X15927000Y-44550000D01*
X15924560Y-44525224D01*
X15917333Y-44501399D01*
X15905597Y-44479443D01*
X15889803Y-44460197D01*
X15870557Y-44444403D01*
X15848601Y-44432667D01*
X15824776Y-44425440D01*
X15800000Y-44423000D01*
X5927000Y-44423000D01*
X5927000Y-39677000D01*
X21173000Y-39677000D01*
X21173000Y-41550000D01*
X21173000Y-41550000D01*
G37*
X21173000Y-41550000D02*
X21175440Y-41574776D01*
X21182667Y-41598601D01*
X21194403Y-41620557D01*
X21210197Y-41639803D01*
X21229443Y-41655597D01*
X21251399Y-41667333D01*
X21275224Y-41674560D01*
X21300000Y-41677000D01*
X21832609Y-41677000D01*
X21930058Y-41742113D01*
X22072191Y-41800987D01*
X22223078Y-41831000D01*
X22376922Y-41831000D01*
X22527809Y-41800987D01*
X22669942Y-41742113D01*
X22767391Y-41677000D01*
X25652968Y-41677000D01*
X25673078Y-41681000D01*
X25826922Y-41681000D01*
X25847032Y-41677000D01*
X28082609Y-41677000D01*
X28180058Y-41742113D01*
X28322191Y-41800987D01*
X28473078Y-41831000D01*
X28626922Y-41831000D01*
X28777809Y-41800987D01*
X28919942Y-41742113D01*
X29017391Y-41677000D01*
X35272499Y-41677000D01*
X35302141Y-41706642D01*
X35430058Y-41792113D01*
X35572191Y-41850987D01*
X35723078Y-41881000D01*
X35876922Y-41881000D01*
X36027809Y-41850987D01*
X36169942Y-41792113D01*
X36297859Y-41706642D01*
X36327501Y-41677000D01*
X43923000Y-41677000D01*
X43923000Y-45423000D01*
X15927000Y-45423000D01*
X15927000Y-44550000D01*
X15924560Y-44525224D01*
X15917333Y-44501399D01*
X15905597Y-44479443D01*
X15889803Y-44460197D01*
X15870557Y-44444403D01*
X15848601Y-44432667D01*
X15824776Y-44425440D01*
X15800000Y-44423000D01*
X5927000Y-44423000D01*
X5927000Y-39677000D01*
X21173000Y-39677000D01*
X21173000Y-41550000D01*
G36*
X45173000Y-11852606D02*
G01*
X45173000Y-16173000D01*
X42352606Y-16173000D01*
X37889803Y-11710197D01*
X37870557Y-11694403D01*
X37848601Y-11682667D01*
X37824776Y-11675440D01*
X37800000Y-11673000D01*
X24550000Y-11673000D01*
X24525224Y-11675440D01*
X24501399Y-11682667D01*
X24479443Y-11694403D01*
X24459680Y-11710718D01*
X20159680Y-16060718D01*
X20143997Y-16080054D01*
X20132388Y-16102078D01*
X20125299Y-16125944D01*
X20123000Y-16150000D01*
X20123000Y-23423000D01*
X17177000Y-23423000D01*
X17177000Y-14600960D01*
X22604266Y-8927000D01*
X42247394Y-8927000D01*
X45173000Y-11852606D01*
X45173000Y-11852606D01*
G37*
X45173000Y-11852606D02*
X45173000Y-16173000D01*
X42352606Y-16173000D01*
X37889803Y-11710197D01*
X37870557Y-11694403D01*
X37848601Y-11682667D01*
X37824776Y-11675440D01*
X37800000Y-11673000D01*
X24550000Y-11673000D01*
X24525224Y-11675440D01*
X24501399Y-11682667D01*
X24479443Y-11694403D01*
X24459680Y-11710718D01*
X20159680Y-16060718D01*
X20143997Y-16080054D01*
X20132388Y-16102078D01*
X20125299Y-16125944D01*
X20123000Y-16150000D01*
X20123000Y-23423000D01*
X17177000Y-23423000D01*
X17177000Y-14600960D01*
X22604266Y-8927000D01*
X42247394Y-8927000D01*
X45173000Y-11852606D01*
G36*
X45955140Y-51423000D02*
G01*
X5927000Y-51423000D01*
X5927000Y-47677000D01*
X45955140Y-47677000D01*
X45955140Y-51423000D01*
X45955140Y-51423000D01*
G37*
X45955140Y-51423000D02*
X5927000Y-51423000D01*
X5927000Y-47677000D01*
X45955140Y-47677000D01*
X45955140Y-51423000D01*
G36*
X31173000Y-18352606D02*
G01*
X31173000Y-26497394D01*
X30747394Y-26923000D01*
X30352606Y-26923000D01*
X29927000Y-26497394D01*
X29927000Y-18800000D01*
X29924560Y-18775224D01*
X29917333Y-18751399D01*
X29905597Y-18729443D01*
X29889803Y-18710197D01*
X27639803Y-16460197D01*
X27620557Y-16444403D01*
X27598601Y-16432667D01*
X27574776Y-16425440D01*
X27550000Y-16423000D01*
X27525224Y-16425440D01*
X27501399Y-16432667D01*
X27479443Y-16444403D01*
X27460197Y-16460197D01*
X26210197Y-17710197D01*
X26194403Y-17729443D01*
X26182667Y-17751399D01*
X26175440Y-17775224D01*
X26173000Y-17800000D01*
X26173000Y-21997394D01*
X21497394Y-26673000D01*
X17300000Y-26673000D01*
X17275224Y-26675440D01*
X17251399Y-26682667D01*
X17229443Y-26694403D01*
X17210197Y-26710197D01*
X13960197Y-29960197D01*
X13944403Y-29979443D01*
X13932667Y-30001399D01*
X13925440Y-30025224D01*
X13923000Y-30050000D01*
X13923000Y-35300000D01*
X13925440Y-35324776D01*
X13932667Y-35348601D01*
X13944403Y-35370557D01*
X13960197Y-35389803D01*
X13979443Y-35405597D01*
X14001399Y-35417333D01*
X14025224Y-35424560D01*
X14050000Y-35427000D01*
X15997394Y-35427000D01*
X16423000Y-35852606D01*
X16423000Y-37497394D01*
X15997394Y-37923000D01*
X12852606Y-37923000D01*
X11677000Y-36747394D01*
X11677000Y-29602606D01*
X16102606Y-25177000D01*
X20300000Y-25177000D01*
X20324776Y-25174560D01*
X20348601Y-25167333D01*
X20370557Y-25155597D01*
X20389803Y-25139803D01*
X24139803Y-21389803D01*
X24155597Y-21370557D01*
X24167333Y-21348601D01*
X24174560Y-21324776D01*
X24177000Y-21300000D01*
X24177000Y-16352606D01*
X25852606Y-14677000D01*
X27497394Y-14677000D01*
X31173000Y-18352606D01*
X31173000Y-18352606D01*
G37*
X31173000Y-18352606D02*
X31173000Y-26497394D01*
X30747394Y-26923000D01*
X30352606Y-26923000D01*
X29927000Y-26497394D01*
X29927000Y-18800000D01*
X29924560Y-18775224D01*
X29917333Y-18751399D01*
X29905597Y-18729443D01*
X29889803Y-18710197D01*
X27639803Y-16460197D01*
X27620557Y-16444403D01*
X27598601Y-16432667D01*
X27574776Y-16425440D01*
X27550000Y-16423000D01*
X27525224Y-16425440D01*
X27501399Y-16432667D01*
X27479443Y-16444403D01*
X27460197Y-16460197D01*
X26210197Y-17710197D01*
X26194403Y-17729443D01*
X26182667Y-17751399D01*
X26175440Y-17775224D01*
X26173000Y-17800000D01*
X26173000Y-21997394D01*
X21497394Y-26673000D01*
X17300000Y-26673000D01*
X17275224Y-26675440D01*
X17251399Y-26682667D01*
X17229443Y-26694403D01*
X17210197Y-26710197D01*
X13960197Y-29960197D01*
X13944403Y-29979443D01*
X13932667Y-30001399D01*
X13925440Y-30025224D01*
X13923000Y-30050000D01*
X13923000Y-35300000D01*
X13925440Y-35324776D01*
X13932667Y-35348601D01*
X13944403Y-35370557D01*
X13960197Y-35389803D01*
X13979443Y-35405597D01*
X14001399Y-35417333D01*
X14025224Y-35424560D01*
X14050000Y-35427000D01*
X15997394Y-35427000D01*
X16423000Y-35852606D01*
X16423000Y-37497394D01*
X15997394Y-37923000D01*
X12852606Y-37923000D01*
X11677000Y-36747394D01*
X11677000Y-29602606D01*
X16102606Y-25177000D01*
X20300000Y-25177000D01*
X20324776Y-25174560D01*
X20348601Y-25167333D01*
X20370557Y-25155597D01*
X20389803Y-25139803D01*
X24139803Y-21389803D01*
X24155597Y-21370557D01*
X24167333Y-21348601D01*
X24174560Y-21324776D01*
X24177000Y-21300000D01*
X24177000Y-16352606D01*
X25852606Y-14677000D01*
X27497394Y-14677000D01*
X31173000Y-18352606D01*
G36*
X36372191Y-27949013D02*
G01*
X36230058Y-28007887D01*
X36102141Y-28093358D01*
X35993358Y-28202141D01*
X35907887Y-28330058D01*
X35849013Y-28472191D01*
X35819000Y-28623078D01*
X35819000Y-28776922D01*
X35849013Y-28927809D01*
X35907887Y-29069942D01*
X35993358Y-29197859D01*
X36102141Y-29306642D01*
X36230058Y-29392113D01*
X36372191Y-29450987D01*
X36523078Y-29481000D01*
X36676922Y-29481000D01*
X36827809Y-29450987D01*
X36969942Y-29392113D01*
X37097859Y-29306642D01*
X37198501Y-29206000D01*
X37673000Y-29206000D01*
X37673000Y-38673000D01*
X23927000Y-38673000D01*
X23927000Y-34423078D01*
X35519000Y-34423078D01*
X35519000Y-34576922D01*
X35549013Y-34727809D01*
X35607887Y-34869942D01*
X35693358Y-34997859D01*
X35802141Y-35106642D01*
X35930058Y-35192113D01*
X36072191Y-35250987D01*
X36223078Y-35281000D01*
X36376922Y-35281000D01*
X36527809Y-35250987D01*
X36669942Y-35192113D01*
X36797859Y-35106642D01*
X36906642Y-34997859D01*
X36992113Y-34869942D01*
X37050987Y-34727809D01*
X37081000Y-34576922D01*
X37081000Y-34423078D01*
X37050987Y-34272191D01*
X36992113Y-34130058D01*
X36906642Y-34002141D01*
X36797859Y-33893358D01*
X36669942Y-33807887D01*
X36527809Y-33749013D01*
X36376922Y-33719000D01*
X36223078Y-33719000D01*
X36072191Y-33749013D01*
X35930058Y-33807887D01*
X35802141Y-33893358D01*
X35693358Y-34002141D01*
X35607887Y-34130058D01*
X35549013Y-34272191D01*
X35519000Y-34423078D01*
X23927000Y-34423078D01*
X23927000Y-27927000D01*
X36482859Y-27927000D01*
X36372191Y-27949013D01*
X36372191Y-27949013D01*
G37*
X36372191Y-27949013D02*
X36230058Y-28007887D01*
X36102141Y-28093358D01*
X35993358Y-28202141D01*
X35907887Y-28330058D01*
X35849013Y-28472191D01*
X35819000Y-28623078D01*
X35819000Y-28776922D01*
X35849013Y-28927809D01*
X35907887Y-29069942D01*
X35993358Y-29197859D01*
X36102141Y-29306642D01*
X36230058Y-29392113D01*
X36372191Y-29450987D01*
X36523078Y-29481000D01*
X36676922Y-29481000D01*
X36827809Y-29450987D01*
X36969942Y-29392113D01*
X37097859Y-29306642D01*
X37198501Y-29206000D01*
X37673000Y-29206000D01*
X37673000Y-38673000D01*
X23927000Y-38673000D01*
X23927000Y-34423078D01*
X35519000Y-34423078D01*
X35519000Y-34576922D01*
X35549013Y-34727809D01*
X35607887Y-34869942D01*
X35693358Y-34997859D01*
X35802141Y-35106642D01*
X35930058Y-35192113D01*
X36072191Y-35250987D01*
X36223078Y-35281000D01*
X36376922Y-35281000D01*
X36527809Y-35250987D01*
X36669942Y-35192113D01*
X36797859Y-35106642D01*
X36906642Y-34997859D01*
X36992113Y-34869942D01*
X37050987Y-34727809D01*
X37081000Y-34576922D01*
X37081000Y-34423078D01*
X37050987Y-34272191D01*
X36992113Y-34130058D01*
X36906642Y-34002141D01*
X36797859Y-33893358D01*
X36669942Y-33807887D01*
X36527809Y-33749013D01*
X36376922Y-33719000D01*
X36223078Y-33719000D01*
X36072191Y-33749013D01*
X35930058Y-33807887D01*
X35802141Y-33893358D01*
X35693358Y-34002141D01*
X35607887Y-34130058D01*
X35549013Y-34272191D01*
X35519000Y-34423078D01*
X23927000Y-34423078D01*
X23927000Y-27927000D01*
X36482859Y-27927000D01*
X36372191Y-27949013D01*
M02*
