G04 #@! TF.GenerationSoftware,KiCad,Pcbnew,(5.1.2)-2*
G04 #@! TF.CreationDate,2020-04-08T13:50:03-07:00*
G04 #@! TF.ProjectId,flatmcu,666c6174-6d63-4752-9e6b-696361645f70,rev?*
G04 #@! TF.SameCoordinates,PX1312d00PY1312d00*
G04 #@! TF.FileFunction,Paste,Bot*
G04 #@! TF.FilePolarity,Positive*
%FSLAX46Y46*%
G04 Gerber Fmt 4.6, Leading zero omitted, Abs format (unit mm)*
G04 Created by KiCad (PCBNEW (5.1.2)-2) date 2020-04-08 13:50:03*
%MOMM*%
%LPD*%
G04 APERTURE LIST*
%ADD10C,0.100000*%
%ADD11C,1.200000*%
%ADD12C,0.600000*%
%ADD13C,0.875000*%
%ADD14R,1.000000X1.500000*%
%ADD15R,5.000000X10.000000*%
%ADD16R,10.000000X5.000000*%
G04 APERTURE END LIST*
D10*
G36*
X63424505Y-5876204D02*
G01*
X63448773Y-5879804D01*
X63472572Y-5885765D01*
X63495671Y-5894030D01*
X63517850Y-5904520D01*
X63538893Y-5917132D01*
X63558599Y-5931747D01*
X63576777Y-5948223D01*
X63593253Y-5966401D01*
X63607868Y-5986107D01*
X63620480Y-6007150D01*
X63630970Y-6029329D01*
X63639235Y-6052428D01*
X63645196Y-6076227D01*
X63648796Y-6100495D01*
X63650000Y-6124999D01*
X63650000Y-7425001D01*
X63648796Y-7449505D01*
X63645196Y-7473773D01*
X63639235Y-7497572D01*
X63630970Y-7520671D01*
X63620480Y-7542850D01*
X63607868Y-7563893D01*
X63593253Y-7583599D01*
X63576777Y-7601777D01*
X63558599Y-7618253D01*
X63538893Y-7632868D01*
X63517850Y-7645480D01*
X63495671Y-7655970D01*
X63472572Y-7664235D01*
X63448773Y-7670196D01*
X63424505Y-7673796D01*
X63400001Y-7675000D01*
X62699999Y-7675000D01*
X62675495Y-7673796D01*
X62651227Y-7670196D01*
X62627428Y-7664235D01*
X62604329Y-7655970D01*
X62582150Y-7645480D01*
X62561107Y-7632868D01*
X62541401Y-7618253D01*
X62523223Y-7601777D01*
X62506747Y-7583599D01*
X62492132Y-7563893D01*
X62479520Y-7542850D01*
X62469030Y-7520671D01*
X62460765Y-7497572D01*
X62454804Y-7473773D01*
X62451204Y-7449505D01*
X62450000Y-7425001D01*
X62450000Y-6124999D01*
X62451204Y-6100495D01*
X62454804Y-6076227D01*
X62460765Y-6052428D01*
X62469030Y-6029329D01*
X62479520Y-6007150D01*
X62492132Y-5986107D01*
X62506747Y-5966401D01*
X62523223Y-5948223D01*
X62541401Y-5931747D01*
X62561107Y-5917132D01*
X62582150Y-5904520D01*
X62604329Y-5894030D01*
X62627428Y-5885765D01*
X62651227Y-5879804D01*
X62675495Y-5876204D01*
X62699999Y-5875000D01*
X63400001Y-5875000D01*
X63424505Y-5876204D01*
X63424505Y-5876204D01*
G37*
D11*
X63050000Y-6775000D03*
D10*
G36*
X56824505Y-5876204D02*
G01*
X56848773Y-5879804D01*
X56872572Y-5885765D01*
X56895671Y-5894030D01*
X56917850Y-5904520D01*
X56938893Y-5917132D01*
X56958599Y-5931747D01*
X56976777Y-5948223D01*
X56993253Y-5966401D01*
X57007868Y-5986107D01*
X57020480Y-6007150D01*
X57030970Y-6029329D01*
X57039235Y-6052428D01*
X57045196Y-6076227D01*
X57048796Y-6100495D01*
X57050000Y-6124999D01*
X57050000Y-7425001D01*
X57048796Y-7449505D01*
X57045196Y-7473773D01*
X57039235Y-7497572D01*
X57030970Y-7520671D01*
X57020480Y-7542850D01*
X57007868Y-7563893D01*
X56993253Y-7583599D01*
X56976777Y-7601777D01*
X56958599Y-7618253D01*
X56938893Y-7632868D01*
X56917850Y-7645480D01*
X56895671Y-7655970D01*
X56872572Y-7664235D01*
X56848773Y-7670196D01*
X56824505Y-7673796D01*
X56800001Y-7675000D01*
X56099999Y-7675000D01*
X56075495Y-7673796D01*
X56051227Y-7670196D01*
X56027428Y-7664235D01*
X56004329Y-7655970D01*
X55982150Y-7645480D01*
X55961107Y-7632868D01*
X55941401Y-7618253D01*
X55923223Y-7601777D01*
X55906747Y-7583599D01*
X55892132Y-7563893D01*
X55879520Y-7542850D01*
X55869030Y-7520671D01*
X55860765Y-7497572D01*
X55854804Y-7473773D01*
X55851204Y-7449505D01*
X55850000Y-7425001D01*
X55850000Y-6124999D01*
X55851204Y-6100495D01*
X55854804Y-6076227D01*
X55860765Y-6052428D01*
X55869030Y-6029329D01*
X55879520Y-6007150D01*
X55892132Y-5986107D01*
X55906747Y-5966401D01*
X55923223Y-5948223D01*
X55941401Y-5931747D01*
X55961107Y-5917132D01*
X55982150Y-5904520D01*
X56004329Y-5894030D01*
X56027428Y-5885765D01*
X56051227Y-5879804D01*
X56075495Y-5876204D01*
X56099999Y-5875000D01*
X56800001Y-5875000D01*
X56824505Y-5876204D01*
X56824505Y-5876204D01*
G37*
D11*
X56450000Y-6775000D03*
D10*
G36*
X61914703Y-9875722D02*
G01*
X61929264Y-9877882D01*
X61943543Y-9881459D01*
X61957403Y-9886418D01*
X61970710Y-9892712D01*
X61983336Y-9900280D01*
X61995159Y-9909048D01*
X62006066Y-9918934D01*
X62015952Y-9929841D01*
X62024720Y-9941664D01*
X62032288Y-9954290D01*
X62038582Y-9967597D01*
X62043541Y-9981457D01*
X62047118Y-9995736D01*
X62049278Y-10010297D01*
X62050000Y-10025000D01*
X62050000Y-11275000D01*
X62049278Y-11289703D01*
X62047118Y-11304264D01*
X62043541Y-11318543D01*
X62038582Y-11332403D01*
X62032288Y-11345710D01*
X62024720Y-11358336D01*
X62015952Y-11370159D01*
X62006066Y-11381066D01*
X61995159Y-11390952D01*
X61983336Y-11399720D01*
X61970710Y-11407288D01*
X61957403Y-11413582D01*
X61943543Y-11418541D01*
X61929264Y-11422118D01*
X61914703Y-11424278D01*
X61900000Y-11425000D01*
X61600000Y-11425000D01*
X61585297Y-11424278D01*
X61570736Y-11422118D01*
X61556457Y-11418541D01*
X61542597Y-11413582D01*
X61529290Y-11407288D01*
X61516664Y-11399720D01*
X61504841Y-11390952D01*
X61493934Y-11381066D01*
X61484048Y-11370159D01*
X61475280Y-11358336D01*
X61467712Y-11345710D01*
X61461418Y-11332403D01*
X61456459Y-11318543D01*
X61452882Y-11304264D01*
X61450722Y-11289703D01*
X61450000Y-11275000D01*
X61450000Y-10025000D01*
X61450722Y-10010297D01*
X61452882Y-9995736D01*
X61456459Y-9981457D01*
X61461418Y-9967597D01*
X61467712Y-9954290D01*
X61475280Y-9941664D01*
X61484048Y-9929841D01*
X61493934Y-9918934D01*
X61504841Y-9909048D01*
X61516664Y-9900280D01*
X61529290Y-9892712D01*
X61542597Y-9886418D01*
X61556457Y-9881459D01*
X61570736Y-9877882D01*
X61585297Y-9875722D01*
X61600000Y-9875000D01*
X61900000Y-9875000D01*
X61914703Y-9875722D01*
X61914703Y-9875722D01*
G37*
D12*
X61750000Y-10650000D03*
D10*
G36*
X60914703Y-9875722D02*
G01*
X60929264Y-9877882D01*
X60943543Y-9881459D01*
X60957403Y-9886418D01*
X60970710Y-9892712D01*
X60983336Y-9900280D01*
X60995159Y-9909048D01*
X61006066Y-9918934D01*
X61015952Y-9929841D01*
X61024720Y-9941664D01*
X61032288Y-9954290D01*
X61038582Y-9967597D01*
X61043541Y-9981457D01*
X61047118Y-9995736D01*
X61049278Y-10010297D01*
X61050000Y-10025000D01*
X61050000Y-11275000D01*
X61049278Y-11289703D01*
X61047118Y-11304264D01*
X61043541Y-11318543D01*
X61038582Y-11332403D01*
X61032288Y-11345710D01*
X61024720Y-11358336D01*
X61015952Y-11370159D01*
X61006066Y-11381066D01*
X60995159Y-11390952D01*
X60983336Y-11399720D01*
X60970710Y-11407288D01*
X60957403Y-11413582D01*
X60943543Y-11418541D01*
X60929264Y-11422118D01*
X60914703Y-11424278D01*
X60900000Y-11425000D01*
X60600000Y-11425000D01*
X60585297Y-11424278D01*
X60570736Y-11422118D01*
X60556457Y-11418541D01*
X60542597Y-11413582D01*
X60529290Y-11407288D01*
X60516664Y-11399720D01*
X60504841Y-11390952D01*
X60493934Y-11381066D01*
X60484048Y-11370159D01*
X60475280Y-11358336D01*
X60467712Y-11345710D01*
X60461418Y-11332403D01*
X60456459Y-11318543D01*
X60452882Y-11304264D01*
X60450722Y-11289703D01*
X60450000Y-11275000D01*
X60450000Y-10025000D01*
X60450722Y-10010297D01*
X60452882Y-9995736D01*
X60456459Y-9981457D01*
X60461418Y-9967597D01*
X60467712Y-9954290D01*
X60475280Y-9941664D01*
X60484048Y-9929841D01*
X60493934Y-9918934D01*
X60504841Y-9909048D01*
X60516664Y-9900280D01*
X60529290Y-9892712D01*
X60542597Y-9886418D01*
X60556457Y-9881459D01*
X60570736Y-9877882D01*
X60585297Y-9875722D01*
X60600000Y-9875000D01*
X60900000Y-9875000D01*
X60914703Y-9875722D01*
X60914703Y-9875722D01*
G37*
D12*
X60750000Y-10650000D03*
D10*
G36*
X59914703Y-9875722D02*
G01*
X59929264Y-9877882D01*
X59943543Y-9881459D01*
X59957403Y-9886418D01*
X59970710Y-9892712D01*
X59983336Y-9900280D01*
X59995159Y-9909048D01*
X60006066Y-9918934D01*
X60015952Y-9929841D01*
X60024720Y-9941664D01*
X60032288Y-9954290D01*
X60038582Y-9967597D01*
X60043541Y-9981457D01*
X60047118Y-9995736D01*
X60049278Y-10010297D01*
X60050000Y-10025000D01*
X60050000Y-11275000D01*
X60049278Y-11289703D01*
X60047118Y-11304264D01*
X60043541Y-11318543D01*
X60038582Y-11332403D01*
X60032288Y-11345710D01*
X60024720Y-11358336D01*
X60015952Y-11370159D01*
X60006066Y-11381066D01*
X59995159Y-11390952D01*
X59983336Y-11399720D01*
X59970710Y-11407288D01*
X59957403Y-11413582D01*
X59943543Y-11418541D01*
X59929264Y-11422118D01*
X59914703Y-11424278D01*
X59900000Y-11425000D01*
X59600000Y-11425000D01*
X59585297Y-11424278D01*
X59570736Y-11422118D01*
X59556457Y-11418541D01*
X59542597Y-11413582D01*
X59529290Y-11407288D01*
X59516664Y-11399720D01*
X59504841Y-11390952D01*
X59493934Y-11381066D01*
X59484048Y-11370159D01*
X59475280Y-11358336D01*
X59467712Y-11345710D01*
X59461418Y-11332403D01*
X59456459Y-11318543D01*
X59452882Y-11304264D01*
X59450722Y-11289703D01*
X59450000Y-11275000D01*
X59450000Y-10025000D01*
X59450722Y-10010297D01*
X59452882Y-9995736D01*
X59456459Y-9981457D01*
X59461418Y-9967597D01*
X59467712Y-9954290D01*
X59475280Y-9941664D01*
X59484048Y-9929841D01*
X59493934Y-9918934D01*
X59504841Y-9909048D01*
X59516664Y-9900280D01*
X59529290Y-9892712D01*
X59542597Y-9886418D01*
X59556457Y-9881459D01*
X59570736Y-9877882D01*
X59585297Y-9875722D01*
X59600000Y-9875000D01*
X59900000Y-9875000D01*
X59914703Y-9875722D01*
X59914703Y-9875722D01*
G37*
D12*
X59750000Y-10650000D03*
D10*
G36*
X58914703Y-9875722D02*
G01*
X58929264Y-9877882D01*
X58943543Y-9881459D01*
X58957403Y-9886418D01*
X58970710Y-9892712D01*
X58983336Y-9900280D01*
X58995159Y-9909048D01*
X59006066Y-9918934D01*
X59015952Y-9929841D01*
X59024720Y-9941664D01*
X59032288Y-9954290D01*
X59038582Y-9967597D01*
X59043541Y-9981457D01*
X59047118Y-9995736D01*
X59049278Y-10010297D01*
X59050000Y-10025000D01*
X59050000Y-11275000D01*
X59049278Y-11289703D01*
X59047118Y-11304264D01*
X59043541Y-11318543D01*
X59038582Y-11332403D01*
X59032288Y-11345710D01*
X59024720Y-11358336D01*
X59015952Y-11370159D01*
X59006066Y-11381066D01*
X58995159Y-11390952D01*
X58983336Y-11399720D01*
X58970710Y-11407288D01*
X58957403Y-11413582D01*
X58943543Y-11418541D01*
X58929264Y-11422118D01*
X58914703Y-11424278D01*
X58900000Y-11425000D01*
X58600000Y-11425000D01*
X58585297Y-11424278D01*
X58570736Y-11422118D01*
X58556457Y-11418541D01*
X58542597Y-11413582D01*
X58529290Y-11407288D01*
X58516664Y-11399720D01*
X58504841Y-11390952D01*
X58493934Y-11381066D01*
X58484048Y-11370159D01*
X58475280Y-11358336D01*
X58467712Y-11345710D01*
X58461418Y-11332403D01*
X58456459Y-11318543D01*
X58452882Y-11304264D01*
X58450722Y-11289703D01*
X58450000Y-11275000D01*
X58450000Y-10025000D01*
X58450722Y-10010297D01*
X58452882Y-9995736D01*
X58456459Y-9981457D01*
X58461418Y-9967597D01*
X58467712Y-9954290D01*
X58475280Y-9941664D01*
X58484048Y-9929841D01*
X58493934Y-9918934D01*
X58504841Y-9909048D01*
X58516664Y-9900280D01*
X58529290Y-9892712D01*
X58542597Y-9886418D01*
X58556457Y-9881459D01*
X58570736Y-9877882D01*
X58585297Y-9875722D01*
X58600000Y-9875000D01*
X58900000Y-9875000D01*
X58914703Y-9875722D01*
X58914703Y-9875722D01*
G37*
D12*
X58750000Y-10650000D03*
D10*
G36*
X57914703Y-9875722D02*
G01*
X57929264Y-9877882D01*
X57943543Y-9881459D01*
X57957403Y-9886418D01*
X57970710Y-9892712D01*
X57983336Y-9900280D01*
X57995159Y-9909048D01*
X58006066Y-9918934D01*
X58015952Y-9929841D01*
X58024720Y-9941664D01*
X58032288Y-9954290D01*
X58038582Y-9967597D01*
X58043541Y-9981457D01*
X58047118Y-9995736D01*
X58049278Y-10010297D01*
X58050000Y-10025000D01*
X58050000Y-11275000D01*
X58049278Y-11289703D01*
X58047118Y-11304264D01*
X58043541Y-11318543D01*
X58038582Y-11332403D01*
X58032288Y-11345710D01*
X58024720Y-11358336D01*
X58015952Y-11370159D01*
X58006066Y-11381066D01*
X57995159Y-11390952D01*
X57983336Y-11399720D01*
X57970710Y-11407288D01*
X57957403Y-11413582D01*
X57943543Y-11418541D01*
X57929264Y-11422118D01*
X57914703Y-11424278D01*
X57900000Y-11425000D01*
X57600000Y-11425000D01*
X57585297Y-11424278D01*
X57570736Y-11422118D01*
X57556457Y-11418541D01*
X57542597Y-11413582D01*
X57529290Y-11407288D01*
X57516664Y-11399720D01*
X57504841Y-11390952D01*
X57493934Y-11381066D01*
X57484048Y-11370159D01*
X57475280Y-11358336D01*
X57467712Y-11345710D01*
X57461418Y-11332403D01*
X57456459Y-11318543D01*
X57452882Y-11304264D01*
X57450722Y-11289703D01*
X57450000Y-11275000D01*
X57450000Y-10025000D01*
X57450722Y-10010297D01*
X57452882Y-9995736D01*
X57456459Y-9981457D01*
X57461418Y-9967597D01*
X57467712Y-9954290D01*
X57475280Y-9941664D01*
X57484048Y-9929841D01*
X57493934Y-9918934D01*
X57504841Y-9909048D01*
X57516664Y-9900280D01*
X57529290Y-9892712D01*
X57542597Y-9886418D01*
X57556457Y-9881459D01*
X57570736Y-9877882D01*
X57585297Y-9875722D01*
X57600000Y-9875000D01*
X57900000Y-9875000D01*
X57914703Y-9875722D01*
X57914703Y-9875722D01*
G37*
D12*
X57750000Y-10650000D03*
D10*
G36*
X65527691Y-8926053D02*
G01*
X65548926Y-8929203D01*
X65569750Y-8934419D01*
X65589962Y-8941651D01*
X65609368Y-8950830D01*
X65627781Y-8961866D01*
X65645024Y-8974654D01*
X65660930Y-8989070D01*
X65675346Y-9004976D01*
X65688134Y-9022219D01*
X65699170Y-9040632D01*
X65708349Y-9060038D01*
X65715581Y-9080250D01*
X65720797Y-9101074D01*
X65723947Y-9122309D01*
X65725000Y-9143750D01*
X65725000Y-9581250D01*
X65723947Y-9602691D01*
X65720797Y-9623926D01*
X65715581Y-9644750D01*
X65708349Y-9664962D01*
X65699170Y-9684368D01*
X65688134Y-9702781D01*
X65675346Y-9720024D01*
X65660930Y-9735930D01*
X65645024Y-9750346D01*
X65627781Y-9763134D01*
X65609368Y-9774170D01*
X65589962Y-9783349D01*
X65569750Y-9790581D01*
X65548926Y-9795797D01*
X65527691Y-9798947D01*
X65506250Y-9800000D01*
X64993750Y-9800000D01*
X64972309Y-9798947D01*
X64951074Y-9795797D01*
X64930250Y-9790581D01*
X64910038Y-9783349D01*
X64890632Y-9774170D01*
X64872219Y-9763134D01*
X64854976Y-9750346D01*
X64839070Y-9735930D01*
X64824654Y-9720024D01*
X64811866Y-9702781D01*
X64800830Y-9684368D01*
X64791651Y-9664962D01*
X64784419Y-9644750D01*
X64779203Y-9623926D01*
X64776053Y-9602691D01*
X64775000Y-9581250D01*
X64775000Y-9143750D01*
X64776053Y-9122309D01*
X64779203Y-9101074D01*
X64784419Y-9080250D01*
X64791651Y-9060038D01*
X64800830Y-9040632D01*
X64811866Y-9022219D01*
X64824654Y-9004976D01*
X64839070Y-8989070D01*
X64854976Y-8974654D01*
X64872219Y-8961866D01*
X64890632Y-8950830D01*
X64910038Y-8941651D01*
X64930250Y-8934419D01*
X64951074Y-8929203D01*
X64972309Y-8926053D01*
X64993750Y-8925000D01*
X65506250Y-8925000D01*
X65527691Y-8926053D01*
X65527691Y-8926053D01*
G37*
D13*
X65250000Y-9362500D03*
D10*
G36*
X65527691Y-10501053D02*
G01*
X65548926Y-10504203D01*
X65569750Y-10509419D01*
X65589962Y-10516651D01*
X65609368Y-10525830D01*
X65627781Y-10536866D01*
X65645024Y-10549654D01*
X65660930Y-10564070D01*
X65675346Y-10579976D01*
X65688134Y-10597219D01*
X65699170Y-10615632D01*
X65708349Y-10635038D01*
X65715581Y-10655250D01*
X65720797Y-10676074D01*
X65723947Y-10697309D01*
X65725000Y-10718750D01*
X65725000Y-11156250D01*
X65723947Y-11177691D01*
X65720797Y-11198926D01*
X65715581Y-11219750D01*
X65708349Y-11239962D01*
X65699170Y-11259368D01*
X65688134Y-11277781D01*
X65675346Y-11295024D01*
X65660930Y-11310930D01*
X65645024Y-11325346D01*
X65627781Y-11338134D01*
X65609368Y-11349170D01*
X65589962Y-11358349D01*
X65569750Y-11365581D01*
X65548926Y-11370797D01*
X65527691Y-11373947D01*
X65506250Y-11375000D01*
X64993750Y-11375000D01*
X64972309Y-11373947D01*
X64951074Y-11370797D01*
X64930250Y-11365581D01*
X64910038Y-11358349D01*
X64890632Y-11349170D01*
X64872219Y-11338134D01*
X64854976Y-11325346D01*
X64839070Y-11310930D01*
X64824654Y-11295024D01*
X64811866Y-11277781D01*
X64800830Y-11259368D01*
X64791651Y-11239962D01*
X64784419Y-11219750D01*
X64779203Y-11198926D01*
X64776053Y-11177691D01*
X64775000Y-11156250D01*
X64775000Y-10718750D01*
X64776053Y-10697309D01*
X64779203Y-10676074D01*
X64784419Y-10655250D01*
X64791651Y-10635038D01*
X64800830Y-10615632D01*
X64811866Y-10597219D01*
X64824654Y-10579976D01*
X64839070Y-10564070D01*
X64854976Y-10549654D01*
X64872219Y-10536866D01*
X64890632Y-10525830D01*
X64910038Y-10516651D01*
X64930250Y-10509419D01*
X64951074Y-10504203D01*
X64972309Y-10501053D01*
X64993750Y-10500000D01*
X65506250Y-10500000D01*
X65527691Y-10501053D01*
X65527691Y-10501053D01*
G37*
D13*
X65250000Y-10937500D03*
D14*
X67750000Y-21950000D03*
X69150000Y-21950000D03*
X67750000Y-25450000D03*
X69150000Y-25450000D03*
D15*
X25550000Y-62550000D03*
X37550000Y-62550000D03*
X49800000Y-62550000D03*
D16*
X10800000Y-50300000D03*
X10800000Y-42050000D03*
M02*
