G04 #@! TF.GenerationSoftware,KiCad,Pcbnew,(5.1.2)-2*
G04 #@! TF.CreationDate,2020-04-08T13:50:03-07:00*
G04 #@! TF.ProjectId,flatmcu,666c6174-6d63-4752-9e6b-696361645f70,rev?*
G04 #@! TF.SameCoordinates,PX1312d00PY1312d00*
G04 #@! TF.FileFunction,Soldermask,Bot*
G04 #@! TF.FilePolarity,Negative*
%FSLAX46Y46*%
G04 Gerber Fmt 4.6, Leading zero omitted, Abs format (unit mm)*
G04 Created by KiCad (PCBNEW (5.1.2)-2) date 2020-04-08 13:50:03*
%MOMM*%
%LPD*%
G04 APERTURE LIST*
%ADD10C,0.100000*%
G04 APERTURE END LIST*
D10*
G36*
X28062700Y-67562700D02*
G01*
X23037300Y-67562700D01*
X23037300Y-57537300D01*
X28062700Y-57537300D01*
X28062700Y-67562700D01*
X28062700Y-67562700D01*
G37*
G36*
X40062700Y-67562700D02*
G01*
X35037300Y-67562700D01*
X35037300Y-57537300D01*
X40062700Y-57537300D01*
X40062700Y-67562700D01*
X40062700Y-67562700D01*
G37*
G36*
X52312700Y-67562700D02*
G01*
X47287300Y-67562700D01*
X47287300Y-57537300D01*
X52312700Y-57537300D01*
X52312700Y-67562700D01*
X52312700Y-67562700D01*
G37*
G36*
X9270407Y-62749275D02*
G01*
X9270409Y-62749276D01*
X9270410Y-62749276D01*
X9378825Y-62794183D01*
X9563900Y-62870844D01*
X9828036Y-63047334D01*
X10052666Y-63271964D01*
X10229156Y-63536100D01*
X10350725Y-63829593D01*
X10412700Y-64141163D01*
X10412700Y-64458837D01*
X10350725Y-64770407D01*
X10229156Y-65063900D01*
X10052666Y-65328036D01*
X9828036Y-65552666D01*
X9563900Y-65729156D01*
X9378825Y-65805817D01*
X9270410Y-65850724D01*
X9270409Y-65850724D01*
X9270407Y-65850725D01*
X8958837Y-65912700D01*
X8641163Y-65912700D01*
X8329593Y-65850725D01*
X8329591Y-65850724D01*
X8329590Y-65850724D01*
X8221175Y-65805817D01*
X8036100Y-65729156D01*
X7771964Y-65552666D01*
X7547334Y-65328036D01*
X7370844Y-65063900D01*
X7249275Y-64770407D01*
X7187300Y-64458837D01*
X7187300Y-64141163D01*
X7249275Y-63829593D01*
X7370844Y-63536100D01*
X7547334Y-63271964D01*
X7771964Y-63047334D01*
X8036100Y-62870844D01*
X8221175Y-62794183D01*
X8329590Y-62749276D01*
X8329591Y-62749276D01*
X8329593Y-62749275D01*
X8641163Y-62687300D01*
X8958837Y-62687300D01*
X9270407Y-62749275D01*
X9270407Y-62749275D01*
G37*
G36*
X79270407Y-62749275D02*
G01*
X79270409Y-62749276D01*
X79270410Y-62749276D01*
X79378825Y-62794183D01*
X79563900Y-62870844D01*
X79828036Y-63047334D01*
X80052666Y-63271964D01*
X80229156Y-63536100D01*
X80350725Y-63829593D01*
X80412700Y-64141163D01*
X80412700Y-64458837D01*
X80350725Y-64770407D01*
X80229156Y-65063900D01*
X80052666Y-65328036D01*
X79828036Y-65552666D01*
X79563900Y-65729156D01*
X79378825Y-65805817D01*
X79270410Y-65850724D01*
X79270409Y-65850724D01*
X79270407Y-65850725D01*
X78958837Y-65912700D01*
X78641163Y-65912700D01*
X78329593Y-65850725D01*
X78329591Y-65850724D01*
X78329590Y-65850724D01*
X78221175Y-65805817D01*
X78036100Y-65729156D01*
X77771964Y-65552666D01*
X77547334Y-65328036D01*
X77370844Y-65063900D01*
X77249275Y-64770407D01*
X77187300Y-64458837D01*
X77187300Y-64141163D01*
X77249275Y-63829593D01*
X77370844Y-63536100D01*
X77547334Y-63271964D01*
X77771964Y-63047334D01*
X78036100Y-62870844D01*
X78221175Y-62794183D01*
X78329590Y-62749276D01*
X78329591Y-62749276D01*
X78329593Y-62749275D01*
X78641163Y-62687300D01*
X78958837Y-62687300D01*
X79270407Y-62749275D01*
X79270407Y-62749275D01*
G37*
G36*
X70891522Y-63890496D02*
G01*
X70913725Y-63897231D01*
X70934183Y-63908166D01*
X70952116Y-63922884D01*
X70966834Y-63940817D01*
X70977769Y-63961275D01*
X70984504Y-63983478D01*
X70987700Y-64015926D01*
X70987700Y-65484074D01*
X70984504Y-65516522D01*
X70977769Y-65538725D01*
X70966834Y-65559183D01*
X70952116Y-65577116D01*
X70934183Y-65591834D01*
X70913725Y-65602769D01*
X70891522Y-65609504D01*
X70859074Y-65612700D01*
X69140926Y-65612700D01*
X69108478Y-65609504D01*
X69086275Y-65602769D01*
X69065817Y-65591834D01*
X69047884Y-65577116D01*
X69033166Y-65559183D01*
X69022231Y-65538725D01*
X69015496Y-65516522D01*
X69012300Y-65484074D01*
X69012300Y-64015926D01*
X69015496Y-63983478D01*
X69022231Y-63961275D01*
X69033166Y-63940817D01*
X69047884Y-63922884D01*
X69065817Y-63908166D01*
X69086275Y-63897231D01*
X69108478Y-63890496D01*
X69140926Y-63887300D01*
X70859074Y-63887300D01*
X70891522Y-63890496D01*
X70891522Y-63890496D01*
G37*
G36*
X70294119Y-61399783D02*
G01*
X70456738Y-61449113D01*
X70606609Y-61529221D01*
X70737972Y-61637028D01*
X70845779Y-61768391D01*
X70925887Y-61918262D01*
X70975217Y-62080881D01*
X70991874Y-62250000D01*
X70975217Y-62419119D01*
X70925887Y-62581738D01*
X70845779Y-62731609D01*
X70737972Y-62862972D01*
X70606609Y-62970779D01*
X70456738Y-63050887D01*
X70294119Y-63100217D01*
X70167379Y-63112700D01*
X69832621Y-63112700D01*
X69705881Y-63100217D01*
X69543262Y-63050887D01*
X69393391Y-62970779D01*
X69262028Y-62862972D01*
X69154221Y-62731609D01*
X69074113Y-62581738D01*
X69024783Y-62419119D01*
X69008126Y-62250000D01*
X69024783Y-62080881D01*
X69074113Y-61918262D01*
X69154221Y-61768391D01*
X69262028Y-61637028D01*
X69393391Y-61529221D01*
X69543262Y-61449113D01*
X69705881Y-61399783D01*
X69832621Y-61387300D01*
X70167379Y-61387300D01*
X70294119Y-61399783D01*
X70294119Y-61399783D01*
G37*
G36*
X70294119Y-58899783D02*
G01*
X70456738Y-58949113D01*
X70606609Y-59029221D01*
X70737972Y-59137028D01*
X70845779Y-59268391D01*
X70925887Y-59418262D01*
X70975217Y-59580881D01*
X70991874Y-59750000D01*
X70975217Y-59919119D01*
X70925887Y-60081738D01*
X70845779Y-60231609D01*
X70737972Y-60362972D01*
X70606609Y-60470779D01*
X70456738Y-60550887D01*
X70294119Y-60600217D01*
X70167379Y-60612700D01*
X69832621Y-60612700D01*
X69705881Y-60600217D01*
X69543262Y-60550887D01*
X69393391Y-60470779D01*
X69262028Y-60362972D01*
X69154221Y-60231609D01*
X69074113Y-60081738D01*
X69024783Y-59919119D01*
X69008126Y-59750000D01*
X69024783Y-59580881D01*
X69074113Y-59418262D01*
X69154221Y-59268391D01*
X69262028Y-59137028D01*
X69393391Y-59029221D01*
X69543262Y-58949113D01*
X69705881Y-58899783D01*
X69832621Y-58887300D01*
X70167379Y-58887300D01*
X70294119Y-58899783D01*
X70294119Y-58899783D01*
G37*
G36*
X45900000Y-51300000D02*
G01*
X16003199Y-51300000D01*
X15966034Y-51303660D01*
X15930298Y-51314501D01*
X15897363Y-51332105D01*
X15868496Y-51355796D01*
X15844805Y-51384663D01*
X15827201Y-51417598D01*
X15816360Y-51453334D01*
X15812700Y-51490499D01*
X15812700Y-52812700D01*
X5787300Y-52812700D01*
X5787300Y-47787300D01*
X15490197Y-47787300D01*
X15527362Y-47783640D01*
X15563098Y-47772799D01*
X15596033Y-47755195D01*
X15624900Y-47731504D01*
X15638605Y-47714805D01*
X15638863Y-47715017D01*
X15650000Y-47701446D01*
X15650000Y-47700000D01*
X45900000Y-47700000D01*
X45900000Y-51300000D01*
X45900000Y-51300000D01*
G37*
G36*
X79941522Y-50190496D02*
G01*
X79963725Y-50197231D01*
X79984183Y-50208166D01*
X80002116Y-50222884D01*
X80016834Y-50240817D01*
X80027769Y-50261275D01*
X80034504Y-50283478D01*
X80037700Y-50315926D01*
X80037700Y-51784074D01*
X80034504Y-51816522D01*
X80027769Y-51838725D01*
X80016834Y-51859183D01*
X80002116Y-51877116D01*
X79984183Y-51891834D01*
X79963725Y-51902769D01*
X79941522Y-51909504D01*
X79909074Y-51912700D01*
X78190926Y-51912700D01*
X78158478Y-51909504D01*
X78136275Y-51902769D01*
X78115817Y-51891834D01*
X78097884Y-51877116D01*
X78083166Y-51859183D01*
X78072231Y-51838725D01*
X78065496Y-51816522D01*
X78062300Y-51784074D01*
X78062300Y-50315926D01*
X78065496Y-50283478D01*
X78072231Y-50261275D01*
X78083166Y-50240817D01*
X78097884Y-50222884D01*
X78115817Y-50208166D01*
X78136275Y-50197231D01*
X78158478Y-50190496D01*
X78190926Y-50187300D01*
X79909074Y-50187300D01*
X79941522Y-50190496D01*
X79941522Y-50190496D01*
G37*
G36*
X79344119Y-47699783D02*
G01*
X79506738Y-47749113D01*
X79656609Y-47829221D01*
X79787972Y-47937028D01*
X79895779Y-48068391D01*
X79975887Y-48218262D01*
X80025217Y-48380881D01*
X80041874Y-48550000D01*
X80025217Y-48719119D01*
X79975887Y-48881738D01*
X79895779Y-49031609D01*
X79787972Y-49162972D01*
X79656609Y-49270779D01*
X79506738Y-49350887D01*
X79344119Y-49400217D01*
X79217379Y-49412700D01*
X78882621Y-49412700D01*
X78755881Y-49400217D01*
X78593262Y-49350887D01*
X78443391Y-49270779D01*
X78312028Y-49162972D01*
X78204221Y-49031609D01*
X78124113Y-48881738D01*
X78074783Y-48719119D01*
X78058126Y-48550000D01*
X78074783Y-48380881D01*
X78124113Y-48218262D01*
X78204221Y-48068391D01*
X78312028Y-47937028D01*
X78443391Y-47829221D01*
X78593262Y-47749113D01*
X78755881Y-47699783D01*
X78882621Y-47687300D01*
X79217379Y-47687300D01*
X79344119Y-47699783D01*
X79344119Y-47699783D01*
G37*
G36*
X79344119Y-45199783D02*
G01*
X79506738Y-45249113D01*
X79656609Y-45329221D01*
X79787972Y-45437028D01*
X79895779Y-45568391D01*
X79975887Y-45718262D01*
X80025217Y-45880881D01*
X80041874Y-46050000D01*
X80025217Y-46219119D01*
X79975887Y-46381738D01*
X79895779Y-46531609D01*
X79787972Y-46662972D01*
X79656609Y-46770779D01*
X79506738Y-46850887D01*
X79344119Y-46900217D01*
X79217379Y-46912700D01*
X78882621Y-46912700D01*
X78755881Y-46900217D01*
X78593262Y-46850887D01*
X78443391Y-46770779D01*
X78312028Y-46662972D01*
X78204221Y-46531609D01*
X78124113Y-46381738D01*
X78074783Y-46219119D01*
X78058126Y-46050000D01*
X78074783Y-45880881D01*
X78124113Y-45718262D01*
X78204221Y-45568391D01*
X78312028Y-45437028D01*
X78443391Y-45329221D01*
X78593262Y-45249113D01*
X78755881Y-45199783D01*
X78882621Y-45187300D01*
X79217379Y-45187300D01*
X79344119Y-45199783D01*
X79344119Y-45199783D01*
G37*
G36*
X15816360Y-39546666D02*
G01*
X15827201Y-39582402D01*
X15844805Y-39615337D01*
X15868496Y-39644204D01*
X15897363Y-39667895D01*
X15930298Y-39685499D01*
X15966034Y-39696340D01*
X16003199Y-39700000D01*
X21200000Y-39700000D01*
X21200000Y-41509501D01*
X21203660Y-41546666D01*
X21214501Y-41582402D01*
X21232105Y-41615337D01*
X21255796Y-41644204D01*
X21284663Y-41667895D01*
X21317598Y-41685499D01*
X21353334Y-41696340D01*
X21390499Y-41700000D01*
X21500000Y-41700000D01*
X21844204Y-42044204D01*
X21873071Y-42067895D01*
X21906006Y-42085499D01*
X21941742Y-42096340D01*
X21978907Y-42100000D01*
X22621093Y-42100000D01*
X22658258Y-42096340D01*
X22693994Y-42085499D01*
X22726929Y-42067895D01*
X22755796Y-42044204D01*
X23100000Y-41700000D01*
X27900000Y-41700000D01*
X28044204Y-41844204D01*
X28073071Y-41867895D01*
X28106006Y-41885499D01*
X28141742Y-41896340D01*
X28178907Y-41900000D01*
X28821093Y-41900000D01*
X28858258Y-41896340D01*
X28893994Y-41885499D01*
X28926929Y-41867895D01*
X28955796Y-41844204D01*
X29100000Y-41700000D01*
X35200000Y-41700000D01*
X35344204Y-41844204D01*
X35373071Y-41867895D01*
X35406006Y-41885499D01*
X35441742Y-41896340D01*
X35478907Y-41900000D01*
X36121093Y-41900000D01*
X36158258Y-41896340D01*
X36193994Y-41885499D01*
X36226929Y-41867895D01*
X36255796Y-41844204D01*
X36400000Y-41700000D01*
X44000000Y-41700000D01*
X44000000Y-45500000D01*
X16200000Y-45500000D01*
X16200000Y-44640499D01*
X16196340Y-44603334D01*
X16185499Y-44567598D01*
X16167895Y-44534663D01*
X16144204Y-44505796D01*
X16115337Y-44482105D01*
X16082402Y-44464501D01*
X16046666Y-44453660D01*
X16009501Y-44450000D01*
X16003199Y-44450000D01*
X15966034Y-44453660D01*
X15930298Y-44464501D01*
X15897363Y-44482105D01*
X15868496Y-44505796D01*
X15844805Y-44534663D01*
X15829819Y-44562700D01*
X5787300Y-44562700D01*
X5787300Y-39537300D01*
X15815438Y-39537300D01*
X15816360Y-39546666D01*
X15816360Y-39546666D01*
G37*
G36*
X79344119Y-42699783D02*
G01*
X79506738Y-42749113D01*
X79656609Y-42829221D01*
X79787972Y-42937028D01*
X79895779Y-43068391D01*
X79975887Y-43218262D01*
X80025217Y-43380881D01*
X80041874Y-43550000D01*
X80025217Y-43719119D01*
X79975887Y-43881738D01*
X79895779Y-44031609D01*
X79787972Y-44162972D01*
X79656609Y-44270779D01*
X79506738Y-44350887D01*
X79344119Y-44400217D01*
X79217379Y-44412700D01*
X78882621Y-44412700D01*
X78755881Y-44400217D01*
X78593262Y-44350887D01*
X78443391Y-44270779D01*
X78312028Y-44162972D01*
X78204221Y-44031609D01*
X78124113Y-43881738D01*
X78074783Y-43719119D01*
X78058126Y-43550000D01*
X78074783Y-43380881D01*
X78124113Y-43218262D01*
X78204221Y-43068391D01*
X78312028Y-42937028D01*
X78443391Y-42829221D01*
X78593262Y-42749113D01*
X78755881Y-42699783D01*
X78882621Y-42687300D01*
X79217379Y-42687300D01*
X79344119Y-42699783D01*
X79344119Y-42699783D01*
G37*
G36*
X79344119Y-40199783D02*
G01*
X79506738Y-40249113D01*
X79656609Y-40329221D01*
X79787972Y-40437028D01*
X79895779Y-40568391D01*
X79975887Y-40718262D01*
X80025217Y-40880881D01*
X80041874Y-41050000D01*
X80025217Y-41219119D01*
X79975887Y-41381738D01*
X79895779Y-41531609D01*
X79787972Y-41662972D01*
X79656609Y-41770779D01*
X79506738Y-41850887D01*
X79344119Y-41900217D01*
X79217379Y-41912700D01*
X78882621Y-41912700D01*
X78755881Y-41900217D01*
X78593262Y-41850887D01*
X78443391Y-41770779D01*
X78312028Y-41662972D01*
X78204221Y-41531609D01*
X78124113Y-41381738D01*
X78074783Y-41219119D01*
X78058126Y-41050000D01*
X78074783Y-40880881D01*
X78124113Y-40718262D01*
X78204221Y-40568391D01*
X78312028Y-40437028D01*
X78443391Y-40329221D01*
X78593262Y-40249113D01*
X78755881Y-40199783D01*
X78882621Y-40187300D01*
X79217379Y-40187300D01*
X79344119Y-40199783D01*
X79344119Y-40199783D01*
G37*
G36*
X79344119Y-37699783D02*
G01*
X79506738Y-37749113D01*
X79656609Y-37829221D01*
X79787972Y-37937028D01*
X79895779Y-38068391D01*
X79975887Y-38218262D01*
X80025217Y-38380881D01*
X80041874Y-38550000D01*
X80025217Y-38719119D01*
X79975887Y-38881738D01*
X79895779Y-39031609D01*
X79787972Y-39162972D01*
X79656609Y-39270779D01*
X79506738Y-39350887D01*
X79344119Y-39400217D01*
X79217379Y-39412700D01*
X78882621Y-39412700D01*
X78755881Y-39400217D01*
X78593262Y-39350887D01*
X78443391Y-39270779D01*
X78312028Y-39162972D01*
X78204221Y-39031609D01*
X78124113Y-38881738D01*
X78074783Y-38719119D01*
X78058126Y-38550000D01*
X78074783Y-38380881D01*
X78124113Y-38218262D01*
X78204221Y-38068391D01*
X78312028Y-37937028D01*
X78443391Y-37829221D01*
X78593262Y-37749113D01*
X78755881Y-37699783D01*
X78882621Y-37687300D01*
X79217379Y-37687300D01*
X79344119Y-37699783D01*
X79344119Y-37699783D01*
G37*
G36*
X33300000Y-35000000D02*
G01*
X28800000Y-35000000D01*
X28800000Y-29950000D01*
X33300000Y-29950000D01*
X33300000Y-35000000D01*
X33300000Y-35000000D01*
G37*
G36*
X73837700Y-34337700D02*
G01*
X72962300Y-34337700D01*
X72962300Y-33462300D01*
X73837700Y-33462300D01*
X73837700Y-34337700D01*
X73837700Y-34337700D01*
G37*
G36*
X73837700Y-31837700D02*
G01*
X72962300Y-31837700D01*
X72962300Y-30962300D01*
X73837700Y-30962300D01*
X73837700Y-31837700D01*
X73837700Y-31837700D01*
G37*
G36*
X71337700Y-31837700D02*
G01*
X70462300Y-31837700D01*
X70462300Y-30962300D01*
X71337700Y-30962300D01*
X71337700Y-31837700D01*
X71337700Y-31837700D01*
G37*
G36*
X79941522Y-29240496D02*
G01*
X79963725Y-29247231D01*
X79984183Y-29258166D01*
X80002116Y-29272884D01*
X80016834Y-29290817D01*
X80027769Y-29311275D01*
X80034504Y-29333478D01*
X80037700Y-29365926D01*
X80037700Y-30834074D01*
X80034504Y-30866522D01*
X80027769Y-30888725D01*
X80016834Y-30909183D01*
X80002116Y-30927116D01*
X79984183Y-30941834D01*
X79963725Y-30952769D01*
X79941522Y-30959504D01*
X79909074Y-30962700D01*
X78190926Y-30962700D01*
X78158478Y-30959504D01*
X78136275Y-30952769D01*
X78115817Y-30941834D01*
X78097884Y-30927116D01*
X78083166Y-30909183D01*
X78072231Y-30888725D01*
X78065496Y-30866522D01*
X78062300Y-30834074D01*
X78062300Y-29365926D01*
X78065496Y-29333478D01*
X78072231Y-29311275D01*
X78083166Y-29290817D01*
X78097884Y-29272884D01*
X78115817Y-29258166D01*
X78136275Y-29247231D01*
X78158478Y-29240496D01*
X78190926Y-29237300D01*
X79909074Y-29237300D01*
X79941522Y-29240496D01*
X79941522Y-29240496D01*
G37*
G36*
X79344119Y-26749783D02*
G01*
X79506738Y-26799113D01*
X79656609Y-26879221D01*
X79787972Y-26987028D01*
X79895779Y-27118391D01*
X79975887Y-27268262D01*
X80025217Y-27430881D01*
X80041874Y-27600000D01*
X80025217Y-27769119D01*
X79975887Y-27931738D01*
X79895779Y-28081609D01*
X79787972Y-28212972D01*
X79656609Y-28320779D01*
X79506738Y-28400887D01*
X79344119Y-28450217D01*
X79217379Y-28462700D01*
X78882621Y-28462700D01*
X78755881Y-28450217D01*
X78593262Y-28400887D01*
X78443391Y-28320779D01*
X78312028Y-28212972D01*
X78204221Y-28081609D01*
X78124113Y-27931738D01*
X78074783Y-27769119D01*
X78058126Y-27600000D01*
X78074783Y-27430881D01*
X78124113Y-27268262D01*
X78204221Y-27118391D01*
X78312028Y-26987028D01*
X78443391Y-26879221D01*
X78593262Y-26799113D01*
X78755881Y-26749783D01*
X78882621Y-26737300D01*
X79217379Y-26737300D01*
X79344119Y-26749783D01*
X79344119Y-26749783D01*
G37*
G36*
X69662700Y-26212700D02*
G01*
X67237300Y-26212700D01*
X67237300Y-24687300D01*
X69662700Y-24687300D01*
X69662700Y-26212700D01*
X69662700Y-26212700D01*
G37*
G36*
X79344119Y-24249783D02*
G01*
X79506738Y-24299113D01*
X79656609Y-24379221D01*
X79787972Y-24487028D01*
X79895779Y-24618391D01*
X79975887Y-24768262D01*
X80025217Y-24930881D01*
X80041874Y-25100000D01*
X80025217Y-25269119D01*
X79975887Y-25431738D01*
X79895779Y-25581609D01*
X79787972Y-25712972D01*
X79656609Y-25820779D01*
X79506738Y-25900887D01*
X79344119Y-25950217D01*
X79217379Y-25962700D01*
X78882621Y-25962700D01*
X78755881Y-25950217D01*
X78593262Y-25900887D01*
X78443391Y-25820779D01*
X78312028Y-25712972D01*
X78204221Y-25581609D01*
X78124113Y-25431738D01*
X78074783Y-25269119D01*
X78058126Y-25100000D01*
X78074783Y-24930881D01*
X78124113Y-24768262D01*
X78204221Y-24618391D01*
X78312028Y-24487028D01*
X78443391Y-24379221D01*
X78593262Y-24299113D01*
X78755881Y-24249783D01*
X78882621Y-24237300D01*
X79217379Y-24237300D01*
X79344119Y-24249783D01*
X79344119Y-24249783D01*
G37*
G36*
X79344119Y-21749783D02*
G01*
X79506738Y-21799113D01*
X79656609Y-21879221D01*
X79787972Y-21987028D01*
X79895779Y-22118391D01*
X79975887Y-22268262D01*
X80025217Y-22430881D01*
X80041874Y-22600000D01*
X80025217Y-22769119D01*
X79975887Y-22931738D01*
X79895779Y-23081609D01*
X79787972Y-23212972D01*
X79656609Y-23320779D01*
X79506738Y-23400887D01*
X79344119Y-23450217D01*
X79217379Y-23462700D01*
X78882621Y-23462700D01*
X78755881Y-23450217D01*
X78593262Y-23400887D01*
X78443391Y-23320779D01*
X78312028Y-23212972D01*
X78204221Y-23081609D01*
X78124113Y-22931738D01*
X78074783Y-22769119D01*
X78058126Y-22600000D01*
X78074783Y-22430881D01*
X78124113Y-22268262D01*
X78204221Y-22118391D01*
X78312028Y-21987028D01*
X78443391Y-21879221D01*
X78593262Y-21799113D01*
X78755881Y-21749783D01*
X78882621Y-21737300D01*
X79217379Y-21737300D01*
X79344119Y-21749783D01*
X79344119Y-21749783D01*
G37*
G36*
X69662700Y-22712700D02*
G01*
X67237300Y-22712700D01*
X67237300Y-21187300D01*
X69662700Y-21187300D01*
X69662700Y-22712700D01*
X69662700Y-22712700D01*
G37*
G36*
X70891522Y-14440496D02*
G01*
X70913725Y-14447231D01*
X70934183Y-14458166D01*
X70952116Y-14472884D01*
X70966834Y-14490817D01*
X70977769Y-14511275D01*
X70984504Y-14533478D01*
X70987700Y-14565926D01*
X70987700Y-16034074D01*
X70984504Y-16066522D01*
X70977769Y-16088725D01*
X70966834Y-16109183D01*
X70952116Y-16127116D01*
X70934183Y-16141834D01*
X70913725Y-16152769D01*
X70891522Y-16159504D01*
X70859074Y-16162700D01*
X69140926Y-16162700D01*
X69108478Y-16159504D01*
X69086275Y-16152769D01*
X69065817Y-16141834D01*
X69047884Y-16127116D01*
X69033166Y-16109183D01*
X69022231Y-16088725D01*
X69015496Y-16066522D01*
X69012300Y-16034074D01*
X69012300Y-14565926D01*
X69015496Y-14533478D01*
X69022231Y-14511275D01*
X69033166Y-14490817D01*
X69047884Y-14472884D01*
X69065817Y-14458166D01*
X69086275Y-14447231D01*
X69108478Y-14440496D01*
X69140926Y-14437300D01*
X70859074Y-14437300D01*
X70891522Y-14440496D01*
X70891522Y-14440496D01*
G37*
G36*
X70294119Y-11949783D02*
G01*
X70456738Y-11999113D01*
X70606609Y-12079221D01*
X70737972Y-12187028D01*
X70845779Y-12318391D01*
X70925887Y-12468262D01*
X70975217Y-12630881D01*
X70991874Y-12800000D01*
X70975217Y-12969119D01*
X70925887Y-13131738D01*
X70845779Y-13281609D01*
X70737972Y-13412972D01*
X70606609Y-13520779D01*
X70456738Y-13600887D01*
X70294119Y-13650217D01*
X70167379Y-13662700D01*
X69832621Y-13662700D01*
X69705881Y-13650217D01*
X69543262Y-13600887D01*
X69393391Y-13520779D01*
X69262028Y-13412972D01*
X69154221Y-13281609D01*
X69074113Y-13131738D01*
X69024783Y-12969119D01*
X69008126Y-12800000D01*
X69024783Y-12630881D01*
X69074113Y-12468262D01*
X69154221Y-12318391D01*
X69262028Y-12187028D01*
X69393391Y-12079221D01*
X69543262Y-11999113D01*
X69705881Y-11949783D01*
X69832621Y-11937300D01*
X70167379Y-11937300D01*
X70294119Y-11949783D01*
X70294119Y-11949783D01*
G37*
G36*
X58013343Y-9864378D02*
G01*
X58024628Y-9867802D01*
X58035032Y-9873362D01*
X58044152Y-9880848D01*
X58051638Y-9889968D01*
X58057198Y-9900372D01*
X58061225Y-9913646D01*
X58067703Y-9946214D01*
X58081994Y-9980716D01*
X58102741Y-10011767D01*
X58129147Y-10038174D01*
X58160198Y-10058921D01*
X58194699Y-10073213D01*
X58231326Y-10080499D01*
X58268670Y-10080499D01*
X58305297Y-10073214D01*
X58339799Y-10058923D01*
X58370850Y-10038176D01*
X58397257Y-10011770D01*
X58418004Y-9980719D01*
X58432296Y-9946218D01*
X58438775Y-9913646D01*
X58442802Y-9900372D01*
X58448362Y-9889968D01*
X58455848Y-9880848D01*
X58464968Y-9873362D01*
X58475372Y-9867802D01*
X58486657Y-9864378D01*
X58507759Y-9862300D01*
X58992241Y-9862300D01*
X59013343Y-9864378D01*
X59024628Y-9867802D01*
X59035032Y-9873362D01*
X59044152Y-9880848D01*
X59051638Y-9889968D01*
X59057198Y-9900372D01*
X59061225Y-9913646D01*
X59067703Y-9946214D01*
X59081994Y-9980716D01*
X59102741Y-10011767D01*
X59129147Y-10038174D01*
X59160198Y-10058921D01*
X59194699Y-10073213D01*
X59231326Y-10080499D01*
X59268670Y-10080499D01*
X59305297Y-10073214D01*
X59339799Y-10058923D01*
X59370850Y-10038176D01*
X59397257Y-10011770D01*
X59418004Y-9980719D01*
X59432296Y-9946218D01*
X59438775Y-9913646D01*
X59442802Y-9900372D01*
X59448362Y-9889968D01*
X59455848Y-9880848D01*
X59464968Y-9873362D01*
X59475372Y-9867802D01*
X59486657Y-9864378D01*
X59507759Y-9862300D01*
X59992241Y-9862300D01*
X60013343Y-9864378D01*
X60024628Y-9867802D01*
X60035032Y-9873362D01*
X60044152Y-9880848D01*
X60051638Y-9889968D01*
X60057198Y-9900372D01*
X60061225Y-9913646D01*
X60067703Y-9946214D01*
X60081994Y-9980716D01*
X60102741Y-10011767D01*
X60129147Y-10038174D01*
X60160198Y-10058921D01*
X60194699Y-10073213D01*
X60231326Y-10080499D01*
X60268670Y-10080499D01*
X60305297Y-10073214D01*
X60339799Y-10058923D01*
X60370850Y-10038176D01*
X60397257Y-10011770D01*
X60418004Y-9980719D01*
X60432296Y-9946218D01*
X60438775Y-9913646D01*
X60442802Y-9900372D01*
X60448362Y-9889968D01*
X60455848Y-9880848D01*
X60464968Y-9873362D01*
X60475372Y-9867802D01*
X60486657Y-9864378D01*
X60507759Y-9862300D01*
X60992241Y-9862300D01*
X61013343Y-9864378D01*
X61024628Y-9867802D01*
X61035032Y-9873362D01*
X61044152Y-9880848D01*
X61051638Y-9889968D01*
X61057198Y-9900372D01*
X61061225Y-9913646D01*
X61067703Y-9946214D01*
X61081994Y-9980716D01*
X61102741Y-10011767D01*
X61129147Y-10038174D01*
X61160198Y-10058921D01*
X61194699Y-10073213D01*
X61231326Y-10080499D01*
X61268670Y-10080499D01*
X61305297Y-10073214D01*
X61339799Y-10058923D01*
X61370850Y-10038176D01*
X61397257Y-10011770D01*
X61418004Y-9980719D01*
X61432296Y-9946218D01*
X61438775Y-9913646D01*
X61442802Y-9900372D01*
X61448362Y-9889968D01*
X61455848Y-9880848D01*
X61464968Y-9873362D01*
X61475372Y-9867802D01*
X61486657Y-9864378D01*
X61507759Y-9862300D01*
X61992241Y-9862300D01*
X62013343Y-9864378D01*
X62024628Y-9867802D01*
X62035032Y-9873362D01*
X62044152Y-9880848D01*
X62051638Y-9889968D01*
X62057198Y-9900372D01*
X62060622Y-9911657D01*
X62062700Y-9932759D01*
X62062700Y-11367241D01*
X62060622Y-11388343D01*
X62057198Y-11399628D01*
X62051638Y-11410032D01*
X62044152Y-11419152D01*
X62035032Y-11426638D01*
X62024628Y-11432198D01*
X62013343Y-11435622D01*
X61992241Y-11437700D01*
X61507759Y-11437700D01*
X61486657Y-11435622D01*
X61475372Y-11432198D01*
X61464968Y-11426638D01*
X61455848Y-11419152D01*
X61448362Y-11410032D01*
X61442802Y-11399628D01*
X61438775Y-11386354D01*
X61432297Y-11353786D01*
X61418006Y-11319284D01*
X61397259Y-11288233D01*
X61370853Y-11261826D01*
X61339802Y-11241079D01*
X61305301Y-11226787D01*
X61268674Y-11219501D01*
X61231330Y-11219501D01*
X61194703Y-11226786D01*
X61160201Y-11241077D01*
X61129150Y-11261824D01*
X61102743Y-11288230D01*
X61081996Y-11319281D01*
X61067704Y-11353782D01*
X61061225Y-11386354D01*
X61057198Y-11399628D01*
X61051638Y-11410032D01*
X61044152Y-11419152D01*
X61035032Y-11426638D01*
X61024628Y-11432198D01*
X61013343Y-11435622D01*
X60992241Y-11437700D01*
X60507759Y-11437700D01*
X60486657Y-11435622D01*
X60475372Y-11432198D01*
X60464968Y-11426638D01*
X60455848Y-11419152D01*
X60448362Y-11410032D01*
X60442802Y-11399628D01*
X60438775Y-11386354D01*
X60432297Y-11353786D01*
X60418006Y-11319284D01*
X60397259Y-11288233D01*
X60370853Y-11261826D01*
X60339802Y-11241079D01*
X60305301Y-11226787D01*
X60268674Y-11219501D01*
X60231330Y-11219501D01*
X60194703Y-11226786D01*
X60160201Y-11241077D01*
X60129150Y-11261824D01*
X60102743Y-11288230D01*
X60081996Y-11319281D01*
X60067704Y-11353782D01*
X60061225Y-11386354D01*
X60057198Y-11399628D01*
X60051638Y-11410032D01*
X60044152Y-11419152D01*
X60035032Y-11426638D01*
X60024628Y-11432198D01*
X60013343Y-11435622D01*
X59992241Y-11437700D01*
X59507759Y-11437700D01*
X59486657Y-11435622D01*
X59475372Y-11432198D01*
X59464968Y-11426638D01*
X59455848Y-11419152D01*
X59448362Y-11410032D01*
X59442802Y-11399628D01*
X59438775Y-11386354D01*
X59432297Y-11353786D01*
X59418006Y-11319284D01*
X59397259Y-11288233D01*
X59370853Y-11261826D01*
X59339802Y-11241079D01*
X59305301Y-11226787D01*
X59268674Y-11219501D01*
X59231330Y-11219501D01*
X59194703Y-11226786D01*
X59160201Y-11241077D01*
X59129150Y-11261824D01*
X59102743Y-11288230D01*
X59081996Y-11319281D01*
X59067704Y-11353782D01*
X59061225Y-11386354D01*
X59057198Y-11399628D01*
X59051638Y-11410032D01*
X59044152Y-11419152D01*
X59035032Y-11426638D01*
X59024628Y-11432198D01*
X59013343Y-11435622D01*
X58992241Y-11437700D01*
X58507759Y-11437700D01*
X58486657Y-11435622D01*
X58475372Y-11432198D01*
X58464968Y-11426638D01*
X58455848Y-11419152D01*
X58448362Y-11410032D01*
X58442802Y-11399628D01*
X58438775Y-11386354D01*
X58432297Y-11353786D01*
X58418006Y-11319284D01*
X58397259Y-11288233D01*
X58370853Y-11261826D01*
X58339802Y-11241079D01*
X58305301Y-11226787D01*
X58268674Y-11219501D01*
X58231330Y-11219501D01*
X58194703Y-11226786D01*
X58160201Y-11241077D01*
X58129150Y-11261824D01*
X58102743Y-11288230D01*
X58081996Y-11319281D01*
X58067704Y-11353782D01*
X58061225Y-11386354D01*
X58057198Y-11399628D01*
X58051638Y-11410032D01*
X58044152Y-11419152D01*
X58035032Y-11426638D01*
X58024628Y-11432198D01*
X58013343Y-11435622D01*
X57992241Y-11437700D01*
X57507759Y-11437700D01*
X57486657Y-11435622D01*
X57475372Y-11432198D01*
X57464968Y-11426638D01*
X57455848Y-11419152D01*
X57448362Y-11410032D01*
X57442802Y-11399628D01*
X57439378Y-11388343D01*
X57437300Y-11367241D01*
X57437300Y-9932759D01*
X57439378Y-9911657D01*
X57442802Y-9900372D01*
X57448362Y-9889968D01*
X57455848Y-9880848D01*
X57464968Y-9873362D01*
X57475372Y-9867802D01*
X57486657Y-9864378D01*
X57507759Y-9862300D01*
X57992241Y-9862300D01*
X58013343Y-9864378D01*
X58013343Y-9864378D01*
G37*
G36*
X65633003Y-10490699D02*
G01*
X65657189Y-10498036D01*
X65679476Y-10509949D01*
X65699016Y-10525984D01*
X65715051Y-10545524D01*
X65726964Y-10567811D01*
X65734301Y-10591997D01*
X65737700Y-10626510D01*
X65737700Y-11248490D01*
X65734301Y-11283003D01*
X65726964Y-11307189D01*
X65715051Y-11329476D01*
X65699016Y-11349016D01*
X65679476Y-11365051D01*
X65657189Y-11376964D01*
X65633003Y-11384301D01*
X65598490Y-11387700D01*
X64901510Y-11387700D01*
X64866997Y-11384301D01*
X64842811Y-11376964D01*
X64820524Y-11365051D01*
X64800984Y-11349016D01*
X64784949Y-11329476D01*
X64773036Y-11307189D01*
X64765699Y-11283003D01*
X64762300Y-11248490D01*
X64762300Y-10626510D01*
X64765699Y-10591997D01*
X64773036Y-10567811D01*
X64784949Y-10545524D01*
X64800984Y-10525984D01*
X64820524Y-10509949D01*
X64842811Y-10498036D01*
X64866997Y-10490699D01*
X64901510Y-10487300D01*
X65598490Y-10487300D01*
X65633003Y-10490699D01*
X65633003Y-10490699D01*
G37*
G36*
X70294119Y-9449783D02*
G01*
X70456738Y-9499113D01*
X70606609Y-9579221D01*
X70737972Y-9687028D01*
X70845779Y-9818391D01*
X70925887Y-9968262D01*
X70975217Y-10130881D01*
X70991874Y-10300000D01*
X70975217Y-10469119D01*
X70925887Y-10631738D01*
X70845779Y-10781609D01*
X70737972Y-10912972D01*
X70606609Y-11020779D01*
X70456738Y-11100887D01*
X70294119Y-11150217D01*
X70167379Y-11162700D01*
X69832621Y-11162700D01*
X69705881Y-11150217D01*
X69543262Y-11100887D01*
X69393391Y-11020779D01*
X69262028Y-10912972D01*
X69154221Y-10781609D01*
X69074113Y-10631738D01*
X69024783Y-10469119D01*
X69008126Y-10300000D01*
X69024783Y-10130881D01*
X69074113Y-9968262D01*
X69154221Y-9818391D01*
X69262028Y-9687028D01*
X69393391Y-9579221D01*
X69543262Y-9499113D01*
X69705881Y-9449783D01*
X69832621Y-9437300D01*
X70167379Y-9437300D01*
X70294119Y-9449783D01*
X70294119Y-9449783D01*
G37*
G36*
X9270407Y-7249275D02*
G01*
X9270409Y-7249276D01*
X9270410Y-7249276D01*
X9302818Y-7262700D01*
X9563900Y-7370844D01*
X9828036Y-7547334D01*
X10052666Y-7771964D01*
X10229156Y-8036100D01*
X10350725Y-8329593D01*
X10412700Y-8641163D01*
X10412700Y-8958837D01*
X10350725Y-9270407D01*
X10229156Y-9563900D01*
X10052666Y-9828036D01*
X9828036Y-10052666D01*
X9563900Y-10229156D01*
X9392868Y-10300000D01*
X9270410Y-10350724D01*
X9270409Y-10350724D01*
X9270407Y-10350725D01*
X8958837Y-10412700D01*
X8641163Y-10412700D01*
X8329593Y-10350725D01*
X8329591Y-10350724D01*
X8329590Y-10350724D01*
X8207132Y-10300000D01*
X8036100Y-10229156D01*
X7771964Y-10052666D01*
X7547334Y-9828036D01*
X7370844Y-9563900D01*
X7249275Y-9270407D01*
X7187300Y-8958837D01*
X7187300Y-8641163D01*
X7249275Y-8329593D01*
X7370844Y-8036100D01*
X7547334Y-7771964D01*
X7771964Y-7547334D01*
X8036100Y-7370844D01*
X8297182Y-7262700D01*
X8329590Y-7249276D01*
X8329591Y-7249276D01*
X8329593Y-7249275D01*
X8641163Y-7187300D01*
X8958837Y-7187300D01*
X9270407Y-7249275D01*
X9270407Y-7249275D01*
G37*
G36*
X79270407Y-7249275D02*
G01*
X79270409Y-7249276D01*
X79270410Y-7249276D01*
X79302818Y-7262700D01*
X79563900Y-7370844D01*
X79828036Y-7547334D01*
X80052666Y-7771964D01*
X80229156Y-8036100D01*
X80350725Y-8329593D01*
X80412700Y-8641163D01*
X80412700Y-8958837D01*
X80350725Y-9270407D01*
X80229156Y-9563900D01*
X80052666Y-9828036D01*
X79828036Y-10052666D01*
X79563900Y-10229156D01*
X79392868Y-10300000D01*
X79270410Y-10350724D01*
X79270409Y-10350724D01*
X79270407Y-10350725D01*
X78958837Y-10412700D01*
X78641163Y-10412700D01*
X78329593Y-10350725D01*
X78329591Y-10350724D01*
X78329590Y-10350724D01*
X78207132Y-10300000D01*
X78036100Y-10229156D01*
X77771964Y-10052666D01*
X77547334Y-9828036D01*
X77370844Y-9563900D01*
X77249275Y-9270407D01*
X77187300Y-8958837D01*
X77187300Y-8641163D01*
X77249275Y-8329593D01*
X77370844Y-8036100D01*
X77547334Y-7771964D01*
X77771964Y-7547334D01*
X78036100Y-7370844D01*
X78297182Y-7262700D01*
X78329590Y-7249276D01*
X78329591Y-7249276D01*
X78329593Y-7249275D01*
X78641163Y-7187300D01*
X78958837Y-7187300D01*
X79270407Y-7249275D01*
X79270407Y-7249275D01*
G37*
G36*
X65633003Y-8915699D02*
G01*
X65657189Y-8923036D01*
X65679476Y-8934949D01*
X65699016Y-8950984D01*
X65715051Y-8970524D01*
X65726964Y-8992811D01*
X65734301Y-9016997D01*
X65737700Y-9051510D01*
X65737700Y-9673490D01*
X65734301Y-9708003D01*
X65726964Y-9732189D01*
X65715051Y-9754476D01*
X65699016Y-9774016D01*
X65679476Y-9790051D01*
X65657189Y-9801964D01*
X65633003Y-9809301D01*
X65598490Y-9812700D01*
X64901510Y-9812700D01*
X64866997Y-9809301D01*
X64842811Y-9801964D01*
X64820524Y-9790051D01*
X64800984Y-9774016D01*
X64784949Y-9754476D01*
X64773036Y-9732189D01*
X64765699Y-9708003D01*
X64762300Y-9673490D01*
X64762300Y-9051510D01*
X64765699Y-9016997D01*
X64773036Y-8992811D01*
X64784949Y-8970524D01*
X64800984Y-8950984D01*
X64820524Y-8934949D01*
X64842811Y-8923036D01*
X64866997Y-8915699D01*
X64901510Y-8912300D01*
X65598490Y-8912300D01*
X65633003Y-8915699D01*
X65633003Y-8915699D01*
G37*
G36*
X70294119Y-6949783D02*
G01*
X70456738Y-6999113D01*
X70606609Y-7079221D01*
X70737972Y-7187028D01*
X70845779Y-7318391D01*
X70925887Y-7468262D01*
X70975217Y-7630881D01*
X70991874Y-7800000D01*
X70975217Y-7969119D01*
X70925887Y-8131738D01*
X70845779Y-8281609D01*
X70737972Y-8412972D01*
X70606609Y-8520779D01*
X70456738Y-8600887D01*
X70294119Y-8650217D01*
X70167379Y-8662700D01*
X69832621Y-8662700D01*
X69705881Y-8650217D01*
X69543262Y-8600887D01*
X69393391Y-8520779D01*
X69262028Y-8412972D01*
X69154221Y-8281609D01*
X69074113Y-8131738D01*
X69024783Y-7969119D01*
X69008126Y-7800000D01*
X69024783Y-7630881D01*
X69074113Y-7468262D01*
X69154221Y-7318391D01*
X69262028Y-7187028D01*
X69393391Y-7079221D01*
X69543262Y-6999113D01*
X69705881Y-6949783D01*
X69832621Y-6937300D01*
X70167379Y-6937300D01*
X70294119Y-6949783D01*
X70294119Y-6949783D01*
G37*
G36*
X56946478Y-5865974D02*
G01*
X56973355Y-5874127D01*
X56998115Y-5887361D01*
X57019823Y-5905177D01*
X57037639Y-5926885D01*
X57050873Y-5951645D01*
X57059026Y-5978522D01*
X57062700Y-6015826D01*
X57062700Y-7534174D01*
X57059026Y-7571478D01*
X57050873Y-7598355D01*
X57037639Y-7623115D01*
X57019823Y-7644823D01*
X56998115Y-7662639D01*
X56973355Y-7675873D01*
X56946478Y-7684026D01*
X56909174Y-7687700D01*
X55990826Y-7687700D01*
X55953522Y-7684026D01*
X55926645Y-7675873D01*
X55901885Y-7662639D01*
X55880177Y-7644823D01*
X55862361Y-7623115D01*
X55849127Y-7598355D01*
X55840974Y-7571478D01*
X55837300Y-7534174D01*
X55837300Y-6015826D01*
X55840974Y-5978522D01*
X55849127Y-5951645D01*
X55862361Y-5926885D01*
X55880177Y-5905177D01*
X55901885Y-5887361D01*
X55926645Y-5874127D01*
X55953522Y-5865974D01*
X55990826Y-5862300D01*
X56909174Y-5862300D01*
X56946478Y-5865974D01*
X56946478Y-5865974D01*
G37*
G36*
X63546478Y-5865974D02*
G01*
X63573355Y-5874127D01*
X63598115Y-5887361D01*
X63619823Y-5905177D01*
X63637639Y-5926885D01*
X63650873Y-5951645D01*
X63659026Y-5978522D01*
X63662700Y-6015826D01*
X63662700Y-7534174D01*
X63659026Y-7571478D01*
X63650873Y-7598355D01*
X63637639Y-7623115D01*
X63619823Y-7644823D01*
X63598115Y-7662639D01*
X63573355Y-7675873D01*
X63546478Y-7684026D01*
X63509174Y-7687700D01*
X62590826Y-7687700D01*
X62553522Y-7684026D01*
X62526645Y-7675873D01*
X62501885Y-7662639D01*
X62480177Y-7644823D01*
X62462361Y-7623115D01*
X62449127Y-7598355D01*
X62440974Y-7571478D01*
X62437300Y-7534174D01*
X62437300Y-6015826D01*
X62440974Y-5978522D01*
X62449127Y-5951645D01*
X62462361Y-5926885D01*
X62480177Y-5905177D01*
X62501885Y-5887361D01*
X62526645Y-5874127D01*
X62553522Y-5865974D01*
X62590826Y-5862300D01*
X63509174Y-5862300D01*
X63546478Y-5865974D01*
X63546478Y-5865974D01*
G37*
G36*
X47884719Y-5658121D02*
G01*
X47937057Y-5668532D01*
X48084960Y-5729796D01*
X48218065Y-5818733D01*
X48331267Y-5931935D01*
X48390039Y-6019895D01*
X48420205Y-6065042D01*
X48438148Y-6108360D01*
X48481468Y-6212943D01*
X48512700Y-6369958D01*
X48512700Y-6530042D01*
X48481468Y-6687057D01*
X48420204Y-6834960D01*
X48331267Y-6968065D01*
X48218065Y-7081267D01*
X48084960Y-7170204D01*
X47937057Y-7231468D01*
X47884719Y-7241879D01*
X47780044Y-7262700D01*
X47619956Y-7262700D01*
X47515281Y-7241879D01*
X47462943Y-7231468D01*
X47315040Y-7170204D01*
X47181935Y-7081267D01*
X47068733Y-6968065D01*
X46979796Y-6834960D01*
X46918532Y-6687057D01*
X46887300Y-6530042D01*
X46887300Y-6369958D01*
X46918532Y-6212943D01*
X46961852Y-6108360D01*
X46979795Y-6065042D01*
X47009961Y-6019895D01*
X47068733Y-5931935D01*
X47181935Y-5818733D01*
X47315040Y-5729796D01*
X47462943Y-5668532D01*
X47515281Y-5658121D01*
X47619956Y-5637300D01*
X47780044Y-5637300D01*
X47884719Y-5658121D01*
X47884719Y-5658121D01*
G37*
G36*
X54484719Y-5658121D02*
G01*
X54537057Y-5668532D01*
X54684960Y-5729796D01*
X54818065Y-5818733D01*
X54931267Y-5931935D01*
X54990039Y-6019895D01*
X55020205Y-6065042D01*
X55038148Y-6108360D01*
X55081468Y-6212943D01*
X55112700Y-6369958D01*
X55112700Y-6530042D01*
X55081468Y-6687057D01*
X55020204Y-6834960D01*
X54931267Y-6968065D01*
X54818065Y-7081267D01*
X54684960Y-7170204D01*
X54537057Y-7231468D01*
X54484719Y-7241879D01*
X54380044Y-7262700D01*
X54219956Y-7262700D01*
X54115281Y-7241879D01*
X54062943Y-7231468D01*
X53915040Y-7170204D01*
X53781935Y-7081267D01*
X53668733Y-6968065D01*
X53579796Y-6834960D01*
X53518532Y-6687057D01*
X53487300Y-6530042D01*
X53487300Y-6369958D01*
X53518532Y-6212943D01*
X53561852Y-6108360D01*
X53579795Y-6065042D01*
X53609961Y-6019895D01*
X53668733Y-5931935D01*
X53781935Y-5818733D01*
X53915040Y-5729796D01*
X54062943Y-5668532D01*
X54115281Y-5658121D01*
X54219956Y-5637300D01*
X54380044Y-5637300D01*
X54484719Y-5658121D01*
X54484719Y-5658121D01*
G37*
M02*
