M48
; DRILL file {KiCad (5.1.2)-2} date 4/8/2020 13:50:07
; FORMAT={-:-/ absolute / inch / decimal}
; #@! TF.CreationDate,2020-04-08T13:50:07-07:00
; #@! TF.GenerationSoftware,Kicad,Pcbnew,(5.1.2)-2
FMAT,2
INCH
T1C0.0113
T2C0.0157
T3C0.0197
T4C0.0374
T5C0.0472
T6C0.1260
%
G90
G05
T1
X1.1545Y-1.2546
X1.1545Y-1.3035
X1.1998Y-1.2056
X1.1998Y-1.2546
X1.1998Y-1.3035
X1.1998Y-1.3525
X1.2451Y-1.2056
X1.2451Y-1.2546
X1.2451Y-1.3035
X1.2451Y-1.3525
X1.2904Y-1.2546
X1.2904Y-1.3035
T2
X0.2874Y-0.6319
X0.3061Y-0.939
X0.3947Y-0.939
X0.4055Y-0.7303
X0.4547Y-0.563
X0.4547Y-0.6024
X0.5433Y-1.5768
X0.5433Y-1.626
X0.5433Y-1.6752
X0.5433Y-1.7244
X0.5433Y-1.9114
X0.5433Y-1.9606
X0.5433Y-2.0098
X0.5433Y-2.0591
X0.5787Y-1.4193
X0.5787Y-1.4626
X0.5925Y-1.5768
X0.5925Y-1.626
X0.5925Y-1.6752
X0.5925Y-1.7244
X0.5925Y-1.9114
X0.5925Y-1.9606
X0.5925Y-2.0098
X0.5925Y-2.0591
X0.5945Y-0.7224
X0.5945Y-0.8681
X0.6122Y-0.563
X0.6122Y-0.6024
X0.622Y-1.4193
X0.622Y-1.4626
X0.6634Y-0.6378
X0.7146Y-0.8878
X0.7539Y-0.8878
X0.7697Y-1.0945
X0.8091Y-1.1339
X0.8484Y-0.8287
X0.8583Y-1.1339
X0.878Y-1.6161
X0.9075Y-0.7992
X0.937Y-2.2953
X0.937Y-2.3445
X0.9862Y-2.2953
X0.9862Y-2.3445
X1.0138Y-1.6102
X1.0236Y-0.5945
X1.0354Y-2.2953
X1.0354Y-2.3445
X1.0472Y-0.6299
X1.0709Y-0.5945
X1.0846Y-2.2953
X1.0846Y-2.3445
X1.095Y-1.0527
X1.124Y-1.6161
X1.1398Y-0.7618
X1.1457Y-2.2421
X1.1467Y-1.5571
X1.1634Y-2.3898
X1.2008Y-1.0374
X1.2028Y-0.5335
X1.2037Y-1.5768
X1.252Y-0.5335
X1.2736Y-1.0512
X1.3996Y-2.2953
X1.3996Y-2.3445
X1.4033Y-1.9114
X1.4094Y-1.6181
X1.4193Y-0.622
X1.4193Y-0.6713
X1.4291Y-1.3583
X1.4409Y-1.1299
X1.4488Y-2.2953
X1.4488Y-2.3445
X1.4533Y-1.9114
X1.4685Y-0.622
X1.4685Y-0.6713
X1.498Y-2.2953
X1.498Y-2.3445
X1.5033Y-1.9114
X1.5276Y-1.6654
X1.5276Y-1.7244
X1.5433Y-1.1693
X1.5472Y-2.2953
X1.5472Y-2.3445
X1.5533Y-1.9114
X1.5571Y-1.6949
X1.5571Y-1.7539
X1.6063Y-1.0157
X1.6063Y-1.3425
X1.6063Y-1.4783
X1.6358Y-0.8346
X1.6396Y-1.9114
X1.6457Y-1.6654
X1.6457Y-1.7244
X1.6476Y-1.3543
X1.6752Y-1.2707
X1.6752Y-1.6949
X1.6752Y-1.7539
X1.6896Y-1.9114
X1.7244Y-1.2244
X1.7396Y-1.9114
X1.7539Y-0.563
X1.7539Y-0.6024
X1.7874Y-1.1614
X1.7896Y-1.9114
X1.811Y-1.685
X1.8125Y-1.2183
X1.8268Y-1.122
X1.8268Y-1.2972
X1.8425Y-1.0276
X1.8425Y-1.0669
X1.8537Y-1.2142
X1.8799Y-1.3543
X1.8819Y-2.2953
X1.8819Y-2.3445
X1.8878Y-1.5295
X1.8898Y-1.2933
X1.9154Y-1.5846
X1.9311Y-2.2953
X1.9311Y-2.3445
X1.937Y-0.4291
X1.939Y-0.876
X1.9409Y-0.9665
X1.9449Y-0.5984
X1.9449Y-0.6417
X1.9567Y-0.7559
X1.9803Y-2.2953
X1.9803Y-2.3445
X2.0Y-1.1949
X2.0098Y-0.7411
X2.0157Y-0.5925
X2.0229Y-0.8566
X2.0236Y-1.0512
X2.0295Y-2.2953
X2.0295Y-2.3445
X2.0335Y-1.4803
X2.0374Y-1.2106
X2.0433Y-1.0079
X2.0622Y-0.8587
X2.0645Y-0.5832
X2.0837Y-1.6467
X2.0923Y-1.1675
X2.0945Y-1.3504
X2.0965Y-1.2087
X2.1201Y-1.9626
X2.122Y-1.1417
X2.124Y-2.2539
X2.1506Y-1.0069
X2.1752Y-1.4154
X2.1811Y-1.1457
X2.1826Y-1.0753
X2.1831Y-1.5197
X2.2114Y-1.1128
X2.2146Y-1.0413
X2.2146Y-1.185
X2.2224Y-1.3789
X2.2402Y-1.6378
X2.248Y-0.752
X2.2579Y-0.8701
X2.2618Y-1.4311
X2.2736Y-0.4783
X2.2854Y-1.2677
X2.3031Y-1.3307
X2.3051Y-1.8031
X2.3287Y-1.2677
X2.3425Y-1.2047
X2.3524Y-0.4783
X2.3543Y-1.5512
X2.3583Y-1.0955
X2.3602Y-1.0276
X2.3607Y-0.8784
X2.3937Y-1.5512
X2.3976Y-0.9409
X2.3976Y-1.2343
X2.4401Y-1.2359
X2.4414Y-0.5625
X2.4606Y-0.8425
X2.4724Y-1.3701
X2.4783Y-0.9232
X2.5039Y-1.2795
X2.5177Y-1.3209
X2.5315Y-1.5177
X2.5354Y-1.0512
X2.5709Y-1.5177
X2.5748Y-0.7293
X2.5748Y-1.1181
X2.5866Y-1.1575
X2.5906Y-1.0787
X2.6004Y-0.876
X2.6181Y-0.7293
X2.6299Y-1.5118
X2.6398Y-1.061
X2.6516Y-2.0768
X2.687Y-0.7087
X2.687Y-0.75
X2.6958Y-1.0571
X2.7126Y-1.2795
X2.7362Y-0.7756
X2.8051Y-1.065
X2.8543Y-1.5463
X2.8583Y-1.0551
X2.8701Y-1.5827
X2.8701Y-1.8465
X2.8976Y-1.0787
X2.9331Y-1.0984
X2.9646Y-1.122
X2.9921Y-1.6811
T3
X2.8898Y-1.2362
X2.7913Y-1.2362
X2.8898Y-1.3346
T4
X2.7559Y-0.3071
X2.7559Y-0.4055
X2.7559Y-0.5039
X2.7559Y-0.6024
X3.1122Y-1.5177
X3.1122Y-1.6161
X3.1122Y-1.7146
X3.1122Y-1.813
X3.1122Y-1.9114
X3.1122Y-2.0098
X3.1122Y-0.8898
X3.1122Y-0.9882
X3.1122Y-1.0866
X3.1122Y-1.185
X2.7559Y-2.3524
X2.7559Y-2.4508
X2.7559Y-2.5492
T5
X1.878Y-0.2539
X2.1378Y-0.2539
T6
X3.1024Y-2.5315
X0.3465Y-2.5315
X0.3465Y-0.3465
X3.1024Y-0.3465
T0
M30
