G04 #@! TF.GenerationSoftware,KiCad,Pcbnew,(5.1.2)-2*
G04 #@! TF.CreationDate,2020-04-08T13:50:03-07:00*
G04 #@! TF.ProjectId,flatmcu,666c6174-6d63-4752-9e6b-696361645f70,rev?*
G04 #@! TF.SameCoordinates,PX1312d00PY1312d00*
G04 #@! TF.FileFunction,Legend,Bot*
G04 #@! TF.FilePolarity,Positive*
%FSLAX46Y46*%
G04 Gerber Fmt 4.6, Leading zero omitted, Abs format (unit mm)*
G04 Created by KiCad (PCBNEW (5.1.2)-2) date 2020-04-08 13:50:03*
%MOMM*%
%LPD*%
G04 APERTURE LIST*
%ADD10C,0.120000*%
%ADD11C,0.150000*%
%ADD12C,0.200000*%
G04 APERTURE END LIST*
D10*
X54450000Y-11650000D02*
X56925000Y-11300000D01*
D11*
X46202380Y-9615357D02*
X46202380Y-10234404D01*
X46583333Y-9901071D01*
X46583333Y-10043928D01*
X46630952Y-10139166D01*
X46678571Y-10186785D01*
X46773809Y-10234404D01*
X47011904Y-10234404D01*
X47107142Y-10186785D01*
X47154761Y-10139166D01*
X47202380Y-10043928D01*
X47202380Y-9758214D01*
X47154761Y-9662976D01*
X47107142Y-9615357D01*
X47107142Y-10662976D02*
X47154761Y-10710595D01*
X47202380Y-10662976D01*
X47154761Y-10615357D01*
X47107142Y-10662976D01*
X47202380Y-10662976D01*
X46202380Y-11043928D02*
X46202380Y-11662976D01*
X46583333Y-11329642D01*
X46583333Y-11472500D01*
X46630952Y-11567738D01*
X46678571Y-11615357D01*
X46773809Y-11662976D01*
X47011904Y-11662976D01*
X47107142Y-11615357D01*
X47154761Y-11567738D01*
X47202380Y-11472500D01*
X47202380Y-11186785D01*
X47154761Y-11091547D01*
X47107142Y-11043928D01*
X46202380Y-11948690D02*
X47202380Y-12282023D01*
X46202380Y-12615357D01*
X48804761Y-9662976D02*
X48852380Y-9805833D01*
X48852380Y-10043928D01*
X48804761Y-10139166D01*
X48757142Y-10186785D01*
X48661904Y-10234404D01*
X48566666Y-10234404D01*
X48471428Y-10186785D01*
X48423809Y-10139166D01*
X48376190Y-10043928D01*
X48328571Y-9853452D01*
X48280952Y-9758214D01*
X48233333Y-9710595D01*
X48138095Y-9662976D01*
X48042857Y-9662976D01*
X47947619Y-9710595D01*
X47900000Y-9758214D01*
X47852380Y-9853452D01*
X47852380Y-10091547D01*
X47900000Y-10234404D01*
X47852380Y-10567738D02*
X48852380Y-10805833D01*
X48138095Y-10996309D01*
X48852380Y-11186785D01*
X47852380Y-11424880D01*
X48757142Y-12377261D02*
X48804761Y-12329642D01*
X48852380Y-12186785D01*
X48852380Y-12091547D01*
X48804761Y-11948690D01*
X48709523Y-11853452D01*
X48614285Y-11805833D01*
X48423809Y-11758214D01*
X48280952Y-11758214D01*
X48090476Y-11805833D01*
X47995238Y-11853452D01*
X47900000Y-11948690D01*
X47852380Y-12091547D01*
X47852380Y-12186785D01*
X47900000Y-12329642D01*
X47947619Y-12377261D01*
X48852380Y-13282023D02*
X48852380Y-12805833D01*
X47852380Y-12805833D01*
X48852380Y-13615357D02*
X47852380Y-13615357D01*
X48852380Y-14186785D02*
X48280952Y-13758214D01*
X47852380Y-14186785D02*
X48423809Y-13615357D01*
X49550000Y-10234404D02*
X49502380Y-10139166D01*
X49502380Y-9996309D01*
X49550000Y-9853452D01*
X49645238Y-9758214D01*
X49740476Y-9710595D01*
X49930952Y-9662976D01*
X50073809Y-9662976D01*
X50264285Y-9710595D01*
X50359523Y-9758214D01*
X50454761Y-9853452D01*
X50502380Y-9996309D01*
X50502380Y-10091547D01*
X50454761Y-10234404D01*
X50407142Y-10282023D01*
X50073809Y-10282023D01*
X50073809Y-10091547D01*
X50502380Y-10710595D02*
X49502380Y-10710595D01*
X50502380Y-11282023D01*
X49502380Y-11282023D01*
X50502380Y-11758214D02*
X49502380Y-11758214D01*
X49502380Y-11996309D01*
X49550000Y-12139166D01*
X49645238Y-12234404D01*
X49740476Y-12282023D01*
X49930952Y-12329642D01*
X50073809Y-12329642D01*
X50264285Y-12282023D01*
X50359523Y-12234404D01*
X50454761Y-12139166D01*
X50502380Y-11996309D01*
X50502380Y-11758214D01*
X52104761Y-9662976D02*
X52152380Y-9805833D01*
X52152380Y-10043928D01*
X52104761Y-10139166D01*
X52057142Y-10186785D01*
X51961904Y-10234404D01*
X51866666Y-10234404D01*
X51771428Y-10186785D01*
X51723809Y-10139166D01*
X51676190Y-10043928D01*
X51628571Y-9853452D01*
X51580952Y-9758214D01*
X51533333Y-9710595D01*
X51438095Y-9662976D01*
X51342857Y-9662976D01*
X51247619Y-9710595D01*
X51200000Y-9758214D01*
X51152380Y-9853452D01*
X51152380Y-10091547D01*
X51200000Y-10234404D01*
X51152380Y-10567738D02*
X52152380Y-10805833D01*
X51438095Y-10996309D01*
X52152380Y-11186785D01*
X51152380Y-11424880D01*
X52152380Y-11805833D02*
X51152380Y-11805833D01*
X51152380Y-12043928D01*
X51200000Y-12186785D01*
X51295238Y-12282023D01*
X51390476Y-12329642D01*
X51580952Y-12377261D01*
X51723809Y-12377261D01*
X51914285Y-12329642D01*
X52009523Y-12282023D01*
X52104761Y-12186785D01*
X52152380Y-12043928D01*
X52152380Y-11805833D01*
X52152380Y-12805833D02*
X51152380Y-12805833D01*
X51152380Y-13472500D02*
X51152380Y-13662976D01*
X51200000Y-13758214D01*
X51295238Y-13853452D01*
X51485714Y-13901071D01*
X51819047Y-13901071D01*
X52009523Y-13853452D01*
X52104761Y-13758214D01*
X52152380Y-13662976D01*
X52152380Y-13472500D01*
X52104761Y-13377261D01*
X52009523Y-13282023D01*
X51819047Y-13234404D01*
X51485714Y-13234404D01*
X51295238Y-13282023D01*
X51200000Y-13377261D01*
X51152380Y-13472500D01*
X53802380Y-10282023D02*
X53326190Y-9948690D01*
X53802380Y-9710595D02*
X52802380Y-9710595D01*
X52802380Y-10091547D01*
X52850000Y-10186785D01*
X52897619Y-10234404D01*
X52992857Y-10282023D01*
X53135714Y-10282023D01*
X53230952Y-10234404D01*
X53278571Y-10186785D01*
X53326190Y-10091547D01*
X53326190Y-9710595D01*
X53278571Y-10710595D02*
X53278571Y-11043928D01*
X53802380Y-11186785D02*
X53802380Y-10710595D01*
X52802380Y-10710595D01*
X52802380Y-11186785D01*
X53754761Y-11567738D02*
X53802380Y-11710595D01*
X53802380Y-11948690D01*
X53754761Y-12043928D01*
X53707142Y-12091547D01*
X53611904Y-12139166D01*
X53516666Y-12139166D01*
X53421428Y-12091547D01*
X53373809Y-12043928D01*
X53326190Y-11948690D01*
X53278571Y-11758214D01*
X53230952Y-11662976D01*
X53183333Y-11615357D01*
X53088095Y-11567738D01*
X52992857Y-11567738D01*
X52897619Y-11615357D01*
X52850000Y-11662976D01*
X52802380Y-11758214D01*
X52802380Y-11996309D01*
X52850000Y-12139166D01*
X53278571Y-12567738D02*
X53278571Y-12901071D01*
X53802380Y-13043928D02*
X53802380Y-12567738D01*
X52802380Y-12567738D01*
X52802380Y-13043928D01*
X52802380Y-13329642D02*
X52802380Y-13901071D01*
X53802380Y-13615357D02*
X52802380Y-13615357D01*
D12*
X16350000Y-26757142D02*
X15850000Y-26757142D01*
X15850000Y-25971428D02*
X15850000Y-27471428D01*
X16564285Y-27471428D01*
X17850000Y-25971428D02*
X17135714Y-25971428D01*
X17135714Y-27471428D01*
X18278571Y-26400000D02*
X18992857Y-26400000D01*
X18135714Y-25971428D02*
X18635714Y-27471428D01*
X19135714Y-25971428D01*
X19421428Y-27471428D02*
X20278571Y-27471428D01*
X19850000Y-25971428D02*
X19850000Y-27471428D01*
X20778571Y-25971428D02*
X20778571Y-27471428D01*
X21278571Y-26400000D01*
X21778571Y-27471428D01*
X21778571Y-25971428D01*
X23350000Y-26114285D02*
X23278571Y-26042857D01*
X23064285Y-25971428D01*
X22921428Y-25971428D01*
X22707142Y-26042857D01*
X22564285Y-26185714D01*
X22492857Y-26328571D01*
X22421428Y-26614285D01*
X22421428Y-26828571D01*
X22492857Y-27114285D01*
X22564285Y-27257142D01*
X22707142Y-27400000D01*
X22921428Y-27471428D01*
X23064285Y-27471428D01*
X23278571Y-27400000D01*
X23350000Y-27328571D01*
X23992857Y-27471428D02*
X23992857Y-26257142D01*
X24064285Y-26114285D01*
X24135714Y-26042857D01*
X24278571Y-25971428D01*
X24564285Y-25971428D01*
X24707142Y-26042857D01*
X24778571Y-26114285D01*
X24850000Y-26257142D01*
X24850000Y-27471428D01*
X12778571Y-25096428D02*
X13778571Y-25096428D01*
X13135714Y-23596428D01*
X15064285Y-25096428D02*
X14350000Y-25096428D01*
X14278571Y-24382142D01*
X14350000Y-24453571D01*
X14492857Y-24525000D01*
X14849999Y-24525000D01*
X14992857Y-24453571D01*
X15064285Y-24382142D01*
X15135714Y-24239285D01*
X15135714Y-23882142D01*
X15064285Y-23739285D01*
X14992857Y-23667857D01*
X14849999Y-23596428D01*
X14492857Y-23596428D01*
X14350000Y-23667857D01*
X14278571Y-23739285D01*
X15564285Y-25096428D02*
X16064285Y-23596428D01*
X16564285Y-25096428D01*
X18707142Y-24382142D02*
X18921428Y-24310714D01*
X18992857Y-24239285D01*
X19064285Y-24096428D01*
X19064285Y-23882142D01*
X18992857Y-23739285D01*
X18921428Y-23667857D01*
X18778571Y-23596428D01*
X18207142Y-23596428D01*
X18207142Y-25096428D01*
X18707142Y-25096428D01*
X18849999Y-25025000D01*
X18921428Y-24953571D01*
X18992857Y-24810714D01*
X18992857Y-24667857D01*
X18921428Y-24525000D01*
X18849999Y-24453571D01*
X18707142Y-24382142D01*
X18207142Y-24382142D01*
X20421428Y-23596428D02*
X19707142Y-23596428D01*
X19707142Y-25096428D01*
X20921428Y-23596428D02*
X20921428Y-25096428D01*
X21278571Y-25096428D01*
X21492857Y-25025000D01*
X21635714Y-24882142D01*
X21707142Y-24739285D01*
X21778571Y-24453571D01*
X21778571Y-24239285D01*
X21707142Y-23953571D01*
X21635714Y-23810714D01*
X21492857Y-23667857D01*
X21278571Y-23596428D01*
X20921428Y-23596428D01*
X23278571Y-23739285D02*
X23207142Y-23667857D01*
X22992857Y-23596428D01*
X22849999Y-23596428D01*
X22635714Y-23667857D01*
X22492857Y-23810714D01*
X22421428Y-23953571D01*
X22349999Y-24239285D01*
X22349999Y-24453571D01*
X22421428Y-24739285D01*
X22492857Y-24882142D01*
X22635714Y-25025000D01*
X22849999Y-25096428D01*
X22992857Y-25096428D01*
X23207142Y-25025000D01*
X23278571Y-24953571D01*
X24992857Y-25167857D02*
X23707142Y-23239285D01*
X25992857Y-24382142D02*
X25492857Y-24382142D01*
X25492857Y-23596428D02*
X25492857Y-25096428D01*
X26207142Y-25096428D01*
X27064285Y-25096428D02*
X27349999Y-25096428D01*
X27492857Y-25025000D01*
X27635714Y-24882142D01*
X27707142Y-24596428D01*
X27707142Y-24096428D01*
X27635714Y-23810714D01*
X27492857Y-23667857D01*
X27349999Y-23596428D01*
X27064285Y-23596428D01*
X26921428Y-23667857D01*
X26778571Y-23810714D01*
X26707142Y-24096428D01*
X26707142Y-24596428D01*
X26778571Y-24882142D01*
X26921428Y-25025000D01*
X27064285Y-25096428D01*
X29207142Y-23739285D02*
X29135714Y-23667857D01*
X28921428Y-23596428D01*
X28778571Y-23596428D01*
X28564285Y-23667857D01*
X28421428Y-23810714D01*
X28349999Y-23953571D01*
X28278571Y-24239285D01*
X28278571Y-24453571D01*
X28349999Y-24739285D01*
X28421428Y-24882142D01*
X28564285Y-25025000D01*
X28778571Y-25096428D01*
X28921428Y-25096428D01*
X29135714Y-25025000D01*
X29207142Y-24953571D01*
X30992857Y-23596428D02*
X30992857Y-25096428D01*
X31492857Y-24025000D01*
X31992857Y-25096428D01*
X31992857Y-23596428D01*
X32921428Y-23596428D02*
X32778571Y-23667857D01*
X32707142Y-23739285D01*
X32635714Y-23882142D01*
X32635714Y-24310714D01*
X32707142Y-24453571D01*
X32778571Y-24525000D01*
X32921428Y-24596428D01*
X33135714Y-24596428D01*
X33278571Y-24525000D01*
X33349999Y-24453571D01*
X33421428Y-24310714D01*
X33421428Y-23882142D01*
X33349999Y-23739285D01*
X33278571Y-23667857D01*
X33135714Y-23596428D01*
X32921428Y-23596428D01*
X33849999Y-24596428D02*
X34421428Y-24596428D01*
X34064285Y-25096428D02*
X34064285Y-23810714D01*
X34135714Y-23667857D01*
X34278571Y-23596428D01*
X34421428Y-23596428D01*
X35135714Y-23596428D02*
X34992857Y-23667857D01*
X34921428Y-23739285D01*
X34849999Y-23882142D01*
X34849999Y-24310714D01*
X34921428Y-24453571D01*
X34992857Y-24525000D01*
X35135714Y-24596428D01*
X35349999Y-24596428D01*
X35492857Y-24525000D01*
X35564285Y-24453571D01*
X35635714Y-24310714D01*
X35635714Y-23882142D01*
X35564285Y-23739285D01*
X35492857Y-23667857D01*
X35349999Y-23596428D01*
X35135714Y-23596428D01*
X36278571Y-23596428D02*
X36278571Y-24596428D01*
X36278571Y-24310714D02*
X36349999Y-24453571D01*
X36421428Y-24525000D01*
X36564285Y-24596428D01*
X36707142Y-24596428D01*
X39207142Y-23739285D02*
X39135714Y-23667857D01*
X38921428Y-23596428D01*
X38778571Y-23596428D01*
X38564285Y-23667857D01*
X38421428Y-23810714D01*
X38349999Y-23953571D01*
X38278571Y-24239285D01*
X38278571Y-24453571D01*
X38349999Y-24739285D01*
X38421428Y-24882142D01*
X38564285Y-25025000D01*
X38778571Y-25096428D01*
X38921428Y-25096428D01*
X39135714Y-25025000D01*
X39207142Y-24953571D01*
X40064285Y-23596428D02*
X39921428Y-23667857D01*
X39849999Y-23739285D01*
X39778571Y-23882142D01*
X39778571Y-24310714D01*
X39849999Y-24453571D01*
X39921428Y-24525000D01*
X40064285Y-24596428D01*
X40278571Y-24596428D01*
X40421428Y-24525000D01*
X40492857Y-24453571D01*
X40564285Y-24310714D01*
X40564285Y-23882142D01*
X40492857Y-23739285D01*
X40421428Y-23667857D01*
X40278571Y-23596428D01*
X40064285Y-23596428D01*
X41207142Y-24596428D02*
X41207142Y-23596428D01*
X41207142Y-24453571D02*
X41278571Y-24525000D01*
X41421428Y-24596428D01*
X41635714Y-24596428D01*
X41778571Y-24525000D01*
X41849999Y-24382142D01*
X41849999Y-23596428D01*
X42349999Y-24596428D02*
X42921428Y-24596428D01*
X42564285Y-25096428D02*
X42564285Y-23810714D01*
X42635714Y-23667857D01*
X42778571Y-23596428D01*
X42921428Y-23596428D01*
X43421428Y-23596428D02*
X43421428Y-24596428D01*
X43421428Y-24310714D02*
X43492857Y-24453571D01*
X43564285Y-24525000D01*
X43707142Y-24596428D01*
X43849999Y-24596428D01*
X44564285Y-23596428D02*
X44421428Y-23667857D01*
X44349999Y-23739285D01*
X44278571Y-23882142D01*
X44278571Y-24310714D01*
X44349999Y-24453571D01*
X44421428Y-24525000D01*
X44564285Y-24596428D01*
X44778571Y-24596428D01*
X44921428Y-24525000D01*
X44992857Y-24453571D01*
X45064285Y-24310714D01*
X45064285Y-23882142D01*
X44992857Y-23739285D01*
X44921428Y-23667857D01*
X44778571Y-23596428D01*
X44564285Y-23596428D01*
X45921428Y-23596428D02*
X45778571Y-23667857D01*
X45707142Y-23810714D01*
X45707142Y-25096428D01*
X46707142Y-23596428D02*
X46564285Y-23667857D01*
X46492857Y-23810714D01*
X46492857Y-25096428D01*
X47849999Y-23667857D02*
X47707142Y-23596428D01*
X47421428Y-23596428D01*
X47278571Y-23667857D01*
X47207142Y-23810714D01*
X47207142Y-24382142D01*
X47278571Y-24525000D01*
X47421428Y-24596428D01*
X47707142Y-24596428D01*
X47849999Y-24525000D01*
X47921428Y-24382142D01*
X47921428Y-24239285D01*
X47207142Y-24096428D01*
X48564285Y-23596428D02*
X48564285Y-24596428D01*
X48564285Y-24310714D02*
X48635714Y-24453571D01*
X48707142Y-24525000D01*
X48849999Y-24596428D01*
X48992857Y-24596428D01*
X23528571Y-21575000D02*
X24242857Y-21575000D01*
X23385714Y-21146428D02*
X23885714Y-22646428D01*
X24385714Y-21146428D01*
X24885714Y-22146428D02*
X24885714Y-20646428D01*
X24885714Y-22075000D02*
X25028571Y-22146428D01*
X25314285Y-22146428D01*
X25457142Y-22075000D01*
X25528571Y-22003571D01*
X25600000Y-21860714D01*
X25600000Y-21432142D01*
X25528571Y-21289285D01*
X25457142Y-21217857D01*
X25314285Y-21146428D01*
X25028571Y-21146428D01*
X24885714Y-21217857D01*
X26242857Y-21146428D02*
X26242857Y-22146428D01*
X26242857Y-21860714D02*
X26314285Y-22003571D01*
X26385714Y-22075000D01*
X26528571Y-22146428D01*
X26671428Y-22146428D01*
X27171428Y-21146428D02*
X27171428Y-22146428D01*
X27171428Y-22646428D02*
X27100000Y-22575000D01*
X27171428Y-22503571D01*
X27242857Y-22575000D01*
X27171428Y-22646428D01*
X27171428Y-22503571D01*
X28100000Y-21146428D02*
X27957142Y-21217857D01*
X27885714Y-21360714D01*
X27885714Y-22646428D01*
X30028571Y-22003571D02*
X29885714Y-22075000D01*
X29814285Y-22146428D01*
X29742857Y-22289285D01*
X29742857Y-22360714D01*
X29814285Y-22503571D01*
X29885714Y-22575000D01*
X30028571Y-22646428D01*
X30314285Y-22646428D01*
X30457142Y-22575000D01*
X30528571Y-22503571D01*
X30600000Y-22360714D01*
X30600000Y-22289285D01*
X30528571Y-22146428D01*
X30457142Y-22075000D01*
X30314285Y-22003571D01*
X30028571Y-22003571D01*
X29885714Y-21932142D01*
X29814285Y-21860714D01*
X29742857Y-21717857D01*
X29742857Y-21432142D01*
X29814285Y-21289285D01*
X29885714Y-21217857D01*
X30028571Y-21146428D01*
X30314285Y-21146428D01*
X30457142Y-21217857D01*
X30528571Y-21289285D01*
X30600000Y-21432142D01*
X30600000Y-21717857D01*
X30528571Y-21860714D01*
X30457142Y-21932142D01*
X30314285Y-22003571D01*
X31314285Y-21217857D02*
X31314285Y-21146428D01*
X31242857Y-21003571D01*
X31171428Y-20932142D01*
X33028571Y-22503571D02*
X33100000Y-22575000D01*
X33242857Y-22646428D01*
X33600000Y-22646428D01*
X33742857Y-22575000D01*
X33814285Y-22503571D01*
X33885714Y-22360714D01*
X33885714Y-22217857D01*
X33814285Y-22003571D01*
X32957142Y-21146428D01*
X33885714Y-21146428D01*
X34814285Y-22646428D02*
X34957142Y-22646428D01*
X35100000Y-22575000D01*
X35171428Y-22503571D01*
X35242857Y-22360714D01*
X35314285Y-22075000D01*
X35314285Y-21717857D01*
X35242857Y-21432142D01*
X35171428Y-21289285D01*
X35100000Y-21217857D01*
X34957142Y-21146428D01*
X34814285Y-21146428D01*
X34671428Y-21217857D01*
X34600000Y-21289285D01*
X34528571Y-21432142D01*
X34457142Y-21717857D01*
X34457142Y-22075000D01*
X34528571Y-22360714D01*
X34600000Y-22503571D01*
X34671428Y-22575000D01*
X34814285Y-22646428D01*
X35885714Y-22503571D02*
X35957142Y-22575000D01*
X36100000Y-22646428D01*
X36457142Y-22646428D01*
X36600000Y-22575000D01*
X36671428Y-22503571D01*
X36742857Y-22360714D01*
X36742857Y-22217857D01*
X36671428Y-22003571D01*
X35814285Y-21146428D01*
X36742857Y-21146428D01*
X37671428Y-22646428D02*
X37814285Y-22646428D01*
X37957142Y-22575000D01*
X38028571Y-22503571D01*
X38100000Y-22360714D01*
X38171428Y-22075000D01*
X38171428Y-21717857D01*
X38100000Y-21432142D01*
X38028571Y-21289285D01*
X37957142Y-21217857D01*
X37814285Y-21146428D01*
X37671428Y-21146428D01*
X37528571Y-21217857D01*
X37457142Y-21289285D01*
X37385714Y-21432142D01*
X37314285Y-21717857D01*
X37314285Y-22075000D01*
X37385714Y-22360714D01*
X37457142Y-22503571D01*
X37528571Y-22575000D01*
X37671428Y-22646428D01*
D10*
X28050000Y-38550000D02*
X26950000Y-38550000D01*
X30049999Y-38550000D02*
G75*
G02X28050001Y-38549999I-999999J500000D01*
G01*
X26950000Y-54550000D02*
X28050001Y-54550000D01*
X28050001Y-54550000D02*
G75*
G02X30049999Y-54550001I999999J-500000D01*
G01*
D12*
X26350000Y-40750000D02*
X24350000Y-40750000D01*
X25450000Y-53750000D02*
X25450000Y-51950000D01*
X26450000Y-52850000D02*
X24450000Y-52850000D01*
D11*
X33602380Y-53421428D02*
X33745238Y-53373809D01*
X33792857Y-53326190D01*
X33840476Y-53230952D01*
X33840476Y-53088095D01*
X33792857Y-52992857D01*
X33745238Y-52945238D01*
X33650000Y-52897619D01*
X33269047Y-52897619D01*
X33269047Y-53897619D01*
X33602380Y-53897619D01*
X33697619Y-53850000D01*
X33745238Y-53802380D01*
X33792857Y-53707142D01*
X33792857Y-53611904D01*
X33745238Y-53516666D01*
X33697619Y-53469047D01*
X33602380Y-53421428D01*
X33269047Y-53421428D01*
X34697619Y-53564285D02*
X34697619Y-52897619D01*
X34269047Y-53564285D02*
X34269047Y-53040476D01*
X34316666Y-52945238D01*
X34411904Y-52897619D01*
X34554761Y-52897619D01*
X34650000Y-52945238D01*
X34697619Y-52992857D01*
X35316666Y-52897619D02*
X35221428Y-52945238D01*
X35173809Y-53040476D01*
X35173809Y-53897619D01*
X35697619Y-52897619D02*
X35697619Y-53897619D01*
X35792857Y-53278571D02*
X36078571Y-52897619D01*
X36078571Y-53564285D02*
X35697619Y-53183333D01*
X37697619Y-52945238D02*
X37602380Y-52897619D01*
X37411904Y-52897619D01*
X37316666Y-52945238D01*
X37269047Y-52992857D01*
X37221428Y-53088095D01*
X37221428Y-53373809D01*
X37269047Y-53469047D01*
X37316666Y-53516666D01*
X37411904Y-53564285D01*
X37602380Y-53564285D01*
X37697619Y-53516666D01*
X38554761Y-52897619D02*
X38554761Y-53421428D01*
X38507142Y-53516666D01*
X38411904Y-53564285D01*
X38221428Y-53564285D01*
X38126190Y-53516666D01*
X38554761Y-52945238D02*
X38459523Y-52897619D01*
X38221428Y-52897619D01*
X38126190Y-52945238D01*
X38078571Y-53040476D01*
X38078571Y-53135714D01*
X38126190Y-53230952D01*
X38221428Y-53278571D01*
X38459523Y-53278571D01*
X38554761Y-53326190D01*
X39030952Y-53564285D02*
X39030952Y-52564285D01*
X39030952Y-53516666D02*
X39126190Y-53564285D01*
X39316666Y-53564285D01*
X39411904Y-53516666D01*
X39459523Y-53469047D01*
X39507142Y-53373809D01*
X39507142Y-53088095D01*
X39459523Y-52992857D01*
X39411904Y-52945238D01*
X39316666Y-52897619D01*
X39126190Y-52897619D01*
X39030952Y-52945238D01*
X40364285Y-52897619D02*
X40364285Y-53421428D01*
X40316666Y-53516666D01*
X40221428Y-53564285D01*
X40030952Y-53564285D01*
X39935714Y-53516666D01*
X40364285Y-52945238D02*
X40269047Y-52897619D01*
X40030952Y-52897619D01*
X39935714Y-52945238D01*
X39888095Y-53040476D01*
X39888095Y-53135714D01*
X39935714Y-53230952D01*
X40030952Y-53278571D01*
X40269047Y-53278571D01*
X40364285Y-53326190D01*
X41269047Y-52945238D02*
X41173809Y-52897619D01*
X40983333Y-52897619D01*
X40888095Y-52945238D01*
X40840476Y-52992857D01*
X40792857Y-53088095D01*
X40792857Y-53373809D01*
X40840476Y-53469047D01*
X40888095Y-53516666D01*
X40983333Y-53564285D01*
X41173809Y-53564285D01*
X41269047Y-53516666D01*
X41697619Y-52897619D02*
X41697619Y-53564285D01*
X41697619Y-53897619D02*
X41649999Y-53850000D01*
X41697619Y-53802380D01*
X41745238Y-53850000D01*
X41697619Y-53897619D01*
X41697619Y-53802380D01*
X42030952Y-53564285D02*
X42411904Y-53564285D01*
X42173809Y-53897619D02*
X42173809Y-53040476D01*
X42221428Y-52945238D01*
X42316666Y-52897619D01*
X42411904Y-52897619D01*
X43173809Y-52897619D02*
X43173809Y-53421428D01*
X43126190Y-53516666D01*
X43030952Y-53564285D01*
X42840476Y-53564285D01*
X42745238Y-53516666D01*
X43173809Y-52945238D02*
X43078571Y-52897619D01*
X42840476Y-52897619D01*
X42745238Y-52945238D01*
X42697619Y-53040476D01*
X42697619Y-53135714D01*
X42745238Y-53230952D01*
X42840476Y-53278571D01*
X43078571Y-53278571D01*
X43173809Y-53326190D01*
X43649999Y-53564285D02*
X43649999Y-52897619D01*
X43649999Y-53469047D02*
X43697619Y-53516666D01*
X43792857Y-53564285D01*
X43935714Y-53564285D01*
X44030952Y-53516666D01*
X44078571Y-53421428D01*
X44078571Y-52897619D01*
X44983333Y-52945238D02*
X44888095Y-52897619D01*
X44697619Y-52897619D01*
X44602380Y-52945238D01*
X44554761Y-52992857D01*
X44507142Y-53088095D01*
X44507142Y-53373809D01*
X44554761Y-53469047D01*
X44602380Y-53516666D01*
X44697619Y-53564285D01*
X44888095Y-53564285D01*
X44983333Y-53516666D01*
X45792857Y-52945238D02*
X45697619Y-52897619D01*
X45507142Y-52897619D01*
X45411904Y-52945238D01*
X45364285Y-53040476D01*
X45364285Y-53421428D01*
X45411904Y-53516666D01*
X45507142Y-53564285D01*
X45697619Y-53564285D01*
X45792857Y-53516666D01*
X45840476Y-53421428D01*
X45840476Y-53326190D01*
X45364285Y-53230952D01*
X47459523Y-53564285D02*
X47459523Y-52754761D01*
X47411904Y-52659523D01*
X47364285Y-52611904D01*
X47269047Y-52564285D01*
X47126190Y-52564285D01*
X47030952Y-52611904D01*
X47459523Y-52945238D02*
X47364285Y-52897619D01*
X47173809Y-52897619D01*
X47078571Y-52945238D01*
X47030952Y-52992857D01*
X46983333Y-53088095D01*
X46983333Y-53373809D01*
X47030952Y-53469047D01*
X47078571Y-53516666D01*
X47173809Y-53564285D01*
X47364285Y-53564285D01*
X47459523Y-53516666D01*
X48078571Y-52897619D02*
X47983333Y-52945238D01*
X47935714Y-52992857D01*
X47888095Y-53088095D01*
X47888095Y-53373809D01*
X47935714Y-53469047D01*
X47983333Y-53516666D01*
X48078571Y-53564285D01*
X48221428Y-53564285D01*
X48316666Y-53516666D01*
X48364285Y-53469047D01*
X48411904Y-53373809D01*
X48411904Y-53088095D01*
X48364285Y-52992857D01*
X48316666Y-52945238D01*
X48221428Y-52897619D01*
X48078571Y-52897619D01*
X49221428Y-52945238D02*
X49126190Y-52897619D01*
X48935714Y-52897619D01*
X48840476Y-52945238D01*
X48792857Y-53040476D01*
X48792857Y-53421428D01*
X48840476Y-53516666D01*
X48935714Y-53564285D01*
X49126190Y-53564285D01*
X49221428Y-53516666D01*
X49269047Y-53421428D01*
X49269047Y-53326190D01*
X48792857Y-53230952D01*
X49650000Y-52945238D02*
X49745238Y-52897619D01*
X49935714Y-52897619D01*
X50030952Y-52945238D01*
X50078571Y-53040476D01*
X50078571Y-53088095D01*
X50030952Y-53183333D01*
X49935714Y-53230952D01*
X49792857Y-53230952D01*
X49697619Y-53278571D01*
X49650000Y-53373809D01*
X49650000Y-53421428D01*
X49697619Y-53516666D01*
X49792857Y-53564285D01*
X49935714Y-53564285D01*
X50030952Y-53516666D01*
X51269047Y-52897619D02*
X51269047Y-53897619D01*
X51697619Y-52897619D02*
X51697619Y-53421428D01*
X51650000Y-53516666D01*
X51554761Y-53564285D01*
X51411904Y-53564285D01*
X51316666Y-53516666D01*
X51269047Y-53469047D01*
X52554761Y-52945238D02*
X52459523Y-52897619D01*
X52269047Y-52897619D01*
X52173809Y-52945238D01*
X52126190Y-53040476D01*
X52126190Y-53421428D01*
X52173809Y-53516666D01*
X52269047Y-53564285D01*
X52459523Y-53564285D01*
X52554761Y-53516666D01*
X52602380Y-53421428D01*
X52602380Y-53326190D01*
X52126190Y-53230952D01*
X53030952Y-52897619D02*
X53030952Y-53564285D01*
X53030952Y-53373809D02*
X53078571Y-53469047D01*
X53126190Y-53516666D01*
X53221428Y-53564285D01*
X53316666Y-53564285D01*
X54030952Y-52945238D02*
X53935714Y-52897619D01*
X53745238Y-52897619D01*
X53650000Y-52945238D01*
X53602380Y-53040476D01*
X53602380Y-53421428D01*
X53650000Y-53516666D01*
X53745238Y-53564285D01*
X53935714Y-53564285D01*
X54030952Y-53516666D01*
X54078571Y-53421428D01*
X54078571Y-53326190D01*
X53602380Y-53230952D01*
D10*
X62450000Y-38550000D02*
X30049999Y-38550000D01*
X62450000Y-54550000D02*
X62450000Y-38550000D01*
X30049999Y-54550001D02*
X62450000Y-54550000D01*
X26950000Y-38550000D02*
X26950000Y-41650000D01*
X26950000Y-54550000D02*
X26950000Y-51350000D01*
X26950000Y-45550000D02*
X26950000Y-47650000D01*
D11*
X55727380Y-13322619D02*
X55727380Y-14322619D01*
X55965476Y-14322619D01*
X56108333Y-14275000D01*
X56203571Y-14179761D01*
X56251190Y-14084523D01*
X56298809Y-13894047D01*
X56298809Y-13751190D01*
X56251190Y-13560714D01*
X56203571Y-13465476D01*
X56108333Y-13370238D01*
X55965476Y-13322619D01*
X55727380Y-13322619D01*
X57108333Y-13370238D02*
X57013095Y-13322619D01*
X56822619Y-13322619D01*
X56727380Y-13370238D01*
X56679761Y-13465476D01*
X56679761Y-13846428D01*
X56727380Y-13941666D01*
X56822619Y-13989285D01*
X57013095Y-13989285D01*
X57108333Y-13941666D01*
X57155952Y-13846428D01*
X57155952Y-13751190D01*
X56679761Y-13655952D01*
X57584523Y-13322619D02*
X57584523Y-14322619D01*
X57584523Y-13941666D02*
X57679761Y-13989285D01*
X57870238Y-13989285D01*
X57965476Y-13941666D01*
X58013095Y-13894047D01*
X58060714Y-13798809D01*
X58060714Y-13513095D01*
X58013095Y-13417857D01*
X57965476Y-13370238D01*
X57870238Y-13322619D01*
X57679761Y-13322619D01*
X57584523Y-13370238D01*
X58917857Y-13989285D02*
X58917857Y-13322619D01*
X58489285Y-13989285D02*
X58489285Y-13465476D01*
X58536904Y-13370238D01*
X58632142Y-13322619D01*
X58775000Y-13322619D01*
X58870238Y-13370238D01*
X58917857Y-13417857D01*
X59822619Y-13989285D02*
X59822619Y-13179761D01*
X59775000Y-13084523D01*
X59727380Y-13036904D01*
X59632142Y-12989285D01*
X59489285Y-12989285D01*
X59394047Y-13036904D01*
X59822619Y-13370238D02*
X59727380Y-13322619D01*
X59536904Y-13322619D01*
X59441666Y-13370238D01*
X59394047Y-13417857D01*
X59346428Y-13513095D01*
X59346428Y-13798809D01*
X59394047Y-13894047D01*
X59441666Y-13941666D01*
X59536904Y-13989285D01*
X59727380Y-13989285D01*
X59822619Y-13941666D01*
X62021428Y-16171428D02*
X62021428Y-17671428D01*
X62021428Y-16957142D02*
X62878571Y-16957142D01*
X62878571Y-16171428D02*
X62878571Y-17671428D01*
X64092857Y-16957142D02*
X64307142Y-16885714D01*
X64378571Y-16814285D01*
X64450000Y-16671428D01*
X64450000Y-16457142D01*
X64378571Y-16314285D01*
X64307142Y-16242857D01*
X64164285Y-16171428D01*
X63592857Y-16171428D01*
X63592857Y-17671428D01*
X64092857Y-17671428D01*
X64235714Y-17600000D01*
X64307142Y-17528571D01*
X64378571Y-17385714D01*
X64378571Y-17242857D01*
X64307142Y-17100000D01*
X64235714Y-17028571D01*
X64092857Y-16957142D01*
X63592857Y-16957142D01*
X65092857Y-16171428D02*
X65092857Y-17671428D01*
X65450000Y-17671428D01*
X65664285Y-17600000D01*
X65807142Y-17457142D01*
X65878571Y-17314285D01*
X65950000Y-17028571D01*
X65950000Y-16814285D01*
X65878571Y-16528571D01*
X65807142Y-16385714D01*
X65664285Y-16242857D01*
X65450000Y-16171428D01*
X65092857Y-16171428D01*
X73788095Y-13250000D02*
X73692857Y-13297619D01*
X73550000Y-13297619D01*
X73407142Y-13250000D01*
X73311904Y-13154761D01*
X73264285Y-13059523D01*
X73216666Y-12869047D01*
X73216666Y-12726190D01*
X73264285Y-12535714D01*
X73311904Y-12440476D01*
X73407142Y-12345238D01*
X73550000Y-12297619D01*
X73645238Y-12297619D01*
X73788095Y-12345238D01*
X73835714Y-12392857D01*
X73835714Y-12726190D01*
X73645238Y-12726190D01*
X74264285Y-12297619D02*
X74264285Y-13297619D01*
X74835714Y-12297619D01*
X74835714Y-13297619D01*
X75311904Y-12297619D02*
X75311904Y-13297619D01*
X75550000Y-13297619D01*
X75692857Y-13250000D01*
X75788095Y-13154761D01*
X75835714Y-13059523D01*
X75883333Y-12869047D01*
X75883333Y-12726190D01*
X75835714Y-12535714D01*
X75788095Y-12440476D01*
X75692857Y-12345238D01*
X75550000Y-12297619D01*
X75311904Y-12297619D01*
X73288095Y-10597619D02*
X73859523Y-10597619D01*
X73573809Y-9597619D02*
X73573809Y-10597619D01*
X74097619Y-10597619D02*
X74764285Y-9597619D01*
X74764285Y-10597619D02*
X74097619Y-9597619D01*
X72988095Y-15528571D02*
X73750000Y-15528571D01*
X73369047Y-15147619D02*
X73369047Y-15909523D01*
X74130952Y-16147619D02*
X74750000Y-16147619D01*
X74416666Y-15766666D01*
X74559523Y-15766666D01*
X74654761Y-15719047D01*
X74702380Y-15671428D01*
X74750000Y-15576190D01*
X74750000Y-15338095D01*
X74702380Y-15242857D01*
X74654761Y-15195238D01*
X74559523Y-15147619D01*
X74273809Y-15147619D01*
X74178571Y-15195238D01*
X74130952Y-15242857D01*
X75035714Y-16147619D02*
X75369047Y-15147619D01*
X75702380Y-16147619D01*
X75940476Y-16147619D02*
X76559523Y-16147619D01*
X76226190Y-15766666D01*
X76369047Y-15766666D01*
X76464285Y-15719047D01*
X76511904Y-15671428D01*
X76559523Y-15576190D01*
X76559523Y-15338095D01*
X76511904Y-15242857D01*
X76464285Y-15195238D01*
X76369047Y-15147619D01*
X76083333Y-15147619D01*
X75988095Y-15195238D01*
X75940476Y-15242857D01*
X74033333Y-7147619D02*
X73700000Y-7623809D01*
X73461904Y-7147619D02*
X73461904Y-8147619D01*
X73842857Y-8147619D01*
X73938095Y-8100000D01*
X73985714Y-8052380D01*
X74033333Y-7957142D01*
X74033333Y-7814285D01*
X73985714Y-7719047D01*
X73938095Y-7671428D01*
X73842857Y-7623809D01*
X73461904Y-7623809D01*
X74366666Y-8147619D02*
X75033333Y-7147619D01*
X75033333Y-8147619D02*
X74366666Y-7147619D01*
X74133333Y-20597619D02*
X73800000Y-21073809D01*
X73561904Y-20597619D02*
X73561904Y-21597619D01*
X73942857Y-21597619D01*
X74038095Y-21550000D01*
X74085714Y-21502380D01*
X74133333Y-21407142D01*
X74133333Y-21264285D01*
X74085714Y-21169047D01*
X74038095Y-21121428D01*
X73942857Y-21073809D01*
X73561904Y-21073809D01*
X74466666Y-21597619D02*
X75133333Y-20597619D01*
X75133333Y-21597619D02*
X74466666Y-20597619D01*
X73538095Y-23097619D02*
X74109523Y-23097619D01*
X73823809Y-22097619D02*
X73823809Y-23097619D01*
X74347619Y-23097619D02*
X75014285Y-22097619D01*
X75014285Y-23097619D02*
X74347619Y-22097619D01*
X73038095Y-24550000D02*
X72942857Y-24597619D01*
X72800000Y-24597619D01*
X72657142Y-24550000D01*
X72561904Y-24454761D01*
X72514285Y-24359523D01*
X72466666Y-24169047D01*
X72466666Y-24026190D01*
X72514285Y-23835714D01*
X72561904Y-23740476D01*
X72657142Y-23645238D01*
X72800000Y-23597619D01*
X72895238Y-23597619D01*
X73038095Y-23645238D01*
X73085714Y-23692857D01*
X73085714Y-24026190D01*
X72895238Y-24026190D01*
X73514285Y-23597619D02*
X73514285Y-24597619D01*
X74085714Y-23597619D01*
X74085714Y-24597619D01*
X74561904Y-23597619D02*
X74561904Y-24597619D01*
X74800000Y-24597619D01*
X74942857Y-24550000D01*
X75038095Y-24454761D01*
X75085714Y-24359523D01*
X75133333Y-24169047D01*
X75133333Y-24026190D01*
X75085714Y-23835714D01*
X75038095Y-23740476D01*
X74942857Y-23645238D01*
X74800000Y-23597619D01*
X74561904Y-23597619D01*
X71538095Y-25478571D02*
X72300000Y-25478571D01*
X71919047Y-25097619D02*
X71919047Y-25859523D01*
X72680952Y-26097619D02*
X73300000Y-26097619D01*
X72966666Y-25716666D01*
X73109523Y-25716666D01*
X73204761Y-25669047D01*
X73252380Y-25621428D01*
X73300000Y-25526190D01*
X73300000Y-25288095D01*
X73252380Y-25192857D01*
X73204761Y-25145238D01*
X73109523Y-25097619D01*
X72823809Y-25097619D01*
X72728571Y-25145238D01*
X72680952Y-25192857D01*
X73585714Y-26097619D02*
X73919047Y-25097619D01*
X74252380Y-26097619D01*
X74490476Y-26097619D02*
X75109523Y-26097619D01*
X74776190Y-25716666D01*
X74919047Y-25716666D01*
X75014285Y-25669047D01*
X75061904Y-25621428D01*
X75109523Y-25526190D01*
X75109523Y-25288095D01*
X75061904Y-25192857D01*
X75014285Y-25145238D01*
X74919047Y-25097619D01*
X74633333Y-25097619D01*
X74538095Y-25145238D01*
X74490476Y-25192857D01*
X77085714Y-18657142D02*
X77300000Y-18585714D01*
X77371428Y-18514285D01*
X77442857Y-18371428D01*
X77442857Y-18157142D01*
X77371428Y-18014285D01*
X77300000Y-17942857D01*
X77157142Y-17871428D01*
X76585714Y-17871428D01*
X76585714Y-19371428D01*
X77085714Y-19371428D01*
X77228571Y-19300000D01*
X77300000Y-19228571D01*
X77371428Y-19085714D01*
X77371428Y-18942857D01*
X77300000Y-18800000D01*
X77228571Y-18728571D01*
X77085714Y-18657142D01*
X76585714Y-18657142D01*
X78085714Y-17871428D02*
X78085714Y-19371428D01*
X78585714Y-18300000D01*
X79085714Y-19371428D01*
X79085714Y-17871428D01*
X79728571Y-17942857D02*
X79942857Y-17871428D01*
X80300000Y-17871428D01*
X80442857Y-17942857D01*
X80514285Y-18014285D01*
X80585714Y-18157142D01*
X80585714Y-18300000D01*
X80514285Y-18442857D01*
X80442857Y-18514285D01*
X80300000Y-18585714D01*
X80014285Y-18657142D01*
X79871428Y-18728571D01*
X79800000Y-18800000D01*
X79728571Y-18942857D01*
X79728571Y-19085714D01*
X79800000Y-19228571D01*
X79871428Y-19300000D01*
X80014285Y-19371428D01*
X80371428Y-19371428D01*
X80585714Y-19300000D01*
X70788095Y-37597619D02*
X70788095Y-38597619D01*
X71121428Y-37883333D01*
X71454761Y-38597619D01*
X71454761Y-37597619D01*
X71788095Y-38597619D02*
X72359523Y-38597619D01*
X72073809Y-37597619D02*
X72073809Y-38597619D01*
X73073809Y-37645238D02*
X72978571Y-37597619D01*
X72788095Y-37597619D01*
X72692857Y-37645238D01*
X72645238Y-37740476D01*
X72645238Y-38121428D01*
X72692857Y-38216666D01*
X72788095Y-38264285D01*
X72978571Y-38264285D01*
X73073809Y-38216666D01*
X73121428Y-38121428D01*
X73121428Y-38026190D01*
X72645238Y-37930952D01*
X73550000Y-37597619D02*
X73550000Y-38264285D01*
X73550000Y-38169047D02*
X73597619Y-38216666D01*
X73692857Y-38264285D01*
X73835714Y-38264285D01*
X73930952Y-38216666D01*
X73978571Y-38121428D01*
X73978571Y-37597619D01*
X73978571Y-38121428D02*
X74026190Y-38216666D01*
X74121428Y-38264285D01*
X74264285Y-38264285D01*
X74359523Y-38216666D01*
X74407142Y-38121428D01*
X74407142Y-37597619D01*
X74883333Y-38264285D02*
X74883333Y-37264285D01*
X74883333Y-38216666D02*
X74978571Y-38264285D01*
X75169047Y-38264285D01*
X75264285Y-38216666D01*
X75311904Y-38169047D01*
X75359523Y-38073809D01*
X75359523Y-37788095D01*
X75311904Y-37692857D01*
X75264285Y-37645238D01*
X75169047Y-37597619D01*
X74978571Y-37597619D01*
X74883333Y-37645238D01*
X70907142Y-40847619D02*
X70907142Y-41847619D01*
X70907142Y-41371428D02*
X71478571Y-41371428D01*
X71478571Y-40847619D02*
X71478571Y-41847619D01*
X72383333Y-40847619D02*
X72383333Y-41371428D01*
X72335714Y-41466666D01*
X72240476Y-41514285D01*
X72050000Y-41514285D01*
X71954761Y-41466666D01*
X72383333Y-40895238D02*
X72288095Y-40847619D01*
X72050000Y-40847619D01*
X71954761Y-40895238D01*
X71907142Y-40990476D01*
X71907142Y-41085714D01*
X71954761Y-41180952D01*
X72050000Y-41228571D01*
X72288095Y-41228571D01*
X72383333Y-41276190D01*
X73002380Y-40847619D02*
X72907142Y-40895238D01*
X72859523Y-40990476D01*
X72859523Y-41847619D01*
X73526190Y-40847619D02*
X73430952Y-40895238D01*
X73383333Y-40990476D01*
X73383333Y-41847619D01*
X75240476Y-40942857D02*
X75192857Y-40895238D01*
X75050000Y-40847619D01*
X74954761Y-40847619D01*
X74811904Y-40895238D01*
X74716666Y-40990476D01*
X74669047Y-41085714D01*
X74621428Y-41276190D01*
X74621428Y-41419047D01*
X74669047Y-41609523D01*
X74716666Y-41704761D01*
X74811904Y-41800000D01*
X74954761Y-41847619D01*
X75050000Y-41847619D01*
X75192857Y-41800000D01*
X75240476Y-41752380D01*
X70907142Y-43097619D02*
X70907142Y-44097619D01*
X70907142Y-43621428D02*
X71478571Y-43621428D01*
X71478571Y-43097619D02*
X71478571Y-44097619D01*
X72383333Y-43097619D02*
X72383333Y-43621428D01*
X72335714Y-43716666D01*
X72240476Y-43764285D01*
X72050000Y-43764285D01*
X71954761Y-43716666D01*
X72383333Y-43145238D02*
X72288095Y-43097619D01*
X72050000Y-43097619D01*
X71954761Y-43145238D01*
X71907142Y-43240476D01*
X71907142Y-43335714D01*
X71954761Y-43430952D01*
X72050000Y-43478571D01*
X72288095Y-43478571D01*
X72383333Y-43526190D01*
X73002380Y-43097619D02*
X72907142Y-43145238D01*
X72859523Y-43240476D01*
X72859523Y-44097619D01*
X73526190Y-43097619D02*
X73430952Y-43145238D01*
X73383333Y-43240476D01*
X73383333Y-44097619D01*
X75002380Y-43621428D02*
X75145238Y-43573809D01*
X75192857Y-43526190D01*
X75240476Y-43430952D01*
X75240476Y-43288095D01*
X75192857Y-43192857D01*
X75145238Y-43145238D01*
X75050000Y-43097619D01*
X74669047Y-43097619D01*
X74669047Y-44097619D01*
X75002380Y-44097619D01*
X75097619Y-44050000D01*
X75145238Y-44002380D01*
X75192857Y-43907142D01*
X75192857Y-43811904D01*
X75145238Y-43716666D01*
X75097619Y-43669047D01*
X75002380Y-43621428D01*
X74669047Y-43621428D01*
X70978571Y-45347619D02*
X70978571Y-46347619D01*
X70978571Y-45871428D02*
X71550000Y-45871428D01*
X71550000Y-45347619D02*
X71550000Y-46347619D01*
X72454761Y-45347619D02*
X72454761Y-45871428D01*
X72407142Y-45966666D01*
X72311904Y-46014285D01*
X72121428Y-46014285D01*
X72026190Y-45966666D01*
X72454761Y-45395238D02*
X72359523Y-45347619D01*
X72121428Y-45347619D01*
X72026190Y-45395238D01*
X71978571Y-45490476D01*
X71978571Y-45585714D01*
X72026190Y-45680952D01*
X72121428Y-45728571D01*
X72359523Y-45728571D01*
X72454761Y-45776190D01*
X73073809Y-45347619D02*
X72978571Y-45395238D01*
X72930952Y-45490476D01*
X72930952Y-46347619D01*
X73597619Y-45347619D02*
X73502380Y-45395238D01*
X73454761Y-45490476D01*
X73454761Y-46347619D01*
X74692857Y-45633333D02*
X75169047Y-45633333D01*
X74597619Y-45347619D02*
X74930952Y-46347619D01*
X75264285Y-45347619D01*
X73038095Y-49050000D02*
X72942857Y-49097619D01*
X72800000Y-49097619D01*
X72657142Y-49050000D01*
X72561904Y-48954761D01*
X72514285Y-48859523D01*
X72466666Y-48669047D01*
X72466666Y-48526190D01*
X72514285Y-48335714D01*
X72561904Y-48240476D01*
X72657142Y-48145238D01*
X72800000Y-48097619D01*
X72895238Y-48097619D01*
X73038095Y-48145238D01*
X73085714Y-48192857D01*
X73085714Y-48526190D01*
X72895238Y-48526190D01*
X73514285Y-48097619D02*
X73514285Y-49097619D01*
X74085714Y-48097619D01*
X74085714Y-49097619D01*
X74561904Y-48097619D02*
X74561904Y-49097619D01*
X74800000Y-49097619D01*
X74942857Y-49050000D01*
X75038095Y-48954761D01*
X75085714Y-48859523D01*
X75133333Y-48669047D01*
X75133333Y-48526190D01*
X75085714Y-48335714D01*
X75038095Y-48240476D01*
X74942857Y-48145238D01*
X74800000Y-48097619D01*
X74561904Y-48097619D01*
X72264285Y-50978571D02*
X73026190Y-50978571D01*
X72645238Y-50597619D02*
X72645238Y-51359523D01*
X73978571Y-51597619D02*
X73502380Y-51597619D01*
X73454761Y-51121428D01*
X73502380Y-51169047D01*
X73597619Y-51216666D01*
X73835714Y-51216666D01*
X73930952Y-51169047D01*
X73978571Y-51121428D01*
X74026190Y-51026190D01*
X74026190Y-50788095D01*
X73978571Y-50692857D01*
X73930952Y-50645238D01*
X73835714Y-50597619D01*
X73597619Y-50597619D01*
X73502380Y-50645238D01*
X73454761Y-50692857D01*
X74311904Y-51597619D02*
X74645238Y-50597619D01*
X74978571Y-51597619D01*
X63140476Y-60097619D02*
X63711904Y-60097619D01*
X63426190Y-59097619D02*
X63426190Y-60097619D01*
X64045238Y-59097619D02*
X64045238Y-60097619D01*
X64045238Y-59621428D02*
X64616666Y-59621428D01*
X64616666Y-59097619D02*
X64616666Y-60097619D01*
X65664285Y-59097619D02*
X65330952Y-59573809D01*
X65092857Y-59097619D02*
X65092857Y-60097619D01*
X65473809Y-60097619D01*
X65569047Y-60050000D01*
X65616666Y-60002380D01*
X65664285Y-59907142D01*
X65664285Y-59764285D01*
X65616666Y-59669047D01*
X65569047Y-59621428D01*
X65473809Y-59573809D01*
X65092857Y-59573809D01*
X63688095Y-63000000D02*
X63592857Y-63047619D01*
X63450000Y-63047619D01*
X63307142Y-63000000D01*
X63211904Y-62904761D01*
X63164285Y-62809523D01*
X63116666Y-62619047D01*
X63116666Y-62476190D01*
X63164285Y-62285714D01*
X63211904Y-62190476D01*
X63307142Y-62095238D01*
X63450000Y-62047619D01*
X63545238Y-62047619D01*
X63688095Y-62095238D01*
X63735714Y-62142857D01*
X63735714Y-62476190D01*
X63545238Y-62476190D01*
X64164285Y-62047619D02*
X64164285Y-63047619D01*
X64735714Y-62047619D01*
X64735714Y-63047619D01*
X65211904Y-62047619D02*
X65211904Y-63047619D01*
X65450000Y-63047619D01*
X65592857Y-63000000D01*
X65688095Y-62904761D01*
X65735714Y-62809523D01*
X65783333Y-62619047D01*
X65783333Y-62476190D01*
X65735714Y-62285714D01*
X65688095Y-62190476D01*
X65592857Y-62095238D01*
X65450000Y-62047619D01*
X65211904Y-62047619D01*
X69978571Y-37514285D02*
X68478571Y-37514285D01*
X69192857Y-37514285D02*
X69192857Y-38371428D01*
X69978571Y-38371428D02*
X68478571Y-38371428D01*
X69550000Y-39014285D02*
X69550000Y-39728571D01*
X69978571Y-38871428D02*
X68478571Y-39371428D01*
X69978571Y-39871428D01*
X69978571Y-41085714D02*
X69978571Y-40371428D01*
X68478571Y-40371428D01*
X69978571Y-42300000D02*
X69978571Y-41585714D01*
X68478571Y-41585714D01*
X69907142Y-43871428D02*
X69978571Y-44085714D01*
X69978571Y-44442857D01*
X69907142Y-44585714D01*
X69835714Y-44657142D01*
X69692857Y-44728571D01*
X69550000Y-44728571D01*
X69407142Y-44657142D01*
X69335714Y-44585714D01*
X69264285Y-44442857D01*
X69192857Y-44157142D01*
X69121428Y-44014285D01*
X69050000Y-43942857D01*
X68907142Y-43871428D01*
X68764285Y-43871428D01*
X68621428Y-43942857D01*
X68550000Y-44014285D01*
X68478571Y-44157142D01*
X68478571Y-44514285D01*
X68550000Y-44728571D01*
X69192857Y-45371428D02*
X69192857Y-45871428D01*
X69978571Y-46085714D02*
X69978571Y-45371428D01*
X68478571Y-45371428D01*
X68478571Y-46085714D01*
X69978571Y-46728571D02*
X68478571Y-46728571D01*
X69978571Y-47585714D01*
X68478571Y-47585714D01*
X69907142Y-48228571D02*
X69978571Y-48442857D01*
X69978571Y-48800000D01*
X69907142Y-48942857D01*
X69835714Y-49014285D01*
X69692857Y-49085714D01*
X69550000Y-49085714D01*
X69407142Y-49014285D01*
X69335714Y-48942857D01*
X69264285Y-48800000D01*
X69192857Y-48514285D01*
X69121428Y-48371428D01*
X69050000Y-48300000D01*
X68907142Y-48228571D01*
X68764285Y-48228571D01*
X68621428Y-48300000D01*
X68550000Y-48371428D01*
X68478571Y-48514285D01*
X68478571Y-48871428D01*
X68550000Y-49085714D01*
X68478571Y-50014285D02*
X68478571Y-50300000D01*
X68550000Y-50442857D01*
X68692857Y-50585714D01*
X68978571Y-50657142D01*
X69478571Y-50657142D01*
X69764285Y-50585714D01*
X69907142Y-50442857D01*
X69978571Y-50300000D01*
X69978571Y-50014285D01*
X69907142Y-49871428D01*
X69764285Y-49728571D01*
X69478571Y-49657142D01*
X68978571Y-49657142D01*
X68692857Y-49728571D01*
X68550000Y-49871428D01*
X68478571Y-50014285D01*
X69978571Y-52157142D02*
X69264285Y-51657142D01*
X69978571Y-51300000D02*
X68478571Y-51300000D01*
X68478571Y-51871428D01*
X68550000Y-52014285D01*
X68621428Y-52085714D01*
X68764285Y-52157142D01*
X68978571Y-52157142D01*
X69121428Y-52085714D01*
X69192857Y-52014285D01*
X69264285Y-51871428D01*
X69264285Y-51300000D01*
X63014285Y-64728571D02*
X63776190Y-64728571D01*
X63395238Y-64347619D02*
X63395238Y-65109523D01*
X64728571Y-65347619D02*
X64252380Y-65347619D01*
X64204761Y-64871428D01*
X64252380Y-64919047D01*
X64347619Y-64966666D01*
X64585714Y-64966666D01*
X64680952Y-64919047D01*
X64728571Y-64871428D01*
X64776190Y-64776190D01*
X64776190Y-64538095D01*
X64728571Y-64442857D01*
X64680952Y-64395238D01*
X64585714Y-64347619D01*
X64347619Y-64347619D01*
X64252380Y-64395238D01*
X64204761Y-64442857D01*
X65061904Y-65347619D02*
X65395238Y-64347619D01*
X65728571Y-65347619D01*
X62371428Y-65728571D02*
X62371428Y-64871428D01*
X60871428Y-65300000D02*
X62371428Y-65300000D01*
X60871428Y-64371428D02*
X62371428Y-64371428D01*
X61657142Y-64371428D02*
X61657142Y-63514285D01*
X60871428Y-63514285D02*
X62371428Y-63514285D01*
X60871428Y-61942857D02*
X61585714Y-62442857D01*
X60871428Y-62800000D02*
X62371428Y-62800000D01*
X62371428Y-62228571D01*
X62300000Y-62085714D01*
X62228571Y-62014285D01*
X62085714Y-61942857D01*
X61871428Y-61942857D01*
X61728571Y-62014285D01*
X61657142Y-62085714D01*
X61585714Y-62228571D01*
X61585714Y-62800000D01*
X62371428Y-61014285D02*
X62371428Y-60728571D01*
X62300000Y-60585714D01*
X62157142Y-60442857D01*
X61871428Y-60371428D01*
X61371428Y-60371428D01*
X61085714Y-60442857D01*
X60942857Y-60585714D01*
X60871428Y-60728571D01*
X60871428Y-61014285D01*
X60942857Y-61157142D01*
X61085714Y-61300000D01*
X61371428Y-61371428D01*
X61871428Y-61371428D01*
X62157142Y-61300000D01*
X62300000Y-61157142D01*
X62371428Y-61014285D01*
X62371428Y-59942857D02*
X62371428Y-59085714D01*
X60871428Y-59514285D02*
X62371428Y-59514285D01*
X62371428Y-58800000D02*
X62371428Y-57942857D01*
X60871428Y-58371428D02*
X62371428Y-58371428D01*
X60871428Y-56728571D02*
X60871428Y-57442857D01*
X62371428Y-57442857D01*
X61657142Y-56228571D02*
X61657142Y-55728571D01*
X60871428Y-55514285D02*
X60871428Y-56228571D01*
X62371428Y-56228571D01*
X62371428Y-55514285D01*
D10*
X72050000Y-28800000D02*
X70300000Y-28050000D01*
X73050000Y-30050000D02*
X72050000Y-28800000D01*
D11*
X66633333Y-27597619D02*
X66633333Y-28597619D01*
X66871428Y-28597619D01*
X67014285Y-28550000D01*
X67109523Y-28454761D01*
X67157142Y-28359523D01*
X67204761Y-28169047D01*
X67204761Y-28026190D01*
X67157142Y-27835714D01*
X67109523Y-27740476D01*
X67014285Y-27645238D01*
X66871428Y-27597619D01*
X66633333Y-27597619D01*
X67585714Y-27883333D02*
X68061904Y-27883333D01*
X67490476Y-27597619D02*
X67823809Y-28597619D01*
X68157142Y-27597619D01*
X69061904Y-27692857D02*
X69014285Y-27645238D01*
X68871428Y-27597619D01*
X68776190Y-27597619D01*
X68633333Y-27645238D01*
X68538095Y-27740476D01*
X68490476Y-27835714D01*
X68442857Y-28026190D01*
X68442857Y-28169047D01*
X68490476Y-28359523D01*
X68538095Y-28454761D01*
X68633333Y-28550000D01*
X68776190Y-28597619D01*
X68871428Y-28597619D01*
X69014285Y-28550000D01*
X69061904Y-28502380D01*
X69442857Y-28502380D02*
X69490476Y-28550000D01*
X69585714Y-28597619D01*
X69823809Y-28597619D01*
X69919047Y-28550000D01*
X69966666Y-28502380D01*
X70014285Y-28407142D01*
X70014285Y-28311904D01*
X69966666Y-28169047D01*
X69395238Y-27597619D01*
X70014285Y-27597619D01*
X66383333Y-30597619D02*
X66383333Y-31597619D01*
X66621428Y-31597619D01*
X66764285Y-31550000D01*
X66859523Y-31454761D01*
X66907142Y-31359523D01*
X66954761Y-31169047D01*
X66954761Y-31026190D01*
X66907142Y-30835714D01*
X66859523Y-30740476D01*
X66764285Y-30645238D01*
X66621428Y-30597619D01*
X66383333Y-30597619D01*
X67335714Y-30883333D02*
X67811904Y-30883333D01*
X67240476Y-30597619D02*
X67573809Y-31597619D01*
X67907142Y-30597619D01*
X68811904Y-30692857D02*
X68764285Y-30645238D01*
X68621428Y-30597619D01*
X68526190Y-30597619D01*
X68383333Y-30645238D01*
X68288095Y-30740476D01*
X68240476Y-30835714D01*
X68192857Y-31026190D01*
X68192857Y-31169047D01*
X68240476Y-31359523D01*
X68288095Y-31454761D01*
X68383333Y-31550000D01*
X68526190Y-31597619D01*
X68621428Y-31597619D01*
X68764285Y-31550000D01*
X68811904Y-31502380D01*
X69764285Y-30597619D02*
X69192857Y-30597619D01*
X69478571Y-30597619D02*
X69478571Y-31597619D01*
X69383333Y-31454761D01*
X69288095Y-31359523D01*
X69192857Y-31311904D01*
X69788095Y-34450000D02*
X69692857Y-34497619D01*
X69550000Y-34497619D01*
X69407142Y-34450000D01*
X69311904Y-34354761D01*
X69264285Y-34259523D01*
X69216666Y-34069047D01*
X69216666Y-33926190D01*
X69264285Y-33735714D01*
X69311904Y-33640476D01*
X69407142Y-33545238D01*
X69550000Y-33497619D01*
X69645238Y-33497619D01*
X69788095Y-33545238D01*
X69835714Y-33592857D01*
X69835714Y-33926190D01*
X69645238Y-33926190D01*
X70264285Y-33497619D02*
X70264285Y-34497619D01*
X70835714Y-33497619D01*
X70835714Y-34497619D01*
X71311904Y-33497619D02*
X71311904Y-34497619D01*
X71550000Y-34497619D01*
X71692857Y-34450000D01*
X71788095Y-34354761D01*
X71835714Y-34259523D01*
X71883333Y-34069047D01*
X71883333Y-33926190D01*
X71835714Y-33735714D01*
X71788095Y-33640476D01*
X71692857Y-33545238D01*
X71550000Y-33497619D01*
X71311904Y-33497619D01*
X46502380Y-61026190D02*
X45502380Y-61026190D01*
X45502380Y-61407142D01*
X45550000Y-61502380D01*
X45597619Y-61550000D01*
X45692857Y-61597619D01*
X45835714Y-61597619D01*
X45930952Y-61550000D01*
X45978571Y-61502380D01*
X46026190Y-61407142D01*
X46026190Y-61026190D01*
X46502380Y-62026190D02*
X45502380Y-62026190D01*
X45978571Y-62026190D02*
X45978571Y-62597619D01*
X46502380Y-62597619D02*
X45502380Y-62597619D01*
X46216666Y-63026190D02*
X46216666Y-63502380D01*
X46502380Y-62930952D02*
X45502380Y-63264285D01*
X46502380Y-63597619D01*
X46454761Y-63883333D02*
X46502380Y-64026190D01*
X46502380Y-64264285D01*
X46454761Y-64359523D01*
X46407142Y-64407142D01*
X46311904Y-64454761D01*
X46216666Y-64454761D01*
X46121428Y-64407142D01*
X46073809Y-64359523D01*
X46026190Y-64264285D01*
X45978571Y-64073809D01*
X45930952Y-63978571D01*
X45883333Y-63930952D01*
X45788095Y-63883333D01*
X45692857Y-63883333D01*
X45597619Y-63930952D01*
X45550000Y-63978571D01*
X45502380Y-64073809D01*
X45502380Y-64311904D01*
X45550000Y-64454761D01*
X45978571Y-64883333D02*
X45978571Y-65216666D01*
X46502380Y-65359523D02*
X46502380Y-64883333D01*
X45502380Y-64883333D01*
X45502380Y-65359523D01*
X46407142Y-67121428D02*
X46454761Y-67073809D01*
X46502380Y-66930952D01*
X46502380Y-66835714D01*
X46454761Y-66692857D01*
X46359523Y-66597619D01*
X46264285Y-66550000D01*
X46073809Y-66502380D01*
X45930952Y-66502380D01*
X45740476Y-66550000D01*
X45645238Y-66597619D01*
X45550000Y-66692857D01*
X45502380Y-66835714D01*
X45502380Y-66930952D01*
X45550000Y-67073809D01*
X45597619Y-67121428D01*
X34502380Y-61026190D02*
X33502380Y-61026190D01*
X33502380Y-61407142D01*
X33550000Y-61502380D01*
X33597619Y-61550000D01*
X33692857Y-61597619D01*
X33835714Y-61597619D01*
X33930952Y-61550000D01*
X33978571Y-61502380D01*
X34026190Y-61407142D01*
X34026190Y-61026190D01*
X34502380Y-62026190D02*
X33502380Y-62026190D01*
X33978571Y-62026190D02*
X33978571Y-62597619D01*
X34502380Y-62597619D02*
X33502380Y-62597619D01*
X34216666Y-63026190D02*
X34216666Y-63502380D01*
X34502380Y-62930952D02*
X33502380Y-63264285D01*
X34502380Y-63597619D01*
X34454761Y-63883333D02*
X34502380Y-64026190D01*
X34502380Y-64264285D01*
X34454761Y-64359523D01*
X34407142Y-64407142D01*
X34311904Y-64454761D01*
X34216666Y-64454761D01*
X34121428Y-64407142D01*
X34073809Y-64359523D01*
X34026190Y-64264285D01*
X33978571Y-64073809D01*
X33930952Y-63978571D01*
X33883333Y-63930952D01*
X33788095Y-63883333D01*
X33692857Y-63883333D01*
X33597619Y-63930952D01*
X33550000Y-63978571D01*
X33502380Y-64073809D01*
X33502380Y-64311904D01*
X33550000Y-64454761D01*
X33978571Y-64883333D02*
X33978571Y-65216666D01*
X34502380Y-65359523D02*
X34502380Y-64883333D01*
X33502380Y-64883333D01*
X33502380Y-65359523D01*
X33978571Y-66883333D02*
X34026190Y-67026190D01*
X34073809Y-67073809D01*
X34169047Y-67121428D01*
X34311904Y-67121428D01*
X34407142Y-67073809D01*
X34454761Y-67026190D01*
X34502380Y-66930952D01*
X34502380Y-66550000D01*
X33502380Y-66550000D01*
X33502380Y-66883333D01*
X33550000Y-66978571D01*
X33597619Y-67026190D01*
X33692857Y-67073809D01*
X33788095Y-67073809D01*
X33883333Y-67026190D01*
X33930952Y-66978571D01*
X33978571Y-66883333D01*
X33978571Y-66550000D01*
X22502380Y-61097619D02*
X21502380Y-61097619D01*
X21502380Y-61478571D01*
X21550000Y-61573809D01*
X21597619Y-61621428D01*
X21692857Y-61669047D01*
X21835714Y-61669047D01*
X21930952Y-61621428D01*
X21978571Y-61573809D01*
X22026190Y-61478571D01*
X22026190Y-61097619D01*
X22502380Y-62097619D02*
X21502380Y-62097619D01*
X21978571Y-62097619D02*
X21978571Y-62669047D01*
X22502380Y-62669047D02*
X21502380Y-62669047D01*
X22216666Y-63097619D02*
X22216666Y-63573809D01*
X22502380Y-63002380D02*
X21502380Y-63335714D01*
X22502380Y-63669047D01*
X22454761Y-63954761D02*
X22502380Y-64097619D01*
X22502380Y-64335714D01*
X22454761Y-64430952D01*
X22407142Y-64478571D01*
X22311904Y-64526190D01*
X22216666Y-64526190D01*
X22121428Y-64478571D01*
X22073809Y-64430952D01*
X22026190Y-64335714D01*
X21978571Y-64145238D01*
X21930952Y-64050000D01*
X21883333Y-64002380D01*
X21788095Y-63954761D01*
X21692857Y-63954761D01*
X21597619Y-64002380D01*
X21550000Y-64050000D01*
X21502380Y-64145238D01*
X21502380Y-64383333D01*
X21550000Y-64526190D01*
X21978571Y-64954761D02*
X21978571Y-65288095D01*
X22502380Y-65430952D02*
X22502380Y-64954761D01*
X21502380Y-64954761D01*
X21502380Y-65430952D01*
X22216666Y-66573809D02*
X22216666Y-67050000D01*
X22502380Y-66478571D02*
X21502380Y-66811904D01*
X22502380Y-67145238D01*
X5716666Y-54597619D02*
X6050000Y-53597619D01*
X6383333Y-54597619D01*
X7050000Y-54121428D02*
X7192857Y-54073809D01*
X7240476Y-54026190D01*
X7288095Y-53930952D01*
X7288095Y-53788095D01*
X7240476Y-53692857D01*
X7192857Y-53645238D01*
X7097619Y-53597619D01*
X6716666Y-53597619D01*
X6716666Y-54597619D01*
X7050000Y-54597619D01*
X7145238Y-54550000D01*
X7192857Y-54502380D01*
X7240476Y-54407142D01*
X7240476Y-54311904D01*
X7192857Y-54216666D01*
X7145238Y-54169047D01*
X7050000Y-54121428D01*
X6716666Y-54121428D01*
X7716666Y-54597619D02*
X7716666Y-53788095D01*
X7764285Y-53692857D01*
X7811904Y-53645238D01*
X7907142Y-53597619D01*
X8097619Y-53597619D01*
X8192857Y-53645238D01*
X8240476Y-53692857D01*
X8288095Y-53788095D01*
X8288095Y-54597619D01*
X8716666Y-53645238D02*
X8859523Y-53597619D01*
X9097619Y-53597619D01*
X9192857Y-53645238D01*
X9240476Y-53692857D01*
X9288095Y-53788095D01*
X9288095Y-53883333D01*
X9240476Y-53978571D01*
X9192857Y-54026190D01*
X9097619Y-54073809D01*
X8907142Y-54121428D01*
X8811904Y-54169047D01*
X8764285Y-54216666D01*
X8716666Y-54311904D01*
X8716666Y-54407142D01*
X8764285Y-54502380D01*
X8811904Y-54550000D01*
X8907142Y-54597619D01*
X9145238Y-54597619D01*
X9288095Y-54550000D01*
X6538095Y-38800000D02*
X6442857Y-38847619D01*
X6300000Y-38847619D01*
X6157142Y-38800000D01*
X6061904Y-38704761D01*
X6014285Y-38609523D01*
X5966666Y-38419047D01*
X5966666Y-38276190D01*
X6014285Y-38085714D01*
X6061904Y-37990476D01*
X6157142Y-37895238D01*
X6300000Y-37847619D01*
X6395238Y-37847619D01*
X6538095Y-37895238D01*
X6585714Y-37942857D01*
X6585714Y-38276190D01*
X6395238Y-38276190D01*
X7014285Y-37847619D02*
X7014285Y-38847619D01*
X7585714Y-37847619D01*
X7585714Y-38847619D01*
X8061904Y-37847619D02*
X8061904Y-38847619D01*
X8300000Y-38847619D01*
X8442857Y-38800000D01*
X8538095Y-38704761D01*
X8585714Y-38609523D01*
X8633333Y-38419047D01*
X8633333Y-38276190D01*
X8585714Y-38085714D01*
X8538095Y-37990476D01*
X8442857Y-37895238D01*
X8300000Y-37847619D01*
X8061904Y-37847619D01*
D10*
X57310000Y-5965000D02*
X62190000Y-5965000D01*
X63360000Y-10435000D02*
X62310000Y-10435000D01*
X63360000Y-7935000D02*
X63360000Y-10435000D01*
X57190000Y-10435000D02*
X57190000Y-11425000D01*
X56140000Y-10435000D02*
X57190000Y-10435000D01*
X56140000Y-7935000D02*
X56140000Y-10435000D01*
X81800000Y-53900000D02*
X80550000Y-53900000D01*
X81800000Y-52650000D02*
X81800000Y-53900000D01*
X76300000Y-36750000D02*
X76300000Y-44800000D01*
X79250000Y-36750000D02*
X76300000Y-36750000D01*
X79250000Y-36000000D02*
X79250000Y-36750000D01*
X76300000Y-52850000D02*
X76300000Y-44800000D01*
X79250000Y-52850000D02*
X76300000Y-52850000D01*
X79250000Y-53600000D02*
X79250000Y-52850000D01*
X81500000Y-36000000D02*
X81500000Y-37800000D01*
X80750000Y-36000000D02*
X81500000Y-36000000D01*
X80750000Y-37800000D02*
X80750000Y-36000000D01*
X81500000Y-37800000D02*
X80750000Y-37800000D01*
X81500000Y-51800000D02*
X81500000Y-53600000D01*
X80750000Y-51800000D02*
X81500000Y-51800000D01*
X80750000Y-53600000D02*
X80750000Y-51800000D01*
X81500000Y-53600000D02*
X80750000Y-53600000D01*
X81500000Y-39300000D02*
X81500000Y-50300000D01*
X80750000Y-39300000D02*
X81500000Y-39300000D01*
X80750000Y-50300000D02*
X80750000Y-39300000D01*
X81500000Y-50300000D02*
X80750000Y-50300000D01*
X81510000Y-35990000D02*
X81510000Y-53610000D01*
X75540000Y-35990000D02*
X81510000Y-35990000D01*
X75540000Y-53610000D02*
X75540000Y-35990000D01*
X81510000Y-53610000D02*
X75540000Y-53610000D01*
X64740000Y-10312779D02*
X64740000Y-9987221D01*
X65760000Y-10312779D02*
X65760000Y-9987221D01*
D11*
X69950000Y-26400000D02*
X69950000Y-21000000D01*
X66950000Y-26400000D02*
X66950000Y-20900000D01*
X67950000Y-20900000D02*
X66950000Y-20900000D01*
D10*
X72460000Y-67310000D02*
X66490000Y-67310000D01*
X66490000Y-67310000D02*
X66490000Y-57190000D01*
X66490000Y-57190000D02*
X72460000Y-57190000D01*
X72460000Y-57190000D02*
X72460000Y-67310000D01*
X72450000Y-64000000D02*
X71700000Y-64000000D01*
X71700000Y-64000000D02*
X71700000Y-60500000D01*
X71700000Y-60500000D02*
X72450000Y-60500000D01*
X72450000Y-60500000D02*
X72450000Y-64000000D01*
X72450000Y-67300000D02*
X71700000Y-67300000D01*
X71700000Y-67300000D02*
X71700000Y-65500000D01*
X71700000Y-65500000D02*
X72450000Y-65500000D01*
X72450000Y-65500000D02*
X72450000Y-67300000D01*
X72450000Y-59000000D02*
X71700000Y-59000000D01*
X71700000Y-59000000D02*
X71700000Y-57200000D01*
X71700000Y-57200000D02*
X72450000Y-57200000D01*
X72450000Y-57200000D02*
X72450000Y-59000000D01*
X70200000Y-67300000D02*
X70200000Y-66550000D01*
X70200000Y-66550000D02*
X67250000Y-66550000D01*
X67250000Y-66550000D02*
X67250000Y-62250000D01*
X70200000Y-57200000D02*
X70200000Y-57950000D01*
X70200000Y-57950000D02*
X67250000Y-57950000D01*
X67250000Y-57950000D02*
X67250000Y-62250000D01*
X72750000Y-66350000D02*
X72750000Y-67600000D01*
X72750000Y-67600000D02*
X71500000Y-67600000D01*
X72460000Y-17860000D02*
X66490000Y-17860000D01*
X66490000Y-17860000D02*
X66490000Y-5240000D01*
X66490000Y-5240000D02*
X72460000Y-5240000D01*
X72460000Y-5240000D02*
X72460000Y-17860000D01*
X72450000Y-14550000D02*
X71700000Y-14550000D01*
X71700000Y-14550000D02*
X71700000Y-8550000D01*
X71700000Y-8550000D02*
X72450000Y-8550000D01*
X72450000Y-8550000D02*
X72450000Y-14550000D01*
X72450000Y-17850000D02*
X71700000Y-17850000D01*
X71700000Y-17850000D02*
X71700000Y-16050000D01*
X71700000Y-16050000D02*
X72450000Y-16050000D01*
X72450000Y-16050000D02*
X72450000Y-17850000D01*
X72450000Y-7050000D02*
X71700000Y-7050000D01*
X71700000Y-7050000D02*
X71700000Y-5250000D01*
X71700000Y-5250000D02*
X72450000Y-5250000D01*
X72450000Y-5250000D02*
X72450000Y-7050000D01*
X70200000Y-17850000D02*
X70200000Y-17100000D01*
X70200000Y-17100000D02*
X67250000Y-17100000D01*
X67250000Y-17100000D02*
X67250000Y-11550000D01*
X70200000Y-5250000D02*
X70200000Y-6000000D01*
X70200000Y-6000000D02*
X67250000Y-6000000D01*
X67250000Y-6000000D02*
X67250000Y-11550000D01*
X72750000Y-16900000D02*
X72750000Y-18150000D01*
X72750000Y-18150000D02*
X71500000Y-18150000D01*
X81800000Y-32950000D02*
X80550000Y-32950000D01*
X81800000Y-31700000D02*
X81800000Y-32950000D01*
X76300000Y-20800000D02*
X76300000Y-26350000D01*
X79250000Y-20800000D02*
X76300000Y-20800000D01*
X79250000Y-20050000D02*
X79250000Y-20800000D01*
X76300000Y-31900000D02*
X76300000Y-26350000D01*
X79250000Y-31900000D02*
X76300000Y-31900000D01*
X79250000Y-32650000D02*
X79250000Y-31900000D01*
X81500000Y-20050000D02*
X81500000Y-21850000D01*
X80750000Y-20050000D02*
X81500000Y-20050000D01*
X80750000Y-21850000D02*
X80750000Y-20050000D01*
X81500000Y-21850000D02*
X80750000Y-21850000D01*
X81500000Y-30850000D02*
X81500000Y-32650000D01*
X80750000Y-30850000D02*
X81500000Y-30850000D01*
X80750000Y-32650000D02*
X80750000Y-30850000D01*
X81500000Y-32650000D02*
X80750000Y-32650000D01*
X81500000Y-23350000D02*
X81500000Y-29350000D01*
X80750000Y-23350000D02*
X81500000Y-23350000D01*
X80750000Y-29350000D02*
X80750000Y-23350000D01*
X81500000Y-29350000D02*
X80750000Y-29350000D01*
X81510000Y-20040000D02*
X81510000Y-32660000D01*
X75540000Y-20040000D02*
X81510000Y-20040000D01*
X75540000Y-32660000D02*
X75540000Y-20040000D01*
X81510000Y-32660000D02*
X75540000Y-32660000D01*
D11*
X65657142Y-12257142D02*
X65704761Y-12209523D01*
X65752380Y-12066666D01*
X65752380Y-11971428D01*
X65704761Y-11828571D01*
X65609523Y-11733333D01*
X65514285Y-11685714D01*
X65323809Y-11638095D01*
X65180952Y-11638095D01*
X64990476Y-11685714D01*
X64895238Y-11733333D01*
X64800000Y-11828571D01*
X64752380Y-11971428D01*
X64752380Y-12066666D01*
X64800000Y-12209523D01*
X64847619Y-12257142D01*
X65085714Y-13114285D02*
X65752380Y-13114285D01*
X64704761Y-12876190D02*
X65419047Y-12638095D01*
X65419047Y-13257142D01*
X64752380Y-13542857D02*
X64752380Y-14209523D01*
X65752380Y-13780952D01*
X66202380Y-20011904D02*
X65202380Y-20011904D01*
X65202380Y-20250000D01*
X65250000Y-20392857D01*
X65345238Y-20488095D01*
X65440476Y-20535714D01*
X65630952Y-20583333D01*
X65773809Y-20583333D01*
X65964285Y-20535714D01*
X66059523Y-20488095D01*
X66154761Y-20392857D01*
X66202380Y-20250000D01*
X66202380Y-20011904D01*
X65202380Y-20916666D02*
X65202380Y-21535714D01*
X65583333Y-21202380D01*
X65583333Y-21345238D01*
X65630952Y-21440476D01*
X65678571Y-21488095D01*
X65773809Y-21535714D01*
X66011904Y-21535714D01*
X66107142Y-21488095D01*
X66154761Y-21440476D01*
X66202380Y-21345238D01*
X66202380Y-21059523D01*
X66154761Y-20964285D01*
X66107142Y-20916666D01*
M02*
